<svg xmlns="http://www.w3.org/2000/svg">
<defs>
<font id="GTAlpinaBetav6-Thin" horiz-adv-x="1654" >
  <font-face 
    font-family="GT Alpina Beta v6 Thin"
    font-weight="250"
    font-stretch="normal"
    units-per-em="2048"
    panose-1="0 0 3 0 0 0 0 0 0 0"
    ascent="1638"
    descent="-410"
    x-height="971"
    cap-height="1393"
    bbox="-659 -496 2832 1833"
    underline-thickness="102"
    underline-position="-307"
    unicode-range="U+000D-1F91E"
  />
<missing-glyph horiz-adv-x="1728" 
d="M1419 891q228 0 228 -176v-477q-95 65 -220 65q-51 0 -130 -20.5t-115 -20.5q-103 0 -103 94v185h-35q-73 0 -194.5 -37t-153.5 -37q-110 0 -110 88v184h-35q-160 0 -356 -80v-659h-74v1294q-39 24 -39 68q0 32 22 54t54 22t53.5 -22t21.5 -54q0 -45 -38 -68v-39
q171 74 337 74q123 0 179.5 -42t56.5 -134v-59q117 43 217 43q141 0 208 -46.5t67 -146.5v-78q92 25 159 25zM549 795q103 0 162 -27v381q0 66 -44 95.5t-141 29.5q-73 0 -165 -22.5t-166 -57.5v-475q202 76 354 76zM489 1157v25h119v-25q-24 -5 -37 -31l-88 -147v-66
q0 -23 8.5 -31.5t34.5 -11.5v-24h-149v24q25 3 34 12t9 31v60l-92 153q-10 18 -17 23.5t-18 7.5v25h143v-25q-30 -3 -37.5 -10.5t2.5 -26.5l62 -108l63 108q11 17 2.5 25.5t-39.5 11.5zM696 522q31 0 150.5 37t200.5 37q95 0 155 -29v373q0 74 -51.5 107.5t-165.5 33.5
q-122 0 -217 -45v-346q0 -30 -20 -51.5t-44.5 -30t-44.5 -22.5t-20 -31q0 -19 13 -26t44 -7zM971 1008q72 0 119 -50.5t47 -128.5t-47 -128t-119 -50t-119 50t-47 128t47 128.5t119 50.5zM971 686q41 0 66.5 39.5t25.5 103.5q0 65 -25.5 104.5t-66.5 39.5t-66.5 -39.5
t-25.5 -104.5q0 -64 25.5 -103.5t66.5 -39.5zM1589 328v383q0 65 -41 95t-129 30q-57 0 -159 -27v-336q0 -27 -20 -46t-43.5 -27t-43.5 -21.5t-20 -30.5q0 -31 51 -31q30 0 110.5 20.5t135.5 20.5q94 0 159 -30zM1507 700q0 -27 -19 -50t-71 -54l-31 -18h101v-48h-141v48
l43 30q38 27 49.5 42t11.5 34q0 45 -51 45q-59 0 -62 -65h-26q-3 110 100 110q46 0 71 -19.5t25 -54.5zM711 688q0 31 -72 45v-102q7 4 20.5 10t20.5 9.5t15.5 9.5t12 13t3.5 15zM1202 473q0 43 -69 59v-106q7 3 19.5 9t19.5 9t15 8t11.5 10t3.5 11zM1415 496q17 0 28 -11

<glyph glyph-name="fi" unicode="fi" horiz-adv-x="1282" 
d="M1038 201q0 -97 31 -122.5t141 -31.5v-47h-446v47q103 6 135.5 32.5t32.5 121.5v573q0 63 -18.5 78.5t-90.5 15.5h-444v-647q0 -55 7 -84.5t33 -50t67.5 -28t119.5 -11.5v-47h-534v47q69 3 105.5 10t59.5 27.5t29 50.5t6 86v647h-200v45l200 52q7 242 126 376t325 134
q134 0 215.5 -48.5t81.5 -126.5q0 -44 -27 -72t-71 -28q-64 0 -93 66q-9 20 -19 66.5t-19 64.5q-50 16 -103 16q-137 0 -224 -112t-87 -289v-41h563l57 12h41v-782z" />
    <glyph glyph-name="fl" unicode="fl" horiz-adv-x="1280" 
d="M1038 170q0 -29 1.5 -45.5t9 -31t16.5 -21t31 -12.5t45.5 -8t66.5 -5v-47h-444v47q103 8 135.5 28t32.5 95v1047q-26 -11 -49 -11q-61 0 -90 66q-6 13 -19 62.5t-29 70.5q-13 8 -65 8q-134 0 -218.5 -112t-84.5 -289v-41h299v-103h-297v-647q0 -55 8 -85t36.5 -50
t73.5 -27.5t128 -11.5v-47h-553v47q69 3 105.5 10t59.5 27.5t29 50.5t6 86v647h-200v45l200 52q7 243 123.5 376.5t319.5 133.5q123 0 196 -45l86 24h41v-1284z" />
    <glyph glyph-name="f_f" unicode="ff" horiz-adv-x="1447" 
d="M1374 1475q126 0 197 -45t71 -123q0 -44 -28 -72.5t-72 -28.5q-61 0 -90 66q-6 13 -19 62.5t-28 70.5q-13 8 -66 8q-134 0 -218.5 -112t-84.5 -289v-41h279v-103h-277v-647q0 -55 8.5 -85t40.5 -50t82.5 -27.5t145.5 -11.5v-47h-584v47q69 3 105.5 10t59.5 27.5
t29.5 50.5t6.5 86v647h-553v-647q0 -44 5.5 -70.5t18 -47.5t41 -31t67 -16t103.5 -9v-47h-542v47q69 3 105.5 10t59.5 27.5t29 50.5t6 86v647h-200v45l200 52q7 243 134 376.5t350 133.5q115 0 195.5 -37t105.5 -97q115 134 317 134zM377 971h555q6 131 39 221q-63 3 -82 65
q-6 17 -14.5 65.5t-18.5 68.5q-37 22 -135 22q-152 0 -248 -110t-96 -283v-49z" />
    <glyph glyph-name="f_f_i" unicode="ffi" horiz-adv-x="1941" 
d="M1698 201q0 -97 31 -122.5t141 -31.5v-47h-447v47q103 6 135.5 32.5t32.5 121.5v573q0 64 -18 79t-90 15h-445v-647q0 -55 7.5 -85t33.5 -50t67.5 -27.5t119.5 -11.5v-47h-535v47q69 3 105.5 10t59.5 27.5t29.5 50.5t6.5 86v647h-553v-647q0 -44 5.5 -70.5t18 -47.5
t41 -31t67 -16t103.5 -9v-47h-542v47q69 3 105.5 10t59.5 27.5t29 50.5t6 86v647h-200v45l200 52q7 243 134 376.5t350 133.5q116 0 196.5 -37.5t104.5 -98.5q121 136 325 136q134 0 215.5 -48.5t81.5 -126.5q0 -44 -27 -72t-71 -28q-63 0 -92 66q-9 20 -19.5 66.5
t-19.5 64.5q-50 16 -102 16q-137 0 -224.5 -112t-87.5 -289v-41h563l58 12h41v-782zM377 971h555q6 134 41 221q-62 3 -84 65q-6 17 -14.5 65.5t-18.5 68.5q-37 22 -135 22q-152 0 -248 -110t-96 -283v-49z" />
    <glyph glyph-name="f_f_l" unicode="ffl" horiz-adv-x="1939" 
d="M1698 170q0 -29 1.5 -45.5t9 -31t16.5 -21t31 -12.5t45.5 -8t66.5 -5v-47h-445v47q103 8 135.5 28t32.5 95v1047q-26 -11 -49 -11q-61 0 -90 66q-6 13 -19 62.5t-28 70.5q-13 8 -66 8q-134 0 -218.5 -112t-84.5 -289v-41h299v-103h-297v-647q0 -55 8 -85t36.5 -50
t73.5 -27.5t128 -11.5v-47h-553v47q69 3 105.5 10t59.5 27.5t29.5 50.5t6.5 86v647h-553v-647q0 -44 5.5 -70.5t18 -47.5t41 -31t67 -16t103.5 -9v-47h-542v47q69 3 105.5 10t59.5 27.5t29 50.5t6 86v647h-200v45l200 52q7 243 134 376.5t350 133.5q115 0 195.5 -37
t105.5 -97q115 134 317 134q124 0 197 -45l86 24h41v-1284zM377 971h555q6 131 39 221q-63 3 -82 65q-6 17 -14.5 65.5t-18.5 68.5q-37 22 -135 22q-152 0 -248 -110t-96 -283v-49z" />
    <glyph glyph-name="f_b.liga" unicode="fb" horiz-adv-x="1822" 
d="M1358 995q168 0 270.5 -132t102.5 -353q0 -259 -116.5 -399t-303.5 -140q-94 0 -170 30.5t-123 84.5l-37 -92h-49v1223q-26 -11 -49 -11q-61 0 -90 66q-6 13 -19 62.5t-29 70.5q-13 8 -65 8q-134 0 -218.5 -112t-84.5 -289v-41h278v-103h-276v-647q0 -37 3.5 -60.5
t15 -44t29 -31.5t50.5 -19.5t74 -12t104 -6.5v-47h-583v47q69 3 105.5 10t59.5 27.5t29 50.5t6 86v647h-200v45l200 52q7 243 123.5 376.5t319.5 133.5q123 0 196 -45l86 24h41v-655q119 196 320 196zM1323 37q137 0 213 111t76 319q0 195 -77 307.5t-208 112.5
q-81 0 -150 -38.5t-139 -125.5v-369q0 -156 76 -236.5t209 -80.5z" />
    <glyph glyph-name="f_f_b.liga" unicode="ffb" horiz-adv-x="2482" 
d="M2017 995q168 0 270.5 -132t102.5 -353q0 -259 -116.5 -399t-303.5 -140q-94 0 -170 30.5t-123 84.5l-37 -92h-49v1223q-26 -11 -49 -11q-61 0 -90 66q-6 13 -19 62.5t-28 70.5q-13 8 -66 8q-134 0 -218.5 -112t-84.5 -289v-41h279v-103h-277v-647q0 -55 8.5 -85
t40.5 -50t82.5 -27.5t145.5 -11.5v-47h-584v47q69 3 105.5 10t59.5 27.5t29.5 50.5t6.5 86v647h-553v-647q0 -44 5.5 -70.5t18 -47.5t41 -31t67 -16t103.5 -9v-47h-542v47q69 3 105.5 10t59.5 27.5t29 50.5t6 86v647h-200v45l200 52q7 243 134 376.5t350 133.5
q115 0 195.5 -37t105.5 -97q115 134 317 134q124 0 197 -45l86 24h41v-655q119 196 319 196zM377 971h555q6 131 39 221q-63 3 -82 65q-6 17 -14.5 65.5t-18.5 68.5q-37 22 -135 22q-152 0 -248 -110t-96 -283v-49zM1982 37q137 0 213 111t76 319q0 196 -76.5 308
t-207.5 112q-81 0 -150 -38.5t-139 -125.5v-369q0 -156 75.5 -236.5t208.5 -80.5z" />
    <glyph glyph-name="f_f_h.liga" unicode="ffh" horiz-adv-x="2527" 
d="M2316 186q0 -85 24.5 -107.5t125.5 -31.5v-47h-426v47q43 3 67 5.5t46 9t31 14t16 24t8.5 35t1.5 51.5v430q0 132 -60 204.5t-170 72.5q-81 0 -147.5 -40t-134.5 -130v-545q0 -32 1 -50t8 -33.5t14 -22t28 -12.5t40 -8t60 -5v-47h-419v47q42 4 62 6.5t43.5 10.5t33 21.5
t16 36t6.5 56.5v1039q-26 -11 -49 -11q-61 0 -90 66q-6 13 -19 62.5t-28 70.5q-13 8 -66 8q-134 0 -218.5 -112t-84.5 -289v-41h299v-103h-297v-647q0 -55 8 -85t36.5 -50t73.5 -27.5t128 -11.5v-47h-553v47q69 3 105.5 10t59.5 27.5t29.5 50.5t6.5 86v647h-553v-647
q0 -44 5.5 -70.5t18 -47.5t41 -31t67 -16t103.5 -9v-47h-542v47q69 3 105.5 10t59.5 27.5t29 50.5t6 86v647h-200v45l200 52q7 243 134 376.5t350 133.5q115 0 195.5 -37t105.5 -97q115 134 317 134q124 0 197 -45l86 24h41v-655q61 101 137 148.5t174 47.5q143 0 225 -92
t82 -252v-465zM377 971h555q6 131 39 221q-63 3 -82 65q-6 17 -14.5 65.5t-18.5 68.5q-37 22 -135 22q-152 0 -248 -110t-96 -283v-49z" />
    <glyph glyph-name="f_f_j.liga" unicode="ffj" horiz-adv-x="1892" 
d="M1657 983h41v-879q0 -254 -74 -400t-213 -146q-97 0 -150 37t-53 104q0 45 26.5 69.5t70.5 24.5q33 0 53 -17.5t29 -41.5t25.5 -60t37.5 -61q141 28 141 467v694q0 64 -18 79t-90 15h-445v-647q0 -55 8.5 -85t40.5 -50t82.5 -27.5t145.5 -11.5v-47h-584v47q69 3 105.5 10
t59.5 27.5t29.5 50.5t6.5 86v647h-553v-647q0 -44 5.5 -70.5t18 -47.5t41 -31t67 -16t103.5 -9v-47h-542v47q69 3 105.5 10t59.5 27.5t29 50.5t6 86v647h-200v45l200 52q7 243 134 376.5t350 133.5q116 0 196.5 -37.5t104.5 -98.5q121 136 327 136q134 0 215.5 -48.5
t81.5 -126.5q0 -44 -27 -72t-71 -28q-63 0 -92 66q-9 20 -19.5 66.5t-19.5 64.5q-50 16 -102 16q-138 0 -226 -112t-88 -289v-41h549zM377 971h555q6 134 41 221q-62 3 -84 65q-6 17 -14.5 65.5t-18.5 68.5q-37 22 -135 22q-152 0 -248 -110t-96 -283v-49z" />
    <glyph glyph-name="f_f_k.liga" unicode="ffk" horiz-adv-x="2443" 
d="M2392 924q-58 -9 -115 -48t-186 -153l-184 -164l303 -371q60 -74 93.5 -101t88.5 -40v-47h-379v47q62 3 85.5 17t23.5 40q0 29 -64 105l-233 278l-127 -112v-197q0 -73 30 -98t123 -33v-47h-421v47q102 9 131.5 33t29.5 98v1039q-26 -11 -49 -11q-61 0 -90 66
q-6 13 -19 62.5t-28 70.5q-13 8 -66 8q-134 0 -218.5 -112t-84.5 -289v-41h299v-103h-297v-647q0 -55 8 -85t36.5 -50t73.5 -27.5t128 -11.5v-47h-553v47q69 3 105.5 10t59.5 27.5t29.5 50.5t6.5 86v647h-553v-647q0 -44 5.5 -70.5t18 -47.5t41 -31t67 -16t103.5 -9v-47
h-542v47q69 3 105.5 10t59.5 27.5t29 50.5t6 86v647h-200v45l200 52q7 243 134 376.5t350 133.5q115 0 195.5 -37t105.5 -97q115 134 317 134q124 0 197 -45l86 24h41v-989l362 317q62 54 62 95q0 24 -26.5 35t-88.5 12v47h385v-47zM377 971h555q6 131 39 221q-63 3 -82 65
q-6 17 -14.5 65.5t-18.5 68.5q-37 22 -135 22q-152 0 -248 -110t-96 -283v-49z" />
    <glyph glyph-name="f_h.liga" unicode="fh" horiz-adv-x="1867" 
d="M1657 186q0 -85 24 -107.5t125 -31.5v-47h-426v47q43 3 67 5.5t46 9t31 14t16 24t8.5 35t1.5 51.5v430q0 132 -59.5 204.5t-169.5 72.5q-82 0 -148.5 -40.5t-134.5 -129.5v-545q0 -32 1 -50t8 -33.5t14 -22t28.5 -12.5t40.5 -8t60 -5v-47h-420v47q35 3 52.5 5t40 7.5
t32.5 13.5t20 22t13.5 34t3.5 49v1039q-26 -11 -49 -11q-61 0 -90 66q-6 13 -19 62.5t-29 70.5q-13 8 -65 8q-134 0 -218.5 -112t-84.5 -289v-41h299v-103h-297v-647q0 -55 8 -85t36.5 -50t73.5 -27.5t128 -11.5v-47h-553v47q69 3 105.5 10t59.5 27.5t29 50.5t6 86v647h-200
v45l200 52q7 243 123.5 376.5t319.5 133.5q123 0 196 -45l86 24h41v-655q61 101 137 148.5t175 47.5q143 0 225 -92t82 -252v-465z" />
    <glyph glyph-name="f_j.liga" unicode="fj" horiz-adv-x="1232" 
d="M997 983h41v-879q0 -254 -74 -400t-212 -146q-97 0 -150 37t-53 104q0 45 26 69.5t70 24.5q33 0 53.5 -17.5t29 -41.5t25.5 -60t38 -61q141 28 141 467v694q0 63 -18.5 78.5t-90.5 15.5h-444v-647q0 -37 3.5 -60.5t15 -44t29 -31.5t50.5 -19.5t74 -12t104 -6.5v-47h-583
v47q69 3 105.5 10t59.5 27.5t29 50.5t6 86v647h-200v45l200 52q7 243 126.5 376.5t326.5 133.5q134 0 215.5 -48.5t81.5 -126.5q0 -44 -27 -72t-71 -28q-64 0 -93 66q-9 20 -19 66.5t-19 64.5q-50 16 -103 16q-138 0 -225.5 -112t-87.5 -289v-41h549z" />
    <glyph glyph-name="f_k.liga" unicode="fk" horiz-adv-x="1783" 
d="M1733 924q-58 -9 -115 -48t-186 -153l-185 -164l303 -371q59 -74 93.5 -101t89.5 -40v-47h-379v47q62 3 85 17t23 40q0 30 -63 105l-234 278l-127 -112v-197q0 -73 30.5 -98t123.5 -33v-47h-422v47q103 9 132.5 33t29.5 98v1039q-26 -11 -49 -11q-61 0 -90 66
q-6 13 -19 62.5t-29 70.5q-13 8 -65 8q-134 0 -218.5 -112t-84.5 -289v-41h299v-103h-297v-647q0 -55 8 -85t36.5 -50t73.5 -27.5t128 -11.5v-47h-553v47q69 3 105.5 10t59.5 27.5t29 50.5t6 86v647h-200v45l200 52q7 243 123.5 376.5t319.5 133.5q123 0 196 -45l86 24h41
v-989l363 317q61 53 61 95q0 24 -26 35t-88 12v47h385v-47z" />
    <glyph glyph-name="g_j.liga" unicode="gj" horiz-adv-x="1728" 
d="M1468 1411q44 0 74.5 -30.5t30.5 -75.5q0 -46 -30.5 -76.5t-74.5 -30.5t-74 30.5t-30 76.5t30 76t74 30zM518 995q84 0 152 -24h374v-103h-227q66 -81 66 -202q0 -149 -100.5 -239.5t-264.5 -90.5q-105 0 -188 39q-121 -67 -121 -156q0 -110 182 -110h387
q133 0 199.5 -59t66.5 -163q0 -155 -137 -242t-364 -87q-211 0 -336 73.5t-125 192.5q0 62 37 110t112 91q-54 23 -84 67t-30 101q0 122 164 210q-61 43 -94 111t-33 152q0 149 100 239t264 90zM1196 932l297 51h41v-940q0 -217 -59.5 -351t-169.5 -134q-88 0 -135.5 37
t-47.5 104q0 45 23.5 69.5t64.5 24.5q30 0 49 -19.5t27.5 -44.5t23 -60t33.5 -56q35 21 59.5 133.5t24.5 271.5v768q0 38 -6.5 57t-33 31.5t-68 15.5t-123.5 3v39zM526 401q104 0 172 63t68 185q0 121 -67.5 201t-188.5 80q-104 0 -172 -63t-68 -185q0 -121 67.5 -201
t188.5 -80zM737 2h-385q-45 0 -76 8q-75 -78 -75 -170q0 -105 91 -161t255 -56q181 0 288 58.5t107 164.5q0 73 -52.5 114.5t-152.5 41.5z" />
    <glyph glyph-name="g_y.liga" unicode="gy" horiz-adv-x="2172" 
d="M518 995q84 0 152 -24h374v-103h-227q66 -81 66 -202q0 -149 -100.5 -239.5t-264.5 -90.5q-105 0 -188 39q-121 -67 -121 -156q0 -110 182 -110h387q133 0 199.5 -59t66.5 -163q0 -155 -137 -242t-364 -87q-211 0 -336 73.5t-125 192.5q0 62 37 110t112 91q-54 23 -84 67
t-30 101q0 122 164 210q-61 43 -94 111t-33 152q0 149 100 239t264 90zM1808 971h324v-47q-37 -3 -62.5 -37.5t-68.5 -138.5l-350 -848q-77 -186 -149 -263t-165 -77q-84 0 -134 40t-50 105q0 47 27.5 73.5t74.5 26.5q26 0 45 -11t31 -30t22 -39t25.5 -43.5t34.5 -39.5
q29 19 77 95.5t85 164.5l59 141l-297 721q-37 91 -64.5 124t-68.5 36v47h377v-47q-72 -3 -101.5 -21t-29.5 -59q0 -49 35 -133l209 -525l237 572q27 71 27 94q0 69 -150 72v47zM526 401q104 0 172 63t68 185q0 121 -67.5 201t-188.5 80q-104 0 -172 -63t-68 -185
q0 -121 67.5 -201t188.5 -80zM737 2h-385q-45 0 -76 8q-75 -78 -75 -170q0 -105 91 -161t255 -56q181 0 288 58.5t107 164.5q0 73 -52.5 114.5t-152.5 41.5z" />
    <glyph glyph-name="j_j.liga" unicode="jj" horiz-adv-x="1183" 
d="M332 1198q-44 0 -74.5 30.5t-30.5 76.5q0 45 30.5 75.5t74.5 30.5t74 -30t30 -76t-30 -76.5t-74 -30.5zM924 1198q-44 0 -74.5 30.5t-30.5 76.5q0 45 30.5 75.5t74.5 30.5t74 -30t30 -76t-30 -76.5t-74 -30.5zM111 -442q-97 0 -150 37t-53 104q0 45 26 69.5t70 24.5
q33 0 53.5 -17.5t29 -41.5t25.5 -60t38 -61q141 28 141 467v706q0 38 -6.5 57t-33.5 31.5t-68.5 15.5t-123.5 3v39l297 51h41v-879q0 -254 -74 -400t-212 -146zM702 -442q-97 0 -149.5 37t-52.5 104q0 45 26 69.5t70 24.5q33 0 53 -17.5t29 -41.5t25.5 -60t37.5 -61
q142 28 142 467v706q0 38 -6.5 57t-33.5 31.5t-68.5 15.5t-123.5 3v39l297 51h41v-879q0 -254 -74 -400t-213 -146z" />
    <glyph glyph-name=".notdef" horiz-adv-x="1728" 
d="M1419 891q228 0 228 -176v-477q-95 65 -220 65q-51 0 -130 -20.5t-115 -20.5q-103 0 -103 94v185h-35q-73 0 -194.5 -37t-153.5 -37q-110 0 -110 88v184h-35q-160 0 -356 -80v-659h-74v1294q-39 24 -39 68q0 32 22 54t54 22t53.5 -22t21.5 -54q0 -45 -38 -68v-39
q171 74 337 74q123 0 179.5 -42t56.5 -134v-59q117 43 217 43q141 0 208 -46.5t67 -146.5v-78q92 25 159 25zM549 795q103 0 162 -27v381q0 66 -44 95.5t-141 29.5q-73 0 -165 -22.5t-166 -57.5v-475q202 76 354 76zM489 1157v25h119v-25q-24 -5 -37 -31l-88 -147v-66
q0 -23 8.5 -31.5t34.5 -11.5v-24h-149v24q25 3 34 12t9 31v60l-92 153q-10 18 -17 23.5t-18 7.5v25h143v-25q-30 -3 -37.5 -10.5t2.5 -26.5l62 -108l63 108q11 17 2.5 25.5t-39.5 11.5zM696 522q31 0 150.5 37t200.5 37q95 0 155 -29v373q0 74 -51.5 107.5t-165.5 33.5
q-122 0 -217 -45v-346q0 -30 -20 -51.5t-44.5 -30t-44.5 -22.5t-20 -31q0 -19 13 -26t44 -7zM971 1008q72 0 119 -50.5t47 -128.5t-47 -128t-119 -50t-119 50t-47 128t47 128.5t119 50.5zM971 686q41 0 66.5 39.5t25.5 103.5q0 65 -25.5 104.5t-66.5 39.5t-66.5 -39.5
t-25.5 -104.5q0 -64 25.5 -103.5t66.5 -39.5zM1589 328v383q0 65 -41 95t-129 30q-57 0 -159 -27v-336q0 -27 -20 -46t-43.5 -27t-43.5 -21.5t-20 -30.5q0 -31 51 -31q30 0 110.5 20.5t135.5 20.5q94 0 159 -30zM1507 700q0 -27 -19 -50t-71 -54l-31 -18h101v-48h-141v48
l43 30q38 27 49.5 42t11.5 34q0 45 -51 45q-59 0 -62 -65h-26q-3 110 100 110q46 0 71 -19.5t25 -54.5zM711 688q0 31 -72 45v-102q7 4 20.5 10t20.5 9.5t15.5 9.5t12 13t3.5 15zM1202 473q0 43 -69 59v-106q7 3 19.5 9t19.5 9t15 8t11.5 10t3.5 11zM1415 496q17 0 28 -11
t11 -28t-11 -28t-28 -11q-15 0 -26 11t-11 28t11 28t26 11z" />
    <glyph glyph-name=".null" horiz-adv-x="0" 
 />
    <glyph glyph-name="nonmarkingreturn" horiz-adv-x="682" 
 />
    <glyph glyph-name="CR" unicode="&#xd;" horiz-adv-x="460" 
 />
    <glyph glyph-name="space" unicode=" " horiz-adv-x="460" 
 />
    <glyph glyph-name="exclam" unicode="!" horiz-adv-x="610" 
d="M375 1393l-39 -965h-62l-38 965h139zM305 -18q-42 0 -72 29t-30 75q0 43 30 71.5t72 28.5q44 0 74.5 -28.5t30.5 -71.5q0 -46 -30.5 -75t-74.5 -29z" />
    <glyph glyph-name="quotedbl" unicode="&#x22;" horiz-adv-x="448" 
d="M143 1454l-18 -559h-45l-19 559h82zM387 1454l-18 -559h-45l-19 559h82z" />
    <glyph glyph-name="numbersign" unicode="#" horiz-adv-x="1234" 
d="M1174 965h-252l-131 -459h262v-45h-275l-133 -461h-53l133 461h-350l-133 -461h-54l134 461h-261v45h273l131 459h-283v45h295l111 383h53l-111 -383h351l110 383h53l-110 -383h240v-45zM737 506l131 459h-350l-131 -459h350z" />
    <glyph glyph-name="dollar" unicode="$" horiz-adv-x="1005" 
d="M831 958q-15 124 -53 198.5t-106 109.5l-68 -578l41 -22q116 -65 172.5 -152t56.5 -205q0 -156 -92 -243.5t-260 -90.5l-24 -202h-33l24 202q-71 3 -116 11l-25 -213h-33l25 217q-91 16 -211 73v316h53q15 -126 55 -202t113 -111l66 577l-47 27q-116 66 -173 152t-57 204
q0 158 95.5 246t265.5 88l20 176h33l-21 -176q78 -4 115 -10l23 186h32l-22 -193q83 -15 205 -71v-314h-54zM424 791l8 -7l62 516q-124 0 -192.5 -60t-68.5 -173q0 -92 47.5 -156t143.5 -120zM573 707l66 573q-57 17 -113 20l-63 -532zM381 53q49 -15 115 -18l61 528
l-111 62zM590 545l-2 2l-60 -512q121 2 186.5 61.5t65.5 171.5q0 93 -47 157t-143 120z" />
    <glyph glyph-name="percent" unicode="%" horiz-adv-x="1370" 
d="M322 762q-121 0 -191 84t-70 246q0 161 70 245t191 84t190.5 -83.5t69.5 -245.5t-70 -246t-190 -84zM248 0l815 1393h57l-815 -1393h-57zM322 842q92 0 147 71t55 179t-55 178.5t-147 70.5t-147.5 -70.5t-55.5 -178.5t55.5 -179t147.5 -71zM1049 -29q-121 0 -191 84
t-70 246t70 246t191 84q120 0 190 -84t70 -246t-70 -246t-190 -84zM1049 51q92 0 147 71t55 179t-55 179t-147 71t-147.5 -71t-55.5 -179t55.5 -179t147.5 -71z" />
    <glyph glyph-name="ampersand" unicode="&#x26;" horiz-adv-x="1349" 
d="M1319 772q-80 0 -112.5 -30t-45.5 -117q-37 -231 -127 -367l23 -20q87 -78 142.5 -120.5t119.5 -76.5v-41h-174l-178 162q-68 -89 -180.5 -139t-247.5 -50q-221 0 -349.5 95.5t-128.5 259.5q0 136 85 227.5t245 128.5q-129 119 -186.5 212.5t-57.5 186.5q0 157 104 247.5
t284 90.5q195 0 305 -88t110 -243q0 -143 -101.5 -251t-285.5 -159l426 -383q72 141 72 309q0 88 -21.5 127t-70.5 39v51h350v-51zM252 1120q0 -162 207 -348l65 -59q310 112 310 377q0 126 -80.5 198t-218.5 72q-126 0 -204.5 -66.5t-78.5 -173.5zM557 39q224 0 367 162
l-496 450q-127 -51 -185.5 -124t-58.5 -181q0 -136 103.5 -221.5t269.5 -85.5z" />
    <glyph glyph-name="quotesingle" unicode="'" horiz-adv-x="204" 
d="M143 1454l-18 -559h-45l-19 559h82z" />
    <glyph glyph-name="parenleft" unicode="(" horiz-adv-x="583" 
d="M500 -434q-171 190 -264 448t-93 533t93 533t264 448l32 -31q-282 -382 -282 -950t282 -950z" />
    <glyph glyph-name="parenright" unicode=")" horiz-adv-x="583" 
d="M84 -434l-33 31q283 383 283 950t-283 950l33 31q171 -190 263.5 -448t92.5 -533t-92.5 -533t-263.5 -448z" />
    <glyph glyph-name="asterisk" unicode="*" horiz-adv-x="786" 
d="M383 1192l-29 186q-15 82 39 82q49 0 37 -82l-31 -186h-16zM453 1159l-13 15l129 139q56 59 90 20q14 -23 4 -40t-45 -40zM332 1159l-164 94q-38 20 -48 37t9 43q28 40 84 -22l129 -140zM637 1030l-176 68l4 18l186 -12q42 -2 60.5 -16.5t11.5 -40.5q-6 -27 -27.5 -30
t-58.5 13zM150 1026q-76 -31 -87 21q-7 24 11.5 37.5t60.5 15.5l187 14l6 -18zM246 817q-24 14 -22.5 33t24.5 55l106 158l17 -10l-56 -179q-11 -41 -27.5 -55.5t-41.5 -1.5zM541 815q-45 -23 -68 59l-57 179l16 10l107 -156q50 -68 2 -92z" />
    <glyph glyph-name="plus" unicode="+" horiz-adv-x="1187" 
d="M1053 631v-62h-428v-428h-62v428h-428v62h428v428h62v-428h428z" />
    <glyph glyph-name="comma" unicode="," horiz-adv-x="534" 
d="M117 -268v43q94 1 149.5 69.5t50.5 171.5q-32 -28 -81 -28q-45 0 -73 26t-28 68q0 45 31.5 73.5t79.5 28.5q59 0 92 -44.5t33 -123.5q0 -127 -69.5 -205.5t-184.5 -78.5z" />
    <glyph glyph-name="hyphen" unicode="-" horiz-adv-x="737" 
d="M635 588v-94h-533v94h533z" />
    <glyph glyph-name="period" unicode="." horiz-adv-x="534" 
d="M266 -18q-42 0 -72 29t-30 75q0 43 30 71.5t72 28.5q44 0 74.5 -28.5t30.5 -71.5q0 -46 -30.5 -75t-74.5 -29z" />
    <glyph glyph-name="slash" unicode="/" horiz-adv-x="1001" 
d="M911 1536h70l-891 -1679h-70z" />
    <glyph glyph-name="zero" unicode="0" horiz-adv-x="1189" 
d="M596 1421q238 0 364.5 -187.5t126.5 -537.5t-126.5 -537.5t-364.5 -187.5q-239 0 -366.5 186.5t-127.5 538.5t127.5 538.5t366.5 186.5zM596 1290q-192 0 -308 -162.5t-116 -431.5t116 -431.5t308 -162.5t307 162.5t115 431.5t-115 431.5t-307 162.5z" />
    <glyph glyph-name="one" unicode="1" horiz-adv-x="829" 
d="M477 176q0 -35 5.5 -56t18 -36t41 -22.5t65 -11t100.5 -5.5v-45h-574v45q66 2 103.5 5.5t67.5 11t42.5 22.5t18.5 36t6 56v1108l-221 -151v106l221 154h106v-1217z" />
    <glyph glyph-name="two" unicode="2" horiz-adv-x="1071" 
d="M897 487h61v-487h-841v115l229 225q102 101 160.5 161.5t121.5 135t94.5 129.5t52 118.5t20.5 127.5q0 139 -86 224t-224 85q-150 0 -234.5 -89.5t-96.5 -260.5h-62q0 220 107.5 335t312.5 115q191 0 302.5 -106.5t111.5 -284.5q0 -52 -10 -99.5t-24.5 -88t-49.5 -91.5
t-65 -89.5t-93 -103t-111.5 -112t-140.5 -135.5l-207 -196h455q36 0 59 1.5t46 8t36 16.5t26.5 30.5t20 45.5t13 66t10 88.5t6.5 115.5z" />
    <glyph glyph-name="three" unicode="3" horiz-adv-x="1087" 
d="M567 793q208 0 326.5 -108.5t118.5 -303.5q0 -183 -127.5 -296.5t-333.5 -113.5q-198 0 -318 70.5t-120 187.5q0 57 29.5 91t80.5 34q38 0 63 -18.5t31 -52.5q5 -29 5.5 -97t5.5 -104q89 -45 211 -45q164 0 262 86.5t98 232.5q0 316 -371 316q-69 0 -188 -17v121l496 502
h-439q-33 0 -54.5 -1.5t-42 -7.5t-32 -14t-22.5 -25.5t-16 -37.5t-10 -55t-7 -72t-4 -94h-62v422h799v-115l-495 -494q61 9 116 9z" />
    <glyph glyph-name="four" unicode="4" horiz-adv-x="1124" 
d="M1073 575v-104h-274v-471h-111v471h-657v104l657 818h111v-818h274zM131 575h557v695z" />
    <glyph glyph-name="five" unicode="5" horiz-adv-x="1024" 
d="M483 842q219 0 339 -113t120 -313q0 -209 -128 -327t-347 -118q-172 0 -283.5 71t-111.5 185q0 58 30 91.5t84 33.5q73 0 90 -71q6 -27 6 -97.5t5 -103.5q87 -43 188 -43q163 0 255.5 91t92.5 259q0 163 -90 251.5t-262 88.5q-122 0 -301 -51l53 717h484q75 0 100.5 11.5
t32.5 49.5h61l-14 -176h-604l-35 -471q112 35 235 35z" />
    <glyph glyph-name="six" unicode="6" horiz-adv-x="1099" 
d="M594 -29q-239 0 -370.5 164.5t-131.5 462.5q0 381 189 602t514 221q84 0 133 -10v-68q-54 7 -125 7q-275 0 -431 -194t-153 -531q113 229 393 229q192 0 314.5 -119t122.5 -305q0 -206 -125.5 -332.5t-329.5 -126.5zM596 37q154 0 240 98t86 271q0 164 -93 265t-245 101
q-163 0 -260 -101t-97 -270q0 -166 101 -265t268 -99z" />
    <glyph glyph-name="seven" unicode="7" horiz-adv-x="999" 
d="M61 1393h877v-115l-561 -1278h-94l561 1278h-529q-45 0 -71 -2.5t-48.5 -16.5t-33 -30t-19.5 -57t-12 -81.5t-8 -119.5h-62v422z" />
    <glyph glyph-name="eight" unicode="8" horiz-adv-x="1105" 
d="M721 668q147 -78 208.5 -157t61.5 -189q0 -161 -116.5 -256t-319.5 -95q-208 0 -330.5 95t-122.5 251q0 263 349 373l-66 35q-147 78 -208.5 157t-61.5 189q0 161 116.5 255.5t319.5 94.5q208 0 330.5 -95t122.5 -251q0 -263 -349 -373zM227 1106q0 -98 49 -163.5
t166 -127.5l150 -80q138 36 215.5 122t77.5 214q0 133 -90.5 209t-251.5 76q-150 0 -233 -67t-83 -183zM563 37q150 0 233 67t83 183q0 98 -49 163.5t-166 127.5l-150 79q-138 -36 -215.5 -121.5t-77.5 -213.5q0 -133 90.5 -209t251.5 -76z" />
    <glyph glyph-name="nine" unicode="9" horiz-adv-x="1083" 
d="M309 -8q-83 0 -159 10v70q58 -9 151 -9q266 0 416 187t147 518q-108 -229 -393 -229q-120 0 -217 50.5t-155 148t-58 225.5q0 205 125 331.5t328 126.5q237 0 367 -163.5t130 -462.5q0 -378 -184 -590.5t-498 -212.5zM500 621q160 0 258 99.5t98 270.5q0 167 -100 266
t-264 99q-153 0 -238.5 -99t-85.5 -270q0 -170 94 -268t238 -98z" />
    <glyph glyph-name="colon" unicode=":" horiz-adv-x="534" 
d="M266 688q-42 0 -72 29.5t-30 75.5q0 43 30 71.5t72 28.5q44 0 74.5 -28.5t30.5 -71.5q0 -46 -30.5 -75.5t-74.5 -29.5zM266 -18q-42 0 -72 29t-30 75q0 43 30 71.5t72 28.5q44 0 74.5 -28.5t30.5 -71.5q0 -46 -30.5 -75t-74.5 -29z" />
    <glyph glyph-name="semicolon" unicode=";" horiz-adv-x="534" 
d="M256 688q-42 0 -72 29.5t-30 75.5q0 43 30 71.5t72 28.5q44 0 74 -28t30 -72q0 -46 -30 -75.5t-74 -29.5zM117 -268v43q94 1 149.5 69.5t50.5 171.5q-32 -28 -81 -28q-45 0 -73 26t-28 68q0 45 31.5 73.5t79.5 28.5q59 0 92 -44.5t33 -123.5q0 -127 -69.5 -205.5
t-184.5 -78.5z" />
    <glyph glyph-name="less" unicode="&#x3c;" horiz-adv-x="1187" 
d="M1053 1008v-70l-826 -320l826 -319v-70l-918 359v61z" />
    <glyph glyph-name="equal" unicode="=" horiz-adv-x="1187" 
d="M135 743v62h918v-62h-918zM135 395v62h918v-62h-918z" />
    <glyph glyph-name="greater" unicode="&#x3e;" horiz-adv-x="1187" 
d="M135 1008l918 -359v-61l-918 -359v70l826 319l-826 320v70z" />
    <glyph glyph-name="question" unicode="?" horiz-adv-x="915" 
d="M455 637l-121 -88h411v-115h-518v115l150 113q185 139 254 229.5t69 193.5q0 109 -67 169.5t-187 60.5q-294 0 -303 -344h-61q-9 218 92 334t299 116q169 0 265 -82.5t96 -228.5q0 -115 -78 -212.5t-301 -260.5zM487 186q44 0 74.5 -28.5t30.5 -71.5q0 -46 -30.5 -75
t-74.5 -29q-42 0 -72 29t-30 75q0 43 30 71.5t72 28.5z" />
    <glyph glyph-name="at" unicode="@" horiz-adv-x="2035" 
d="M1423 -20q-90 0 -146 58.5t-56 149.5v7q-103 -224 -301 -224q-112 0 -179 58.5t-67 160.5q0 101 71.5 165t210.5 110l265 88v106q0 130 -58 189t-170 59q-66 0 -134.5 -19.5t-119.5 -51.5q7 -34 30.5 -64t42.5 -57.5t19 -61.5q0 -43 -29 -70.5t-73 -27.5q-51 0 -82 36
t-31 95q0 77 62 149.5t158.5 116t193.5 43.5q141 0 219 -78.5t78 -238.5v-428q0 -102 33.5 -145.5t97.5 -43.5q110 0 204 78.5t148 208.5t54 277q0 166 -61 304.5t-168 233.5t-256.5 148t-323.5 53q-253 0 -454 -113t-314 -315t-113 -457q0 -190 63.5 -351t176 -274.5
t273.5 -177t351 -63.5q300 0 537 164l31 -45q-146 -92 -279.5 -133t-282.5 -41q-206 0 -379.5 67t-294.5 186.5t-189 291.5t-68 376q0 272 121 487t336.5 335t486.5 120q252 0 448 -96t307 -275.5t111 -416.5q0 -174 -65.5 -324t-181 -239.5t-253.5 -89.5zM950 66
q74 0 146.5 55.5t124.5 161.5v202l-217 -75q-106 -38 -158.5 -82.5t-52.5 -118.5q0 -69 40.5 -106t116.5 -37z" />
    <glyph glyph-name="A" unicode="A" horiz-adv-x="1409" 
d="M1167 297q56 -134 98.5 -186t102.5 -58v-53h-461v53q95 2 137.5 25t42.5 76q0 54 -36 139l-78 190h-586l-68 -166q-40 -101 -40 -159q0 -55 39 -79t128 -26v-53h-405v53q57 6 96.5 58t98.5 196l399 998l-43 106h119zM414 549h532l-270 655z" />
    <glyph glyph-name="B" unicode="B" horiz-adv-x="1310" 
d="M729 727q226 -3 342.5 -97t116.5 -272q0 -163 -124 -260.5t-333 -97.5h-629v53q126 3 161.5 39t35.5 160v885q0 48 -2 77t-10 53.5t-19 36.5t-34 21t-50.5 11t-72.5 3v54h563q230 0 349.5 -85t119.5 -249q0 -148 -106.5 -231.5t-307.5 -92.5v-8zM649 1335h-239v-579h84
q518 0 518 293q0 139 -93 212.5t-270 73.5zM672 47q191 0 289 78.5t98 232.5q0 68 -11.5 116.5t-41.5 87.5t-76 63t-121 40t-170 23t-229 8v-417q0 -134 55 -183t207 -49z" />
    <glyph glyph-name="C" unicode="C" horiz-adv-x="1521" 
d="M823 -29q-320 0 -515 197.5t-195 519.5q0 327 198.5 530t526.5 203q110 0 205.5 -21t151 -42t67.5 -21q17 0 27 15t18 51h61v-445h-61q-45 208 -157.5 301t-309.5 93q-278 0 -433 -169t-155 -476q0 -308 157.5 -487t424.5 -179q223 0 337.5 100.5t165.5 345.5h62
l-15 -387q-117 -62 -263 -95.5t-298 -33.5z" />
    <glyph glyph-name="D" unicode="D" horiz-adv-x="1550" 
d="M102 0v53q126 3 161.5 39t35.5 160v885q0 48 -2 77t-10 53.5t-19 36.5t-34 21t-50.5 11t-72.5 3v54h505q395 0 608.5 -183.5t213.5 -523.5q0 -327 -220.5 -506.5t-619.5 -179.5h-496zM621 57q307 0 494.5 173.5t187.5 453.5q0 302 -177.5 476.5t-484.5 174.5h-231v-1061
q0 -118 49 -167.5t162 -49.5z" />
    <glyph glyph-name="E" unicode="E" horiz-adv-x="1378" 
d="M1204 416h62l-29 -416h-1135v53q126 3 161.5 39t35.5 160v885q0 48 -2 77t-10 53.5t-19 36.5t-34 21t-50.5 11t-72.5 3v54h1110l18 -353h-61q-11 91 -30 146t-57.5 89.5t-93.5 47t-145 12.5h-442v-596h397q61 0 92.5 6.5t54 31.5t31 64.5t14.5 116.5h62v-495h-62
q-6 77 -14.5 116.5t-31 64.5t-54 31.5t-92.5 6.5h-397v-471q0 -96 33 -125t143 -29h334q136 0 196 76t88 283z" />
    <glyph glyph-name="F" unicode="F" horiz-adv-x="1310" 
d="M1221 1393l18 -353h-61q-11 90 -29.5 143.5t-56 89.5t-94 49t-148.5 13h-440v-596h397q61 0 92.5 6.5t54 31.5t31 64.5t14.5 116.5h62v-495h-62q-6 77 -14.5 116.5t-31 64.5t-54 31.5t-92.5 6.5h-397v-451q0 -47 8 -77.5t24 -50.5t50 -30t74.5 -14.5t109.5 -5.5v-53h-574
v53q69 2 107 10.5t59 34t26 58t5 96.5v885q0 48 -1.5 73t-7.5 52t-17 38t-33 22t-52 13.5t-77 3.5v54h1110z" />
    <glyph glyph-name="G" unicode="G" horiz-adv-x="1581" 
d="M836 -29q-161 0 -296.5 52.5t-229 146t-145.5 227t-52 291.5q0 216 89 382t255.5 258.5t386.5 92.5q83 0 161.5 -13t124 -29t83 -29t49.5 -13q17 0 27 15t18 51h63v-445h-61q-47 208 -159 301t-306 93q-281 0 -436.5 -171.5t-155.5 -484.5q0 -309 157.5 -482t438.5 -173
q201 0 306.5 72t105.5 188v145q0 30 -3.5 49t-11 36.5t-25 27.5t-40 18.5t-61.5 13t-84 7t-113 4.5v62h587v-62q-85 -4 -112 -38.5t-27 -137.5v-285q-102 -77 -226.5 -123.5t-307.5 -46.5z" />
    <glyph glyph-name="H" unicode="H" horiz-adv-x="1642" 
d="M1540 1339q-127 -1 -162 -33t-35 -145v-930q0 -113 35 -145t162 -33v-53h-493v53q45 1 72.5 3t50.5 9.5t33.5 17.5t18 32t9.5 47.5t2 68.5v451h-823v-451q0 -43 2 -68.5t9.5 -47.5t18 -32t33.5 -17.5t50.5 -9.5t72.5 -3v-53h-494v53q127 1 162 33t35 145v930
q0 113 -35 145t-162 33v54h494v-54q-45 -1 -72.5 -3t-50.5 -9.5t-33.5 -17.5t-18 -32t-9.5 -47.5t-2 -68.5v-413h823v413q0 43 -2 68.5t-9.5 47.5t-18 32t-33.5 17.5t-50.5 9.5t-72.5 3v54h493v-54z" />
    <glyph glyph-name="I" unicode="I" horiz-adv-x="684" 
d="M102 0v53q61 1 93 6.5t55 25t30 53t7 93.5v930q0 60 -7 93.5t-30 53t-55 25t-93 6.5v54h480v-54q-61 -1 -93 -6.5t-55 -25t-30 -53t-7 -93.5v-930q0 -60 7 -93.5t30 -53t55 -25t93 -6.5v-53h-480z" />
    <glyph glyph-name="J" unicode="J" horiz-adv-x="745" 
d="M170 -442q-92 0 -146.5 42.5t-54.5 114.5q0 49 28.5 80t72.5 31q43 0 67.5 -23.5t30.5 -53.5t17.5 -70t29.5 -62q87 25 127.5 159.5t40.5 399.5v993q0 42 -2 66t-13.5 45.5t-26 31t-49 16.5t-73 8.5t-106.5 2.5v54h540v-54q-46 -1 -71.5 -4.5t-45 -12.5t-27.5 -29.5
t-11.5 -48t-3.5 -75.5v-948q0 -315 -86 -489t-238 -174z" />
    <glyph glyph-name="K" unicode="K" horiz-adv-x="1400" 
d="M1360 1339q-57 -10 -116.5 -50t-168.5 -140l-411 -373l503 -586q60 -68 102 -99t91 -38v-53h-467v53q97 3 131.5 17t34.5 41q0 38 -55 100l-426 487l-168 -151v-322q0 -58 5.5 -88t27 -50t55.5 -26t98 -8v-53h-494v53q126 3 161.5 39t35.5 160v885q0 48 -2 77t-10 53.5
t-19 36.5t-34 21t-50.5 11t-72.5 3v54h485v-54q-67 -2 -100 -7t-54.5 -25t-26.5 -49.5t-5 -88.5v-518l551 498q86 77 86 123q0 61 -146 67v54h459v-54z" />
    <glyph glyph-name="L" unicode="L" horiz-adv-x="1304" 
d="M102 0v53q69 2 107 10.5t59 34t26 58t5 96.5v885q0 48 -1.5 73t-7.5 52t-17 38t-33 22t-52 13.5t-77 3.5v54h495v-54q-47 -1 -77.5 -5t-53.5 -14.5t-35 -23.5t-19 -39t-9 -54t-2 -75v-884q0 -122 32.5 -154.5t153.5 -32.5h264q60 0 99 10.5t71.5 35.5t56 77t43 122.5
t41.5 184.5h62l-53 -487h-1078z" />
    <glyph glyph-name="M" unicode="M" horiz-adv-x="1904" 
d="M1642 262q8 -90 27 -132.5t55 -58.5t109 -18v-53h-528v53q47 1 78.5 4t59.5 9t42.5 16.5t27.5 27t15.5 39t5 53.5t-3.5 70l-88 940l-451 -1216h-98l-461 1212l-86 -942q-4 -42 -4 -69.5t3.5 -51.5t14.5 -38t26.5 -25.5t42.5 -16.5t59.5 -8t80.5 -4v-53h-497v53
q59 2 91 9.5t55 31.5t32.5 63t15.5 109l82 871q4 48 5 77.5t-5 53.5t-16 36t-32.5 20.5t-48.5 11t-71 3.5v54h307l471 -1258l465 1258h312v-54q-45 -1 -72.5 -4t-50.5 -11.5t-33.5 -20.5t-16.5 -36.5t-5.5 -53.5t4.5 -76z" />
    <glyph glyph-name="N" unicode="N" horiz-adv-x="1546" 
d="M1012 1393h452v-54q-86 -3 -114.5 -48.5t-28.5 -168.5v-1138h-98l-854 1126v-809q0 -53 2.5 -86.5t11.5 -64t23.5 -46.5t41.5 -28.5t63 -17t89 -5.5v-53h-498v53q52 1 84.5 8.5t54.5 22t32 45.5t14 69t4 103v911l-6 9q-55 73 -86.5 93t-96.5 25v54h207l934 -1248v977
q0 69 -8 107.5t-34.5 64t-69.5 34.5t-119 11v54z" />
    <glyph glyph-name="O" unicode="O" horiz-adv-x="1626" 
d="M813 -29q-146 0 -274 51.5t-222.5 144.5t-149 230t-54.5 299t54.5 299t149 230t222.5 144.5t274 51.5t274 -51.5t222.5 -144.5t149 -230t54.5 -299t-54.5 -299t-149 -230t-222.5 -144.5t-274 -51.5zM813 41q252 0 406.5 181t154.5 474q0 294 -154.5 475t-406.5 181
t-406.5 -181t-154.5 -475q0 -293 154.5 -474t406.5 -181z" />
    <glyph glyph-name="P" unicode="P" horiz-adv-x="1234" 
d="M731 1393q230 0 341.5 -86t111.5 -267q0 -176 -133.5 -274t-370.5 -98h-270v-412q0 -122 43.5 -160.5t185.5 -42.5v-53h-537v53q126 3 161.5 39t35.5 160v885q0 48 -2 77t-10 53.5t-19 36.5t-34 21t-50.5 11t-72.5 3v54h620zM659 725q187 0 290.5 82t103.5 233
q0 156 -81.5 225.5t-260.5 69.5h-301v-610h249z" />
    <glyph glyph-name="Q" unicode="Q" horiz-adv-x="1626" 
d="M1274 -49h41q23 -185 -52.5 -289t-230.5 -104q-127 0 -203.5 70t-76.5 184q0 98 51 159q-144 1 -270.5 53.5t-219 145.5t-146.5 229t-54 297q0 162 54.5 299t149 230t222.5 144.5t274 51.5t274 -51.5t222.5 -144.5t149 -230t54.5 -299q0 -157 -51 -290.5t-140.5 -226
t-211 -147t-260.5 -61.5q-37 -54 -37 -116q0 -85 59 -134t166 -49q119 0 175 67t61 212zM252 696q0 -293 154.5 -474t406.5 -181t406.5 181t154.5 474q0 294 -154.5 475t-406.5 181t-406.5 -181t-154.5 -475z" />
    <glyph glyph-name="R" unicode="R" horiz-adv-x="1370" 
d="M1206 143q33 -43 60.5 -63.5t62.5 -26.5v-53h-180l-506 725h-233v-473q0 -122 35.5 -159t158.5 -40v-53h-502v53q126 3 161.5 39t35.5 160v885q0 48 -2 77t-10 53.5t-19 36.5t-34 21t-50.5 11t-72.5 3v54h620q424 0 424 -312q0 -150 -97 -239t-282 -111zM410 1335v-553
h229q190 0 287.5 76t97.5 217q0 134 -81 197t-243 63h-290z" />
    <glyph glyph-name="S" unicode="S" horiz-adv-x="1105" 
d="M565 -29q-67 0 -130.5 13t-100.5 29t-68 29t-41 13q-26 0 -35 -65h-61v497h61q11 -226 104.5 -336t274.5 -110q147 0 226 63t79 179q0 108 -53.5 181.5t-181.5 137.5l-201 100q-153 76 -220.5 168.5t-67.5 221.5q0 154 111.5 241.5t303.5 87.5q69 0 130 -13t95 -29
t61.5 -29t37.5 -13q26 0 35 66h61v-445h-61q-12 207 -97.5 300.5t-265.5 93.5q-140 0 -220.5 -61.5t-80.5 -172.5q0 -98 52 -169t184 -138l209 -104q147 -73 213.5 -161.5t66.5 -217.5q0 -168 -110.5 -262.5t-309.5 -94.5z" />
    <glyph glyph-name="T" unicode="T" horiz-adv-x="1323" 
d="M1255 1434l17 -414h-62q-8 74 -14.5 119.5t-17 84t-22 57t-32.5 32t-44.5 17t-61.5 3.5h-301v-1026q0 -54 3 -88.5t13 -65.5t26.5 -47.5t45.5 -29t68 -17.5t96 -6v-53h-615v53q57 1 96 6t68 17.5t45.5 29t26.5 47.5t13 65.5t3 88.5v1026h-301q-38 0 -61.5 -3.5t-44.5 -17
t-32.5 -32t-22 -57t-17 -84t-14.5 -119.5h-62l17 414h61q6 -26 20 -33.5t58 -7.5h909q44 0 58 7.5t20 33.5h61z" />
    <glyph glyph-name="U" unicode="U" horiz-adv-x="1431" 
d="M711 -29q-238 0 -371 134t-133 384v639q0 131 -21.5 169.5t-103.5 41.5v54h442v-54q-47 -1 -77.5 -4.5t-53.5 -14t-35 -23.5t-19 -39t-9 -54.5t-2 -75.5v-616q0 -220 105.5 -336.5t301.5 -116.5q194 0 301 119.5t107 333.5v588q0 76 -6.5 118.5t-29 71t-58.5 38
t-101 11.5v54h402v-54q-83 -3 -109.5 -51t-26.5 -188v-586q0 -257 -131 -400t-372 -143z" />
    <glyph glyph-name="V" unicode="V" horiz-adv-x="1349" 
d="M920 1393h389v-54q-54 -9 -80.5 -37.5t-54.5 -105.5l-439 -1208h-98l-467 1206q-34 86 -56.5 111.5t-72.5 33.5v54h434v-54q-109 -5 -147.5 -22t-38.5 -66q0 -48 41 -157l375 -979l360 1003q35 98 35 137q0 45 -38 62t-142 22v54z" />
    <glyph glyph-name="W" unicode="W" horiz-adv-x="2031" 
d="M1577 1393h403v-54q-63 -3 -93 -46.5t-81 -205.5l-348 -1099h-98l-332 917l-323 -917h-99l-401 1155q-18 53 -27 78t-22 51.5t-19.5 35t-21.5 17t-27 10t-37 2.5v56h432v-54q-100 -1 -137 -21.5t-37 -72.5t25 -123l340 -997l315 891l-59 166q-37 104 -67.5 129t-123.5 28
v54h482v-54q-107 -3 -143 -20.5t-36 -63.5q0 -44 37 -151l348 -977l308 981q28 92 28 135q0 54 -39.5 74t-146.5 22v54z" />
    <glyph glyph-name="X" unicode="X" horiz-adv-x="1413" 
d="M1352 1339q-48 -8 -86.5 -39t-116.5 -124l-383 -465l364 -463q94 -120 134.5 -154.5t87.5 -40.5v-53h-480v53q100 1 143.5 17.5t43.5 50.5q0 39 -88 149l-279 353l-266 -324q-57 -68 -78.5 -105t-21.5 -61q0 -40 46.5 -59.5t151.5 -20.5v-53h-463v53q47 8 86 39t117 125
l383 465l-364 463q-94 119 -134 153.5t-88 40.5v54h480v-54q-100 -1 -143.5 -17t-43.5 -50q0 -40 88 -150l279 -352l266 324q57 68 78.5 105t21.5 61q0 40 -46.5 59t-151.5 20v54h463v-54z" />
    <glyph glyph-name="Y" unicode="Y" horiz-adv-x="1349" 
d="M918 1393h391v-54q-36 -8 -63.5 -30.5t-65.5 -81.5l-455 -690v-291q0 -112 42.5 -151t168.5 -42v-53h-535v53q127 3 170 41.5t43 151.5v291l-446 675q-50 74 -72.5 97t-54.5 30v54h436v-54q-109 -6 -145.5 -21t-36.5 -52q0 -44 70 -148l327 -497l320 487q46 71 63 103
t17 51q0 39 -36.5 55t-137.5 22v54z" />
    <glyph glyph-name="Z" unicode="Z" horiz-adv-x="1294" 
d="M1141 487h61l-41 -487h-1038v117l913 1161h-635q-42 0 -69.5 -4t-51.5 -17t-38 -34t-26 -58.5t-19 -85.5t-13 -121h-61v486h61q6 -29 25 -40t65 -11h869v-115l-914 -1163h602q78 0 128 16t87 59t58 113t37 184z" />
    <glyph glyph-name="bracketleft" unicode="[" horiz-adv-x="557" 
d="M485 1516v-52h-196v-1835h196v-51h-290v1938h290z" />
    <glyph glyph-name="backslash" unicode="\" horiz-adv-x="1001" 
d="M90 1536l891 -1679h-70l-891 1679h70z" />
    <glyph glyph-name="bracketright" unicode="]" horiz-adv-x="557" 
d="M72 1516h290v-1938h-290v51h196v1835h-196v52z" />
    <glyph glyph-name="asciicircum" unicode="^" horiz-adv-x="1187" 
d="M961 889h-103l-264 424l-264 -424h-103l318 504h98z" />
    <glyph glyph-name="underscore" unicode="_" horiz-adv-x="1009" 
d="M999 -356v-66h-989v66h989z" />
    <glyph glyph-name="grave" unicode="`" horiz-adv-x="1228" 
d="M102 1393h113l147 -299h-61z" />
    <glyph glyph-name="a" unicode="a" horiz-adv-x="1042" 
d="M979 223l43 -12q-21 -119 -58 -175t-120 -56q-75 0 -116.5 49t-41.5 149v17q-103 -224 -301 -224q-112 0 -179 58.5t-67 160.5q0 101 71.5 165t211.5 110l264 88v106q0 252 -227 252q-64 0 -132.5 -21t-121.5 -54q7 -34 30.5 -64t42.5 -57.5t19 -61.5q0 -43 -29 -70.5
t-73 -27.5q-51 0 -82 36t-31 95q0 77 62 149.5t158.5 116t193.5 43.5q141 0 219 -78.5t78 -238.5v-483q0 -69 19.5 -94t59.5 -25q42 0 64.5 33t42.5 114zM416 66q74 0 146 55.5t124 161.5v202l-217 -75q-106 -38 -158.5 -82.5t-52.5 -118.5q0 -69 41 -106t117 -37z" />
    <glyph glyph-name="b" unicode="b" horiz-adv-x="1073" 
d="M608 995q168 0 270.5 -132t102.5 -353q0 -259 -116.5 -399t-303.5 -140q-94 0 -170 30.5t-123 84.5l-37 -92h-49v1241q0 79 -28.5 99t-133.5 20v39l228 61h41v-655q119 196 319 196zM573 37q137 0 213 111t76 319q0 196 -76.5 308t-207.5 112q-81 0 -150 -38.5
t-139 -125.5v-369q0 -156 75.5 -236.5t208.5 -80.5z" />
    <glyph glyph-name="c" unicode="c" horiz-adv-x="960" 
d="M512 -29q-191 0 -305.5 132.5t-114.5 357.5q0 243 123 388.5t330 145.5q137 0 230 -70t93 -177q0 -64 -30 -103t-82 -39q-45 0 -74 29t-29 76q0 39 34.5 87t41.5 72q-80 60 -188 60q-148 0 -248 -115t-100 -303q0 -199 92.5 -305.5t244.5 -106.5q111 0 185.5 53
t109.5 146l43 -14q-38 -151 -121.5 -232.5t-234.5 -81.5z" />
    <glyph glyph-name="d" unicode="d" horiz-adv-x="1136" 
d="M891 223q0 -55 7 -86t29 -51t55 -27.5t93 -11.5v-47h-262l-22 18l-7 150q-62 -101 -136.5 -149t-172.5 -48q-176 0 -279.5 132.5t-103.5 353.5q0 261 116.5 399.5t313.5 138.5q78 0 149 -25.5t113 -76.5v342q0 79 -35 99t-167 20v39l268 61h41v-1231zM500 80
q80 0 148 38.5t136 125.5v409q0 126 -75.5 201.5t-194.5 75.5q-148 0 -225.5 -110.5t-77.5 -319.5q0 -198 77.5 -309t211.5 -111z" />
    <glyph glyph-name="e" unicode="e" horiz-adv-x="978" 
d="M887 590h-690q-4 -50 -4 -78q0 -199 92.5 -305.5t244.5 -106.5q220 0 295 199l43 -14q-38 -151 -120.5 -232.5t-231.5 -81.5q-195 0 -309.5 135t-114.5 371q0 233 120.5 375.5t311.5 142.5q173 0 269 -112.5t94 -292.5zM516 930q-107 0 -192.5 -71.5t-116.5 -207.5h557
q0 78 -23 138.5t-80.5 100.5t-144.5 40z" />
    <glyph glyph-name="f" unicode="f" horiz-adv-x="788" 
d="M715 1475q126 0 197 -45t71 -123q0 -44 -28 -72.5t-72 -28.5q-61 0 -90 66q-6 13 -19 62.5t-29 70.5q-13 8 -65 8q-134 0 -218.5 -112t-84.5 -289v-41h278v-103h-276v-647q0 -37 3.5 -60.5t15 -44t29 -31.5t50.5 -19.5t74 -12t104 -6.5v-47h-583v47q69 3 105.5 10
t59.5 27.5t29 50.5t6 86v647h-200v45l200 52q7 243 123.5 376.5t319.5 133.5z" />
    <glyph glyph-name="g" unicode="g" horiz-adv-x="1126" 
d="M1044 971v-103h-227q66 -81 66 -202q0 -149 -100.5 -239.5t-264.5 -90.5q-105 0 -188 39q-121 -67 -121 -156q0 -110 182 -110h387q133 0 199.5 -59t66.5 -163q0 -155 -137 -242t-364 -87q-211 0 -336 73.5t-125 192.5q0 62 37 110t112 91q-54 23 -84 67t-30 101
q0 122 164 210q-61 43 -94 111t-33 152q0 149 100 239t264 90q84 0 152 -24h374zM526 401q104 0 172 63t68 185q0 121 -67.5 201t-188.5 80q-104 0 -172 -63t-68 -185q0 -121 67.5 -201t188.5 -80zM737 2h-385q-45 0 -76 8q-75 -78 -75 -170q0 -105 91 -161t255 -56
q181 0 288 58.5t107 164.5q0 73 -52.5 114.5t-152.5 41.5z" />
    <glyph glyph-name="h" unicode="h" horiz-adv-x="1169" 
d="M958 186q0 -85 24.5 -107.5t125.5 -31.5v-47h-426v47q43 3 67 5.5t46 9t31 14t16 24t8.5 35t1.5 51.5v430q0 132 -59.5 204.5t-169.5 72.5q-82 0 -148.5 -40.5t-134.5 -129.5v-545q0 -32 1 -50t8 -33.5t14 -22t28.5 -12.5t40.5 -8t60 -5v-47h-420v47q42 4 62 6.5
t43.5 10.5t33 21.5t16 36t6.5 56.5v1057q0 79 -28 99t-133 20v39l227 61h41v-655q61 101 137 148.5t174 47.5q143 0 225 -92t82 -252v-465z" />
    <glyph glyph-name="i" unicode="i" horiz-adv-x="591" 
d="M291 1198q-44 0 -74.5 30.5t-30.5 76.5q0 45 30 75.5t75 30.5q44 0 74 -30t30 -76t-30 -76.5t-74 -30.5zM74 0v47q103 6 135.5 32.5t32.5 121.5v563q0 87 -29 108t-141 21v39l235 51h41v-782q0 -97 31 -122.5t141 -31.5v-47h-446z" />
    <glyph glyph-name="j" unicode="j" horiz-adv-x="591" 
d="M332 1198q-44 0 -74.5 30.5t-30.5 76.5q0 45 30.5 75.5t74.5 30.5t74 -30t30 -76t-30 -76.5t-74 -30.5zM111 -442q-97 0 -150 37t-53 104q0 45 26 69.5t70 24.5q33 0 53.5 -17.5t29 -41.5t25.5 -60t38 -61q141 28 141 467v706q0 38 -6.5 57t-33.5 31.5t-68.5 15.5
t-123.5 3v39l297 51h41v-879q0 -254 -74 -400t-212 -146z" />
    <glyph glyph-name="k" unicode="k" horiz-adv-x="1085" 
d="M1034 924q-58 -9 -115 -48t-186 -153l-184 -164l303 -371q60 -74 93.5 -101t88.5 -40v-47h-379v47q62 3 85.5 17t23.5 40q0 29 -64 105l-233 278l-127 -112v-197q0 -73 30.5 -98t123.5 -33v-47h-422v47q102 9 131.5 33t29.5 98v1057q0 79 -28 99t-133 20v39l227 61h41
v-989l362 317q62 54 62 95q0 24 -26.5 35t-88.5 12v47h385v-47z" />
    <glyph glyph-name="l" unicode="l" horiz-adv-x="587" 
d="M346 170q0 -29 1.5 -45.5t9 -31t16.5 -21t31 -12.5t45.5 -8t66.5 -5v-47h-444v47q103 8 135.5 28t32.5 95v1065q0 79 -28.5 99t-133.5 20v39l227 61h41v-1284z" />
    <glyph glyph-name="m" unicode="m" horiz-adv-x="1665" 
d="M1454 193q0 -50 3.5 -74t21.5 -41t44 -22t81 -9v-47h-406v47q54 4 80.5 9.5t44 22.5t21.5 41.5t4 72.5v475q0 225 -203 225q-146 0 -250 -152q2 -18 2 -57v-491q0 -35 1 -54t7 -37t13.5 -25.5t26 -14.5t39.5 -9.5t58 -5.5v-47h-391v47q52 4 76.5 9t40.5 22t19.5 41
t3.5 74v479q0 106 -50 163.5t-141 57.5q-154 0 -260 -166v-541q0 -35 1 -53t7.5 -35.5t14 -24t29 -13t43.5 -8.5t65 -5v-47h-428v47q104 9 132.5 34t28.5 105v578q0 87 -27.5 108t-133.5 21v39l227 51h41v-184q41 95 112.5 145.5t165.5 50.5q217 0 267 -194q87 194 280 194
q141 0 215 -80t74 -233v-489z" />
    <glyph glyph-name="n" unicode="n" horiz-adv-x="1169" 
d="M958 186q0 -85 24.5 -107.5t125.5 -31.5v-47h-426v47q43 3 67 5.5t46 9t31 14t16 24t8.5 35t1.5 51.5v430q0 132 -59.5 204.5t-169.5 72.5q-82 0 -148.5 -40.5t-134.5 -129.5v-537q0 -35 1 -53t7.5 -35.5t14 -24t29 -13t43.5 -8.5t65 -5v-47h-428v47q104 9 132.5 34
t28.5 105v578q0 87 -27.5 108t-133.5 21v39l227 51h41v-184q61 101 137 148.5t174 47.5q143 0 225 -92t82 -252v-465z" />
    <glyph glyph-name="o" unicode="o" horiz-adv-x="1085" 
d="M539 -29q-198 0 -322.5 142t-124.5 368q0 227 127 370.5t328 143.5q198 0 322 -142t124 -368q0 -227 -126.5 -370.5t-327.5 -143.5zM549 37q45 0 87 12t84.5 42.5t73.5 77t50.5 121t19.5 169.5q0 91 -19.5 173.5t-58 150t-103 107.5t-146.5 40q-45 0 -87 -12t-84.5 -42.5
t-74 -77t-51 -121t-19.5 -169.5q0 -91 20 -173.5t58.5 -150t103 -107.5t146.5 -40z" />
    <glyph glyph-name="p" unicode="p" horiz-adv-x="1093" 
d="M629 995q168 0 270 -131.5t102 -353.5q0 -254 -115 -396.5t-311 -142.5q-89 0 -147.5 23t-118.5 72v-297q0 -61 17 -89.5t62 -40.5t144 -14v-47h-491v47q105 3 133.5 28.5t28.5 115.5v995q0 86 -28 107.5t-134 21.5v39l227 51h41v-184q119 196 320 196zM588 37
q139 0 217 110t78 320q0 196 -76.5 308t-208.5 112q-81 0 -150 -38.5t-139 -125.5v-348q0 -171 72 -254.5t207 -83.5z" />
    <glyph glyph-name="q" unicode="q" horiz-adv-x="1075" 
d="M891 -231q0 -89 23 -113.5t110 -30.5v-47h-483v47q58 2 94 5t66 10t44 15.5t24 25.5t12.5 36.5t2.5 51.5v399q-120 -197 -309 -197q-180 0 -281.5 132t-101.5 354q0 261 116 399.5t314 138.5q178 0 281 -112l41 104h47v-1218zM502 80q80 0 147 38.5t135 125.5v366
q0 157 -68.5 238.5t-201.5 81.5q-148 0 -225.5 -110.5t-77.5 -319.5q0 -194 78.5 -307t212.5 -113z" />
    <glyph glyph-name="r" unicode="r" horiz-adv-x="808" 
d="M639 995q53 0 86 -33.5t33 -80.5q0 -48 -29.5 -76.5t-71.5 -28.5q-44 0 -75 35q-12 11 -28 30.5t-24 24.5q-111 -84 -190 -323v-357q0 -26 0.5 -41t4.5 -31t8 -23.5t16.5 -16t24 -11.5t36.5 -7t47.5 -5.5t63.5 -3.5v-47h-469v47q104 9 132.5 34t28.5 105v578
q0 87 -27.5 108t-133.5 21v39l227 51h41v-332q49 140 134.5 242t164.5 102z" />
    <glyph glyph-name="s" unicode="s" horiz-adv-x="872" 
d="M426 -29q-174 0 -303 74l-10 272h61q26 -280 260 -280q102 0 156.5 41.5t54.5 118.5q0 128 -149 194l-166 74q-106 46 -156.5 107.5t-50.5 160.5q0 125 85 193.5t238 68.5q177 0 304 -73l10 -238h-62q-13 120 -81 183t-179 63q-102 0 -156.5 -41.5t-54.5 -118.5
q0 -128 150 -195l166 -73q106 -46 156.5 -108t50.5 -161q0 -125 -85.5 -193.5t-238.5 -68.5z" />
    <glyph glyph-name="t" unicode="t" horiz-adv-x="792" 
d="M705 170l36 -33q-64 -87 -120.5 -122t-131.5 -35q-109 0 -169 65.5t-60 183.5v639h-209v58q113 9 174 58t84 159h58v-172h309v-103h-309v-620q0 -83 39 -128.5t106 -45.5q53 0 97.5 22t95.5 74z" />
    <glyph glyph-name="u" unicode="u" horiz-adv-x="1095" 
d="M887 209q0 -94 31 -122t126 -28v-43l-235 -28l-29 22v158q-62 -102 -135.5 -149.5t-171.5 -47.5q-133 0 -213 90.5t-80 253.5v478q0 75 -26.5 102t-92.5 33v43h226v-637q0 -125 59.5 -192.5t155.5 -67.5q81 0 145.5 40t132.5 130v530q0 48 -7.5 76.5t-28.5 44.5t-44.5 22
t-70.5 11v43h258v-762z" />
    <glyph glyph-name="v" unicode="v" horiz-adv-x="1030" 
d="M682 971h307v-47q-39 -5 -56.5 -25t-49.5 -98l-320 -813h-82l-325 794q-37 90 -58 114.5t-57 27.5v47h360v-47q-80 -1 -110.5 -16t-30.5 -50q0 -37 37 -129l244 -612l245 628q35 84 35 119q0 34 -31 46t-108 14v47z" />
    <glyph glyph-name="w" unicode="w" horiz-adv-x="1527" 
d="M1161 971h326v-47q-45 -4 -69.5 -38t-57.5 -124l-281 -774h-82l-219 626l-246 -626h-81l-281 764q-39 107 -63 139.5t-66 32.5v47h365v-47q-78 -1 -111 -19.5t-33 -56.5q0 -23 17 -72l233 -657l233 590l-24 67q-32 91 -62.5 118t-103.5 30v47h410v-47q-78 -2 -109 -18.5
t-31 -61.5q0 -44 31 -135l203 -584l194 530q50 136 50 195q0 37 -31.5 55t-110.5 19v47z" />
    <glyph glyph-name="x" unicode="x" horiz-adv-x="1058" 
d="M1008 924q-47 -7 -82.5 -38.5t-128.5 -140.5l-211 -245l219 -269q77 -94 119.5 -133t83.5 -51v-47h-381v47q67 1 92.5 13.5t25.5 39.5q0 38 -55 105l-174 213l-192 -228q-41 -50 -41 -79q0 -61 129 -64v-47h-357v47q47 7 83 38.5t128 139.5l209 244l-221 270
q-78 95 -120 134.5t-83 50.5v47h381v-47q-67 -1 -93 -14t-26 -40q0 -36 56 -104l176 -215l194 229q41 50 41 80q0 61 -129 64v47h357v-47z" />
    <glyph glyph-name="y" unicode="y" horiz-adv-x="1036" 
d="M672 971h323v-47q-37 -3 -62.5 -37.5t-68.5 -138.5l-323 -779q-99 -239 -176 -324t-191 -85q-84 0 -134 40t-50 105q0 47 27.5 73.5t74.5 26.5q26 0 45 -11t31 -30t22 -39t25.5 -43.5t34.5 -39.5q94 37 227 352l21 49l-297 721q-37 91 -64.5 124t-68.5 36v47h376v-47
q-72 -3 -101.5 -21t-29.5 -59q0 -49 35 -133l209 -525l238 572q26 68 26 94q0 69 -149 72v47z" />
    <glyph glyph-name="z" unicode="z" horiz-adv-x="987" 
d="M823 338h62l-17 -338h-745v106l616 758h-325q-58 0 -91.5 -1.5t-63 -10.5t-43 -19.5t-25.5 -36.5t-16.5 -53.5t-10.5 -78.5h-62v307h734v-107l-619 -758h387q46 0 74 2t52 12.5t36.5 23.5t24 42.5t17.5 61.5t15 90z" />
    <glyph glyph-name="braceleft" unicode="{" horiz-adv-x="700" 
d="M244 543q113 -13 163 -75t50 -169q0 -75 -19.5 -238t-19.5 -241q0 -89 37.5 -140t109.5 -51h33v-51h-43q-120 0 -182 63.5t-62 180.5q0 111 34 285t34 239q0 156 -236 164v74q236 8 236 164q0 65 -34 239t-34 285q0 117 62 180.5t182 63.5h43v-52h-33q-72 0 -109.5 -51
t-37.5 -139q0 -78 19.5 -241t19.5 -238q0 -107 -50 -169t-163 -75v-8z" />
    <glyph glyph-name="bar" unicode="|" horiz-adv-x="512" 
d="M225 1536h62v-1958h-62v1958z" />
    <glyph glyph-name="braceright" unicode="}" horiz-adv-x="700" 
d="M457 543v8q-113 13 -163 75t-50 169q0 75 19.5 238t19.5 241q0 88 -38 139t-110 51h-33v52h43q120 0 182 -63.5t62 -180.5q0 -111 -33.5 -285t-33.5 -239q0 -156 235 -164v-74q-235 -8 -235 -164q0 -65 33.5 -239t33.5 -285q0 -117 -62 -180.5t-182 -63.5h-43v51h33
q72 0 110 51.5t38 139.5q0 78 -19.5 241t-19.5 238q0 107 50 169t163 75z" />
    <glyph glyph-name="asciitilde" unicode="~" horiz-adv-x="1187" 
d="M836 657q-46 0 -100.5 21.5t-104 52.5t-98 61.5t-99.5 52t-92 21.5q-57 0 -95.5 -48.5t-45.5 -145.5h-43q11 264 194 264q46 0 101 -21.5t105.5 -52t99.5 -61.5t99 -52.5t89 -21.5q57 0 95.5 49.5t45.5 147.5h43q-11 -267 -194 -267z" />
    <glyph glyph-name="uni00A0" unicode="&#xa0;" horiz-adv-x="460" 
 />
    <glyph glyph-name="exclamdown" unicode="&#xa1;" horiz-adv-x="610" 
d="M305 989q44 0 74.5 -29t30.5 -75q0 -44 -30.5 -72.5t-74.5 -28.5q-42 0 -72 29t-30 72q0 46 30 75t72 29zM375 -422h-139l38 965h62z" />
    <glyph glyph-name="cent" unicode="&#xa2;" horiz-adv-x="968" 
d="M530 100q107 0 183.5 53.5t111.5 145.5l43 -14q-79 -314 -356 -314q-27 0 -39 2l-29 -200h-32l28 204q-161 23 -254.5 152t-93.5 332q0 235 124 384.5t327 149.5q31 0 45 -2l28 195h33l-28 -199q112 -19 184 -84.5t72 -156.5q0 -64 -30.5 -103t-82.5 -39q-45 0 -73.5 29
t-28.5 76q0 40 30 89t37 70q-56 44 -117 58l-120 -826q12 -2 38 -2zM199 512q0 -175 70.5 -278.5t191.5 -127.5l119 826q-12 2 -41 2q-158 0 -249 -113.5t-91 -308.5z" />
    <glyph glyph-name="sterling" unicode="&#xa3;" horiz-adv-x="1206" 
d="M981 1311q-101 10 -176 -84t-119 -269l-100 -397h383l-13 -33h-378l-3 -10q-82 -334 -227 -471l137 -86q254 -154 387 -154q86 0 132.5 49t82.5 144h41q-29 -157 -89.5 -234t-174.5 -77q-89 0 -178 45t-227 160l-152 122q-67 -45 -139 -45q-56 0 -86.5 20t-30.5 58
q0 33 25 52.5t65 19.5q65 0 162 -47q47 49 78 138t72 261l14 55h-248l12 33h244l86 350q112 449 408 449q120 0 184 -43.5t64 -114.5q0 -47 -28 -74.5t-75 -27.5q-62 0 -86 55q-8 19 -20 75t-27 81z" />
    <glyph glyph-name="currency" unicode="&#xa4;" horiz-adv-x="1214" 
d="M1069 682q0 -197 -106 -328l176 -176l-27 -26l-174 174q-130 -140 -332 -140q-198 0 -330 138l-188 -189l-27 29l189 188q-107 135 -107 330q0 197 107 332l-174 174l26 26l174 -174q132 138 330 138q200 0 332 -138l188 189l27 -29l-190 -190q106 -131 106 -328z
M606 272q182 0 294 113t112 297t-112 297t-294 113t-293.5 -113t-111.5 -297t111.5 -297t293.5 -113z" />
    <glyph glyph-name="yen" unicode="&#xa5;" horiz-adv-x="1089" 
d="M748 1331h301v-49q-26 -6 -50 -36.5t-79 -129.5l-334 -604v-20h389v-33h-389v-117h389v-33h-389v-73q0 -106 40 -145t150 -42v-49h-475v49q65 2 102 10.5t58 32t27 55t6 89.5v73h-390v33h390v117h-390v33h390v24l-328 600q-56 101 -79 130.5t-46 35.5v49h340v-49
q-73 -3 -105 -19t-32 -49q0 -34 35 -96l280 -522l283 516q32 57 32 98q0 36 -30.5 53t-95.5 19v49z" />
    <glyph glyph-name="brokenbar" unicode="&#xa6;" horiz-adv-x="512" 
d="M225 668v868h62v-868h-62zM287 446v-868h-62v868h62z" />
    <glyph glyph-name="section" unicode="&#xa7;" horiz-adv-x="839" 
d="M512 1290q-28 -2 -66 -10q-39 -48 -55 -88.5t-16 -93.5q0 -115 88 -291l178 -361q117 -234 117 -378q0 -87 -37 -168t-98 -142t-136 -107t-153 -69.5t-148 -23.5q-86 0 -136 35.5t-50 97.5q0 51 32 80.5t81 29.5q39 0 68.5 -22t44 -49t34 -58t37.5 -43q18 2 65 11
q39 48 55.5 88.5t16.5 93.5q0 115 -88 291l-178 360q-117 234 -117 379q0 87 37 168t98 142t136 107t153 69.5t148 23.5q86 0 136 -35.5t50 -97.5q0 -51 -32 -81t-81 -30q-39 0 -68.5 22t-44 49t-34 58t-37.5 43zM303 1032q0 134 109 238q-121 -41 -195 -141.5t-74 -223.5
q0 -57 19.5 -128.5t41 -122.5t58.5 -130l152 -319q92 -192 92 -318q0 -133 -109 -237q121 41 195 141t74 223q0 57 -19.5 128.5t-41 122.5t-58.5 130l-152 320q-44 92 -68 166.5t-24 150.5z" />
    <glyph glyph-name="dieresis" unicode="&#xa8;" horiz-adv-x="1228" 
d="M201 1196q-42 0 -70.5 29t-28.5 69t28.5 69.5t70.5 29.5t70 -29t28 -70q0 -40 -28 -69t-70 -29zM561 1196q-42 0 -70 29t-28 69q0 41 28 70t70 29t70 -29t28 -70q0 -40 -28 -69t-70 -29z" />
    <glyph glyph-name="copyright" unicode="&#xa9;" horiz-adv-x="2043" 
d="M1022 -186q-199 0 -368.5 67t-288 186t-185.5 286.5t-67 363.5t67 363.5t185.5 286.5t288 186t368.5 67t368.5 -67t288 -186t185.5 -286.5t67 -363.5t-67 -363.5t-185.5 -286.5t-288 -186t-368.5 -67zM1022 -121q182 0 338.5 62t266.5 172t172.5 266t62.5 338
q0 243 -107 434t-298.5 297t-434.5 106t-434.5 -106t-298.5 -297t-107 -434q0 -182 62.5 -338t172.5 -266t266.5 -172t338.5 -62zM999 248q-197 0 -317.5 128.5t-120.5 336.5q0 212 125.5 344.5t325.5 132.5q59 0 113 -14t86.5 -27.5t39.5 -13.5q12 0 16.5 10t8.5 33h45
v-289h-47q-25 125 -90.5 184.5t-177.5 59.5q-154 0 -242 -110.5t-88 -299.5q0 -192 90.5 -304t245.5 -112q118 0 185.5 65.5t96.5 211.5h47l-8 -252q-143 -84 -334 -84z" />
    <glyph glyph-name="ordfeminine" unicode="&#xaa;" horiz-adv-x="819" 
d="M166 1034q-39 0 -63.5 26t-24.5 68q0 56 47 107.5t119.5 82t146.5 30.5q106 0 166.5 -58t60.5 -174v-334q0 -71 54 -71q31 0 47.5 22.5t30.5 75.5l34 -10q-13 -81 -42 -121.5t-91 -40.5q-59 0 -93 36t-34 103v4q-36 -73 -94 -111t-127 -38q-82 0 -132 41.5t-50 111.5
q0 74 55 118t158 75l190 57v72q0 174 -168 174q-102 0 -180 -47q6 -28 39 -63t33 -64q0 -30 -24 -51t-58 -21zM336 707q50 0 100.5 34t87.5 105v139l-149 -49q-77 -26 -114.5 -55t-37.5 -78q0 -45 29.5 -70.5t83.5 -25.5zM96 457v63h662v-63h-662z" />
    <glyph glyph-name="guillemotleft" unicode="&#xab;" horiz-adv-x="921" 
d="M369 63l-328 412l328 412h77l-290 -412l290 -412h-77zM731 63l-328 412l328 412h78l-291 -412l291 -412h-78z" />
    <glyph glyph-name="logicalnot" unicode="&#xac;" horiz-adv-x="1187" 
d="M1053 807v-506h-62v444h-856v62h918z" />
    <glyph glyph-name="uni00AD" unicode="&#xad;" horiz-adv-x="737" 
d="M635 588v-94h-533v94h533z" />
    <glyph glyph-name="registered" unicode="&#xae;" horiz-adv-x="2043" 
d="M1022 1620q199 0 368.5 -67t288 -186t185.5 -286.5t67 -363.5t-67 -363.5t-185.5 -286.5t-288 -186t-368.5 -67t-368.5 67t-288 186t-185.5 286.5t-67 363.5t67 363.5t185.5 286.5t288 186t368.5 67zM1022 -121q182 0 338.5 62t266.5 172t172.5 266t62.5 338
q0 243 -107 434t-298.5 297t-434.5 106t-434.5 -106t-298.5 -297t-107 -434q0 -182 62.5 -338t172.5 -266t266.5 -172t338.5 -62zM1323 965q0 -88 -51 -146t-142 -80l300 -434v-39h-113l-293 461h-8h-107v-299q0 -73 22 -96.5t95 -26.5v-39h-328v39q75 3 96 25.5t21 97.5
v580q0 43 -2 62t-13.5 35.5t-33.5 21t-64 6.5v38h349q131 0 201.5 -52t70.5 -154zM1004 772q101 0 158 48t57 138q0 84 -50.5 126t-142.5 42h-117v-354h95z" />
    <glyph glyph-name="macron" unicode="&#xaf;" horiz-adv-x="1228" 
d="M102 1284h541v-51h-541v51z" />
    <glyph glyph-name="degree" unicode="&#xb0;" horiz-adv-x="532" 
d="M266 1004q-120 0 -193 76.5t-73 199.5q0 121 73 197.5t193 76.5t193 -76.5t73 -197.5q0 -123 -73 -199.5t-193 -76.5zM266 1090q102 0 155.5 53t53.5 137t-53.5 137t-155.5 53t-155.5 -53t-53.5 -137t53.5 -137t155.5 -53z" />
    <glyph glyph-name="plusminus" unicode="&#xb1;" horiz-adv-x="1187" 
d="M625 745h428v-61h-428v-276h-62v276h-428v61h428v277h62v-277zM135 217v62h918v-62h-918z" />
    <glyph glyph-name="two.sups" unicode="&#xb2;" horiz-adv-x="858" 
d="M700 993h54v-342h-645v99l170 147q181 158 256 255.5t75 201.5q0 95 -61 153t-162 58q-108 0 -170.5 -60t-71.5 -174h-53q0 154 82 235t238 81q144 0 229.5 -75.5t85.5 -201.5q0 -26 -3 -50t-13 -49t-18 -44t-28.5 -46t-32.5 -43.5t-42.5 -46.5t-46.5 -46t-57 -52
t-60.5 -52.5t-69.5 -59.5l-153 -131h340q25 0 35.5 0.5t29 2t25 6t18.5 12t16.5 20.5t11.5 30.5t10 42.5t6 56.5t5 72.5z" />
    <glyph glyph-name="three.sups" unicode="&#xb3;" horiz-adv-x="860" 
d="M455 1212q154 0 242.5 -76.5t88.5 -211.5q0 -132 -97 -212.5t-255 -80.5q-149 0 -239.5 50t-90.5 132q0 41 23.5 65.5t62.5 24.5q65 0 76 -59q3 -18 2.5 -61t3.5 -70q66 -31 152 -31q121 0 192.5 59.5t71.5 159.5q0 211 -278 211q-61 0 -136 -10v88l373 338h-325h-29.5
t-24.5 -1.5t-21 -4t-16.5 -7.5t-14 -11.5t-10 -18t-8.5 -25t-5.5 -33.5t-5 -43t-3.5 -53h-51v295h602v-98l-360 -322q47 6 80 6z" />
    <glyph glyph-name="acute" unicode="&#xb4;" horiz-adv-x="1228" 
d="M362 1393l-198 -299h-62l148 299h112z" />
    <glyph glyph-name="uni00B5" unicode="&#xb5;" horiz-adv-x="1208" 
d="M1085 274h62q-41 -155 -101 -229t-169 -74q-74 0 -125.5 37.5t-69.5 116.5q-102 -154 -276 -154q-77 0 -133.5 35.5t-82.5 93.5q-38 -143 -38 -262q0 -174 104 -233q-20 -45 -78 -45q-56 0 -86.5 41t-30.5 110q0 215 113 494q5 107 60.5 279.5t183.5 465.5q9 13 32 22
t48 9q44 0 57 -25q-307 -511 -307 -712q0 -166 182 -166q147 0 246 115v4q0 240 219 764q6 20 66 20q64 0 73 -25q-150 -242 -217 -425t-67 -291q0 -88 43.5 -125t103.5 -37q69 0 113.5 51t74.5 145z" />
    <glyph glyph-name="paragraph" unicode="&#xb6;" horiz-adv-x="1118" 
d="M465 -442q-161 0 -241.5 54t-80.5 144q0 56 32.5 90.5t84.5 34.5q79 0 109 -74q10 -25 20.5 -87t26.5 -93q20 -10 51 -10q138 0 214.5 102t76.5 314v1245h-103v-725h-184q-193 0 -301.5 110.5t-108.5 278.5t108.5 278.5t301.5 110.5h545v-53q-61 -1 -93 -6.5t-55 -25
t-30 -53t-7 -93.5v-1059q0 -244 -95.5 -363.5t-270.5 -119.5z" />
    <glyph glyph-name="periodcentered" unicode="&#xb7;" horiz-adv-x="534" 
d="M266 629q-42 0 -72 29t-30 75q0 43 30 72t72 29q44 0 74.5 -28.5t30.5 -72.5q0 -46 -30.5 -75t-74.5 -29z" />
    <glyph glyph-name="cedilla" unicode="&#xb8;" horiz-adv-x="1228" 
d="M348 10l-65 -133q94 8 155.5 -35t61.5 -123q0 -73 -57 -117t-152 -44q-85 0 -137 31.5t-52 86.5q0 27 15.5 44.5t40.5 17.5q26 0 41.5 -19t15.5 -51q0 -11 -2.5 -31t-1.5 -26q27 -12 82 -12q57 0 91 29.5t34 80.5q0 127 -225 98l94 203h61z" />
    <glyph glyph-name="one.sups" unicode="&#xb9;" horiz-adv-x="677" 
d="M399 788q0 -63 29.5 -80t140.5 -20v-37h-448v37q117 3 148.5 20.5t31.5 79.5v750l-170 -111v89l170 110h98v-838z" />
    <glyph glyph-name="ordmasculine" unicode="&#xba;" horiz-adv-x="860" 
d="M428 631q-152 0 -246 99t-94 259t96 259.5t248 99.5t246 -99t94 -258q0 -160 -95.5 -260t-248.5 -100zM438 682q40 0 76.5 14.5t70 45.5t54 89.5t20.5 137.5q0 86 -24.5 159t-79.5 121.5t-131 48.5q-40 0 -77 -14.5t-70.5 -46t-53.5 -90t-20 -137.5q0 -86 24 -158
t79 -121t132 -49zM762 520v-63h-662v63h662z" />
    <glyph glyph-name="guillemotright" unicode="&#xbb;" horiz-adv-x="921" 
d="M190 63h-77l290 412l-290 412h77l328 -412zM553 63h-78l291 412l-291 412h78l328 -412z" />
    <glyph glyph-name="onequarter" unicode="&#xbc;" horiz-adv-x="1083" 
d="M375 752v-27h-307v27q59 2 84 9.5t30.5 19.5t5.5 42v504l-114 -76v66l114 76h72v-570q0 -45 20.5 -56.5t94.5 -14.5zM893 1393h57l-815 -1393h-57zM1061 287v-68h-131v-219h-72v219h-317v68l317 381h72v-381h131zM598 287h260v311z" />
    <glyph glyph-name="onehalf" unicode="&#xbd;" horiz-adv-x="1148" 
d="M375 752v-27h-307v27q59 2 84 9.5t30.5 19.5t5.5 42v504l-114 -76v66l114 76h72v-570q0 -45 20.5 -56.5t94.5 -14.5zM893 1393h57l-815 -1393h-57zM1053 233h39v-233h-437v74l113 98q118 104 168.5 171.5t50.5 135.5q0 65 -39.5 103.5t-105.5 38.5q-68 0 -110.5 -38.5
t-49.5 -115.5h-37q0 104 54.5 159.5t158.5 55.5q98 0 155.5 -51t57.5 -139q0 -78 -49.5 -140.5t-196.5 -189.5l-102 -88h227h25.5t20.5 2t17.5 6t12.5 11.5t11 18.5t7 28.5t5.5 39.5t3.5 53z" />
    <glyph glyph-name="threequarters" unicode="&#xbe;" horiz-adv-x="1202" 
d="M516 913q0 -92 -66 -147t-174 -55q-98 0 -158.5 34.5t-60.5 90.5q0 29 16 46t44 17q45 0 51 -41q2 -12 1.5 -41.5t2.5 -48.5q44 -20 98 -20q80 0 127 40t47 109q0 141 -186 141q-28 0 -88 -6v62l250 225h-215q-32 0 -44.5 -1.5t-24.5 -14.5t-15.5 -37t-5.5 -74h-39v201
h405v-74l-237 -211q32 4 51 4q102 0 161.5 -53.5t59.5 -145.5zM1012 1393h57l-815 -1393h-57zM1180 287v-68h-131v-219h-72v219h-318v68l318 381h72v-381h131zM717 287h260v311z" />
    <glyph glyph-name="questiondown" unicode="&#xbf;" horiz-adv-x="813" 
d="M428 791q-44 0 -74 28t-30 72q0 46 30 75t74 29q42 0 72 -29t30 -75q0 -43 -30 -71.5t-72 -28.5zM834 -106q9 -163 -92.5 -249.5t-299.5 -86.5q-169 0 -264.5 81.5t-95.5 227.5q0 115 78 212.5t301 260.5l121 88h-412v115h518v-115l-149 -113q-185 -139 -254.5 -230
t-69.5 -194q0 -108 67 -167.5t187 -59.5q294 0 303 230h62z" />
    <glyph glyph-name="Agrave" unicode="&#xc0;" horiz-adv-x="1409" 
d="M719 1481h-66l-258 196h117zM1167 297q56 -134 98.5 -186t102.5 -58v-53h-461v53q95 2 137.5 25t42.5 76q0 54 -36 139l-78 190h-586l-68 -166q-40 -101 -40 -159q0 -55 39 -79t128 -26v-53h-405v53q57 6 96.5 58t98.5 196l399 998l-43 106h119zM414 549h532l-270 655z
" />
    <glyph glyph-name="Aacute" unicode="&#xc1;" horiz-adv-x="1409" 
d="M948 1677l-258 -196h-65l206 196h117zM1167 297q56 -134 98.5 -186t102.5 -58v-53h-461v53q95 2 137.5 25t42.5 76q0 54 -36 139l-78 190h-586l-68 -166q-40 -101 -40 -159q0 -55 39 -79t128 -26v-53h-405v53q57 6 96.5 58t98.5 196l399 998l-43 106h119zM414 549h532
l-270 655z" />
    <glyph glyph-name="Acircumflex" unicode="&#xc2;" horiz-adv-x="1409" 
d="M662 1626l-203 -145h-62l193 196h143l193 -196h-62zM1167 297q56 -134 98.5 -186t102.5 -58v-53h-461v53q95 2 137.5 25t42.5 76q0 54 -36 139l-78 190h-586l-68 -166q-40 -101 -40 -159q0 -55 39 -79t128 -26v-53h-405v53q57 6 96.5 58t98.5 196l399 998l-43 106h119z
M414 549h532l-270 655z" />
    <glyph glyph-name="Atilde" unicode="&#xc3;" horiz-adv-x="1409" 
d="M522 1604q-44 0 -75 -34.5t-37 -88.5h-33q5 96 44 146t111 50q37 0 76.5 -19t67 -42.5t61.5 -42.5t62 -19q44 0 75 34.5t37 88.5h33q-5 -95 -44.5 -145.5t-111.5 -50.5q-37 0 -76.5 19t-67 42.5t-61 42.5t-61.5 19zM1167 297q56 -134 98.5 -186t102.5 -58v-53h-461v53
q95 2 137.5 25t42.5 76q0 54 -36 139l-78 190h-586l-68 -166q-40 -101 -40 -159q0 -55 39 -79t128 -26v-53h-405v53q57 6 96.5 58t98.5 196l399 998l-43 106h119zM414 549h532l-270 655z" />
    <glyph glyph-name="Adieresis" unicode="&#xc4;" horiz-adv-x="1409" 
d="M451 1487q-37 0 -61.5 26t-24.5 62t24 61t62 25t63 -25t25 -61t-25 -62t-63 -26zM872 1487q-38 0 -63 26t-25 62t25 61t63 25t62 -25t24 -61t-24.5 -62t-61.5 -26zM1167 297q56 -134 98.5 -186t102.5 -58v-53h-461v53q95 2 137.5 25t42.5 76q0 54 -36 139l-78 190h-586
l-68 -166q-40 -101 -40 -159q0 -55 39 -79t128 -26v-53h-405v53q57 6 96.5 58t98.5 196l399 998l-43 106h119zM414 549h532l-270 655z" />
    <glyph glyph-name="Aring" unicode="&#xc5;" horiz-adv-x="1409" 
d="M662 1464q-84 0 -136.5 51.5t-52.5 133.5t52 133t137 51q84 0 136 -51t52 -133t-52 -133.5t-136 -51.5zM662 1790q-65 0 -104.5 -38.5t-39.5 -102.5t39.5 -103t104.5 -39t104 39t39 103t-39 102.5t-104 38.5zM1167 297q56 -134 98.5 -186t102.5 -58v-53h-461v53
q95 2 137.5 25t42.5 76q0 54 -36 139l-78 190h-586l-68 -166q-40 -101 -40 -159q0 -55 39 -79t128 -26v-53h-405v53q57 6 96.5 58t98.5 196l399 998l-43 106h119zM414 549h532l-270 655z" />
    <glyph glyph-name="AE" unicode="&#xc6;" horiz-adv-x="1904" 
d="M1731 416h61l-29 -416h-954v53q62 2 92 6.5t51.5 21.5t27 46t5.5 84v272h-520l-109 -178q-69 -117 -69 -172q0 -45 40.5 -61.5t125.5 -18.5v-53h-412v53q33 3 58 21.5t63 71t106 163.5l529 867q39 62 39 98q0 37 -43 51t-134 14v54h1088l18 -353h-61q-11 91 -29 145
t-55.5 89.5t-93.5 48t-148 12.5h-282v-596h237q41 0 66.5 2.5t47.5 11.5t34 22.5t21.5 40t14.5 59t9 83.5h61v-495h-61q-6 75 -15 115t-31.5 65t-54.5 32t-92 7h-237v-471q0 -96 33 -125t143 -29h172q138 0 198.5 76t88.5 283zM504 549h481v790h-4z" />
    <glyph glyph-name="Ccedilla" unicode="&#xc7;" horiz-adv-x="1521" 
d="M1384 100q-215 -114 -501 -127l-47 -96q94 8 155.5 -35t61.5 -123q0 -73 -57 -117t-152 -44q-85 0 -137 31.5t-52 86.5q0 27 15.5 44.5t40.5 17.5q26 0 41.5 -19t15.5 -51q0 -11 -2.5 -31t-1.5 -26q27 -12 82 -12q57 0 91 29.5t34 80.5q0 127 -226 98l76 164
q-158 0 -290 52t-224 145.5t-143 227t-51 292.5q0 327 198.5 530t526.5 203q110 0 205.5 -21t151 -42t67.5 -21q17 0 27 15t18 51h61v-445h-61q-45 208 -157.5 301t-309.5 93q-278 0 -433 -169t-155 -476q0 -308 157.5 -487t424.5 -179q223 0 337.5 100.5t165.5 345.5h62z
" />
    <glyph glyph-name="Egrave" unicode="&#xc8;" horiz-adv-x="1378" 
d="M811 1481h-66l-258 196h117zM1204 416h62l-29 -416h-1135v53q126 3 161.5 39t35.5 160v885q0 48 -2 77t-10 53.5t-19 36.5t-34 21t-50.5 11t-72.5 3v54h1110l18 -353h-61q-11 91 -30 146t-57.5 89.5t-93.5 47t-145 12.5h-442v-596h397q61 0 92.5 6.5t54 31.5t31 64.5
t14.5 116.5h62v-495h-62q-6 77 -14.5 116.5t-31 64.5t-54 31.5t-92.5 6.5h-397v-471q0 -96 33 -125t143 -29h334q136 0 196 76t88 283z" />
    <glyph glyph-name="Eacute" unicode="&#xc9;" horiz-adv-x="1378" 
d="M1040 1677l-258 -196h-65l207 196h116zM1204 416h62l-29 -416h-1135v53q126 3 161.5 39t35.5 160v885q0 48 -2 77t-10 53.5t-19 36.5t-34 21t-50.5 11t-72.5 3v54h1110l18 -353h-61q-11 91 -30 146t-57.5 89.5t-93.5 47t-145 12.5h-442v-596h397q61 0 92.5 6.5t54 31.5
t31 64.5t14.5 116.5h62v-495h-62q-6 77 -14.5 116.5t-31 64.5t-54 31.5t-92.5 6.5h-397v-471q0 -96 33 -125t143 -29h334q136 0 196 76t88 283z" />
    <glyph glyph-name="Ecircumflex" unicode="&#xca;" horiz-adv-x="1378" 
d="M754 1626l-203 -145h-62l193 196h143l193 -196h-62zM1204 416h62l-29 -416h-1135v53q126 3 161.5 39t35.5 160v885q0 48 -2 77t-10 53.5t-19 36.5t-34 21t-50.5 11t-72.5 3v54h1110l18 -353h-61q-11 91 -30 146t-57.5 89.5t-93.5 47t-145 12.5h-442v-596h397
q61 0 92.5 6.5t54 31.5t31 64.5t14.5 116.5h62v-495h-62q-6 77 -14.5 116.5t-31 64.5t-54 31.5t-92.5 6.5h-397v-471q0 -96 33 -125t143 -29h334q136 0 196 76t88 283z" />
    <glyph glyph-name="Edieresis" unicode="&#xcb;" horiz-adv-x="1378" 
d="M543 1487q-37 0 -61.5 26t-24.5 62t24 61t62 25t63 -25t25 -61t-25 -62t-63 -26zM965 1487q-38 0 -63 26t-25 62t25 61t63 25t62 -25t24 -61t-24.5 -62t-61.5 -26zM1204 416h62l-29 -416h-1135v53q126 3 161.5 39t35.5 160v885q0 48 -2 77t-10 53.5t-19 36.5t-34 21
t-50.5 11t-72.5 3v54h1110l18 -353h-61q-11 91 -30 146t-57.5 89.5t-93.5 47t-145 12.5h-442v-596h397q61 0 92.5 6.5t54 31.5t31 64.5t14.5 116.5h62v-495h-62q-6 77 -14.5 116.5t-31 64.5t-54 31.5t-92.5 6.5h-397v-471q0 -96 33 -125t143 -29h334q136 0 196 76t88 283z
" />
    <glyph glyph-name="Igrave" unicode="&#xcc;" horiz-adv-x="684" 
d="M76 1677h117l206 -196h-65zM102 0v53q61 1 93 6.5t55 25t30 53t7 93.5v930q0 60 -7 93.5t-30 53t-55 25t-93 6.5v54h480v-54q-61 -1 -93 -6.5t-55 -25t-30 -53t-7 -93.5v-930q0 -60 7 -93.5t30 -53t55 -25t93 -6.5v-53h-480z" />
    <glyph glyph-name="Iacute" unicode="&#xcd;" horiz-adv-x="684" 
d="M629 1677l-258 -196h-66l207 196h117zM102 0v53q61 1 93 6.5t55 25t30 53t7 93.5v930q0 60 -7 93.5t-30 53t-55 25t-93 6.5v54h480v-54q-61 -1 -93 -6.5t-55 -25t-30 -53t-7 -93.5v-930q0 -60 7 -93.5t30 -53t55 -25t93 -6.5v-53h-480z" />
    <glyph glyph-name="Icircumflex" unicode="&#xce;" horiz-adv-x="684" 
d="M342 1626l-203 -145h-61l192 196h144l192 -196h-61zM102 1339v54h480v-54q-61 -1 -93 -6.5t-55 -25t-30 -53t-7 -93.5v-930q0 -60 7 -93.5t30 -53t55 -25t93 -6.5v-53h-480v53q61 1 93 6.5t55 25t30 53t7 93.5v930q0 60 -7 93.5t-30 53t-55 25t-93 6.5z" />
    <glyph glyph-name="Idieresis" unicode="&#xcf;" horiz-adv-x="684" 
d="M131 1487q-37 0 -61.5 26t-24.5 62t24 61t62 25t63 -25t25 -61t-25 -62t-63 -26zM553 1487q-38 0 -63 26t-25 62t25 61t63 25t62 -25t24 -61t-24.5 -62t-61.5 -26zM102 0v53q61 1 93 6.5t55 25t30 53t7 93.5v930q0 60 -7 93.5t-30 53t-55 25t-93 6.5v54h480v-54
q-61 -1 -93 -6.5t-55 -25t-30 -53t-7 -93.5v-930q0 -60 7 -93.5t30 -53t55 -25t93 -6.5v-53h-480z" />
    <glyph glyph-name="Eth" unicode="&#xd0;" horiz-adv-x="1550" 
d="M616 1393q395 0 608.5 -183.5t213.5 -523.5q0 -327 -220.5 -506.5t-619.5 -179.5h-496v53q126 3 161.5 39t35.5 160v424h-180v41h180v420q0 48 -2 77t-10 53.5t-19 36.5t-34 21t-50.5 11t-72.5 3v54h505zM621 57q307 0 494.5 173.5t187.5 453.5q0 302 -177.5 476.5
t-484.5 174.5h-231v-618h555v-41h-555v-402q0 -118 49 -167.5t162 -49.5z" />
    <glyph glyph-name="Ntilde" unicode="&#xd1;" horiz-adv-x="1546" 
d="M618 1604q-44 0 -75 -34.5t-37 -88.5h-33q5 95 44.5 145.5t111.5 50.5q37 0 76.5 -19t67 -42.5t61 -42.5t61.5 -19q44 0 75.5 34.5t37.5 88.5h32q-5 -96 -44 -146t-111 -50q-37 0 -76.5 19t-67 42.5t-61.5 42.5t-62 19zM1012 1393h452v-54q-86 -3 -114.5 -48.5
t-28.5 -168.5v-1138h-98l-854 1126v-809q0 -53 2.5 -86.5t11.5 -64t23.5 -46.5t41.5 -28.5t63 -17t89 -5.5v-53h-498v53q52 1 84.5 8.5t54.5 22t32 45.5t14 69t4 103v911l-6 9q-55 73 -86.5 93t-96.5 25v54h207l934 -1248v977q0 69 -8 107.5t-34.5 64t-69.5 34.5t-119 11v54
z" />
    <glyph glyph-name="Ograve" unicode="&#xd2;" horiz-adv-x="1626" 
d="M547 1677h117l206 -196h-65zM813 -29q-146 0 -274 51.5t-222.5 144.5t-149 230t-54.5 299t54.5 299t149 230t222.5 144.5t274 51.5t274 -51.5t222.5 -144.5t149 -230t54.5 -299t-54.5 -299t-149 -230t-222.5 -144.5t-274 -51.5zM813 41q252 0 406.5 181t154.5 474
q0 294 -154.5 475t-406.5 181t-406.5 -181t-154.5 -475q0 -293 154.5 -474t406.5 -181z" />
    <glyph glyph-name="Oacute" unicode="&#xd3;" horiz-adv-x="1626" 
d="M1100 1677l-258 -196h-66l207 196h117zM813 -29q-146 0 -274 51.5t-222.5 144.5t-149 230t-54.5 299t54.5 299t149 230t222.5 144.5t274 51.5t274 -51.5t222.5 -144.5t149 -230t54.5 -299t-54.5 -299t-149 -230t-222.5 -144.5t-274 -51.5zM813 41q252 0 406.5 181
t154.5 474q0 294 -154.5 475t-406.5 181t-406.5 -181t-154.5 -475q0 -293 154.5 -474t406.5 -181z" />
    <glyph glyph-name="Ocircumflex" unicode="&#xd4;" horiz-adv-x="1626" 
d="M813 1626l-203 -145h-61l192 196h144l192 -196h-61zM813 1421q146 0 274 -51.5t222.5 -144.5t149 -230t54.5 -299t-54.5 -299t-149 -230t-222.5 -144.5t-274 -51.5t-274 51.5t-222.5 144.5t-149 230t-54.5 299t54.5 299t149 230t222.5 144.5t274 51.5zM813 41
q252 0 406.5 181t154.5 474q0 294 -154.5 475t-406.5 181t-406.5 -181t-154.5 -475q0 -293 154.5 -474t406.5 -181z" />
    <glyph glyph-name="Otilde" unicode="&#xd5;" horiz-adv-x="1626" 
d="M684 1677q-72 0 -111.5 -50.5t-44.5 -145.5h33q6 54 37.5 88.5t75.5 34.5q28 0 61.5 -19t61 -42.5t67 -42.5t76.5 -19q72 0 111.5 50.5t44.5 145.5h-33q-6 -54 -37.5 -88.5t-75.5 -34.5q-28 0 -61.5 19t-61 42.5t-67 42.5t-76.5 19zM813 -29q-146 0 -274 51.5
t-222.5 144.5t-149 230t-54.5 299t54.5 299t149 230t222.5 144.5t274 51.5t274 -51.5t222.5 -144.5t149 -230t54.5 -299t-54.5 -299t-149 -230t-222.5 -144.5t-274 -51.5zM813 41q252 0 406.5 181t154.5 474q0 294 -154.5 475t-406.5 181t-406.5 -181t-154.5 -475
q0 -293 154.5 -474t406.5 -181z" />
    <glyph glyph-name="Odieresis" unicode="&#xd6;" horiz-adv-x="1626" 
d="M602 1487q-37 0 -61.5 26t-24.5 62t24 61t62 25t63 -25t25 -61t-25 -62t-63 -26zM1024 1487q-38 0 -63 26t-25 62t25 61t63 25t62 -25t24 -61t-24.5 -62t-61.5 -26zM813 -29q-146 0 -274 51.5t-222.5 144.5t-149 230t-54.5 299t54.5 299t149 230t222.5 144.5t274 51.5
t274 -51.5t222.5 -144.5t149 -230t54.5 -299t-54.5 -299t-149 -230t-222.5 -144.5t-274 -51.5zM813 41q252 0 406.5 181t154.5 474q0 294 -154.5 475t-406.5 181t-406.5 -181t-154.5 -475q0 -293 154.5 -474t406.5 -181z" />
    <glyph glyph-name="multiply" unicode="&#xd7;" horiz-adv-x="1187" 
d="M969 932l-332 -332l332 -332l-43 -43l-332 332l-332 -332l-43 43l332 332l-332 332l43 43l332 -332l332 332z" />
    <glyph glyph-name="Oslash" unicode="&#xd8;" horiz-adv-x="1626" 
d="M1307 1229q98 -98 152 -234t54 -299q0 -162 -54.5 -299t-149 -230t-222.5 -144.5t-274 -51.5q-272 0 -465 166l-121 -137h-53l145 166q-206 200 -206 530q0 162 54.5 299t149 230t222.5 144.5t274 51.5q270 0 463 -166l121 138h53zM252 696q0 -273 137 -452l821 938
q-153 170 -397 170q-252 0 -406.5 -181t-154.5 -475zM813 41q252 0 406.5 181t154.5 474q0 277 -137 453l-823 -936q155 -172 399 -172z" />
    <glyph glyph-name="Ugrave" unicode="&#xd9;" horiz-adv-x="1431" 
d="M471 1677h117l207 -196h-66zM711 -29q-238 0 -371 134t-133 384v639q0 131 -21.5 169.5t-103.5 41.5v54h442v-54q-47 -1 -77.5 -4.5t-53.5 -14t-35 -23.5t-19 -39t-9 -54.5t-2 -75.5v-616q0 -220 105.5 -336.5t301.5 -116.5q194 0 301 119.5t107 333.5v588
q0 76 -6.5 118.5t-29 71t-58.5 38t-101 11.5v54h402v-54q-83 -3 -109.5 -51t-26.5 -188v-586q0 -257 -131 -400t-372 -143z" />
    <glyph glyph-name="Uacute" unicode="&#xda;" horiz-adv-x="1431" 
d="M1024 1677l-258 -196h-66l207 196h117zM711 -29q-238 0 -371 134t-133 384v639q0 131 -21.5 169.5t-103.5 41.5v54h442v-54q-47 -1 -77.5 -4.5t-53.5 -14t-35 -23.5t-19 -39t-9 -54.5t-2 -75.5v-616q0 -220 105.5 -336.5t301.5 -116.5q194 0 301 119.5t107 333.5v588
q0 76 -6.5 118.5t-29 71t-58.5 38t-101 11.5v54h402v-54q-83 -3 -109.5 -51t-26.5 -188v-586q0 -257 -131 -400t-372 -143z" />
    <glyph glyph-name="Ucircumflex" unicode="&#xdb;" horiz-adv-x="1431" 
d="M737 1626l-202 -145h-62l193 196h143l192 -196h-61zM948 1393h402v-54q-83 -3 -109.5 -51t-26.5 -188v-586q0 -257 -131 -400t-372 -143q-238 0 -371 134t-133 384v639q0 131 -21.5 169.5t-103.5 41.5v54h442v-54q-47 -1 -77.5 -4.5t-53.5 -14t-35 -23.5t-19 -39
t-9 -54.5t-2 -75.5v-616q0 -220 105.5 -336.5t301.5 -116.5q194 0 301 119.5t107 333.5v588q0 76 -6.5 118.5t-29 71t-58.5 38t-101 11.5v54z" />
    <glyph glyph-name="Udieresis" unicode="&#xdc;" horiz-adv-x="1431" 
d="M526 1487q-37 0 -61.5 26t-24.5 62t24 61t62 25t63 -25t25 -61t-25 -62t-63 -26zM948 1487q-38 0 -63 26t-25 62t25 61t63 25t62 -25t24 -61t-24.5 -62t-61.5 -26zM711 -29q-238 0 -371 134t-133 384v639q0 131 -21.5 169.5t-103.5 41.5v54h442v-54q-47 -1 -77.5 -4.5
t-53.5 -14t-35 -23.5t-19 -39t-9 -54.5t-2 -75.5v-616q0 -220 105.5 -336.5t301.5 -116.5q194 0 301 119.5t107 333.5v588q0 76 -6.5 118.5t-29 71t-58.5 38t-101 11.5v54h402v-54q-83 -3 -109.5 -51t-26.5 -188v-586q0 -257 -131 -400t-372 -143z" />
    <glyph glyph-name="Yacute" unicode="&#xdd;" horiz-adv-x="1349" 
d="M961 1677l-259 -196h-65l207 196h117zM918 1393h391v-54q-36 -8 -63.5 -30.5t-65.5 -81.5l-455 -690v-291q0 -112 42.5 -151t168.5 -42v-53h-535v53q127 3 170 41.5t43 151.5v291l-446 675q-50 74 -72.5 97t-54.5 30v54h436v-54q-109 -6 -145.5 -21t-36.5 -52
q0 -44 70 -148l327 -497l320 487q46 71 63 103t17 51q0 39 -36.5 55t-137.5 22v54z" />
    <glyph glyph-name="Thorn" unicode="&#xde;" horiz-adv-x="1206" 
d="M707 1128q217 0 332.5 -98.5t115.5 -284.5t-115.5 -284.5t-332.5 -98.5h-310v-131q0 -60 7 -93.5t30 -53t55 -25t93 -6.5v-53h-480v53q61 1 93 6.5t55 25t30 53t7 93.5v930q0 60 -7 93.5t-30 53t-55 25t-93 6.5v54h480v-54q-61 -1 -93 -6.5t-55 -25t-30 -53t-7 -93.5v-33
h310zM692 424q161 0 246.5 82t85.5 239t-85.5 239.5t-246.5 82.5h-295v-643h295z" />
    <glyph glyph-name="germandbls" unicode="&#xdf;" horiz-adv-x="1239" 
d="M985 453q75 -53 109 -107.5t34 -138.5q0 -110 -68.5 -173t-191.5 -63q-144 0 -260 68v278h56q19 -159 64.5 -222.5t139.5 -63.5q170 0 170 139q0 56 -28 93.5t-111 94.5l-90 60q-64 43 -96.5 89t-32.5 107q0 75 39 119t139 101q193 108 193 315q0 126 -78 195t-211 69
q-383 0 -383 -475v-938h-307v47q129 6 164.5 37t35.5 137v649h-200v45l204 41q53 519 486 519q179 0 292 -82.5t113 -231.5q0 -110 -60.5 -197t-201.5 -167q-68 -39 -94.5 -69t-26.5 -71q0 -36 19.5 -63.5t60.5 -56.5z" />
    <glyph glyph-name="agrave" unicode="&#xe0;" horiz-adv-x="1042" 
d="M496 1094h-62l-198 299h112zM979 223l43 -12q-21 -119 -58 -175t-120 -56q-75 0 -116.5 49t-41.5 149v17q-103 -224 -301 -224q-112 0 -179 58.5t-67 160.5q0 101 71.5 165t211.5 110l264 88v106q0 252 -227 252q-64 0 -132.5 -21t-121.5 -54q7 -34 30.5 -64t42.5 -57.5
t19 -61.5q0 -43 -29 -70.5t-73 -27.5q-51 0 -82 36t-31 95q0 77 62 149.5t158.5 116t193.5 43.5q141 0 219 -78.5t78 -238.5v-483q0 -69 19.5 -94t59.5 -25q42 0 64.5 33t42.5 114zM416 66q74 0 146 55.5t124 161.5v202l-217 -75q-106 -38 -158.5 -82.5t-52.5 -118.5
q0 -69 41 -106t117 -37z" />
    <glyph glyph-name="aacute" unicode="&#xe1;" horiz-adv-x="1042" 
d="M702 1393l-198 -299h-62l148 299h112zM979 223l43 -12q-21 -119 -58 -175t-120 -56q-75 0 -116.5 49t-41.5 149v17q-103 -224 -301 -224q-112 0 -179 58.5t-67 160.5q0 101 71.5 165t211.5 110l264 88v106q0 252 -227 252q-64 0 -132.5 -21t-121.5 -54q7 -34 30.5 -64
t42.5 -57.5t19 -61.5q0 -43 -29 -70.5t-73 -27.5q-51 0 -82 36t-31 95q0 77 62 149.5t158.5 116t193.5 43.5q141 0 219 -78.5t78 -238.5v-483q0 -69 19.5 -94t59.5 -25q42 0 64.5 33t42.5 114zM416 66q74 0 146 55.5t124 161.5v202l-217 -75q-106 -38 -158.5 -82.5
t-52.5 -118.5q0 -69 41 -106t117 -37z" />
    <glyph glyph-name="acircumflex" unicode="&#xe2;" horiz-adv-x="1042" 
d="M461 1321l-162 -227h-61l172 299h102l172 -299h-61zM979 223l43 -12q-21 -119 -58 -175t-120 -56q-75 0 -116.5 49t-41.5 149v17q-103 -224 -301 -224q-112 0 -179 58.5t-67 160.5q0 101 71.5 165t211.5 110l264 88v106q0 252 -227 252q-64 0 -132.5 -21t-121.5 -54
q7 -34 30.5 -64t42.5 -57.5t19 -61.5q0 -43 -29 -70.5t-73 -27.5q-51 0 -82 36t-31 95q0 77 62 149.5t158.5 116t193.5 43.5q141 0 219 -78.5t78 -238.5v-483q0 -69 19.5 -94t59.5 -25q42 0 64.5 33t42.5 114zM416 66q74 0 146 55.5t124 161.5v202l-217 -75
q-106 -38 -158.5 -82.5t-52.5 -118.5q0 -69 41 -106t117 -37z" />
    <glyph glyph-name="atilde" unicode="&#xe3;" horiz-adv-x="1042" 
d="M317 1257q-43 0 -71 -33t-29 -91h-33q0 97 37 147.5t105 50.5q39 0 80.5 -19.5t70.5 -43t64.5 -43t64.5 -19.5q43 0 71.5 33.5t29.5 91.5h32q0 -97 -36.5 -147.5t-104.5 -50.5q-39 0 -80.5 19.5t-71 42.5t-65 42.5t-64.5 19.5zM979 223l43 -12q-21 -119 -58 -175
t-120 -56q-75 0 -116.5 49t-41.5 149v17q-103 -224 -301 -224q-112 0 -179 58.5t-67 160.5q0 101 71.5 165t211.5 110l264 88v106q0 252 -227 252q-64 0 -132.5 -21t-121.5 -54q7 -34 30.5 -64t42.5 -57.5t19 -61.5q0 -43 -29 -70.5t-73 -27.5q-51 0 -82 36t-31 95
q0 77 62 149.5t158.5 116t193.5 43.5q141 0 219 -78.5t78 -238.5v-483q0 -69 19.5 -94t59.5 -25q42 0 64.5 33t42.5 114zM416 66q74 0 146 55.5t124 161.5v202l-217 -75q-106 -38 -158.5 -82.5t-52.5 -118.5q0 -69 41 -106t117 -37z" />
    <glyph glyph-name="adieresis" unicode="&#xe4;" horiz-adv-x="1042" 
d="M285 1196q-42 0 -70.5 29t-28.5 69t28.5 69.5t70.5 29.5t70 -29t28 -70q0 -40 -28 -69t-70 -29zM645 1196q-42 0 -70 29t-28 69q0 41 28 70t70 29t70 -29t28 -70q0 -40 -28 -69t-70 -29zM979 223l43 -12q-21 -119 -58 -175t-120 -56q-75 0 -116.5 49t-41.5 149v17
q-103 -224 -301 -224q-112 0 -179 58.5t-67 160.5q0 101 71.5 165t211.5 110l264 88v106q0 252 -227 252q-64 0 -132.5 -21t-121.5 -54q7 -34 30.5 -64t42.5 -57.5t19 -61.5q0 -43 -29 -70.5t-73 -27.5q-51 0 -82 36t-31 95q0 77 62 149.5t158.5 116t193.5 43.5
q141 0 219 -78.5t78 -238.5v-483q0 -69 19.5 -94t59.5 -25q42 0 64.5 33t42.5 114zM416 66q74 0 146 55.5t124 161.5v202l-217 -75q-106 -38 -158.5 -82.5t-52.5 -118.5q0 -69 41 -106t117 -37z" />
    <glyph glyph-name="aring" unicode="&#xe5;" horiz-adv-x="1042" 
d="M465 1077q-86 0 -139.5 52.5t-53.5 136.5q0 83 53.5 135.5t139.5 52.5t139 -52t53 -136t-53 -136.5t-139 -52.5zM465 1411q-66 0 -107 -39.5t-41 -105.5t41 -106t107 -40t106.5 40t40.5 106t-40.5 105.5t-106.5 39.5zM979 223l43 -12q-21 -119 -58 -175t-120 -56
q-75 0 -116.5 49t-41.5 149v17q-103 -224 -301 -224q-112 0 -179 58.5t-67 160.5q0 101 71.5 165t211.5 110l264 88v106q0 252 -227 252q-64 0 -132.5 -21t-121.5 -54q7 -34 30.5 -64t42.5 -57.5t19 -61.5q0 -43 -29 -70.5t-73 -27.5q-51 0 -82 36t-31 95q0 77 62 149.5
t158.5 116t193.5 43.5q141 0 219 -78.5t78 -238.5v-483q0 -69 19.5 -94t59.5 -25q42 0 64.5 33t42.5 114zM416 66q74 0 146 55.5t124 161.5v202l-217 -75q-106 -38 -158.5 -82.5t-52.5 -118.5q0 -69 41 -106t117 -37z" />
    <glyph glyph-name="ae" unicode="&#xe6;" horiz-adv-x="1536" 
d="M1444 590h-649q-4 -50 -4 -78q0 -199 87.5 -305.5t229.5 -106.5q205 0 274 199l43 -14q-37 -152 -113.5 -233t-217.5 -81q-131 0 -226 69t-139 196q-114 -265 -342 -265q-107 0 -176.5 59.5t-69.5 159.5q0 102 70.5 164.5t212.5 110.5l266 88v106q0 137 -56.5 194.5
t-174.5 57.5q-68 0 -137 -20t-117 -57q5 -28 21 -52.5t32.5 -39.5t29.5 -38.5t13 -50.5q0 -43 -29 -70.5t-73 -27.5q-51 0 -84 36.5t-33 94.5q0 78 60 150t154.5 115.5t192.5 43.5q229 0 289 -182q54 88 137.5 135t186.5 47q163 0 253.5 -112.5t88.5 -292.5zM1094 930
q-101 0 -181 -71.5t-108 -207.5h516q0 58 -12 106t-38 88t-71 62.5t-106 22.5zM418 66q84 0 160 58t133 171q-21 83 -21 182v10l-219 -77q-106 -38 -158.5 -82.5t-52.5 -118.5q0 -68 43 -105.5t115 -37.5z" />
    <glyph glyph-name="ccedilla" unicode="&#xe7;" horiz-adv-x="960" 
d="M530 100q111 0 185.5 53t109.5 146l43 -14q-38 -149 -119 -230t-227 -84l-47 -94q94 8 155.5 -35t61.5 -123q0 -73 -57 -117t-152 -44q-85 0 -136.5 31.5t-51.5 86.5q0 27 15.5 44.5t39.5 17.5q26 0 42 -19t16 -51q0 -11 -3 -31t-2 -26q27 -12 82 -12q57 0 91 29.5
t34 80.5q0 127 -225 98l78 166q-170 19 -270.5 149t-100.5 339q0 243 123 388.5t330 145.5q137 0 230 -70t93 -177q0 -64 -30 -103t-82 -39q-45 0 -74 29t-29 76q0 39 34.5 87t41.5 72q-80 60 -188 60q-148 0 -248 -115t-100 -303q0 -199 92.5 -305.5t244.5 -106.5z" />
    <glyph glyph-name="egrave" unicode="&#xe8;" horiz-adv-x="978" 
d="M551 1094h-62l-198 299h112zM887 590h-690q-4 -50 -4 -78q0 -199 92.5 -305.5t244.5 -106.5q220 0 295 199l43 -14q-38 -151 -120.5 -232.5t-231.5 -81.5q-195 0 -309.5 135t-114.5 371q0 233 120.5 375.5t311.5 142.5q173 0 269 -112.5t94 -292.5zM516 930
q-107 0 -192.5 -71.5t-116.5 -207.5h557q0 78 -23 138.5t-80.5 100.5t-144.5 40z" />
    <glyph glyph-name="eacute" unicode="&#xe9;" horiz-adv-x="978" 
d="M758 1393l-199 -299h-61l147 299h113zM887 590h-690q-4 -50 -4 -78q0 -199 92.5 -305.5t244.5 -106.5q220 0 295 199l43 -14q-38 -151 -120.5 -232.5t-231.5 -81.5q-195 0 -309.5 135t-114.5 371q0 233 120.5 375.5t311.5 142.5q173 0 269 -112.5t94 -292.5zM516 930
q-107 0 -192.5 -71.5t-116.5 -207.5h557q0 78 -23 138.5t-80.5 100.5t-144.5 40z" />
    <glyph glyph-name="ecircumflex" unicode="&#xea;" horiz-adv-x="978" 
d="M516 1321l-162 -227h-61l172 299h102l172 -299h-61zM887 590h-690q-4 -50 -4 -78q0 -199 92.5 -305.5t244.5 -106.5q220 0 295 199l43 -14q-38 -151 -120.5 -232.5t-231.5 -81.5q-195 0 -309.5 135t-114.5 371q0 233 120.5 375.5t311.5 142.5q173 0 269 -112.5t94 -292.5
zM516 930q-107 0 -192.5 -71.5t-116.5 -207.5h557q0 78 -23 138.5t-80.5 100.5t-144.5 40z" />
    <glyph glyph-name="edieresis" unicode="&#xeb;" horiz-adv-x="978" 
d="M340 1196q-42 0 -70 29t-28 69q0 41 28 70t70 29t70 -29t28 -70q0 -40 -28 -69t-70 -29zM700 1196q-42 0 -70 29t-28 69q0 41 28 70t70 29t70.5 -29.5t28.5 -69.5t-28.5 -69t-70.5 -29zM887 590h-690q-4 -50 -4 -78q0 -199 92.5 -305.5t244.5 -106.5q220 0 295 199
l43 -14q-38 -151 -120.5 -232.5t-231.5 -81.5q-195 0 -309.5 135t-114.5 371q0 233 120.5 375.5t311.5 142.5q173 0 269 -112.5t94 -292.5zM516 930q-107 0 -192.5 -71.5t-116.5 -207.5h557q0 78 -23 138.5t-80.5 100.5t-144.5 40z" />
    <glyph glyph-name="igrave" unicode="&#xec;" horiz-adv-x="591" 
d="M61 1393h113l148 -299h-62zM74 0v47q103 6 135.5 32.5t32.5 121.5v563q0 87 -29 108t-141 21v39l235 51h41v-782q0 -97 31 -122.5t141 -31.5v-47h-446z" />
    <glyph glyph-name="iacute" unicode="&#xed;" horiz-adv-x="591" 
d="M528 1393l-198 -299h-62l148 299h112zM74 0v47q103 6 135.5 32.5t32.5 121.5v563q0 87 -29 108t-141 21v39l235 51h41v-782q0 -97 31 -122.5t141 -31.5v-47h-446z" />
    <glyph glyph-name="icircumflex" unicode="&#xee;" horiz-adv-x="591" 
d="M287 1321l-162 -227h-62l173 299h102l172 -299h-61zM348 201q0 -97 31 -122.5t141 -31.5v-47h-446v47q103 6 135.5 32.5t32.5 121.5v563q0 87 -29 108t-141 21v39l235 51h41v-782z" />
    <glyph glyph-name="idieresis" unicode="&#xef;" horiz-adv-x="591" 
d="M111 1196q-42 0 -70.5 29t-28.5 69t28.5 69.5t70.5 29.5t70 -29t28 -70q0 -40 -28 -69t-70 -29zM471 1196q-42 0 -70 29t-28 69q0 41 28 70t70 29t70 -29t28 -70q0 -40 -28 -69t-70 -29zM74 0v47q103 6 135.5 32.5t32.5 121.5v563q0 87 -29 108t-141 21v39l235 51h41
v-782q0 -97 31 -122.5t141 -31.5v-47h-446z" />
    <glyph glyph-name="eth" unicode="&#xf0;" horiz-adv-x="1071" 
d="M743 1260q236 -242 236 -672q0 -295 -117 -456t-336 -161q-201 0 -317.5 133.5t-116.5 368.5t115.5 378.5t312.5 143.5q231 0 326 -209q-37 278 -195 443l-364 -119v68l309 100q-136 112 -336 139l19 58q239 -26 411 -166l213 69v-67zM541 35q153 0 230 113t77 321
q0 222 -83.5 342.5t-227.5 120.5q-147 0 -229.5 -123t-82.5 -336q0 -208 81 -323t235 -115z" />
    <glyph glyph-name="ntilde" unicode="&#xf1;" horiz-adv-x="1169" 
d="M438 1257q-43 0 -71 -33t-29 -91h-33q0 97 36.5 147.5t104.5 50.5q39 0 80.5 -19.5t71 -43t65 -43t64.5 -19.5q43 0 71 33.5t29 91.5h33q0 -97 -36.5 -147.5t-104.5 -50.5q-39 0 -80.5 19.5t-71 42.5t-65 42.5t-64.5 19.5zM958 186q0 -85 24.5 -107.5t125.5 -31.5v-47
h-426v47q43 3 67 5.5t46 9t31 14t16 24t8.5 35t1.5 51.5v430q0 132 -59.5 204.5t-169.5 72.5q-82 0 -148.5 -40.5t-134.5 -129.5v-537q0 -35 1 -53t7.5 -35.5t14 -24t29 -13t43.5 -8.5t65 -5v-47h-428v47q104 9 132.5 34t28.5 105v578q0 87 -27.5 108t-133.5 21v39l227 51
h41v-184q61 101 137 148.5t174 47.5q143 0 225 -92t82 -252v-465z" />
    <glyph glyph-name="ograve" unicode="&#xf2;" horiz-adv-x="1085" 
d="M315 1393h113l147 -299h-61zM539 -29q-198 0 -322.5 142t-124.5 368q0 227 127 370.5t328 143.5q198 0 322 -142t124 -368q0 -227 -126.5 -370.5t-327.5 -143.5zM549 37q45 0 87 12t84.5 42.5t73.5 77t50.5 121t19.5 169.5q0 91 -19.5 173.5t-58 150t-103 107.5
t-146.5 40q-45 0 -87 -12t-84.5 -42.5t-74 -77t-51 -121t-19.5 -169.5q0 -91 20 -173.5t58.5 -150t103 -107.5t146.5 -40z" />
    <glyph glyph-name="oacute" unicode="&#xf3;" horiz-adv-x="1085" 
d="M782 1393l-198 -299h-62l148 299h112zM539 -29q-198 0 -322.5 142t-124.5 368q0 227 127 370.5t328 143.5q198 0 322 -142t124 -368q0 -227 -126.5 -370.5t-327.5 -143.5zM549 37q45 0 87 12t84.5 42.5t73.5 77t50.5 121t19.5 169.5q0 91 -19.5 173.5t-58 150t-103 107.5
t-146.5 40q-45 0 -87 -12t-84.5 -42.5t-74 -77t-51 -121t-19.5 -169.5q0 -91 20 -173.5t58.5 -150t103 -107.5t146.5 -40z" />
    <glyph glyph-name="ocircumflex" unicode="&#xf4;" horiz-adv-x="1085" 
d="M541 1321l-162 -227h-62l172 299h103l172 -299h-62zM547 995q198 0 322 -142t124 -368q0 -227 -126.5 -370.5t-327.5 -143.5q-198 0 -322.5 142t-124.5 368q0 227 127 370.5t328 143.5zM549 37q45 0 87 12t84.5 42.5t73.5 77t50.5 121t19.5 169.5q0 91 -19.5 173.5
t-58 150t-103 107.5t-146.5 40q-45 0 -87 -12t-84.5 -42.5t-74 -77t-51 -121t-19.5 -169.5q0 -91 20 -173.5t58.5 -150t103 -107.5t146.5 -40z" />
    <glyph glyph-name="otilde" unicode="&#xf5;" horiz-adv-x="1085" 
d="M406 1331q-68 0 -105 -50.5t-37 -147.5h33q1 58 29 91t71 33q29 0 64.5 -19.5t65 -42.5t71 -42.5t80.5 -19.5q68 0 104.5 50.5t36.5 147.5h-33q-1 -58 -29 -91.5t-71 -33.5q-29 0 -64.5 19.5t-64.5 43t-70.5 43t-80.5 19.5zM539 -29q-198 0 -322.5 142t-124.5 368
q0 227 127 370.5t328 143.5q198 0 322 -142t124 -368q0 -227 -126.5 -370.5t-327.5 -143.5zM549 37q45 0 87 12t84.5 42.5t73.5 77t50.5 121t19.5 169.5q0 91 -19.5 173.5t-58 150t-103 107.5t-146.5 40q-45 0 -87 -12t-84.5 -42.5t-74 -77t-51 -121t-19.5 -169.5
q0 -91 20 -173.5t58.5 -150t103 -107.5t146.5 -40z" />
    <glyph glyph-name="odieresis" unicode="&#xf6;" horiz-adv-x="1085" 
d="M365 1196q-42 0 -70.5 29t-28.5 69t28.5 69.5t70.5 29.5t70 -29t28 -70q0 -40 -28 -69t-70 -29zM725 1196q-42 0 -70 29t-28 69q0 41 28 70t70 29t70 -29t28 -70q0 -40 -28 -69t-70 -29zM539 -29q-198 0 -322.5 142t-124.5 368q0 227 127 370.5t328 143.5q198 0 322 -142
t124 -368q0 -227 -126.5 -370.5t-327.5 -143.5zM549 37q45 0 87 12t84.5 42.5t73.5 77t50.5 121t19.5 169.5q0 91 -19.5 173.5t-58 150t-103 107.5t-146.5 40q-45 0 -87 -12t-84.5 -42.5t-74 -77t-51 -121t-19.5 -169.5q0 -91 20 -173.5t58.5 -150t103 -107.5t146.5 -40z
" />
    <glyph glyph-name="divide" unicode="&#xf7;" horiz-adv-x="1187" 
d="M594 778q-45 0 -75 31t-30 74q0 45 30 75.5t75 30.5t74.5 -30.5t29.5 -75.5q0 -44 -29.5 -74.5t-74.5 -30.5zM135 569v62h918v-62h-918zM594 219q-46 0 -75.5 30.5t-29.5 76.5q0 44 29.5 74t75.5 30q45 0 74.5 -29.5t29.5 -74.5q0 -46 -29.5 -76.5t-74.5 -30.5z" />
    <glyph glyph-name="oslash" unicode="&#xf8;" horiz-adv-x="1085" 
d="M995 971l-114 -131q112 -137 112 -355q0 -227 -126.5 -370.5t-327.5 -143.5q-189 0 -312 129l-88 -100h-53l115 131q-109 137 -109 350q0 227 127 370.5t328 143.5q185 0 307 -125l88 101h53zM221 508q0 -167 60 -287l501 567q-88 142 -245 142q-45 0 -87 -12
t-84.5 -42.5t-74 -77t-51 -121t-19.5 -169.5zM864 459q0 168 -61 293l-502 -570q87 -145 248 -145q45 0 87 12t84.5 42.5t73.5 77t50.5 121t19.5 169.5z" />
    <glyph glyph-name="ugrave" unicode="&#xf9;" horiz-adv-x="1095" 
d="M567 1094h-61l-199 299h113zM887 209q0 -94 31 -122t126 -28v-43l-235 -28l-29 22v158q-62 -102 -135.5 -149.5t-171.5 -47.5q-133 0 -213 90.5t-80 253.5v478q0 75 -26.5 102t-92.5 33v43h226v-637q0 -125 59.5 -192.5t155.5 -67.5q81 0 145.5 40t132.5 130v530
q0 48 -7.5 76.5t-28.5 44.5t-44.5 22t-70.5 11v43h258v-762z" />
    <glyph glyph-name="uacute" unicode="&#xfa;" horiz-adv-x="1095" 
d="M774 1393l-199 -299h-61l148 299h112zM887 209q0 -94 31 -122t126 -28v-43l-235 -28l-29 22v158q-62 -102 -135.5 -149.5t-171.5 -47.5q-133 0 -213 90.5t-80 253.5v478q0 75 -26.5 102t-92.5 33v43h226v-637q0 -125 59.5 -192.5t155.5 -67.5q81 0 145.5 40t132.5 130
v530q0 48 -7.5 76.5t-28.5 44.5t-44.5 22t-70.5 11v43h258v-762z" />
    <glyph glyph-name="ucircumflex" unicode="&#xfb;" horiz-adv-x="1095" 
d="M532 1321l-161 -227h-62l172 299h103l172 -299h-62zM887 209q0 -94 31 -122t126 -28v-43l-235 -28l-29 22v158q-62 -102 -135.5 -149.5t-171.5 -47.5q-133 0 -213 90.5t-80 253.5v478q0 75 -26.5 102t-92.5 33v43h226v-637q0 -125 59.5 -192.5t155.5 -67.5q81 0 145.5 40
t132.5 130v530q0 48 -7.5 76.5t-28.5 44.5t-44.5 22t-70.5 11v43h258v-762z" />
    <glyph glyph-name="udieresis" unicode="&#xfc;" horiz-adv-x="1095" 
d="M356 1196q-42 0 -70 29t-28 69q0 41 28 70t70 29t70.5 -29.5t28.5 -69.5t-28.5 -69t-70.5 -29zM717 1196q-42 0 -70.5 29t-28.5 69t28.5 69.5t70.5 29.5t70 -29t28 -70q0 -40 -28 -69t-70 -29zM887 209q0 -94 31 -122t126 -28v-43l-235 -28l-29 22v158
q-62 -102 -135.5 -149.5t-171.5 -47.5q-133 0 -213 90.5t-80 253.5v478q0 75 -26.5 102t-92.5 33v43h226v-637q0 -125 59.5 -192.5t155.5 -67.5q81 0 145.5 40t132.5 130v530q0 48 -7.5 76.5t-28.5 44.5t-44.5 22t-70.5 11v43h258v-762z" />
    <glyph glyph-name="yacute" unicode="&#xfd;" horiz-adv-x="1036" 
d="M797 1393l-199 -299h-61l147 299h113zM672 971h323v-47q-37 -3 -62.5 -37.5t-68.5 -138.5l-323 -779q-99 -239 -176 -324t-191 -85q-84 0 -134 40t-50 105q0 47 27.5 73.5t74.5 26.5q26 0 45 -11t31 -30t22 -39t25.5 -43.5t34.5 -39.5q94 37 227 352l21 49l-297 721
q-37 91 -64.5 124t-68.5 36v47h376v-47q-72 -3 -101.5 -21t-29.5 -59q0 -49 35 -133l209 -525l238 572q26 68 26 94q0 69 -149 72v47z" />
    <glyph glyph-name="thorn" unicode="&#xfe;" horiz-adv-x="1073" 
d="M608 995q168 0 270.5 -132t102.5 -353q0 -259 -116.5 -399t-303.5 -140q-170 0 -272 95v-297q0 -61 17 -89.5t62 -40.5t144 -14v-47h-481v47q98 3 124.5 28.5t26.5 115.5v1466q0 79 -28.5 99t-133.5 20v39l228 61h41v-655q119 196 319 196zM573 37q137 0 213 111t76 319
q0 196 -76.5 308t-207.5 112q-81 0 -150 -38.5t-139 -125.5v-369q0 -156 75.5 -236.5t208.5 -80.5z" />
    <glyph glyph-name="ydieresis" unicode="&#xff;" horiz-adv-x="1036" 
d="M379 1196q-42 0 -70 29t-28 69q0 41 28 70t70 29t70 -29t28 -70q0 -40 -28 -69t-70 -29zM739 1196q-42 0 -70 29t-28 69q0 41 28 70t70 29t70.5 -29.5t28.5 -69.5t-28.5 -69t-70.5 -29zM672 971h323v-47q-37 -3 -62.5 -37.5t-68.5 -138.5l-323 -779q-99 -239 -176 -324
t-191 -85q-84 0 -134 40t-50 105q0 47 27.5 73.5t74.5 26.5q26 0 45 -11t31 -30t22 -39t25.5 -43.5t34.5 -39.5q94 37 227 352l21 49l-297 721q-37 91 -64.5 124t-68.5 36v47h376v-47q-72 -3 -101.5 -21t-29.5 -59q0 -49 35 -133l209 -525l238 572q26 68 26 94q0 69 -149 72
v47z" />
    <glyph glyph-name="Amacron" unicode="&#x100;" horiz-adv-x="1409" 
d="M932 1604v-52h-541v52h541zM1167 297q56 -134 98.5 -186t102.5 -58v-53h-461v53q95 2 137.5 25t42.5 76q0 54 -36 139l-78 190h-586l-68 -166q-40 -101 -40 -159q0 -55 39 -79t128 -26v-53h-405v53q57 6 96.5 58t98.5 196l399 998l-43 106h119zM414 549h532l-270 655z
" />
    <glyph glyph-name="amacron" unicode="&#x101;" horiz-adv-x="1042" 
d="M735 1284v-51h-540v51h540zM979 223l43 -12q-21 -119 -58 -175t-120 -56q-75 0 -116.5 49t-41.5 149v17q-103 -224 -301 -224q-112 0 -179 58.5t-67 160.5q0 101 71.5 165t211.5 110l264 88v106q0 252 -227 252q-64 0 -132.5 -21t-121.5 -54q7 -34 30.5 -64t42.5 -57.5
t19 -61.5q0 -43 -29 -70.5t-73 -27.5q-51 0 -82 36t-31 95q0 77 62 149.5t158.5 116t193.5 43.5q141 0 219 -78.5t78 -238.5v-483q0 -69 19.5 -94t59.5 -25q42 0 64.5 33t42.5 114zM416 66q74 0 146 55.5t124 161.5v202l-217 -75q-106 -38 -158.5 -82.5t-52.5 -118.5
q0 -69 41 -106t117 -37z" />
    <glyph glyph-name="Abreve" unicode="&#x102;" horiz-adv-x="1409" 
d="M662 1481q-125 0 -182 48t-62 148h61q5 -68 47.5 -101.5t135.5 -33.5t135 33.5t47 101.5h61q-5 -100 -61.5 -148t-181.5 -48zM1167 297q56 -134 98.5 -186t102.5 -58v-53h-461v53q95 2 137.5 25t42.5 76q0 54 -36 139l-78 190h-586l-68 -166q-40 -101 -40 -159
q0 -55 39 -79t128 -26v-53h-405v53q57 6 96.5 58t98.5 196l399 998l-43 106h119zM414 549h532l-270 655z" />
    <glyph glyph-name="abreve" unicode="&#x103;" horiz-adv-x="1042" 
d="M465 1094q-126 0 -185 74t-59 225h62q0 -119 44 -178.5t138 -59.5t138 59.5t44 178.5h62q0 -151 -59 -225t-185 -74zM979 223l43 -12q-21 -119 -58 -175t-120 -56q-75 0 -116.5 49t-41.5 149v17q-103 -224 -301 -224q-112 0 -179 58.5t-67 160.5q0 101 71.5 165
t211.5 110l264 88v106q0 252 -227 252q-64 0 -132.5 -21t-121.5 -54q7 -34 30.5 -64t42.5 -57.5t19 -61.5q0 -43 -29 -70.5t-73 -27.5q-51 0 -82 36t-31 95q0 77 62 149.5t158.5 116t193.5 43.5q141 0 219 -78.5t78 -238.5v-483q0 -69 19.5 -94t59.5 -25q42 0 64.5 33
t42.5 114zM416 66q74 0 146 55.5t124 161.5v202l-217 -75q-106 -38 -158.5 -82.5t-52.5 -118.5q0 -69 41 -106t117 -37z" />
    <glyph glyph-name="Aogonek" unicode="&#x104;" horiz-adv-x="1409" 
d="M1411 -131q6 -40 6 -76q0 -115 -50.5 -175t-147.5 -60q-100 0 -153.5 50t-53.5 142q0 72 34 136.5t109 133.5h2l-188 463h-580v13l-72 -177q-61 -149 -32.5 -206t161.5 -60v-53h-405v53q55 6 92.5 57.5t97.5 198.5l404 996l-43 106h119l465 -1132q50 -122 91.5 -171
t100.5 -55v-53h-176q-107 -115 -107 -221q0 -63 35 -96t101 -33q79 0 113.5 49.5t39.5 169.5h37zM410 549h532l-266 655z" />
    <glyph glyph-name="aogonek" unicode="&#x105;" horiz-adv-x="1042" 
d="M975 -131h37q6 -40 6 -76q0 -115 -51 -175t-148 -60q-100 0 -153.5 50t-53.5 142q0 133 133 260q-59 49 -59 168v17q-103 -224 -301 -224q-112 0 -179 58.5t-67 160.5q0 101 71.5 165t211.5 110l264 88v106q0 252 -227 252q-64 0 -132.5 -21t-121.5 -54q7 -34 30.5 -64
t42.5 -57.5t19 -61.5q0 -43 -29 -70.5t-73 -27.5q-51 0 -82 36t-31 95q0 77 62 149.5t158.5 116t193.5 43.5q141 0 219 -78.5t78 -238.5v-483q0 -69 19.5 -94t59.5 -25q42 0 64.5 33t42.5 114l43 -12q-21 -119 -58 -175t-120 -56q-33 0 -60 10q-98 -109 -98 -211
q0 -63 34.5 -96t100.5 -33q80 0 115 49.5t39 169.5zM416 66q74 0 146 55.5t124 161.5v202l-217 -75q-106 -38 -158.5 -82.5t-52.5 -118.5q0 -69 41 -106t117 -37z" />
    <glyph glyph-name="Cacute" unicode="&#x106;" horiz-adv-x="1521" 
d="M1130 1677l-258 -196h-65l207 196h116zM823 -29q-320 0 -515 197.5t-195 519.5q0 327 198.5 530t526.5 203q110 0 205.5 -21t151 -42t67.5 -21q17 0 27 15t18 51h61v-445h-61q-45 208 -157.5 301t-309.5 93q-278 0 -433 -169t-155 -476q0 -308 157.5 -487t424.5 -179
q223 0 337.5 100.5t165.5 345.5h62l-15 -387q-117 -62 -263 -95.5t-298 -33.5z" />
    <glyph glyph-name="cacute" unicode="&#x107;" horiz-adv-x="960" 
d="M766 1393l-199 -299h-61l147 299h113zM512 -29q-191 0 -305.5 132.5t-114.5 357.5q0 243 123 388.5t330 145.5q137 0 230 -70t93 -177q0 -64 -30 -103t-82 -39q-45 0 -74 29t-29 76q0 39 34.5 87t41.5 72q-80 60 -188 60q-148 0 -248 -115t-100 -303q0 -199 92.5 -305.5
t244.5 -106.5q111 0 185.5 53t109.5 146l43 -14q-38 -151 -121.5 -232.5t-234.5 -81.5z" />
    <glyph glyph-name="Ccircumflex" unicode="&#x108;" horiz-adv-x="1521" 
d="M844 1626l-203 -145h-61l192 196h143l193 -196h-61zM1337 487h62l-15 -387q-117 -62 -263 -95.5t-298 -33.5q-320 0 -515 197.5t-195 519.5q0 327 198.5 530t526.5 203q110 0 205.5 -21t151 -42t67.5 -21q17 0 27 15t18 51h61v-445h-61q-45 208 -157.5 301t-309.5 93
q-278 0 -433 -169t-155 -476q0 -308 157.5 -487t424.5 -179q223 0 337.5 100.5t165.5 345.5z" />
    <glyph glyph-name="ccircumflex" unicode="&#x109;" horiz-adv-x="960" 
d="M524 1321l-162 -227h-61l172 299h102l173 -299h-62zM530 100q111 0 185.5 53t109.5 146l43 -14q-38 -151 -121.5 -232.5t-234.5 -81.5q-191 0 -305.5 132.5t-114.5 357.5q0 243 123 388.5t330 145.5q137 0 230 -70t93 -177q0 -64 -30 -103t-82 -39q-45 0 -74 29t-29 76
q0 39 34.5 87t41.5 72q-80 60 -188 60q-148 0 -248 -115t-100 -303q0 -199 92.5 -305.5t244.5 -106.5z" />
    <glyph glyph-name="Cdotaccent" unicode="&#x10a;" horiz-adv-x="1521" 
d="M844 1489q-40 0 -67 27.5t-27 68.5q0 40 27 67t67 27t67 -27t27 -67q0 -41 -27 -68.5t-67 -27.5zM823 -29q-320 0 -515 197.5t-195 519.5q0 327 198.5 530t526.5 203q110 0 205.5 -21t151 -42t67.5 -21q17 0 27 15t18 51h61v-445h-61q-45 208 -157.5 301t-309.5 93
q-278 0 -433 -169t-155 -476q0 -308 157.5 -487t424.5 -179q223 0 337.5 100.5t165.5 345.5h62l-15 -387q-117 -62 -263 -95.5t-298 -33.5z" />
    <glyph glyph-name="cdotaccent" unicode="&#x10b;" horiz-adv-x="960" 
d="M528 1198q-44 0 -74 30.5t-30 76.5t30 76t74 30t74.5 -30.5t30.5 -75.5q0 -46 -30.5 -76.5t-74.5 -30.5zM512 -29q-191 0 -305.5 132.5t-114.5 357.5q0 243 123 388.5t330 145.5q137 0 230 -70t93 -177q0 -64 -30 -103t-82 -39q-45 0 -74 29t-29 76q0 39 34.5 87t41.5 72
q-80 60 -188 60q-148 0 -248 -115t-100 -303q0 -199 92.5 -305.5t244.5 -106.5q111 0 185.5 53t109.5 146l43 -14q-38 -151 -121.5 -232.5t-234.5 -81.5z" />
    <glyph glyph-name="Ccaron" unicode="&#x10c;" horiz-adv-x="1521" 
d="M915 1481h-143l-192 196h61l203 -145l203 145h61zM1337 487h62l-15 -387q-117 -62 -263 -95.5t-298 -33.5q-320 0 -515 197.5t-195 519.5q0 327 198.5 530t526.5 203q110 0 205.5 -21t151 -42t67.5 -21q17 0 27 15t18 51h61v-445h-61q-45 208 -157.5 301t-309.5 93
q-278 0 -433 -169t-155 -476q0 -308 157.5 -487t424.5 -179q223 0 337.5 100.5t165.5 345.5z" />
    <glyph glyph-name="ccaron" unicode="&#x10d;" horiz-adv-x="960" 
d="M580 1094h-103l-172 299h62l161 -228l162 228h62zM530 100q111 0 185.5 53t109.5 146l43 -14q-38 -151 -121.5 -232.5t-234.5 -81.5q-191 0 -305.5 132.5t-114.5 357.5q0 243 123 388.5t330 145.5q137 0 230 -70t93 -177q0 -64 -30 -103t-82 -39q-45 0 -74 29t-29 76
q0 39 34.5 87t41.5 72q-80 60 -188 60q-148 0 -248 -115t-100 -303q0 -199 92.5 -305.5t244.5 -106.5z" />
    <glyph glyph-name="Dcaron" unicode="&#x10e;" horiz-adv-x="1550" 
d="M760 1481h-144l-192 196h61l203 -145l203 145h61zM616 1393q395 0 608.5 -183.5t213.5 -523.5q0 -327 -220.5 -506.5t-619.5 -179.5h-496v53q126 3 161.5 39t35.5 160v885q0 48 -2 77t-10 53.5t-19 36.5t-34 21t-50.5 11t-72.5 3v54h505zM621 57q307 0 494.5 173.5
t187.5 453.5q0 302 -177.5 476.5t-484.5 174.5h-231v-1061q0 -118 49 -167.5t162 -49.5z" />
    <glyph glyph-name="dcaron" unicode="&#x10f;" horiz-adv-x="1239" 
d="M891 223q0 -55 7 -86t29 -51t55 -27.5t93 -11.5v-47h-262l-22 18l-7 150q-62 -101 -136.5 -149t-172.5 -48q-176 0 -279.5 132.5t-103.5 353.5q0 261 116.5 399.5t313.5 138.5q78 0 149 -25.5t113 -76.5v342q0 79 -35 99t-167 20v39l268 61h41v-1231zM1104 1454
q110 0 110 -151q0 -87 -52 -140t-152 -53v35q86 0 125.5 45.5t33.5 120.5q-39 -31 -69 -31q-90 0 -90 82q0 44 24 68t70 24zM500 80q80 0 148 38.5t136 125.5v409q0 126 -75.5 201.5t-194.5 75.5q-148 0 -225.5 -110.5t-77.5 -319.5q0 -198 77.5 -309t211.5 -111z" />
    <glyph glyph-name="Dcroat" unicode="&#x110;" horiz-adv-x="1550" 
d="M616 1393q395 0 608.5 -183.5t213.5 -523.5q0 -327 -220.5 -506.5t-619.5 -179.5h-496v53q126 3 161.5 39t35.5 160v424h-180v41h180v420q0 48 -2 77t-10 53.5t-19 36.5t-34 21t-50.5 11t-72.5 3v54h505zM621 57q307 0 494.5 173.5t187.5 453.5q0 302 -177.5 476.5
t-484.5 174.5h-231v-618h555v-41h-555v-402q0 -118 49 -167.5t162 -49.5z" />
    <glyph glyph-name="dcroat" unicode="&#x111;" horiz-adv-x="1136" 
d="M891 223q0 -55 7 -86t29 -51t55 -27.5t93 -11.5v-47h-262l-22 18l-7 150q-62 -101 -136.5 -149t-172.5 -48q-176 0 -279.5 132.5t-103.5 353.5q0 261 116.5 399.5t313.5 138.5q78 0 149 -25.5t113 -76.5v233h-323v41h323v68q0 79 -35 99t-167 20v39l268 61h41v-287h162
v-41h-162v-903zM500 80q80 0 148 38.5t136 125.5v409q0 126 -75.5 201.5t-194.5 75.5q-148 0 -225.5 -110.5t-77.5 -319.5q0 -198 77.5 -309t211.5 -111z" />
    <glyph glyph-name="Emacron" unicode="&#x112;" horiz-adv-x="1378" 
d="M1024 1604v-52h-541v52h541zM1204 416h62l-29 -416h-1135v53q126 3 161.5 39t35.5 160v885q0 48 -2 77t-10 53.5t-19 36.5t-34 21t-50.5 11t-72.5 3v54h1110l18 -353h-61q-11 91 -30 146t-57.5 89.5t-93.5 47t-145 12.5h-442v-596h397q61 0 92.5 6.5t54 31.5t31 64.5
t14.5 116.5h62v-495h-62q-6 77 -14.5 116.5t-31 64.5t-54 31.5t-92.5 6.5h-397v-471q0 -96 33 -125t143 -29h334q136 0 196 76t88 283z" />
    <glyph glyph-name="emacron" unicode="&#x113;" horiz-adv-x="978" 
d="M791 1284v-51h-541v51h541zM887 590h-690q-4 -50 -4 -78q0 -199 92.5 -305.5t244.5 -106.5q220 0 295 199l43 -14q-38 -151 -120.5 -232.5t-231.5 -81.5q-195 0 -309.5 135t-114.5 371q0 233 120.5 375.5t311.5 142.5q173 0 269 -112.5t94 -292.5zM516 930
q-107 0 -192.5 -71.5t-116.5 -207.5h557q0 78 -23 138.5t-80.5 100.5t-144.5 40z" />
    <glyph glyph-name="Ebreve" unicode="&#x114;" horiz-adv-x="1378" 
d="M754 1481q-125 0 -182 48t-62 148h61q5 -68 47.5 -101.5t135.5 -33.5t135 33.5t47 101.5h61q-5 -100 -61.5 -148t-181.5 -48zM1204 416h62l-29 -416h-1135v53q126 3 161.5 39t35.5 160v885q0 48 -2 77t-10 53.5t-19 36.5t-34 21t-50.5 11t-72.5 3v54h1110l18 -353h-61
q-11 91 -30 146t-57.5 89.5t-93.5 47t-145 12.5h-442v-596h397q61 0 92.5 6.5t54 31.5t31 64.5t14.5 116.5h62v-495h-62q-6 77 -14.5 116.5t-31 64.5t-54 31.5t-92.5 6.5h-397v-471q0 -96 33 -125t143 -29h334q136 0 196 76t88 283z" />
    <glyph glyph-name="ebreve" unicode="&#x115;" horiz-adv-x="978" 
d="M520 1094q-126 0 -185 74t-59 225h62q0 -119 44 -178.5t138 -59.5t138 59.5t44 178.5h62q0 -151 -59 -225t-185 -74zM887 590h-690q-4 -50 -4 -78q0 -199 92.5 -305.5t244.5 -106.5q220 0 295 199l43 -14q-38 -151 -120.5 -232.5t-231.5 -81.5q-195 0 -309.5 135
t-114.5 371q0 233 120.5 375.5t311.5 142.5q173 0 269 -112.5t94 -292.5zM516 930q-107 0 -192.5 -71.5t-116.5 -207.5h557q0 78 -23 138.5t-80.5 100.5t-144.5 40z" />
    <glyph glyph-name="Edotaccent" unicode="&#x116;" horiz-adv-x="1378" 
d="M754 1489q-40 0 -67.5 27.5t-27.5 68.5q0 40 27.5 67t67.5 27t67 -27t27 -67q0 -41 -27 -68.5t-67 -27.5zM1204 416h62l-29 -416h-1135v53q126 3 161.5 39t35.5 160v885q0 48 -2 77t-10 53.5t-19 36.5t-34 21t-50.5 11t-72.5 3v54h1110l18 -353h-61q-11 91 -30 146
t-57.5 89.5t-93.5 47t-145 12.5h-442v-596h397q61 0 92.5 6.5t54 31.5t31 64.5t14.5 116.5h62v-495h-62q-6 77 -14.5 116.5t-31 64.5t-54 31.5t-92.5 6.5h-397v-471q0 -96 33 -125t143 -29h334q136 0 196 76t88 283z" />
    <glyph glyph-name="edotaccent" unicode="&#x117;" horiz-adv-x="978" 
d="M520 1198q-44 0 -74 30.5t-30 76.5t30 76t74 30t74.5 -30.5t30.5 -75.5q0 -46 -30.5 -76.5t-74.5 -30.5zM887 590h-690q-4 -50 -4 -78q0 -199 92.5 -305.5t244.5 -106.5q220 0 295 199l43 -14q-38 -151 -120.5 -232.5t-231.5 -81.5q-195 0 -309.5 135t-114.5 371
q0 233 120.5 375.5t311.5 142.5q173 0 269 -112.5t94 -292.5zM516 930q-107 0 -192.5 -71.5t-116.5 -207.5h557q0 78 -23 138.5t-80.5 100.5t-144.5 40z" />
    <glyph glyph-name="Eogonek" unicode="&#x118;" horiz-adv-x="1378" 
d="M1237 0h-254q-106 -114 -106 -221q0 -63 34.5 -96t100.5 -33q79 0 113.5 49.5t39.5 169.5h37q6 -40 6 -76q0 -115 -50.5 -175t-147.5 -60q-100 0 -153.5 50t-53.5 142q0 129 121 250h-822v53q126 3 161.5 39t35.5 160v885q0 48 -2 77t-10 53.5t-19 36.5t-34 21t-50.5 11
t-72.5 3v54h1110l18 -353h-61q-11 91 -30 146t-57.5 89.5t-93.5 47t-145 12.5h-442v-596h397q61 0 92.5 6.5t54 31.5t31 64.5t14.5 116.5h62v-495h-62q-6 77 -14.5 116.5t-31 64.5t-54 31.5t-92.5 6.5h-397v-471q0 -96 33 -125t143 -29h334q136 0 196 76t88 283h62z" />
    <glyph glyph-name="eogonek" unicode="&#x119;" horiz-adv-x="978" 
d="M903 -131q6 -40 6 -76q0 -115 -50.5 -175t-147.5 -60q-100 0 -153.5 50t-53.5 142q0 122 102 230q-61 -9 -90 -9q-195 0 -309.5 135t-114.5 371q0 233 120.5 375.5t311.5 142.5q173 0 269 -112.5t94 -292.5h-690q-4 -50 -4 -78q0 -199 92.5 -305.5t244.5 -106.5
q220 0 295 199l43 -14q-52 -199 -166 -269q-66 -68 -95 -122.5t-29 -114.5q0 -63 34.5 -96t100.5 -33q79 0 113.5 49.5t39.5 169.5h37zM516 930q-107 0 -192.5 -71.5t-116.5 -207.5h557q0 78 -23 138.5t-80.5 100.5t-144.5 40z" />
    <glyph glyph-name="Ecaron" unicode="&#x11a;" horiz-adv-x="1378" 
d="M825 1481h-143l-193 196h62l203 -145l202 145h62zM1204 416h62l-29 -416h-1135v53q126 3 161.5 39t35.5 160v885q0 48 -2 77t-10 53.5t-19 36.5t-34 21t-50.5 11t-72.5 3v54h1110l18 -353h-61q-11 91 -30 146t-57.5 89.5t-93.5 47t-145 12.5h-442v-596h397q61 0 92.5 6.5
t54 31.5t31 64.5t14.5 116.5h62v-495h-62q-6 77 -14.5 116.5t-31 64.5t-54 31.5t-92.5 6.5h-397v-471q0 -96 33 -125t143 -29h334q136 0 196 76t88 283z" />
    <glyph glyph-name="ecaron" unicode="&#x11b;" horiz-adv-x="978" 
d="M571 1094h-102l-172 299h61l162 -228l162 228h61zM887 590h-690q-4 -50 -4 -78q0 -199 92.5 -305.5t244.5 -106.5q220 0 295 199l43 -14q-38 -151 -120.5 -232.5t-231.5 -81.5q-195 0 -309.5 135t-114.5 371q0 233 120.5 375.5t311.5 142.5q173 0 269 -112.5t94 -292.5z
M516 930q-107 0 -192.5 -71.5t-116.5 -207.5h557q0 78 -23 138.5t-80.5 100.5t-144.5 40z" />
    <glyph glyph-name="Gcircumflex" unicode="&#x11c;" horiz-adv-x="1581" 
d="M834 1626l-203 -145h-62l193 196h143l193 -196h-62zM922 664h587v-62q-85 -4 -112 -38.5t-27 -137.5v-285q-102 -77 -226.5 -123.5t-307.5 -46.5q-161 0 -296.5 52.5t-229 146t-145.5 227t-52 291.5q0 216 89 382t255.5 258.5t386.5 92.5q83 0 161.5 -13t124 -29t83 -29
t49.5 -13q17 0 27 15t18 51h63v-445h-61q-47 208 -159 301t-306 93q-281 0 -436.5 -171.5t-155.5 -484.5q0 -309 157.5 -482t438.5 -173q201 0 306.5 72t105.5 188v145q0 30 -3.5 49t-11 36.5t-25 27.5t-40 18.5t-61.5 13t-84 7t-113 4.5v62z" />
    <glyph glyph-name="gcircumflex" unicode="&#x11d;" horiz-adv-x="1126" 
d="M508 1321l-162 -227h-61l172 299h102l172 -299h-61zM1044 971v-103h-227q66 -81 66 -202q0 -149 -100.5 -239.5t-264.5 -90.5q-105 0 -188 39q-121 -67 -121 -156q0 -110 182 -110h387q133 0 199.5 -59t66.5 -163q0 -155 -137 -242t-364 -87q-211 0 -336 73.5t-125 192.5
q0 62 37 110t112 91q-54 23 -84 67t-30 101q0 122 164 210q-61 43 -94 111t-33 152q0 149 100 239t264 90q84 0 152 -24h374zM526 401q104 0 172 63t68 185q0 121 -67.5 201t-188.5 80q-104 0 -172 -63t-68 -185q0 -121 67.5 -201t188.5 -80zM737 2h-385q-45 0 -76 8
q-75 -78 -75 -170q0 -105 91 -161t255 -56q181 0 288 58.5t107 164.5q0 73 -52.5 114.5t-152.5 41.5z" />
    <glyph glyph-name="Gbreve" unicode="&#x11e;" horiz-adv-x="1581" 
d="M834 1481q-125 0 -182 48t-62 148h61q5 -68 47.5 -101.5t135.5 -33.5t135 33.5t47 101.5h61q-5 -100 -61.5 -148t-181.5 -48zM836 -29q-161 0 -296.5 52.5t-229 146t-145.5 227t-52 291.5q0 216 89 382t255.5 258.5t386.5 92.5q83 0 161.5 -13t124 -29t83 -29t49.5 -13
q17 0 27 15t18 51h63v-445h-61q-47 208 -159 301t-306 93q-281 0 -436.5 -171.5t-155.5 -484.5q0 -309 157.5 -482t438.5 -173q201 0 306.5 72t105.5 188v145q0 30 -3.5 49t-11 36.5t-25 27.5t-40 18.5t-61.5 13t-84 7t-113 4.5v62h587v-62q-85 -4 -112 -38.5t-27 -137.5
v-285q-102 -77 -226.5 -123.5t-307.5 -46.5z" />
    <glyph glyph-name="gbreve" unicode="&#x11f;" horiz-adv-x="1126" 
d="M512 1094q-126 0 -185 74t-59 225h62q0 -119 44 -178.5t138 -59.5t138 59.5t44 178.5h62q0 -151 -59 -225t-185 -74zM1044 971v-103h-227q66 -81 66 -202q0 -149 -100.5 -239.5t-264.5 -90.5q-105 0 -188 39q-121 -67 -121 -156q0 -110 182 -110h387q133 0 199.5 -59
t66.5 -163q0 -155 -137 -242t-364 -87q-211 0 -336 73.5t-125 192.5q0 62 37 110t112 91q-54 23 -84 67t-30 101q0 122 164 210q-61 43 -94 111t-33 152q0 149 100 239t264 90q84 0 152 -24h374zM526 401q104 0 172 63t68 185q0 121 -67.5 201t-188.5 80q-104 0 -172 -63
t-68 -185q0 -121 67.5 -201t188.5 -80zM737 2h-385q-45 0 -76 8q-75 -78 -75 -170q0 -105 91 -161t255 -56q181 0 288 58.5t107 164.5q0 73 -52.5 114.5t-152.5 41.5z" />
    <glyph glyph-name="Gdotaccent" unicode="&#x120;" horiz-adv-x="1581" 
d="M834 1489q-40 0 -67.5 27.5t-27.5 68.5q0 40 27.5 67t67.5 27t67 -27t27 -67q0 -41 -27 -68.5t-67 -27.5zM836 -29q-161 0 -296.5 52.5t-229 146t-145.5 227t-52 291.5q0 216 89 382t255.5 258.5t386.5 92.5q83 0 161.5 -13t124 -29t83 -29t49.5 -13q17 0 27 15t18 51h63
v-445h-61q-47 208 -159 301t-306 93q-281 0 -436.5 -171.5t-155.5 -484.5q0 -309 157.5 -482t438.5 -173q201 0 306.5 72t105.5 188v145q0 30 -3.5 49t-11 36.5t-25 27.5t-40 18.5t-61.5 13t-84 7t-113 4.5v62h587v-62q-85 -4 -112 -38.5t-27 -137.5v-285
q-102 -77 -226.5 -123.5t-307.5 -46.5z" />
    <glyph glyph-name="gdotaccent" unicode="&#x121;" horiz-adv-x="1126" 
d="M512 1198q-44 0 -74 30.5t-30 76.5t30 76t74 30t74 -30t30 -76t-30 -76.5t-74 -30.5zM1044 971v-103h-227q66 -81 66 -202q0 -149 -100.5 -239.5t-264.5 -90.5q-105 0 -188 39q-121 -67 -121 -156q0 -110 182 -110h387q133 0 199.5 -59t66.5 -163q0 -155 -137 -242
t-364 -87q-211 0 -336 73.5t-125 192.5q0 62 37 110t112 91q-54 23 -84 67t-30 101q0 122 164 210q-61 43 -94 111t-33 152q0 149 100 239t264 90q84 0 152 -24h374zM526 401q104 0 172 63t68 185q0 121 -67.5 201t-188.5 80q-104 0 -172 -63t-68 -185q0 -121 67.5 -201
t188.5 -80zM737 2h-385q-45 0 -76 8q-75 -78 -75 -170q0 -105 91 -161t255 -56q181 0 288 58.5t107 164.5q0 73 -52.5 114.5t-152.5 41.5z" />
    <glyph glyph-name="uni0122" unicode="&#x122;" horiz-adv-x="1581" 
d="M836 -29q-161 0 -296.5 52.5t-229 146t-145.5 227t-52 291.5q0 216 89 382t255.5 258.5t386.5 92.5q83 0 161.5 -13t124 -29t83 -29t49.5 -13q17 0 27 15t18 51h63v-445h-61q-47 208 -159 301t-306 93q-281 0 -436.5 -171.5t-155.5 -484.5q0 -309 157.5 -482t438.5 -173
q201 0 306.5 72t105.5 188v145q0 30 -3.5 49t-11 36.5t-25 27.5t-40 18.5t-61.5 13t-84 7t-113 4.5v62h587v-62q-85 -4 -112 -38.5t-27 -137.5v-285q-102 -77 -226.5 -123.5t-307.5 -46.5zM774 -430v43q86 -8 122.5 34t33.5 115q-37 -34 -78 -34q-42 0 -67 22.5t-25 61.5
q0 44 27.5 70t72.5 26q57 0 87 -41t30 -115q0 -88 -49 -140t-154 -42z" />
    <glyph glyph-name="uni0123" unicode="&#x123;" horiz-adv-x="1126" 
d="M518 1094q-58 0 -89.5 42t-31.5 119q0 102 60 168t168 52v-43q-88 13 -136 -44.5t-43 -142.5q40 37 80 37q43 0 70 -23.5t27 -64.5q0 -45 -29.5 -72.5t-75.5 -27.5zM1044 971v-103h-227q66 -81 66 -202q0 -149 -100.5 -239.5t-264.5 -90.5q-105 0 -188 39
q-121 -67 -121 -156q0 -110 182 -110h387q133 0 199.5 -59t66.5 -163q0 -155 -137 -242t-364 -87q-211 0 -336 73.5t-125 192.5q0 62 37 110t112 91q-54 23 -84 67t-30 101q0 122 164 210q-61 43 -94 111t-33 152q0 149 100 239t264 90q84 0 152 -24h374zM526 401
q104 0 172 63t68 185q0 121 -67.5 201t-188.5 80q-104 0 -172 -63t-68 -185q0 -121 67.5 -201t188.5 -80zM737 2h-385q-45 0 -76 8q-75 -78 -75 -170q0 -105 91 -161t255 -56q181 0 288 58.5t107 164.5q0 73 -52.5 114.5t-152.5 41.5z" />
    <glyph glyph-name="Hcircumflex" unicode="&#x124;" horiz-adv-x="1642" 
d="M821 1626l-203 -145h-61l193 196h143l192 -196h-61zM1540 1339q-127 -1 -162 -33t-35 -145v-930q0 -113 35 -145t162 -33v-53h-493v53q45 1 72.5 3t50.5 9.5t33.5 17.5t18 32t9.5 47.5t2 68.5v451h-823v-451q0 -43 2 -68.5t9.5 -47.5t18 -32t33.5 -17.5t50.5 -9.5
t72.5 -3v-53h-494v53q127 1 162 33t35 145v930q0 113 -35 145t-162 33v54h494v-54q-45 -1 -72.5 -3t-50.5 -9.5t-33.5 -17.5t-18 -32t-9.5 -47.5t-2 -68.5v-413h823v413q0 43 -2 68.5t-9.5 47.5t-18 32t-33.5 17.5t-50.5 9.5t-72.5 3v54h493v-54z" />
    <glyph glyph-name="hcircumflex" unicode="&#x125;" horiz-adv-x="1169" 
d="M287 1626l-203 -145h-61l192 196h143l193 -196h-62zM958 186q0 -85 24.5 -107.5t125.5 -31.5v-47h-426v47q43 3 67 5.5t46 9t31 14t16 24t8.5 35t1.5 51.5v430q0 132 -59.5 204.5t-169.5 72.5q-82 0 -148.5 -40.5t-134.5 -129.5v-545q0 -32 1 -50t8 -33.5t14 -22
t28.5 -12.5t40.5 -8t60 -5v-47h-420v47q42 4 62 6.5t43.5 10.5t33 21.5t16 36t6.5 56.5v1057q0 79 -28 99t-133 20v39l227 61h41v-655q61 101 137 148.5t174 47.5q143 0 225 -92t82 -252v-465z" />
    <glyph glyph-name="Hbar" unicode="&#x126;" horiz-adv-x="1642" 
d="M1540 1339q-127 -1 -162 -33t-35 -145v-149h146v-41h-146v-740q0 -113 35 -145t162 -33v-53h-493v53q45 1 72.5 3t50.5 9.5t33.5 17.5t18 32t9.5 47.5t2 68.5v451h-823v-451q0 -43 2 -68.5t9.5 -47.5t18 -32t33.5 -17.5t50.5 -9.5t72.5 -3v-53h-494v53q127 1 162 33
t35 145v740h-147v41h147v149q0 113 -35 145t-162 33v54h494v-54q-45 -1 -72.5 -3t-50.5 -9.5t-33.5 -17.5t-18 -32t-9.5 -47.5t-2 -68.5v-149h823v149q0 43 -2 68.5t-9.5 47.5t-18 32t-33.5 17.5t-50.5 9.5t-72.5 3v54h493v-54zM1233 748v223h-823v-223h823z" />
    <glyph glyph-name="hbar" unicode="&#x127;" horiz-adv-x="1169" 
d="M958 186q0 -85 24.5 -107.5t125.5 -31.5v-47h-426v47q43 3 67 5.5t46 9t31 14t16 24t8.5 35t1.5 51.5v430q0 132 -59.5 204.5t-169.5 72.5q-82 0 -148.5 -40.5t-134.5 -129.5v-545q0 -32 1 -50t8 -33.5t14 -22t28.5 -12.5t40.5 -8t60 -5v-47h-420v47q42 4 62 6.5
t43.5 10.5t33 21.5t16 36t6.5 56.5v948h-182v41h182v68q0 79 -28 99t-133 20v39l227 61h41v-287h303v-41h-303v-327q61 101 137 148.5t174 47.5q143 0 225 -92t82 -252v-465z" />
    <glyph glyph-name="Itilde" unicode="&#x128;" horiz-adv-x="684" 
d="M213 1677q-72 0 -111.5 -50.5t-44.5 -145.5h33q6 54 37.5 88.5t75.5 34.5q28 0 61.5 -19t61 -42.5t67 -42.5t76.5 -19q72 0 111.5 50.5t44.5 145.5h-33q-6 -54 -37.5 -88.5t-75.5 -34.5q-28 0 -61.5 19t-61 42.5t-67 42.5t-76.5 19zM102 0v53q61 1 93 6.5t55 25t30 53
t7 93.5v930q0 60 -7 93.5t-30 53t-55 25t-93 6.5v54h480v-54q-61 -1 -93 -6.5t-55 -25t-30 -53t-7 -93.5v-930q0 -60 7 -93.5t30 -53t55 -25t93 -6.5v-53h-480z" />
    <glyph glyph-name="itilde" unicode="&#x129;" horiz-adv-x="591" 
d="M152 1331q-68 0 -105 -50.5t-37 -147.5h33q1 58 29 91t71 33q29 0 64.5 -19.5t65 -42.5t71 -42.5t80.5 -19.5q68 0 104.5 50.5t36.5 147.5h-33q-1 -58 -29 -91.5t-71 -33.5q-29 0 -64.5 19.5t-64.5 43t-70.5 43t-80.5 19.5zM74 0v47q103 6 135.5 32.5t32.5 121.5v563
q0 87 -29 108t-141 21v39l235 51h41v-782q0 -97 31 -122.5t141 -31.5v-47h-446z" />
    <glyph glyph-name="Imacron" unicode="&#x12a;" horiz-adv-x="684" 
d="M72 1552v52h540v-52h-540zM102 0v53q61 1 93 6.5t55 25t30 53t7 93.5v930q0 60 -7 93.5t-30 53t-55 25t-93 6.5v54h480v-54q-61 -1 -93 -6.5t-55 -25t-30 -53t-7 -93.5v-930q0 -60 7 -93.5t30 -53t55 -25t93 -6.5v-53h-480z" />
    <glyph glyph-name="imacron" unicode="&#x12b;" horiz-adv-x="591" 
d="M72 1284h438v-51h-438v51zM74 0v47q103 6 135.5 32.5t32.5 121.5v563q0 87 -29 108t-141 21v39l235 51h41v-782q0 -97 31 -122.5t141 -31.5v-47h-446z" />
    <glyph glyph-name="Ibreve" unicode="&#x12c;" horiz-adv-x="684" 
d="M342 1481q-125 0 -182 48t-62 148h62q5 -68 47 -101.5t135 -33.5t135 33.5t47 101.5h62q-5 -100 -62 -148t-182 -48zM102 0v53q61 1 93 6.5t55 25t30 53t7 93.5v930q0 60 -7 93.5t-30 53t-55 25t-93 6.5v54h480v-54q-61 -1 -93 -6.5t-55 -25t-30 -53t-7 -93.5v-930
q0 -60 7 -93.5t30 -53t55 -25t93 -6.5v-53h-480z" />
    <glyph glyph-name="ibreve" unicode="&#x12d;" horiz-adv-x="591" 
d="M291 1094q-126 0 -185 74t-59 225h62q0 -119 44 -178.5t138 -59.5t138 59.5t44 178.5h62q0 -151 -59 -225t-185 -74zM74 0v47q103 6 135.5 32.5t32.5 121.5v563q0 87 -29 108t-141 21v39l235 51h41v-782q0 -97 31 -122.5t141 -31.5v-47h-446z" />
    <glyph glyph-name="Iogonek" unicode="&#x12e;" horiz-adv-x="684" 
d="M582 1339q-61 -1 -93 -6.5t-55 -25t-30 -53t-7 -93.5v-930q0 -60 7 -93.5t30 -53t55 -25t93 -6.5v-53h-240q-106 -114 -106 -221q0 -63 34.5 -96t100.5 -33q79 0 113.5 49.5t39.5 169.5h37q6 -40 6 -76q0 -115 -50.5 -175t-147.5 -60q-100 0 -153.5 50t-53.5 142
q0 129 121 250h-181v53q61 1 93 6.5t55 25t30 53t7 93.5v930q0 60 -7 93.5t-30 53t-55 25t-93 6.5v54h480v-54z" />
    <glyph glyph-name="iogonek" unicode="&#x12f;" horiz-adv-x="591" 
d="M291 1198q-44 0 -74.5 30.5t-30.5 76.5q0 45 30 75.5t75 30.5q44 0 74 -30t30 -76t-30 -76.5t-74 -30.5zM524 -131q6 -40 6 -76q0 -115 -50.5 -175t-147.5 -60q-100 0 -153.5 50t-53.5 142q0 129 121 250h-172v47q103 6 135.5 32.5t32.5 121.5v563q0 87 -29 108t-141 21
v39l235 51h41v-782q0 -97 31 -122.5t141 -31.5v-47h-215q-106 -114 -106 -221q0 -63 34.5 -96t100.5 -33q79 0 113.5 49.5t39.5 169.5h37z" />
    <glyph glyph-name="Idotaccent" unicode="&#x130;" horiz-adv-x="684" 
d="M342 1489q-40 0 -67 27.5t-27 68.5q0 40 27 67t67 27t67 -27t27 -67q0 -41 -27 -68.5t-67 -27.5zM102 0v53q61 1 93 6.5t55 25t30 53t7 93.5v930q0 60 -7 93.5t-30 53t-55 25t-93 6.5v54h480v-54q-61 -1 -93 -6.5t-55 -25t-30 -53t-7 -93.5v-930q0 -60 7 -93.5t30 -53
t55 -25t93 -6.5v-53h-480z" />
    <glyph glyph-name="dotlessi" unicode="&#x131;" horiz-adv-x="591" 
d="M74 0v47q103 6 135.5 32.5t32.5 121.5v563q0 87 -29 108t-141 21v39l235 51h41v-782q0 -97 31 -122.5t141 -31.5v-47h-446z" />
    <glyph glyph-name="IJ" unicode="&#x132;" horiz-adv-x="1429" 
d="M102 0v53q61 1 93 6.5t55 25t30 53t7 93.5v930q0 60 -7 93.5t-30 53t-55 25t-93 6.5v54h480v-54q-61 -1 -93 -6.5t-55 -25t-30 -53t-7 -93.5v-930q0 -60 7 -93.5t30 -53t55 -25t93 -6.5v-53h-480zM854 -442q-92 0 -146.5 42.5t-54.5 114.5q0 49 28.5 80t72.5 31
q43 0 67.5 -23.5t30.5 -53.5t17.5 -70t29.5 -62q87 25 127.5 159.5t40.5 399.5v993q0 42 -2 66t-13.5 45.5t-26 31t-49 16.5t-73 8.5t-106.5 2.5v54h540v-54q-46 -1 -71.5 -4.5t-45 -12.5t-27.5 -29.5t-11.5 -48t-3.5 -75.5v-948q0 -315 -86 -489t-238 -174z" />
    <glyph glyph-name="ij" unicode="&#x133;" horiz-adv-x="1183" 
d="M291 1198q-44 0 -74.5 30.5t-30.5 76.5q0 45 30 75.5t75 30.5q44 0 74 -30t30 -76t-30 -76.5t-74 -30.5zM924 1198q-44 0 -74.5 30.5t-30.5 76.5q0 45 30.5 75.5t74.5 30.5t74 -30t30 -76t-30 -76.5t-74 -30.5zM74 0v47q103 6 135.5 32.5t32.5 121.5v563q0 87 -29 108
t-141 21v39l235 51h41v-782q0 -97 31 -122.5t141 -31.5v-47h-446zM702 -442q-97 0 -149.5 37t-52.5 104q0 45 26 69.5t70 24.5q33 0 53 -17.5t29 -41.5t25.5 -60t37.5 -61q142 28 142 467v706q0 38 -6.5 57t-33.5 31.5t-68.5 15.5t-123.5 3v39l297 51h41v-879
q0 -254 -74 -400t-213 -146z" />
    <glyph glyph-name="Jcircumflex" unicode="&#x134;" horiz-adv-x="745" 
d="M418 1626l-203 -145h-61l192 196h143l193 -196h-61zM113 1339v54h540v-54q-46 -1 -71.5 -4.5t-45 -12.5t-27.5 -29.5t-11.5 -48t-3.5 -75.5v-948q0 -315 -86 -489t-238 -174q-92 0 -146.5 42.5t-54.5 114.5q0 49 28.5 80t72.5 31q43 0 67.5 -23.5t30.5 -53.5t17.5 -70
t29.5 -62q87 25 127.5 159.5t40.5 399.5v993q0 42 -2 66t-13.5 45.5t-26 31t-49 16.5t-73 8.5t-106.5 2.5z" />
    <glyph glyph-name="jcircumflex" unicode="&#x135;" horiz-adv-x="591" 
d="M379 1393l172 -299h-62l-161 227l-162 -227h-62l172 299h103zM59 932l297 51h41v-879q0 -254 -74 -400t-212 -146q-97 0 -150 37t-53 104q0 45 26 69.5t70 24.5q33 0 53.5 -17.5t29 -41.5t25.5 -60t38 -61q141 28 141 467v706q0 38 -6.5 57t-33.5 31.5t-68.5 15.5
t-123.5 3v39z" />
    <glyph glyph-name="uni0136" unicode="&#x136;" horiz-adv-x="1400" 
d="M1360 1339q-57 -10 -116.5 -50t-168.5 -140l-411 -373l503 -586q60 -68 102 -99t91 -38v-53h-467v53q97 3 131.5 17t34.5 41q0 38 -55 100l-426 487l-168 -151v-322q0 -58 5.5 -88t27 -50t55.5 -26t98 -8v-53h-494v53q126 3 161.5 39t35.5 160v885q0 48 -2 77t-10 53.5
t-19 36.5t-34 21t-50.5 11t-72.5 3v54h485v-54q-67 -2 -100 -7t-54.5 -25t-26.5 -49.5t-5 -88.5v-518l551 498q86 77 86 123q0 61 -146 67v54h459v-54zM725 -92q57 0 87 -41t30 -115q0 -88 -49 -140t-154 -42v43q86 -8 122.5 34t33.5 115q-37 -34 -78 -34q-42 0 -67 22.5
t-25 61.5q0 44 27.5 70t72.5 26z" />
    <glyph glyph-name="uni0137" unicode="&#x137;" horiz-adv-x="1085" 
d="M1034 924q-58 -9 -115 -48t-186 -153l-184 -164l303 -371q60 -74 93.5 -101t88.5 -40v-47h-379v47q62 3 85.5 17t23.5 40q0 29 -64 105l-233 278l-127 -112v-197q0 -73 30.5 -98t123.5 -33v-47h-422v47q102 9 131.5 33t29.5 98v1057q0 79 -28 99t-133 20v39l227 61h41
v-989l362 317q62 54 62 95q0 24 -26.5 35t-88.5 12v47h385v-47zM547 -92q57 0 87 -41t30 -115q0 -88 -49 -140t-154 -42v43q86 -8 122 34t33 115q-37 -34 -77 -34q-42 0 -67.5 22.5t-25.5 61.5q0 44 28 70t73 26z" />
    <glyph glyph-name="kgreenlandic" unicode="&#x138;" horiz-adv-x="1085" 
d="M1034 924q-58 -9 -115 -48t-186 -153l-186 -166l301 -369q58 -72 94 -100t92 -41v-47h-364v47q55 3 78.5 14.5t23.5 34.5q0 28 -41 74l-264 317l-127 -112v-189q0 -35 1 -53t7.5 -35.5t14 -24t29 -13t43.5 -8.5t65 -5v-47h-428v47q104 9 132.5 34t28.5 105v578
q0 87 -27.5 108t-133.5 21v39l227 51h41v-532l375 331q61 56 61 95q0 44 -94 47v47h352v-47z" />
    <glyph glyph-name="Lacute" unicode="&#x139;" horiz-adv-x="1304" 
d="M637 1677l-258 -196h-66l207 196h117zM102 0v53q69 2 107 10.5t59 34t26 58t5 96.5v885q0 48 -1.5 73t-7.5 52t-17 38t-33 22t-52 13.5t-77 3.5v54h495v-54q-47 -1 -77.5 -5t-53.5 -14.5t-35 -23.5t-19 -39t-9 -54t-2 -75v-884q0 -122 32.5 -154.5t153.5 -32.5h264
q60 0 99 10.5t71.5 35.5t56 77t43 122.5t41.5 184.5h62l-53 -487h-1078z" />
    <glyph glyph-name="lacute" unicode="&#x13a;" horiz-adv-x="608" 
d="M590 1677l-258 -176h-66l207 176h117zM346 170q0 -29 1.5 -45.5t9 -31t16.5 -21t31 -12.5t45.5 -8t66.5 -5v-47h-444v47q103 8 135.5 28t32.5 95v1065q0 79 -28.5 99t-133.5 20v39l227 61h41v-1284z" />
    <glyph glyph-name="uni013B" unicode="&#x13b;" horiz-adv-x="1304" 
d="M102 0v53q69 2 107 10.5t59 34t26 58t5 96.5v885q0 48 -1.5 73t-7.5 52t-17 38t-33 22t-52 13.5t-77 3.5v54h495v-54q-47 -1 -77.5 -5t-53.5 -14.5t-35 -23.5t-19 -39t-9 -54t-2 -75v-884q0 -122 32.5 -154.5t153.5 -32.5h264q60 0 99 10.5t71.5 35.5t56 77t43 122.5
t41.5 184.5h62l-53 -487h-1078zM598 -430v43q86 -8 122.5 34t33.5 115q-37 -34 -78 -34q-42 0 -67 22.5t-25 61.5q0 44 27.5 70t72.5 26q57 0 87 -41t30 -115q0 -88 -49 -140t-154 -42z" />
    <glyph glyph-name="uni013C" unicode="&#x13c;" horiz-adv-x="587" 
d="M346 170q0 -29 1.5 -45.5t9 -31t16.5 -21t31 -12.5t45.5 -8t66.5 -5v-47h-444v47q103 8 135.5 28t32.5 95v1065q0 79 -28.5 99t-133.5 20v39l227 61h41v-1284zM270 -92q57 0 87 -41t30 -115q0 -88 -49 -140t-154 -42v43q86 -8 122.5 34t33.5 115q-37 -34 -78 -34
q-42 0 -67 22.5t-25 61.5q0 44 27.5 70t72.5 26z" />
    <glyph glyph-name="Lcaron" unicode="&#x13d;" horiz-adv-x="1304" 
d="M422 1481h-143l-193 196h61l203 -145l203 145h61zM1171 487h62l-53 -487h-1078v53q69 2 107 10.5t59 34t26 58t5 96.5v885q0 48 -1.5 73t-7.5 52t-17 38t-33 22t-52 13.5t-77 3.5v54h495v-54q-47 -1 -77.5 -5t-53.5 -14.5t-35 -23.5t-19 -39t-9 -54t-2 -75v-884
q0 -122 32.5 -154.5t153.5 -32.5h264q60 0 99 10.5t71.5 35.5t56 77t43 122.5t41.5 184.5z" />
    <glyph glyph-name="lcaron" unicode="&#x13e;" horiz-adv-x="690" 
d="M346 170q0 -29 1.5 -45.5t9 -31t16.5 -21t31 -12.5t45.5 -8t66.5 -5v-47h-444v47q103 8 135.5 28t32.5 95v1065q0 79 -28.5 99t-133.5 20v39l227 61h41v-1284zM559 1454q54 0 82.5 -39t28.5 -112q0 -87 -52 -140t-153 -53v35q86 0 126 45.5t34 120.5q-39 -31 -70 -31
q-90 0 -90 82q0 44 24 68t70 24z" />
    <glyph glyph-name="Ldot" unicode="&#x13f;" horiz-adv-x="1304" 
d="M102 0v53q69 2 107 10.5t59 34t26 58t5 96.5v885q0 48 -1.5 73t-7.5 52t-17 38t-33 22t-52 13.5t-77 3.5v54h495v-54q-47 -1 -77.5 -5t-53.5 -14.5t-35 -23.5t-19 -39t-9 -54t-2 -75v-884q0 -122 32.5 -154.5t153.5 -32.5h264q60 0 99 10.5t71.5 35.5t56 77t43 122.5
t41.5 184.5h62l-53 -487h-1078zM827 766q-42 0 -72 29t-30 75q0 43 30 72t72 29q44 0 74.5 -28.5t30.5 -72.5q0 -46 -30.5 -75t-74.5 -29z" />
    <glyph glyph-name="ldot" unicode="&#x140;" horiz-adv-x="651" 
d="M346 170q0 -29 1.5 -45.5t9 -31t16.5 -21t31 -12.5t45.5 -8t66.5 -5v-47h-444v47q103 8 135.5 28t32.5 95v1065q0 79 -28.5 99t-133.5 20v39l227 61h41v-1284zM614 971q44 0 74.5 -28.5t30.5 -72.5q0 -46 -30.5 -75t-74.5 -29q-42 0 -72 29t-30 75q0 43 30 72t72 29z" />
    <glyph glyph-name="Lslash" unicode="&#x141;" horiz-adv-x="1304" 
d="M1171 487h62l-53 -487h-1078v53q69 2 107 10.5t59 34t26 58t5 96.5v254l-221 -156v76l221 156v555q0 48 -1.5 73t-7.5 52t-17 38t-33 22t-52 13.5t-77 3.5v54h495v-54q-47 -1 -77.5 -5t-53.5 -14.5t-35 -23.5t-19 -39t-9 -54t-2 -75v-469l559 394v-76l-559 -393v-340
q0 -122 32.5 -154.5t153.5 -32.5h264q60 0 99 10.5t71.5 35.5t56 77t43 122.5t41.5 184.5z" />
    <glyph glyph-name="lslash" unicode="&#x142;" horiz-adv-x="587" 
d="M532 936l-186 -150v-616q0 -29 1.5 -45.5t9 -31t16.5 -21t31 -12.5t45.5 -8t66.5 -5v-47h-444v47q103 8 135.5 28t32.5 95v532l-189 -151v74l189 151v459q0 79 -28.5 99t-133.5 20v39l227 61h41v-594l186 150v-74z" />
    <glyph glyph-name="Nacute" unicode="&#x143;" horiz-adv-x="1546" 
d="M1044 1677l-258 -196h-65l207 196h116zM1012 1393h452v-54q-86 -3 -114.5 -48.5t-28.5 -168.5v-1138h-98l-854 1126v-809q0 -53 2.5 -86.5t11.5 -64t23.5 -46.5t41.5 -28.5t63 -17t89 -5.5v-53h-498v53q52 1 84.5 8.5t54.5 22t32 45.5t14 69t4 103v911l-6 9
q-55 73 -86.5 93t-96.5 25v54h207l934 -1248v977q0 69 -8 107.5t-34.5 64t-69.5 34.5t-119 11v54z" />
    <glyph glyph-name="nacute" unicode="&#x144;" horiz-adv-x="1169" 
d="M823 1393l-198 -299h-62l148 299h112zM958 186q0 -85 24.5 -107.5t125.5 -31.5v-47h-426v47q43 3 67 5.5t46 9t31 14t16 24t8.5 35t1.5 51.5v430q0 132 -59.5 204.5t-169.5 72.5q-82 0 -148.5 -40.5t-134.5 -129.5v-537q0 -35 1 -53t7.5 -35.5t14 -24t29 -13t43.5 -8.5
t65 -5v-47h-428v47q104 9 132.5 34t28.5 105v578q0 87 -27.5 108t-133.5 21v39l227 51h41v-184q61 101 137 148.5t174 47.5q143 0 225 -92t82 -252v-465z" />
    <glyph glyph-name="uni0145" unicode="&#x145;" horiz-adv-x="1546" 
d="M1012 1393h452v-54q-86 -3 -114.5 -48.5t-28.5 -168.5v-1138h-98l-854 1126v-809q0 -53 2.5 -86.5t11.5 -64t23.5 -46.5t41.5 -28.5t63 -17t89 -5.5v-53h-498v53q52 1 84.5 8.5t54.5 22t32 45.5t14 69t4 103v911l-6 9q-55 73 -86.5 93t-96.5 25v54h207l934 -1248v977
q0 69 -8 107.5t-34.5 64t-69.5 34.5t-119 11v54zM750 -92q56 0 86 -41t30 -115q0 -88 -48.5 -140t-153.5 -42v43q86 -8 122 34t33 115q-37 -34 -78 -34q-42 0 -67 22.5t-25 61.5q0 44 28 70t73 26z" />
    <glyph glyph-name="uni0146" unicode="&#x146;" horiz-adv-x="1169" 
d="M958 186q0 -85 24.5 -107.5t125.5 -31.5v-47h-426v47q43 3 67 5.5t46 9t31 14t16 24t8.5 35t1.5 51.5v430q0 132 -59.5 204.5t-169.5 72.5q-82 0 -148.5 -40.5t-134.5 -129.5v-537q0 -35 1 -53t7.5 -35.5t14 -24t29 -13t43.5 -8.5t65 -5v-47h-428v47q104 9 132.5 34
t28.5 105v578q0 87 -27.5 108t-133.5 21v39l227 51h41v-184q61 101 137 148.5t174 47.5q143 0 225 -92t82 -252v-465zM578 -92q56 0 86 -41t30 -115q0 -88 -48.5 -140t-153.5 -42v43q86 -8 122 34t33 115q-37 -34 -78 -34q-42 0 -67 22.5t-25 61.5q0 44 28 70t73 26z" />
    <glyph glyph-name="Ncaron" unicode="&#x147;" horiz-adv-x="1546" 
d="M829 1481h-143l-192 196h61l203 -145l203 145h61zM1012 1393h452v-54q-86 -3 -114.5 -48.5t-28.5 -168.5v-1138h-98l-854 1126v-809q0 -53 2.5 -86.5t11.5 -64t23.5 -46.5t41.5 -28.5t63 -17t89 -5.5v-53h-498v53q52 1 84.5 8.5t54.5 22t32 45.5t14 69t4 103v911l-6 9
q-55 73 -86.5 93t-96.5 25v54h207l934 -1248v977q0 69 -8 107.5t-34.5 64t-69.5 34.5t-119 11v54z" />
    <glyph glyph-name="ncaron" unicode="&#x148;" horiz-adv-x="1169" 
d="M637 1094h-102l-173 299h62l162 -228l162 228h61zM958 186q0 -85 24.5 -107.5t125.5 -31.5v-47h-426v47q43 3 67 5.5t46 9t31 14t16 24t8.5 35t1.5 51.5v430q0 132 -59.5 204.5t-169.5 72.5q-82 0 -148.5 -40.5t-134.5 -129.5v-537q0 -35 1 -53t7.5 -35.5t14 -24t29 -13
t43.5 -8.5t65 -5v-47h-428v47q104 9 132.5 34t28.5 105v578q0 87 -27.5 108t-133.5 21v39l227 51h41v-184q61 101 137 148.5t174 47.5q143 0 225 -92t82 -252v-465z" />
    <glyph glyph-name="napostrophe" unicode="&#x149;" horiz-adv-x="1169" 
d="M305 1278q0 -98 -57 -157.5t-168 -59.5v39q94 0 138 51t38 135q-46 -35 -78 -35q-98 0 -98 92q0 48 27 74.5t77 26.5q58 0 89.5 -43t31.5 -123zM958 186q0 -85 24.5 -107.5t125.5 -31.5v-47h-426v47q43 3 67 5.5t46 9t31 14t16 24t8.5 35t1.5 51.5v430q0 132 -59.5 204.5
t-169.5 72.5q-82 0 -148.5 -40.5t-134.5 -129.5v-537q0 -35 1 -53t7.5 -35.5t14 -24t29 -13t43.5 -8.5t65 -5v-47h-428v47q104 9 132.5 34t28.5 105v578q0 87 -27.5 108t-133.5 21v39l227 51h41v-184q61 101 137 148.5t174 47.5q143 0 225 -92t82 -252v-465z" />
    <glyph glyph-name="Eng" unicode="&#x14a;" horiz-adv-x="1546" 
d="M1012 1393h452v-54q-86 -3 -114.5 -48.5t-28.5 -168.5v-1177q0 -193 -81.5 -290t-240.5 -97q-134 0 -212 45t-78 121q0 52 29 83t77 31q73 0 96 -71q8 -21 18 -74.5t21 -71.5q34 -10 64 -10q118 0 175.5 83t57.5 255v35h-24l-854 1126v-809q0 -53 2.5 -86.5t11.5 -64
t23.5 -46.5t41.5 -28.5t63 -17t89 -5.5v-53h-498v53q52 1 84.5 8.5t54.5 22t32 45.5t14 69t4 103v911l-6 9q-55 73 -86.5 93t-96.5 25v54h207l934 -1248v977q0 69 -8 107.5t-34.5 64t-69.5 34.5t-119 11v54z" />
    <glyph glyph-name="eng" unicode="&#x14b;" horiz-adv-x="1165" 
d="M653 995q138 0 221.5 -91.5t83.5 -252.5v-651q0 -198 -80.5 -320t-226.5 -122q-96 0 -154.5 39.5t-58.5 105.5q0 45 27.5 74.5t73.5 29.5q39 0 63 -20t33 -46.5t24.5 -64.5t34.5 -61q76 7 117 102t41 258v664q0 128 -59.5 194t-167.5 66q-80 0 -147.5 -43t-137.5 -141
v-529q0 -35 1 -53t7.5 -35.5t14 -24t29 -13t43.5 -8.5t65 -5v-47h-428v47q104 9 132.5 34t28.5 105v578q0 87 -27.5 108t-133.5 21v39l227 51h41v-195q118 207 313 207z" />
    <glyph glyph-name="Omacron" unicode="&#x14c;" horiz-adv-x="1626" 
d="M543 1552v52h540v-52h-540zM813 -29q-146 0 -274 51.5t-222.5 144.5t-149 230t-54.5 299t54.5 299t149 230t222.5 144.5t274 51.5t274 -51.5t222.5 -144.5t149 -230t54.5 -299t-54.5 -299t-149 -230t-222.5 -144.5t-274 -51.5zM813 41q252 0 406.5 181t154.5 474
q0 294 -154.5 475t-406.5 181t-406.5 -181t-154.5 -475q0 -293 154.5 -474t406.5 -181z" />
    <glyph glyph-name="omacron" unicode="&#x14d;" horiz-adv-x="1085" 
d="M274 1284h541v-51h-541v51zM539 -29q-198 0 -322.5 142t-124.5 368q0 227 127 370.5t328 143.5q198 0 322 -142t124 -368q0 -227 -126.5 -370.5t-327.5 -143.5zM549 37q45 0 87 12t84.5 42.5t73.5 77t50.5 121t19.5 169.5q0 91 -19.5 173.5t-58 150t-103 107.5t-146.5 40
q-45 0 -87 -12t-84.5 -42.5t-74 -77t-51 -121t-19.5 -169.5q0 -91 20 -173.5t58.5 -150t103 -107.5t146.5 -40z" />
    <glyph glyph-name="Obreve" unicode="&#x14e;" horiz-adv-x="1626" 
d="M813 1481q-125 0 -182 48t-62 148h62q5 -68 47 -101.5t135 -33.5t135 33.5t47 101.5h62q-5 -100 -62 -148t-182 -48zM813 -29q-146 0 -274 51.5t-222.5 144.5t-149 230t-54.5 299t54.5 299t149 230t222.5 144.5t274 51.5t274 -51.5t222.5 -144.5t149 -230t54.5 -299
t-54.5 -299t-149 -230t-222.5 -144.5t-274 -51.5zM813 41q252 0 406.5 181t154.5 474q0 294 -154.5 475t-406.5 181t-406.5 -181t-154.5 -475q0 -293 154.5 -474t406.5 -181z" />
    <glyph glyph-name="obreve" unicode="&#x14f;" horiz-adv-x="1085" 
d="M545 1094q-126 0 -185 74t-59 225h61q0 -238 183 -238q94 0 138 59.5t44 178.5h61q0 -151 -58.5 -225t-184.5 -74zM539 -29q-198 0 -322.5 142t-124.5 368q0 227 127 370.5t328 143.5q198 0 322 -142t124 -368q0 -227 -126.5 -370.5t-327.5 -143.5zM549 37q45 0 87 12
t84.5 42.5t73.5 77t50.5 121t19.5 169.5q0 91 -19.5 173.5t-58 150t-103 107.5t-146.5 40q-45 0 -87 -12t-84.5 -42.5t-74 -77t-51 -121t-19.5 -169.5q0 -91 20 -173.5t58.5 -150t103 -107.5t146.5 -40z" />
    <glyph glyph-name="Ohungarumlaut" unicode="&#x150;" horiz-adv-x="1626" 
d="M942 1677l-229 -196h-56l187 196h98zM1198 1677l-229 -196h-56l187 196h98zM813 -29q-146 0 -274 51.5t-222.5 144.5t-149 230t-54.5 299t54.5 299t149 230t222.5 144.5t274 51.5t274 -51.5t222.5 -144.5t149 -230t54.5 -299t-54.5 -299t-149 -230t-222.5 -144.5
t-274 -51.5zM813 41q252 0 406.5 181t154.5 474q0 294 -154.5 475t-406.5 181t-406.5 -181t-154.5 -475q0 -293 154.5 -474t406.5 -181z" />
    <glyph glyph-name="ohungarumlaut" unicode="&#x151;" horiz-adv-x="1085" 
d="M633 1393l-178 -299h-62l146 299h94zM874 1393l-178 -299h-61l145 299h94zM539 -29q-198 0 -322.5 142t-124.5 368q0 227 127 370.5t328 143.5q198 0 322 -142t124 -368q0 -227 -126.5 -370.5t-327.5 -143.5zM549 37q45 0 87 12t84.5 42.5t73.5 77t50.5 121t19.5 169.5
q0 91 -19.5 173.5t-58 150t-103 107.5t-146.5 40q-45 0 -87 -12t-84.5 -42.5t-74 -77t-51 -121t-19.5 -169.5q0 -91 20 -173.5t58.5 -150t103 -107.5t146.5 -40z" />
    <glyph glyph-name="OE" unicode="&#x152;" horiz-adv-x="2117" 
d="M1944 416h61l-29 -416h-778q-89 0 -211.5 -14.5t-212.5 -14.5q-293 0 -477 198.5t-184 526.5t184 526.5t477 198.5q90 0 212.5 -14t211.5 -14h762l18 -353h-61q-11 90 -29.5 143.5t-55.5 89.5t-93.5 49t-147.5 13h-401v-596h356q40 0 62 1.5t45.5 9t35 21t23 39t17 60.5
t10.5 88h61v-495h-61q-5 53 -10.5 88t-17 60.5t-23 39t-35 21t-45.5 9t-62 1.5h-356v-471q0 -96 33 -125t143 -29h293q142 0 200 78t85 281zM774 39q68 0 118.5 8.5t95 31t68 66.5t23.5 109v874q0 69 -23.5 115t-68 69.5t-95 32.5t-118.5 9q-165 0 -284 -84t-178.5 -231.5
t-59.5 -342.5t59.5 -342t178.5 -231t284 -84z" />
    <glyph glyph-name="oe" unicode="&#x153;" horiz-adv-x="1624" 
d="M1532 590h-619q-2 -16 -2 -53q0 -130 32.5 -226t105 -153.5t178.5 -57.5q188 0 258 199l43 -14q-17 -74 -41.5 -128.5t-62 -98t-93.5 -65.5t-129 -22q-124 0 -213 66.5t-129 204.5q-47 -126 -140.5 -198.5t-221.5 -72.5q-124 0 -217 68.5t-141 183.5t-48 258
q0 225 114 369.5t300 144.5q130 0 222 -74.5t136 -203.5q42 132 131 205t215 73q159 0 241.5 -111.5t80.5 -293.5zM508 37q39 0 76 12t73.5 42.5t63.5 77t44 121t17 169.5q0 124 -29 227.5t-95.5 173.5t-161.5 70q-39 0 -76 -12t-74 -42.5t-64 -77t-44 -121t-17 -169.5
q0 -91 17.5 -173.5t51 -150t90 -107.5t128.5 -40zM1202 930q-105 0 -181.5 -71t-100.5 -208h489q0 279 -207 279z" />
    <glyph glyph-name="Racute" unicode="&#x154;" horiz-adv-x="1370" 
d="M950 1677l-258 -196h-65l207 196h116zM1206 143q33 -43 60.5 -63.5t62.5 -26.5v-53h-180l-506 725h-233v-473q0 -122 35.5 -159t158.5 -40v-53h-502v53q126 3 161.5 39t35.5 160v885q0 48 -2 77t-10 53.5t-19 36.5t-34 21t-50.5 11t-72.5 3v54h620q424 0 424 -312
q0 -150 -97 -239t-282 -111zM410 1335v-553h229q190 0 287.5 76t97.5 217q0 134 -81 197t-243 63h-290z" />
    <glyph glyph-name="racute" unicode="&#x155;" horiz-adv-x="808" 
d="M690 1393l-198 -299h-62l148 299h112zM639 995q53 0 86 -33.5t33 -80.5q0 -48 -29.5 -76.5t-71.5 -28.5q-44 0 -75 35q-12 11 -28 30.5t-24 24.5q-111 -84 -190 -323v-357q0 -26 0.5 -41t4.5 -31t8 -23.5t16.5 -16t24 -11.5t36.5 -7t47.5 -5.5t63.5 -3.5v-47h-469v47
q104 9 132.5 34t28.5 105v578q0 87 -27.5 108t-133.5 21v39l227 51h41v-332q49 140 134.5 242t164.5 102z" />
    <glyph glyph-name="uni0156" unicode="&#x156;" horiz-adv-x="1370" 
d="M1206 143q33 -43 60.5 -63.5t62.5 -26.5v-53h-180l-506 725h-233v-473q0 -122 35.5 -159t158.5 -40v-53h-502v53q126 3 161.5 39t35.5 160v885q0 48 -2 77t-10 53.5t-19 36.5t-34 21t-50.5 11t-72.5 3v54h620q424 0 424 -312q0 -150 -97 -239t-282 -111zM410 1335v-553
h229q190 0 287.5 76t97.5 217q0 134 -81 197t-243 63h-290zM762 -92q57 0 87 -41t30 -115q0 -88 -49 -140t-154 -42v43q86 -8 122 34t33 115q-37 -34 -77 -34q-42 0 -67 22.5t-25 61.5q0 44 27.5 70t72.5 26z" />
    <glyph glyph-name="uni0157" unicode="&#x157;" horiz-adv-x="808" 
d="M639 995q53 0 86 -33.5t33 -80.5q0 -48 -29.5 -76.5t-71.5 -28.5q-44 0 -75 35q-12 11 -28 30.5t-24 24.5q-111 -84 -190 -323v-357q0 -26 0.5 -41t4.5 -31t8 -23.5t16.5 -16t24 -11.5t36.5 -7t47.5 -5.5t63.5 -3.5v-47h-469v47q104 9 132.5 34t28.5 105v578
q0 87 -27.5 108t-133.5 21v39l227 51h41v-332q49 140 134.5 242t164.5 102zM326 -92q56 0 86 -41t30 -115q0 -88 -48.5 -140t-153.5 -42v43q86 -8 122 34t33 115q-37 -34 -78 -34q-42 0 -67 22.5t-25 61.5q0 44 28 70t73 26z" />
    <glyph glyph-name="Rcaron" unicode="&#x158;" horiz-adv-x="1370" 
d="M735 1481h-143l-193 196h62l203 -145l202 145h62zM1206 143q33 -43 60.5 -63.5t62.5 -26.5v-53h-180l-506 725h-233v-473q0 -122 35.5 -159t158.5 -40v-53h-502v53q126 3 161.5 39t35.5 160v885q0 48 -2 77t-10 53.5t-19 36.5t-34 21t-50.5 11t-72.5 3v54h620
q424 0 424 -312q0 -150 -97 -239t-282 -111zM410 1335v-553h229q190 0 287.5 76t97.5 217q0 134 -81 197t-243 63h-290z" />
    <glyph glyph-name="rcaron" unicode="&#x159;" horiz-adv-x="808" 
d="M504 1094h-103l-172 299h62l162 -228l161 228h62zM639 995q53 0 86 -33.5t33 -80.5q0 -48 -29.5 -76.5t-71.5 -28.5q-44 0 -75 35q-12 11 -28 30.5t-24 24.5q-111 -84 -190 -323v-357q0 -26 0.5 -41t4.5 -31t8 -23.5t16.5 -16t24 -11.5t36.5 -7t47.5 -5.5t63.5 -3.5v-47
h-469v47q104 9 132.5 34t28.5 105v578q0 87 -27.5 108t-133.5 21v39l227 51h41v-332q49 140 134.5 242t164.5 102z" />
    <glyph glyph-name="Sacute" unicode="&#x15a;" horiz-adv-x="1105" 
d="M856 1677l-258 -196h-66l207 196h117zM565 -29q-67 0 -130.5 13t-100.5 29t-68 29t-41 13q-26 0 -35 -65h-61v497h61q11 -226 104.5 -336t274.5 -110q147 0 226 63t79 179q0 108 -53.5 181.5t-181.5 137.5l-201 100q-153 76 -220.5 168.5t-67.5 221.5q0 154 111.5 241.5
t303.5 87.5q69 0 130 -13t95 -29t61.5 -29t37.5 -13q26 0 35 66h61v-445h-61q-12 207 -97.5 300.5t-265.5 93.5q-140 0 -220.5 -61.5t-80.5 -172.5q0 -98 52 -169t184 -138l209 -104q147 -73 213.5 -161.5t66.5 -217.5q0 -168 -110.5 -262.5t-309.5 -94.5z" />
    <glyph glyph-name="sacute" unicode="&#x15b;" horiz-adv-x="872" 
d="M698 1393l-198 -299h-62l148 299h112zM426 -29q-174 0 -303 74l-10 272h61q26 -280 260 -280q102 0 156.5 41.5t54.5 118.5q0 128 -149 194l-166 74q-106 46 -156.5 107.5t-50.5 160.5q0 125 85 193.5t238 68.5q177 0 304 -73l10 -238h-62q-13 120 -81 183t-179 63
q-102 0 -156.5 -41.5t-54.5 -118.5q0 -128 150 -195l166 -73q106 -46 156.5 -108t50.5 -161q0 -125 -85.5 -193.5t-238.5 -68.5z" />
    <glyph glyph-name="Scircumflex" unicode="&#x15c;" horiz-adv-x="1105" 
d="M569 1626l-202 -145h-62l193 196h143l193 -196h-62zM561 1352q-140 0 -220.5 -61.5t-80.5 -172.5q0 -98 52 -169t184 -138l209 -104q147 -73 213.5 -161.5t66.5 -217.5q0 -168 -110.5 -262.5t-309.5 -94.5q-67 0 -130.5 13t-100.5 29t-68 29t-41 13q-26 0 -35 -65h-61
v497h61q11 -226 104.5 -336t274.5 -110q147 0 226 63t79 179q0 108 -53.5 181.5t-181.5 137.5l-201 100q-153 76 -220.5 168.5t-67.5 221.5q0 154 111.5 241.5t303.5 87.5q69 0 130 -13t95 -29t61.5 -29t37.5 -13q26 0 35 66h61v-445h-61q-12 207 -97.5 300.5t-265.5 93.5z
" />
    <glyph glyph-name="scircumflex" unicode="&#x15d;" horiz-adv-x="872" 
d="M457 1321l-162 -227h-62l173 299h102l172 -299h-62zM543 502q106 -46 156.5 -108t50.5 -161q0 -125 -85.5 -193.5t-238.5 -68.5q-174 0 -303 74l-10 272h61q26 -280 260 -280q102 0 156.5 41.5t54.5 118.5q0 128 -149 194l-166 74q-106 46 -156.5 107.5t-50.5 160.5
q0 125 85 193.5t238 68.5q177 0 304 -73l10 -238h-62q-13 120 -81 183t-179 63q-102 0 -156.5 -41.5t-54.5 -118.5q0 -128 150 -195z" />
    <glyph glyph-name="Scedilla" unicode="&#x15e;" horiz-adv-x="1105" 
d="M561 1352q-140 0 -220.5 -61.5t-80.5 -172.5q0 -98 52 -169t184 -138l209 -104q147 -73 213.5 -161.5t66.5 -217.5q0 -163 -104 -257t-293 -100l-47 -94q94 8 155.5 -35t61.5 -123q0 -73 -57 -117t-152 -44q-85 0 -137 31.5t-52 86.5q0 27 15.5 44.5t40.5 17.5
q26 0 41.5 -19t15.5 -51q0 -11 -2.5 -31t-1.5 -26q27 -12 82 -12q57 0 91 29.5t34 80.5q0 127 -225 98l77 166q-76 4 -144.5 24.5t-108.5 39t-50 18.5q-26 0 -35 -65h-61v497h61q11 -226 104.5 -336t274.5 -110q147 0 226 63t79 179q0 108 -53.5 181.5t-181.5 137.5
l-201 100q-153 76 -220.5 168.5t-67.5 221.5q0 154 111.5 241.5t303.5 87.5q69 0 130 -13t95 -29t61.5 -29t37.5 -13q26 0 35 66h61v-445h-61q-12 207 -97.5 300.5t-265.5 93.5z" />
    <glyph glyph-name="scedilla" unicode="&#x15f;" horiz-adv-x="872" 
d="M543 502q106 -46 156.5 -108t50.5 -161q0 -113 -71 -180.5t-198 -79.5l-49 -96q94 8 155.5 -35t61.5 -123q0 -73 -57 -117t-152 -44q-85 0 -136.5 31.5t-51.5 86.5q0 27 15.5 44.5t39.5 17.5q26 0 42 -19t16 -51q0 -11 -3 -31t-2 -26q27 -12 82 -12q57 0 91 29.5t34 80.5
q0 127 -225 98l76 164q-169 3 -295 74l-10 272h61q26 -280 260 -280q102 0 156.5 41.5t54.5 118.5q0 128 -149 194l-166 74q-106 46 -156.5 107.5t-50.5 160.5q0 125 85 193.5t238 68.5q177 0 304 -73l10 -238h-62q-13 120 -81 183t-179 63q-102 0 -156.5 -41.5
t-54.5 -118.5q0 -128 150 -195z" />
    <glyph glyph-name="Scaron" unicode="&#x160;" horiz-adv-x="1105" 
d="M641 1481h-143l-193 196h62l202 -145l203 145h62zM561 1352q-140 0 -220.5 -61.5t-80.5 -172.5q0 -98 52 -169t184 -138l209 -104q147 -73 213.5 -161.5t66.5 -217.5q0 -168 -110.5 -262.5t-309.5 -94.5q-67 0 -130.5 13t-100.5 29t-68 29t-41 13q-26 0 -35 -65h-61v497
h61q11 -226 104.5 -336t274.5 -110q147 0 226 63t79 179q0 108 -53.5 181.5t-181.5 137.5l-201 100q-153 76 -220.5 168.5t-67.5 221.5q0 154 111.5 241.5t303.5 87.5q69 0 130 -13t95 -29t61.5 -29t37.5 -13q26 0 35 66h61v-445h-61q-12 207 -97.5 300.5t-265.5 93.5z" />
    <glyph glyph-name="scaron" unicode="&#x161;" horiz-adv-x="872" 
d="M512 1094h-102l-172 299h61l162 -228l162 228h61zM543 502q106 -46 156.5 -108t50.5 -161q0 -125 -85.5 -193.5t-238.5 -68.5q-174 0 -303 74l-10 272h61q26 -280 260 -280q102 0 156.5 41.5t54.5 118.5q0 128 -149 194l-166 74q-106 46 -156.5 107.5t-50.5 160.5
q0 125 85 193.5t238 68.5q177 0 304 -73l10 -238h-62q-13 120 -81 183t-179 63q-102 0 -156.5 -41.5t-54.5 -118.5q0 -128 150 -195z" />
    <glyph glyph-name="uni0162" unicode="&#x162;" horiz-adv-x="1323" 
d="M1255 1434l17 -414h-62q-8 74 -14.5 119.5t-17 84t-22 57t-32.5 32t-44.5 17t-61.5 3.5h-301v-1026q0 -54 3 -88.5t13 -65.5t26.5 -47.5t45.5 -29t68 -17.5t96 -6v-53h-275l-61 -123q94 8 155.5 -35t61.5 -123q0 -73 -57 -117t-152 -44q-85 0 -136.5 31.5t-51.5 86.5
q0 27 15.5 44.5t39.5 17.5q26 0 41.5 -19t15.5 -51q0 -11 -2.5 -31t-1.5 -26q27 -12 82 -12q57 0 91 29.5t34 80.5q0 127 -225 98l90 193h-279v53q57 1 96 6t68 17.5t45.5 29t26.5 47.5t13 65.5t3 88.5v1026h-301q-38 0 -61.5 -3.5t-44.5 -17t-32.5 -32t-22 -57t-17 -84
t-14.5 -119.5h-62l17 414h61q6 -26 20 -33.5t58 -7.5h909q44 0 58 7.5t20 33.5h61z" />
    <glyph glyph-name="uni0163" unicode="&#x163;" horiz-adv-x="792" 
d="M465 -123q94 8 155.5 -35t61.5 -123q0 -73 -57 -117t-152 -44q-85 0 -136.5 31.5t-51.5 86.5q0 27 15.5 44.5t39.5 17.5q26 0 41.5 -19t15.5 -51q0 -11 -2.5 -31t-1.5 -26q27 -12 82 -12q57 0 91 29.5t34 80.5q0 127 -225 98l80 175q-92 9 -143.5 73.5t-51.5 173.5v639
h-209v58q113 9 174 58t84 159h58v-172h309v-103h-309v-620q0 -83 39 -128.5t106 -45.5q53 0 97.5 22t95.5 74l36 -33q-59 -80 -110 -115.5t-115 -39.5z" />
    <glyph glyph-name="Tcaron" unicode="&#x164;" horiz-adv-x="1323" 
d="M733 1481h-143l-193 196h62l203 -145l202 145h62zM1255 1434l17 -414h-62q-8 74 -14.5 119.5t-17 84t-22 57t-32.5 32t-44.5 17t-61.5 3.5h-301v-1026q0 -54 3 -88.5t13 -65.5t26.5 -47.5t45.5 -29t68 -17.5t96 -6v-53h-615v53q57 1 96 6t68 17.5t45.5 29t26.5 47.5
t13 65.5t3 88.5v1026h-301q-38 0 -61.5 -3.5t-44.5 -17t-32.5 -32t-22 -57t-17 -84t-14.5 -119.5h-62l17 414h61q6 -26 20 -33.5t58 -7.5h909q44 0 58 7.5t20 33.5h61z" />
    <glyph glyph-name="tcaron" unicode="&#x165;" horiz-adv-x="792" 
d="M670 1303q0 -87 -52 -140t-153 -53v35q86 0 126 45.5t34 120.5q-39 -31 -70 -31q-90 0 -90 82q0 44 24 68t70 24q54 0 82.5 -39t28.5 -112zM705 170l36 -33q-64 -87 -120.5 -122t-131.5 -35q-109 0 -169 65.5t-60 183.5v639h-209v58q113 9 174 58t84 159h58v-172h309
v-103h-309v-620q0 -83 39 -128.5t106 -45.5q53 0 97.5 22t95.5 74z" />
    <glyph glyph-name="Tbar" unicode="&#x166;" horiz-adv-x="1323" 
d="M1255 1434l17 -414h-62q-8 74 -14.5 119.5t-17 84t-22 57t-32.5 32t-44.5 17t-61.5 3.5h-301v-616h366v-41h-366v-369q0 -54 3 -88.5t13 -65.5t26.5 -47.5t45.5 -29t68 -17.5t96 -6v-53h-615v53q57 1 96 6t68 17.5t45.5 29t26.5 47.5t13 65.5t3 88.5v369h-368v41h368v616
h-301q-38 0 -61.5 -3.5t-44.5 -17t-32.5 -32t-22 -57t-17 -84t-14.5 -119.5h-62l17 414h61q6 -26 20 -33.5t58 -7.5h909q44 0 58 7.5t20 33.5h61z" />
    <glyph glyph-name="tbar" unicode="&#x167;" horiz-adv-x="792" 
d="M705 170l36 -33q-64 -87 -120.5 -122t-131.5 -35q-109 0 -169 65.5t-60 183.5v256h-188v41h188v342h-209v58q113 9 174 58t84 159h58v-172h309v-103h-309v-342h297v-41h-297v-237q0 -83 39 -128.5t106 -45.5q53 0 97.5 22t95.5 74z" />
    <glyph glyph-name="Utilde" unicode="&#x168;" horiz-adv-x="1431" 
d="M608 1677q-72 0 -111 -50t-44 -146h32q6 54 37.5 88.5t75.5 34.5q28 0 61.5 -19t61 -42.5t67 -42.5t76.5 -19q72 0 111.5 50.5t44.5 145.5h-33q-6 -54 -37.5 -88.5t-75.5 -34.5q-28 0 -61.5 19t-61 42.5t-67 42.5t-76.5 19zM711 -29q-238 0 -371 134t-133 384v639
q0 131 -21.5 169.5t-103.5 41.5v54h442v-54q-47 -1 -77.5 -4.5t-53.5 -14t-35 -23.5t-19 -39t-9 -54.5t-2 -75.5v-616q0 -220 105.5 -336.5t301.5 -116.5q194 0 301 119.5t107 333.5v588q0 76 -6.5 118.5t-29 71t-58.5 38t-101 11.5v54h402v-54q-83 -3 -109.5 -51
t-26.5 -188v-586q0 -257 -131 -400t-372 -143z" />
    <glyph glyph-name="utilde" unicode="&#x169;" horiz-adv-x="1095" 
d="M389 1257q-43 0 -71 -33t-29 -91h-33q0 97 36.5 147.5t104.5 50.5q39 0 80.5 -19.5t71 -43t65 -43t64.5 -19.5q43 0 71 33.5t29 91.5h33q0 -97 -36.5 -147.5t-104.5 -50.5q-39 0 -80.5 19.5t-71 42.5t-65 42.5t-64.5 19.5zM887 209q0 -94 31 -122t126 -28v-43l-235 -28
l-29 22v158q-62 -102 -135.5 -149.5t-171.5 -47.5q-133 0 -213 90.5t-80 253.5v478q0 75 -26.5 102t-92.5 33v43h226v-637q0 -125 59.5 -192.5t155.5 -67.5q81 0 145.5 40t132.5 130v530q0 48 -7.5 76.5t-28.5 44.5t-44.5 22t-70.5 11v43h258v-762z" />
    <glyph glyph-name="Umacron" unicode="&#x16a;" horiz-adv-x="1431" 
d="M467 1552v52h541v-52h-541zM711 -29q-238 0 -371 134t-133 384v639q0 131 -21.5 169.5t-103.5 41.5v54h442v-54q-47 -1 -77.5 -4.5t-53.5 -14t-35 -23.5t-19 -39t-9 -54.5t-2 -75.5v-616q0 -220 105.5 -336.5t301.5 -116.5q194 0 301 119.5t107 333.5v588
q0 76 -6.5 118.5t-29 71t-58.5 38t-101 11.5v54h402v-54q-83 -3 -109.5 -51t-26.5 -188v-586q0 -257 -131 -400t-372 -143z" />
    <glyph glyph-name="umacron" unicode="&#x16b;" horiz-adv-x="1095" 
d="M807 1284v-51h-541v51h541zM887 209q0 -94 31 -122t126 -28v-43l-235 -28l-29 22v158q-62 -102 -135.5 -149.5t-171.5 -47.5q-133 0 -213 90.5t-80 253.5v478q0 75 -26.5 102t-92.5 33v43h226v-637q0 -125 59.5 -192.5t155.5 -67.5q81 0 145.5 40t132.5 130v530
q0 48 -7.5 76.5t-28.5 44.5t-44.5 22t-70.5 11v43h258v-762z" />
    <glyph glyph-name="Ubreve" unicode="&#x16c;" horiz-adv-x="1431" 
d="M737 1481q-125 0 -181.5 48t-61.5 148h61q5 -68 47 -101.5t135 -33.5t135.5 33.5t47.5 101.5h61q-5 -100 -62 -148t-182 -48zM711 -29q-238 0 -371 134t-133 384v639q0 131 -21.5 169.5t-103.5 41.5v54h442v-54q-47 -1 -77.5 -4.5t-53.5 -14t-35 -23.5t-19 -39t-9 -54.5
t-2 -75.5v-616q0 -220 105.5 -336.5t301.5 -116.5q194 0 301 119.5t107 333.5v588q0 76 -6.5 118.5t-29 71t-58.5 38t-101 11.5v54h402v-54q-83 -3 -109.5 -51t-26.5 -188v-586q0 -257 -131 -400t-372 -143z" />
    <glyph glyph-name="ubreve" unicode="&#x16d;" horiz-adv-x="1095" 
d="M537 1094q-126 0 -185 74t-59 225h61q0 -238 183 -238q94 0 138 59.5t44 178.5h61q0 -151 -58.5 -225t-184.5 -74zM887 209q0 -94 31 -122t126 -28v-43l-235 -28l-29 22v158q-62 -102 -135.5 -149.5t-171.5 -47.5q-133 0 -213 90.5t-80 253.5v478q0 75 -26.5 102
t-92.5 33v43h226v-637q0 -125 59.5 -192.5t155.5 -67.5q81 0 145.5 40t132.5 130v530q0 48 -7.5 76.5t-28.5 44.5t-44.5 22t-70.5 11v43h258v-762z" />
    <glyph glyph-name="Uring" unicode="&#x16e;" horiz-adv-x="1431" 
d="M737 1464q-84 0 -136 51.5t-52 133.5t52 133t136 51q85 0 137 -51t52 -133t-52.5 -133.5t-136.5 -51.5zM737 1507q65 0 104.5 39t39.5 103t-39.5 102.5t-104.5 38.5t-104 -38.5t-39 -102.5t39 -103t104 -39zM711 -29q-238 0 -371 134t-133 384v639q0 131 -21.5 169.5
t-103.5 41.5v54h442v-54q-47 -1 -77.5 -4.5t-53.5 -14t-35 -23.5t-19 -39t-9 -54.5t-2 -75.5v-616q0 -220 105.5 -336.5t301.5 -116.5q194 0 301 119.5t107 333.5v588q0 76 -6.5 118.5t-29 71t-58.5 38t-101 11.5v54h402v-54q-83 -3 -109.5 -51t-26.5 -188v-586
q0 -257 -131 -400t-372 -143z" />
    <glyph glyph-name="uring" unicode="&#x16f;" horiz-adv-x="1095" 
d="M537 1077q-86 0 -139.5 52.5t-53.5 136.5q0 83 53.5 135.5t139.5 52.5t139 -52t53 -136t-53 -136.5t-139 -52.5zM537 1411q-66 0 -107 -39.5t-41 -105.5t41 -106t107 -40t106.5 40t40.5 106t-40.5 105.5t-106.5 39.5zM887 209q0 -94 31 -122t126 -28v-43l-235 -28l-29 22
v158q-62 -102 -135.5 -149.5t-171.5 -47.5q-133 0 -213 90.5t-80 253.5v478q0 75 -26.5 102t-92.5 33v43h226v-637q0 -125 59.5 -192.5t155.5 -67.5q81 0 145.5 40t132.5 130v530q0 48 -7.5 76.5t-28.5 44.5t-44.5 22t-70.5 11v43h258v-762z" />
    <glyph glyph-name="Uhungarumlaut" unicode="&#x170;" horiz-adv-x="1431" 
d="M866 1677l-229 -196h-55l186 196h98zM1122 1677l-229 -196h-55l186 196h98zM711 -29q-238 0 -371 134t-133 384v639q0 131 -21.5 169.5t-103.5 41.5v54h442v-54q-47 -1 -77.5 -4.5t-53.5 -14t-35 -23.5t-19 -39t-9 -54.5t-2 -75.5v-616q0 -220 105.5 -336.5t301.5 -116.5
q194 0 301 119.5t107 333.5v588q0 76 -6.5 118.5t-29 71t-58.5 38t-101 11.5v54h402v-54q-83 -3 -109.5 -51t-26.5 -188v-586q0 -257 -131 -400t-372 -143z" />
    <glyph glyph-name="uhungarumlaut" unicode="&#x171;" horiz-adv-x="1095" 
d="M625 1393l-179 -299h-61l145 299h95zM866 1393l-178 -299h-61l145 299h94zM887 209q0 -94 31 -122t126 -28v-43l-235 -28l-29 22v158q-62 -102 -135.5 -149.5t-171.5 -47.5q-133 0 -213 90.5t-80 253.5v478q0 75 -26.5 102t-92.5 33v43h226v-637q0 -125 59.5 -192.5
t155.5 -67.5q81 0 145.5 40t132.5 130v530q0 48 -7.5 76.5t-28.5 44.5t-44.5 22t-70.5 11v43h258v-762z" />
    <glyph glyph-name="Uogonek" unicode="&#x172;" horiz-adv-x="1431" 
d="M948 1393h402v-54q-83 -3 -109.5 -51t-26.5 -188v-586q0 -186 -70.5 -314.5t-203.5 -185.5q-65 -68 -93 -122.5t-28 -112.5q0 -63 34.5 -96t100.5 -33q80 0 115 49.5t39 169.5h37q6 -40 6 -76q0 -115 -51 -175t-148 -60q-100 0 -153.5 50t-53.5 142q0 124 109 236
q-84 -15 -143 -15q-238 0 -371 134t-133 384v639q0 131 -21.5 169.5t-103.5 41.5v54h442v-54q-47 -1 -77.5 -4.5t-53.5 -14t-35 -23.5t-19 -39t-9 -54.5t-2 -75.5v-616q0 -220 105.5 -336.5t301.5 -116.5q194 0 301 119.5t107 333.5v588q0 76 -6.5 118.5t-29 71t-58.5 38
t-101 11.5v54z" />
    <glyph glyph-name="uogonek" unicode="&#x173;" horiz-adv-x="1095" 
d="M1047 -131q6 -40 6 -76q0 -115 -51 -175t-148 -60q-100 0 -153.5 50t-53.5 142q0 133 133 260v158q-62 -102 -135.5 -149.5t-171.5 -47.5q-133 0 -213 90.5t-80 253.5v478q0 75 -26.5 102t-92.5 33v43h226v-637q0 -125 59.5 -192.5t155.5 -67.5q81 0 145.5 40t132.5 130
v530q0 48 -7.5 76.5t-28.5 44.5t-44.5 22t-70.5 11v43h258v-762q0 -94 31 -122t126 -28v-43l-225 -26q-98 -109 -98 -211q0 -63 34.5 -96t100.5 -33q80 0 115 49.5t39 169.5h37z" />
    <glyph glyph-name="Wcircumflex" unicode="&#x174;" horiz-adv-x="2031" 
d="M1006 1626l-203 -145h-62l193 196h143l193 -196h-62zM1577 1393h403v-54q-63 -3 -93 -46.5t-81 -205.5l-348 -1099h-98l-332 917l-323 -917h-99l-401 1155q-18 53 -27 78t-22 51.5t-19.5 35t-21.5 17t-27 10t-37 2.5v56h432v-54q-100 -1 -137 -21.5t-37 -72.5t25 -123
l340 -997l315 891l-59 166q-37 104 -67.5 129t-123.5 28v54h482v-54q-107 -3 -143 -20.5t-36 -63.5q0 -44 37 -151l348 -977l308 981q28 92 28 135q0 54 -39.5 74t-146.5 22v54z" />
    <glyph glyph-name="wcircumflex" unicode="&#x175;" horiz-adv-x="1527" 
d="M750 1321l-162 -227h-62l172 299h103l172 -299h-62zM1161 971h326v-47q-45 -4 -69.5 -38t-57.5 -124l-281 -774h-82l-219 626l-246 -626h-81l-281 764q-39 107 -63 139.5t-66 32.5v47h365v-47q-78 -1 -111 -19.5t-33 -56.5q0 -23 17 -72l233 -657l233 590l-24 67
q-32 91 -62.5 118t-103.5 30v47h410v-47q-78 -2 -109 -18.5t-31 -61.5q0 -44 31 -135l203 -584l194 530q50 136 50 195q0 37 -31.5 55t-110.5 19v47z" />
    <glyph glyph-name="Ycircumflex" unicode="&#x176;" horiz-adv-x="1349" 
d="M674 1626l-203 -145h-61l192 196h143l193 -196h-61zM918 1393h391v-54q-36 -8 -63.5 -30.5t-65.5 -81.5l-455 -690v-291q0 -112 42.5 -151t168.5 -42v-53h-535v53q127 3 170 41.5t43 151.5v291l-446 675q-50 74 -72.5 97t-54.5 30v54h436v-54q-109 -6 -145.5 -21
t-36.5 -52q0 -44 70 -148l327 -497l320 487q46 71 63 103t17 51q0 39 -36.5 55t-137.5 22v54z" />
    <glyph glyph-name="ycircumflex" unicode="&#x177;" horiz-adv-x="1036" 
d="M555 1321l-162 -227h-61l172 299h102l172 -299h-61zM672 971h323v-47q-37 -3 -62.5 -37.5t-68.5 -138.5l-323 -779q-99 -239 -176 -324t-191 -85q-84 0 -134 40t-50 105q0 47 27.5 73.5t74.5 26.5q26 0 45 -11t31 -30t22 -39t25.5 -43.5t34.5 -39.5q94 37 227 352l21 49
l-297 721q-37 91 -64.5 124t-68.5 36v47h376v-47q-72 -3 -101.5 -21t-29.5 -59q0 -49 35 -133l209 -525l238 572q26 68 26 94q0 69 -149 72v47z" />
    <glyph glyph-name="Ydieresis" unicode="&#x178;" horiz-adv-x="1349" 
d="M463 1487q-37 0 -61.5 26t-24.5 62t24 61t62 25t63 -25t25 -61t-25 -62t-63 -26zM885 1487q-38 0 -63 26t-25 62t25 61t63 25t62 -25t24 -61t-24.5 -62t-61.5 -26zM918 1393h391v-54q-36 -8 -63.5 -30.5t-65.5 -81.5l-455 -690v-291q0 -112 42.5 -151t168.5 -42v-53h-535
v53q127 3 170 41.5t43 151.5v291l-446 675q-50 74 -72.5 97t-54.5 30v54h436v-54q-109 -6 -145.5 -21t-36.5 -52q0 -44 70 -148l327 -497l320 487q46 71 63 103t17 51q0 39 -36.5 55t-137.5 22v54z" />
    <glyph glyph-name="Zacute" unicode="&#x179;" horiz-adv-x="1294" 
d="M954 1677l-258 -196h-65l207 196h116zM1141 487h61l-41 -487h-1038v117l913 1161h-635q-42 0 -69.5 -4t-51.5 -17t-38 -34t-26 -58.5t-19 -85.5t-13 -121h-61v486h61q6 -29 25 -40t65 -11h869v-115l-914 -1163h602q78 0 128 16t87 59t58 113t37 184z" />
    <glyph glyph-name="zacute" unicode="&#x17a;" horiz-adv-x="987" 
d="M711 1393l-199 -299h-61l147 299h113zM823 338h62l-17 -338h-745v106l616 758h-325q-58 0 -91.5 -1.5t-63 -10.5t-43 -19.5t-25.5 -36.5t-16.5 -53.5t-10.5 -78.5h-62v307h734v-107l-619 -758h387q46 0 74 2t52 12.5t36.5 23.5t24 42.5t17.5 61.5t15 90z" />
    <glyph glyph-name="Zdotaccent" unicode="&#x17b;" horiz-adv-x="1294" 
d="M668 1489q-40 0 -67.5 27.5t-27.5 68.5q0 40 27.5 67t67.5 27t67 -27t27 -67q0 -41 -27 -68.5t-67 -27.5zM1141 487h61l-41 -487h-1038v117l913 1161h-635q-42 0 -69.5 -4t-51.5 -17t-38 -34t-26 -58.5t-19 -85.5t-13 -121h-61v486h61q6 -29 25 -40t65 -11h869v-115
l-914 -1163h602q78 0 128 16t87 59t58 113t37 184z" />
    <glyph glyph-name="zdotaccent" unicode="&#x17c;" horiz-adv-x="987" 
d="M473 1198q-44 0 -74 30.5t-30 76.5t30 76t74 30q45 0 75 -30.5t30 -75.5q0 -46 -30.5 -76.5t-74.5 -30.5zM823 338h62l-17 -338h-745v106l616 758h-325q-58 0 -91.5 -1.5t-63 -10.5t-43 -19.5t-25.5 -36.5t-16.5 -53.5t-10.5 -78.5h-62v307h734v-107l-619 -758h387
q46 0 74 2t52 12.5t36.5 23.5t24 42.5t17.5 61.5t15 90z" />
    <glyph glyph-name="Zcaron" unicode="&#x17d;" horiz-adv-x="1294" 
d="M739 1481h-143l-193 196h62l203 -145l202 145h62zM1141 487h61l-41 -487h-1038v117l913 1161h-635q-42 0 -69.5 -4t-51.5 -17t-38 -34t-26 -58.5t-19 -85.5t-13 -121h-61v486h61q6 -29 25 -40t65 -11h869v-115l-914 -1163h602q78 0 128 16t87 59t58 113t37 184z" />
    <glyph glyph-name="zcaron" unicode="&#x17e;" horiz-adv-x="987" 
d="M524 1094h-102l-172 299h61l162 -228l162 228h61zM823 338h62l-17 -338h-745v106l616 758h-325q-58 0 -91.5 -1.5t-63 -10.5t-43 -19.5t-25.5 -36.5t-16.5 -53.5t-10.5 -78.5h-62v307h734v-107l-619 -758h387q46 0 74 2t52 12.5t36.5 23.5t24 42.5t17.5 61.5t15 90z" />
    <glyph glyph-name="florin" unicode="&#x192;" horiz-adv-x="1107" 
d="M850 1317q-82 0 -129.5 -99t-79.5 -317l-12 -86h377l-7 -33h-374l-52 -344q-12 -86 -28.5 -152.5t-43 -127.5t-61.5 -100.5t-85 -63t-113 -23.5q-98 0 -160 43t-62 115q0 46 25.5 76.5t73.5 30.5q70 0 84 -74q5 -24 6.5 -70.5t11.5 -71.5q15 -6 37 -6q82 0 129.5 99
t79.5 317l51 352h-381l8 33h377l13 78q12 86 28.5 152.5t43 127.5t61.5 100.5t85 63t113 23.5q98 0 159.5 -43t61.5 -115q0 -46 -25 -76t-73 -30q-70 0 -84 73q-5 24 -6.5 70.5t-11.5 71.5q-15 6 -37 6z" />
    <glyph glyph-name="AEacute" unicode="&#x1fc;" horiz-adv-x="1904" 
d="M1599 1677l-258 -196h-65l207 196h116zM1731 416h61l-29 -416h-954v53q62 2 92 6.5t51.5 21.5t27 46t5.5 84v272h-520l-109 -178q-69 -117 -69 -172q0 -45 40.5 -61.5t125.5 -18.5v-53h-412v53q33 3 58 21.5t63 71t106 163.5l529 867q39 62 39 98q0 37 -43 51t-134 14v54
h1088l18 -353h-61q-11 91 -29 145t-55.5 89.5t-93.5 48t-148 12.5h-282v-596h237q41 0 66.5 2.5t47.5 11.5t34 22.5t21.5 40t14.5 59t9 83.5h61v-495h-61q-6 75 -15 115t-31.5 65t-54.5 32t-92 7h-237v-471q0 -96 33 -125t143 -29h172q138 0 198.5 76t88.5 283zM504 549h481
v790h-4z" />
    <glyph glyph-name="aeacute" unicode="&#x1fd;" horiz-adv-x="1536" 
d="M1014 1393l-199 -299h-61l147 299h113zM1444 590h-649q-4 -50 -4 -78q0 -199 87.5 -305.5t229.5 -106.5q205 0 274 199l43 -14q-37 -152 -113.5 -233t-217.5 -81q-131 0 -226 69t-139 196q-114 -265 -342 -265q-107 0 -176.5 59.5t-69.5 159.5q0 102 70.5 164.5
t212.5 110.5l266 88v106q0 137 -56.5 194.5t-174.5 57.5q-68 0 -137 -20t-117 -57q5 -28 21 -52.5t32.5 -39.5t29.5 -38.5t13 -50.5q0 -43 -29 -70.5t-73 -27.5q-51 0 -84 36.5t-33 94.5q0 78 60 150t154.5 115.5t192.5 43.5q229 0 289 -182q54 88 137.5 135t186.5 47
q163 0 253.5 -112.5t88.5 -292.5zM1094 930q-101 0 -181 -71.5t-108 -207.5h516q0 58 -12 106t-38 88t-71 62.5t-106 22.5zM418 66q84 0 160 58t133 171q-21 83 -21 182v10l-219 -77q-106 -38 -158.5 -82.5t-52.5 -118.5q0 -68 43 -105.5t115 -37.5z" />
    <glyph glyph-name="Oslashacute" unicode="&#x1fe;" horiz-adv-x="1626" 
d="M1100 1677l-258 -196h-66l207 196h117zM1307 1229q98 -98 152 -234t54 -299q0 -162 -54.5 -299t-149 -230t-222.5 -144.5t-274 -51.5q-272 0 -465 166l-121 -137h-53l145 166q-206 200 -206 530q0 162 54.5 299t149 230t222.5 144.5t274 51.5q270 0 463 -166l121 138h53z
M252 696q0 -273 137 -452l821 938q-153 170 -397 170q-252 0 -406.5 -181t-154.5 -475zM813 41q252 0 406.5 181t154.5 474q0 277 -137 453l-823 -936q155 -172 399 -172z" />
    <glyph glyph-name="oslashacute" unicode="&#x1ff;" horiz-adv-x="1085" 
d="M782 1393l-198 -299h-62l148 299h112zM995 971l-114 -131q112 -137 112 -355q0 -227 -126.5 -370.5t-327.5 -143.5q-189 0 -312 129l-88 -100h-53l115 131q-109 137 -109 350q0 227 127 370.5t328 143.5q185 0 307 -125l88 101h53zM221 508q0 -167 60 -287l501 567
q-88 142 -245 142q-45 0 -87 -12t-84.5 -42.5t-74 -77t-51 -121t-19.5 -169.5zM864 459q0 168 -61 293l-502 -570q87 -145 248 -145q45 0 87 12t84.5 42.5t73.5 77t50.5 121t19.5 169.5z" />
    <glyph glyph-name="uni0218" unicode="&#x218;" horiz-adv-x="1105" 
d="M565 -29q-67 0 -130.5 13t-100.5 29t-68 29t-41 13q-26 0 -35 -65h-61v497h61q11 -226 104.5 -336t274.5 -110q147 0 226 63t79 179q0 108 -53.5 181.5t-181.5 137.5l-201 100q-153 76 -220.5 168.5t-67.5 221.5q0 154 111.5 241.5t303.5 87.5q69 0 130 -13t95 -29
t61.5 -29t37.5 -13q26 0 35 66h61v-445h-61q-12 207 -97.5 300.5t-265.5 93.5q-140 0 -220.5 -61.5t-80.5 -172.5q0 -98 52 -169t184 -138l209 -104q147 -73 213.5 -161.5t66.5 -217.5q0 -168 -110.5 -262.5t-309.5 -94.5zM475 -430v43q86 -8 122.5 34t33.5 115
q-37 -34 -78 -34q-42 0 -67 22.5t-25 61.5q0 44 27.5 70t72.5 26q57 0 87 -41t30 -115q0 -88 -49 -140t-154 -42z" />
    <glyph glyph-name="uni0219" unicode="&#x219;" horiz-adv-x="872" 
d="M426 -29q-174 0 -303 74l-10 272h61q26 -280 260 -280q102 0 156.5 41.5t54.5 118.5q0 128 -149 194l-166 74q-106 46 -156.5 107.5t-50.5 160.5q0 125 85 193.5t238 68.5q177 0 304 -73l10 -238h-62q-13 120 -81 183t-179 63q-102 0 -156.5 -41.5t-54.5 -118.5
q0 -128 150 -195l166 -73q106 -46 156.5 -108t50.5 -161q0 -125 -85.5 -193.5t-238.5 -68.5zM367 -430v43q86 -8 122 34t33 115q-37 -34 -78 -34q-42 0 -67 22.5t-25 61.5q0 44 28 70t73 26q56 0 86 -41t30 -115q0 -88 -48.5 -140t-153.5 -42z" />
    <glyph glyph-name="uni021A" unicode="&#x21a;" horiz-adv-x="1323" 
d="M1255 1434l17 -414h-62q-8 74 -14.5 119.5t-17 84t-22 57t-32.5 32t-44.5 17t-61.5 3.5h-301v-1026q0 -54 3 -88.5t13 -65.5t26.5 -47.5t45.5 -29t68 -17.5t96 -6v-53h-615v53q57 1 96 6t68 17.5t45.5 29t26.5 47.5t13 65.5t3 88.5v1026h-301q-38 0 -61.5 -3.5t-44.5 -17
t-32.5 -32t-22 -57t-17 -84t-14.5 -119.5h-62l17 414h61q6 -26 20 -33.5t58 -7.5h909q44 0 58 7.5t20 33.5h61zM653 -92q57 0 87 -41t30 -115q0 -88 -49 -140t-154 -42v43q86 -8 122.5 34t33.5 115q-37 -34 -78 -34q-42 0 -67 22.5t-25 61.5q0 44 27.5 70t72.5 26z" />
    <glyph glyph-name="uni021B" unicode="&#x21b;" horiz-adv-x="792" 
d="M705 170l36 -33q-64 -87 -120.5 -122t-131.5 -35q-109 0 -169 65.5t-60 183.5v639h-209v58q113 9 174 58t84 159h58v-172h309v-103h-309v-620q0 -83 39 -128.5t106 -45.5q53 0 97.5 22t95.5 74zM485 -92q57 0 87 -41t30 -115q0 -88 -49 -140t-154 -42v43q86 -8 122.5 34
t33.5 115q-37 -34 -78 -34q-42 0 -67 22.5t-25 61.5q0 44 27.5 70t72.5 26z" />
    <glyph glyph-name="uni0237" unicode="&#x237;" horiz-adv-x="591" 
d="M111 -442q-97 0 -150 37t-53 104q0 45 26 69.5t70 24.5q33 0 53.5 -17.5t29 -41.5t25.5 -60t38 -61q141 28 141 467v706q0 38 -6.5 57t-33.5 31.5t-68.5 15.5t-123.5 3v39l297 51h41v-879q0 -254 -74 -400t-212 -146z" />
    <glyph glyph-name="uni02BC" unicode="&#x2bc;" horiz-adv-x="417" 
d="M102 979v47q82 0 131.5 60.5t47.5 152.5q-33 -29 -72 -29q-45 0 -71.5 25t-26.5 70t28 71.5t76 26.5q58 0 89.5 -43t31.5 -123q0 -113 -65.5 -185.5t-168.5 -72.5z" />
    <glyph glyph-name="circumflex" unicode="&#x2c6;" horiz-adv-x="1228" 
d="M549 1094h-62l-161 227l-162 -227h-62l172 299h103z" />
    <glyph glyph-name="caron" unicode="&#x2c7;" horiz-adv-x="1228" 
d="M487 1393h62l-172 -299h-103l-172 299h62l162 -228z" />
    <glyph glyph-name="breve" unicode="&#x2d8;" horiz-adv-x="1228" 
d="M346 1094q-126 0 -185 74t-59 225h62q0 -119 44 -178.5t138 -59.5t138 59.5t44 178.5h62q0 -151 -59 -225t-185 -74z" />
    <glyph glyph-name="dotaccent" unicode="&#x2d9;" horiz-adv-x="1228" 
d="M207 1198q-44 0 -74.5 30.5t-30.5 76.5q0 45 30 75.5t75 30.5q44 0 74 -30t30 -76t-30 -76.5t-74 -30.5z" />
    <glyph glyph-name="ring" unicode="&#x2da;" horiz-adv-x="1228" 
d="M295 1077q-86 0 -139.5 52.5t-53.5 136.5q0 83 53.5 135.5t139.5 52.5t139 -52t53 -136t-53 -136.5t-139 -52.5zM295 1120q66 0 106.5 40t40.5 106t-40.5 105.5t-106.5 39.5t-107 -39.5t-41 -105.5t41 -106t107 -40z" />
    <glyph glyph-name="ogonek" unicode="&#x2db;" horiz-adv-x="1228" 
d="M309 -442q-100 0 -153.5 50t-53.5 142q0 72 34.5 136.5t109.5 133.5h57q-68 -69 -97.5 -125t-29.5 -116q0 -63 34.5 -96t100.5 -33q80 0 115 49.5t39 169.5h37q6 -40 6 -76q0 -115 -51 -175t-148 -60z" />
    <glyph glyph-name="tilde" unicode="&#x2dc;" horiz-adv-x="1228" 
d="M244 1331q-68 0 -105 -50.5t-37 -147.5h33q1 57 29 90.5t72 33.5q36 0 82 -31t97 -62t101 -31q68 0 104.5 50.5t36.5 147.5h-32q-1 -58 -29.5 -91.5t-71.5 -33.5q-29 0 -64.5 19.5t-64.5 43t-70.5 43t-80.5 19.5z" />
    <glyph glyph-name="hungarumlaut" unicode="&#x2dd;" horiz-adv-x="1228" 
d="M342 1393l-178 -299h-62l146 299h94zM584 1393l-178 -299h-62l145 299h95z" />
    <glyph glyph-name="gravecomb" unicode="&#x300;" horiz-adv-x="0" 
d="M-362 1393h112l148 -299h-62z" />
    <glyph glyph-name="acutecomb" unicode="&#x301;" horiz-adv-x="0" 
d="M-102 1393l-199 -299h-61l147 299h113z" />
    <glyph glyph-name="uni0302" unicode="&#x302;" horiz-adv-x="0" 
d="M-102 1094h-62l-162 227l-161 -227h-62l172 299h103z" />
    <glyph glyph-name="tildecomb" unicode="&#x303;" horiz-adv-x="0" 
d="M-516 1331q-68 0 -104.5 -50.5t-36.5 -147.5h32q1 57 29 90.5t72 33.5q36 0 82 -31t97 -62t101 -31q68 0 105 50.5t37 147.5h-33q-1 -58 -29.5 -91.5t-71.5 -33.5q-29 0 -64.5 19.5t-64.5 43t-70.5 43t-80.5 19.5z" />
    <glyph glyph-name="uni0304" unicode="&#x304;" horiz-adv-x="0" 
d="M-643 1284h541v-51h-541v51z" />
    <glyph glyph-name="uni0306" unicode="&#x306;" horiz-adv-x="0" 
d="M-346 1094q-126 0 -185 74t-59 225h62q0 -119 44 -178.5t138 -59.5t138 59.5t44 178.5h62q0 -151 -59 -225t-185 -74z" />
    <glyph glyph-name="uni0307" unicode="&#x307;" horiz-adv-x="0" 
d="M-207 1198q-44 0 -74 30.5t-30 76.5t30 76t74 30q45 0 75 -30.5t30 -75.5q0 -46 -30.5 -76.5t-74.5 -30.5z" />
    <glyph glyph-name="uni0308" unicode="&#x308;" horiz-adv-x="0" 
d="M-561 1196q-42 0 -70 29t-28 69q0 41 28 70t70 29t70 -29t28 -70q0 -40 -28 -69t-70 -29zM-201 1196q-42 0 -70 29t-28 69q0 41 28 70t70 29t70.5 -29.5t28.5 -69.5t-28.5 -69t-70.5 -29z" />
    <glyph glyph-name="uni030A" unicode="&#x30a;" horiz-adv-x="0" 
d="M-295 1077q-86 0 -139 52.5t-53 136.5t53 136t139 52t139.5 -52.5t53.5 -135.5q0 -84 -53.5 -136.5t-139.5 -52.5zM-295 1120q66 0 107 40t41 106t-41 105.5t-107 39.5t-106.5 -39.5t-40.5 -105.5t40.5 -106t106.5 -40z" />
    <glyph glyph-name="uni030B" unicode="&#x30b;" horiz-adv-x="0" 
d="M-344 1393l-178 -299h-62l146 299h94zM-102 1393l-179 -299h-61l145 299h95z" />
    <glyph glyph-name="uni030C" unicode="&#x30c;" horiz-adv-x="0" 
d="M-164 1393h62l-172 -299h-103l-172 299h62l161 -228z" />
    <glyph glyph-name="uni0312" unicode="&#x312;" horiz-adv-x="0" 
d="M-102 1475v-43q-88 13 -136 -44.5t-43 -142.5q40 37 80 37q43 0 70 -23.5t27 -64.5q0 -45 -29.5 -72.5t-75.5 -27.5q-58 0 -89.5 42t-31.5 119q0 102 60 168t168 52z" />
    <glyph glyph-name="uni0326" unicode="&#x326;" horiz-adv-x="0" 
d="M-305 -430v43q86 -8 122 34t33 115q-37 -34 -77 -34q-42 0 -67 22.5t-25 61.5q0 44 27.5 70t72.5 26q57 0 87 -41t30 -115q0 -88 -49 -140t-154 -42z" />
    <glyph glyph-name="uni0327" unicode="&#x327;" horiz-adv-x="0" 
d="M-254 10l-65 -133q94 8 155.5 -35t61.5 -123q0 -73 -57 -117t-152 -44q-85 0 -137 31.5t-52 86.5q0 27 15.5 44.5t40.5 17.5q26 0 41.5 -19t15.5 -51q0 -11 -2.5 -31t-1.5 -26q27 -12 82 -12q57 0 91 29.5t34 80.5q0 127 -226 98l95 203h61z" />
    <glyph glyph-name="uni0328" unicode="&#x328;" horiz-adv-x="0" 
d="M-301 -442q-100 0 -153.5 50t-53.5 142q0 72 34 136.5t109 133.5h58q-68 -69 -97.5 -125t-29.5 -116q0 -63 34.5 -96t100.5 -33q80 0 115 49.5t39 169.5h36q7 -47 7 -76q0 -115 -51 -175t-148 -60z" />
    <glyph glyph-name="uni0394" unicode="&#x394;" horiz-adv-x="1312" 
d="M709 1393l542 -1393h-1190l543 1393h105zM143 51h983l-491 1264z" />
    <glyph glyph-name="uni03A9" unicode="&#x3a9;" horiz-adv-x="1544" 
d="M133 0l-20 340h61q18 -131 55 -179t127 -48h265v186q-136 15 -245.5 85.5t-175 191t-65.5 270.5q0 172 83 303.5t227.5 201.5t326.5 70t326.5 -70t227.5 -201.5t83 -303.5q0 -150 -65 -270.5t-174.5 -191t-245.5 -85.5v-186h264q90 0 127 48t55 179h62l-21 -340h-553v350
q196 17 307 151.5t111 344.5q0 244 -131.5 379t-372.5 135t-372.5 -135t-131.5 -379q0 -210 111 -344.5t307 -151.5v-350h-553z" />
    <glyph glyph-name="uni03BC" unicode="&#x3bc;" horiz-adv-x="1208" 
d="M1085 274h62q-41 -155 -101 -229t-169 -74q-74 0 -125.5 37.5t-69.5 116.5q-102 -154 -276 -154q-77 0 -133.5 35.5t-82.5 93.5q-38 -143 -38 -262q0 -174 104 -233q-20 -45 -78 -45q-56 0 -86.5 41t-30.5 110q0 215 113 494q5 107 60.5 279.5t183.5 465.5q9 13 32 22
t48 9q44 0 57 -25q-307 -511 -307 -712q0 -166 182 -166q147 0 246 115v4q0 240 219 764q6 20 66 20q64 0 73 -25q-150 -242 -217 -425t-67 -291q0 -88 43.5 -125t103.5 -37q69 0 113.5 51t74.5 145z" />
    <glyph glyph-name="pi" unicode="&#x3c0;" horiz-adv-x="1329" 
d="M1233 864h-264q-215 -441 -215 -647q0 -125 120 -125q123 0 203 182h62q-85 -292 -283 -292q-91 0 -144 55t-53 149q0 113 56.5 263.5t185.5 414.5h-348q-25 -128 -46 -223t-45.5 -192t-47.5 -164.5t-50.5 -128t-57 -96.5t-64.5 -57t-74 -21q-40 0 -73.5 31.5t-33.5 76.5
q159 12 253 189t173 585h-153q-61 0 -128 -13t-104 -34l-10 25q24 58 98 93.5t164 35.5h914z" />
    <glyph glyph-name="Wgrave" unicode="&#x1e80;" horiz-adv-x="2031" 
d="M1063 1481h-66l-258 196h117zM1577 1393h403v-54q-63 -3 -93 -46.5t-81 -205.5l-348 -1099h-98l-332 917l-323 -917h-99l-401 1155q-18 53 -27 78t-22 51.5t-19.5 35t-21.5 17t-27 10t-37 2.5v56h432v-54q-100 -1 -137 -21.5t-37 -72.5t25 -123l340 -997l315 891l-59 166
q-37 104 -67.5 129t-123.5 28v54h482v-54q-107 -3 -143 -20.5t-36 -63.5q0 -44 37 -151l348 -977l308 981q28 92 28 135q0 54 -39.5 74t-146.5 22v54z" />
    <glyph glyph-name="wgrave" unicode="&#x1e81;" horiz-adv-x="1527" 
d="M784 1094h-61l-199 299h113zM1161 971h326v-47q-45 -4 -69.5 -38t-57.5 -124l-281 -774h-82l-219 626l-246 -626h-81l-281 764q-39 107 -63 139.5t-66 32.5v47h365v-47q-78 -1 -111 -19.5t-33 -56.5q0 -23 17 -72l233 -657l233 590l-24 67q-32 91 -62.5 118t-103.5 30v47
h410v-47q-78 -2 -109 -18.5t-31 -61.5q0 -44 31 -135l203 -584l194 530q50 136 50 195q0 37 -31.5 55t-110.5 19v47z" />
    <glyph glyph-name="Wacute" unicode="&#x1e82;" horiz-adv-x="2031" 
d="M1292 1677l-258 -196h-65l207 196h116zM1577 1393h403v-54q-63 -3 -93 -46.5t-81 -205.5l-348 -1099h-98l-332 917l-323 -917h-99l-401 1155q-18 53 -27 78t-22 51.5t-19.5 35t-21.5 17t-27 10t-37 2.5v56h432v-54q-100 -1 -137 -21.5t-37 -72.5t25 -123l340 -997
l315 891l-59 166q-37 104 -67.5 129t-123.5 28v54h482v-54q-107 -3 -143 -20.5t-36 -63.5q0 -44 37 -151l348 -977l308 981q28 92 28 135q0 54 -39.5 74t-146.5 22v54z" />
    <glyph glyph-name="wacute" unicode="&#x1e83;" horiz-adv-x="1527" 
d="M991 1393l-198 -299h-62l148 299h112zM1161 971h326v-47q-45 -4 -69.5 -38t-57.5 -124l-281 -774h-82l-219 626l-246 -626h-81l-281 764q-39 107 -63 139.5t-66 32.5v47h365v-47q-78 -1 -111 -19.5t-33 -56.5q0 -23 17 -72l233 -657l233 590l-24 67q-32 91 -62.5 118
t-103.5 30v47h410v-47q-78 -2 -109 -18.5t-31 -61.5q0 -44 31 -135l203 -584l194 530q50 136 50 195q0 37 -31.5 55t-110.5 19v47z" />
    <glyph glyph-name="Wdieresis" unicode="&#x1e84;" horiz-adv-x="2031" 
d="M795 1487q-37 0 -61.5 26t-24.5 62t24 61t62 25t63 -25t25 -61t-25 -62t-63 -26zM1217 1487q-38 0 -63.5 26t-25.5 62t25.5 61t63.5 25t62 -25t24 -61t-24.5 -62t-61.5 -26zM1577 1393h403v-54q-63 -3 -93 -46.5t-81 -205.5l-348 -1099h-98l-332 917l-323 -917h-99
l-401 1155q-18 53 -27 78t-22 51.5t-19.5 35t-21.5 17t-27 10t-37 2.5v56h432v-54q-100 -1 -137 -21.5t-37 -72.5t25 -123l340 -997l315 891l-59 166q-37 104 -67.5 129t-123.5 28v54h482v-54q-107 -3 -143 -20.5t-36 -63.5q0 -44 37 -151l348 -977l308 981q28 92 28 135
q0 54 -39.5 74t-146.5 22v54z" />
    <glyph glyph-name="wdieresis" unicode="&#x1e85;" horiz-adv-x="1527" 
d="M573 1196q-42 0 -70 29t-28 69q0 41 28 70t70 29t70.5 -29.5t28.5 -69.5t-28.5 -69t-70.5 -29zM934 1196q-42 0 -70 29t-28 69q0 41 28 70t70 29t70 -29t28 -70q0 -40 -28 -69t-70 -29zM1161 971h326v-47q-45 -4 -69.5 -38t-57.5 -124l-281 -774h-82l-219 626l-246 -626
h-81l-281 764q-39 107 -63 139.5t-66 32.5v47h365v-47q-78 -1 -111 -19.5t-33 -56.5q0 -23 17 -72l233 -657l233 590l-24 67q-32 91 -62.5 118t-103.5 30v47h410v-47q-78 -2 -109 -18.5t-31 -61.5q0 -44 31 -135l203 -584l194 530q50 136 50 195q0 37 -31.5 55t-110.5 19v47
z" />
    <glyph glyph-name="Ygrave" unicode="&#x1ef2;" horiz-adv-x="1349" 
d="M731 1481h-65l-258 196h116zM918 1393h391v-54q-36 -8 -63.5 -30.5t-65.5 -81.5l-455 -690v-291q0 -112 42.5 -151t168.5 -42v-53h-535v53q127 3 170 41.5t43 151.5v291l-446 675q-50 74 -72.5 97t-54.5 30v54h436v-54q-109 -6 -145.5 -21t-36.5 -52q0 -44 70 -148
l327 -497l320 487q46 71 63 103t17 51q0 39 -36.5 55t-137.5 22v54z" />
    <glyph glyph-name="ygrave" unicode="&#x1ef3;" horiz-adv-x="1036" 
d="M590 1094h-62l-198 299h112zM672 971h323v-47q-37 -3 -62.5 -37.5t-68.5 -138.5l-323 -779q-99 -239 -176 -324t-191 -85q-84 0 -134 40t-50 105q0 47 27.5 73.5t74.5 26.5q26 0 45 -11t31 -30t22 -39t25.5 -43.5t34.5 -39.5q94 37 227 352l21 49l-297 721
q-37 91 -64.5 124t-68.5 36v47h376v-47q-72 -3 -101.5 -21t-29.5 -59q0 -49 35 -133l209 -525l238 572q26 68 26 94q0 69 -149 72v47z" />
    <glyph glyph-name="uni2002" unicode="&#x2002;" horiz-adv-x="1024" 
 />
    <glyph glyph-name="uni2003" unicode="&#x2003;" horiz-adv-x="2048" 
 />
    <glyph glyph-name="uni2004" unicode="&#x2004;" horiz-adv-x="681" 
 />
    <glyph glyph-name="uni2005" unicode="&#x2005;" horiz-adv-x="512" 
 />
    <glyph glyph-name="uni2009" unicode="&#x2009;" horiz-adv-x="409" 
 />
    <glyph glyph-name="uni200A" unicode="&#x200a;" horiz-adv-x="292" 
 />
    <glyph glyph-name="endash" unicode="&#x2013;" horiz-adv-x="1228" 
d="M1126 573v-71h-1024v71h1024z" />
    <glyph glyph-name="emdash" unicode="&#x2014;" horiz-adv-x="2252" 
d="M2150 573v-71h-2048v71h2048z" />
    <glyph glyph-name="quoteleft" unicode="&#x2018;" horiz-adv-x="417" 
d="M315 1427v-47q-82 0 -131 -60.5t-47 -152.5q33 29 72 29q45 0 71.5 -24.5t26.5 -69.5t-28 -71.5t-76 -26.5q-58 0 -89.5 42.5t-31.5 122.5q0 113 65.5 185.5t167.5 72.5z" />
    <glyph glyph-name="quoteright" unicode="&#x2019;" horiz-adv-x="417" 
d="M102 1010v47q82 0 131.5 60.5t47.5 152.5q-33 -29 -72 -29q-45 0 -71.5 24.5t-26.5 69.5q0 46 28.5 72.5t75.5 26.5q58 0 89.5 -43t31.5 -123q0 -113 -65.5 -185.5t-168.5 -72.5z" />
    <glyph glyph-name="quotesinglbase" unicode="&#x201a;" horiz-adv-x="417" 
d="M102 -240v47q82 0 131.5 60.5t47.5 152.5q-32 -28 -72 -28q-45 0 -71.5 24.5t-26.5 69.5t28 71.5t76 26.5q58 0 89.5 -43t31.5 -123q0 -113 -65.5 -185.5t-168.5 -72.5z" />
    <glyph glyph-name="quotedblleft" unicode="&#x201c;" horiz-adv-x="733" 
d="M315 1427v-47q-82 0 -131 -60.5t-47 -152.5q33 29 72 29q45 0 71.5 -24.5t26.5 -69.5t-28 -71.5t-76 -26.5q-58 0 -89.5 42.5t-31.5 122.5q0 113 65.5 185.5t167.5 72.5zM631 1427v-47q-82 0 -131 -60.5t-47 -152.5q33 29 71 29q45 0 72 -24.5t27 -69.5t-28.5 -71.5
t-76.5 -26.5q-58 0 -89.5 42.5t-31.5 122.5q0 113 65.5 185.5t168.5 72.5z" />
    <glyph glyph-name="quotedblright" unicode="&#x201d;" horiz-adv-x="733" 
d="M102 1010v47q82 0 131.5 60.5t47.5 152.5q-33 -29 -72 -29q-45 0 -71.5 24.5t-26.5 69.5q0 46 28.5 72.5t75.5 26.5q58 0 89.5 -43t31.5 -123q0 -113 -65.5 -185.5t-168.5 -72.5zM418 1010v47q82 0 131 60.5t47 152.5q-33 -29 -72 -29q-45 0 -71.5 24.5t-26.5 69.5
q0 46 28.5 72.5t75.5 26.5q58 0 89.5 -43t31.5 -123q0 -113 -65.5 -185.5t-167.5 -72.5z" />
    <glyph glyph-name="quotedblbase" unicode="&#x201e;" horiz-adv-x="733" 
d="M102 -240v47q82 0 131.5 60.5t47.5 152.5q-32 -28 -72 -28q-45 0 -71.5 24.5t-26.5 69.5t28 71.5t76 26.5q58 0 89.5 -43t31.5 -123q0 -113 -65.5 -185.5t-168.5 -72.5zM418 -240v47q82 0 131 60.5t47 152.5q-32 -28 -72 -28q-45 0 -71.5 24.5t-26.5 69.5t28 71.5
t76 26.5q58 0 89.5 -43t31.5 -123q0 -113 -65.5 -185.5t-167.5 -72.5z" />
    <glyph glyph-name="dagger" unicode="&#x2020;" horiz-adv-x="1222" 
d="M1098 1059q22 -19 22 -60q0 -37 -22 -59q-270 21 -488 21t-487 -21q-21 21 -21 59q0 43 21 60q235 -18 463 -66q-33 75 -33 232q0 115 25 200l-31 52q25 28 63 28q40 0 64 -28l-31 -52q25 -85 25 -200q0 -157 -33 -232q228 48 463 66zM561 25v843h98v-843
q0 -238 -43 -465h-12q-43 227 -43 465z" />
    <glyph glyph-name="daggerdbl" unicode="&#x2021;" horiz-adv-x="1222" 
d="M610 1104q-218 0 -487 -21q-21 21 -21 60q0 41 21 59q242 -18 463 -65q-33 75 -33 231q0 116 25 201l-31 51q25 29 63 29q39 0 64 -29l-31 -51q25 -85 25 -201q0 -156 -33 -231q221 47 463 65q22 -19 22 -59q0 -38 -22 -60q-270 21 -488 21zM659 1053v-127
q0 -154 -43 -301h-12q-43 147 -43 301v127h98zM604 582h12q43 -147 43 -301v-127h-98v127q0 154 43 301zM610 102q218 0 488 21q22 -22 22 -60q0 -40 -22 -59q-235 18 -463 66q33 -75 33 -232q0 -115 -25 -200l31 -52q-24 -28 -64 -28q-38 0 -63 28l31 52q-25 85 -25 200
q0 157 33 232q-228 -48 -463 -66q-21 18 -21 59q0 39 21 60q269 -21 487 -21z" />
    <glyph glyph-name="bullet" unicode="&#x2022;" horiz-adv-x="598" 
d="M299 803q89 0 148 -59t59 -148t-59 -148t-148 -59t-148 59t-59 148t59 148t148 59z" />
    <glyph glyph-name="ellipsis" unicode="&#x2026;" horiz-adv-x="1632" 
d="M266 -18q-42 0 -72 29t-30 75q0 43 30 71.5t72 28.5q44 0 74.5 -28.5t30.5 -71.5q0 -46 -30.5 -75t-74.5 -29zM815 -18q-42 0 -72 29t-30 75q0 43 30 71.5t72 28.5q44 0 74.5 -28.5t30.5 -71.5q0 -46 -30.5 -75t-74.5 -29zM1364 -18q-42 0 -72 29t-30 75q0 43 30 71.5
t72 28.5q44 0 74 -28t30 -72q0 -46 -30 -75t-74 -29z" />
    <glyph glyph-name="perthousand" unicode="&#x2030;" horiz-adv-x="1953" 
d="M322 762q-121 0 -191 84t-70 246q0 161 70 245t191 84t190.5 -83.5t69.5 -245.5t-70 -246t-190 -84zM248 0l815 1393h57l-815 -1393h-57zM322 842q92 0 147 71t55 179t-55 178.5t-147 70.5t-147.5 -70.5t-55.5 -178.5t55.5 -179t147.5 -71zM1049 -29q-121 0 -191 84
t-70 246t70 246t191 84q120 0 190 -84t70 -246t-70 -246t-190 -84zM1632 -29q-120 0 -190 84t-70 246t70 246t190 84t190 -84t70 -246t-70 -246t-190 -84zM1049 51q92 0 147 71t55 179t-55 179t-147 71t-147.5 -71t-55.5 -179t55.5 -179t147.5 -71zM1632 51q92 0 147.5 71
t55.5 179t-55.5 179t-147.5 71t-147 -71t-55 -179t55 -179t147 -71z" />
    <glyph glyph-name="guilsinglleft" unicode="&#x2039;" horiz-adv-x="559" 
d="M369 63l-328 412l328 412h77l-290 -412l290 -412h-77z" />
    <glyph glyph-name="guilsinglright" unicode="&#x203a;" horiz-adv-x="559" 
d="M190 63h-77l290 412l-290 412h77l328 -412z" />
    <glyph glyph-name="fraction" unicode="&#x2044;" horiz-adv-x="163" 
d="M-354 0l815 1393h57l-815 -1393h-57z" />
    <glyph glyph-name="Euro" unicode="&#x20ac;" horiz-adv-x="1357" 
d="M1202 375h53l-12 -279q-83 -54 -203 -89.5t-245 -35.5q-235 0 -390 163t-178 433h-217l19 33h196q-2 18 -2 57q0 40 2 60h-215l19 33h198q26 275 192 442.5t417 167.5q122 0 208.5 -21.5t184.5 -66.5v-314h-53q-27 189 -104 267t-249 78q-216 0 -342 -147.5t-141 -405.5
h776l-20 -33h-758v-41q0 -51 2 -76h770l-18 -33h-750q25 -250 148.5 -395t316.5 -145q173 0 264 80t131 268z" />
    <glyph glyph-name="uni20BF" unicode="&#x20bf;" horiz-adv-x="1263" 
d="M702 694q215 -3 327 -92.5t112 -259.5q0 -156 -119 -249t-320 -93h-96l-26 -227h-33l26 227h-116l-27 -227h-33l27 227h-322v51q121 3 155 37t34 154v845q0 46 -2 73.5t-9.5 51t-18 35t-33 20t-48.5 10.5t-69 3v51h469l22 205h33l-23 -205h37q53 0 78 -2l25 207h32
l-24 -211q166 -19 252 -98t86 -215q0 -141 -102 -221t-294 -89v-8zM625 1276h-230v-553h82q494 0 494 278q0 134 -88.5 204.5t-257.5 70.5zM647 45q182 0 275.5 75.5t93.5 221.5q0 78 -17.5 130.5t-57 91t-113.5 59.5t-176.5 31.5t-256.5 11.5v-400q0 -128 53 -174.5
t199 -46.5z" />
    <glyph glyph-name="uni2100" unicode="&#x2100;" horiz-adv-x="1726" 
d="M1321 1393h57l-815 -1393h-57zM524 776v4q-36 -73 -94 -111t-127 -38q-82 0 -132 41.5t-50 111.5q0 74 55 118t158 75l190 57v72q0 174 -168 174q-102 0 -180 -47q6 -28 39 -63t33 -64q0 -30 -24 -51t-58 -21q-39 0 -63.5 26t-24.5 68q0 56 47 107.5t119.5 82t146.5 30.5
q106 0 166.5 -58t60.5 -174v-334q0 -71 54 -71q31 0 47.5 22.5t30.5 75.5l34 -10q-13 -81 -42 -121.5t-91 -40.5q-59 0 -93 36t-34 103zM336 707q50 0 100.5 34t87.5 105v139l-149 -49q-77 -26 -114.5 -55t-37.5 -78q0 -45 29.5 -70.5t83.5 -25.5zM1386 84q81 0 135.5 35
t80.5 96l36 -10q-28 -110 -91 -167.5t-177 -57.5q-145 0 -232 93t-87 251q0 169 94.5 270.5t249.5 101.5q104 0 173.5 -49t69.5 -125q0 -46 -24.5 -74t-65.5 -28q-35 0 -57.5 20.5t-22.5 55.5q0 28 26.5 61t31.5 51q-51 37 -131 37q-110 0 -182 -76.5t-72 -203.5
q0 -133 67.5 -207t177.5 -74z" />
    <glyph glyph-name="uni2105" unicode="&#x2105;" horiz-adv-x="1726" 
d="M410 0l815 1393h57l-815 -1393h-57zM408 631q-145 0 -232.5 93t-87.5 251q0 169 94.5 271t249.5 102q104 0 174 -49t70 -125q0 -46 -24.5 -74.5t-65.5 -28.5q-35 0 -57.5 20.5t-22.5 55.5q0 29 26 62.5t31 50.5q-49 36 -131 36q-110 0 -182 -76.5t-72 -203.5
q0 -133 68 -207t178 -74q80 0 134.5 35t80.5 96l37 -10q-28 -110 -91 -167.5t-177 -57.5zM1294 -20q-152 0 -246 99t-94 259q0 159 95.5 258.5t248.5 99.5q152 0 246 -98.5t94 -257.5q0 -160 -95.5 -260t-248.5 -100zM1305 31q31 0 60.5 8.5t59.5 29t52 52t35.5 82
t13.5 114.5t-14.5 122t-43 105t-74.5 75t-104 28q-40 0 -77 -14.5t-70.5 -46.5t-53.5 -90.5t-20 -137.5q0 -86 24.5 -158t79.5 -120.5t132 -48.5z" />
    <glyph glyph-name="uni2113" unicode="&#x2113;" horiz-adv-x="1150" 
d="M1090 1085q0 -214 -196.5 -393.5t-528.5 -273.5q-3 -41 -3 -76q0 -88 14 -146.5t42.5 -88t60.5 -40t78 -10.5q55 0 101.5 21t81.5 60t60 80t50 97h61q-23 -57 -47 -102.5t-60 -92.5t-76.5 -78t-96.5 -51t-121 -20q-51 0 -93 18t-77 58t-54.5 114t-19.5 177q0 37 2 55
q-141 -30 -237 -39v56q133 16 241 41q11 113 39 233t77.5 242t113 218t152.5 156t188 60q44 0 84 -13t79 -42t62 -85.5t23 -134.5zM821 1298q-75 0 -143 -53t-118 -138t-90 -194.5t-64 -219.5t-35 -216q302 90 461 257.5t159 355.5q0 208 -170 208z" />
    <glyph glyph-name="uni2116" unicode="&#x2116;" horiz-adv-x="2365" 
d="M1012 1339v54h452v-54q-86 -3 -114.5 -48.5t-28.5 -168.5v-1138h-98l-854 1126v-809q0 -53 2.5 -86.5t11.5 -64t23.5 -46.5t41.5 -28.5t63 -17t89 -5.5v-53h-498v53q52 1 84.5 8.5t54.5 22t32 45.5t14 69t4 103v911l-6 9q-55 73 -86.5 93t-96.5 25v54h207l934 -1248v977
q0 69 -8 107.5t-34.5 64t-69.5 34.5t-119 11zM1933 631q-152 0 -246 99t-94 259t96 259.5t248 99.5t246 -99t94 -258q0 -160 -95.5 -260t-248.5 -100zM1929 1298q-40 0 -77 -14.5t-70.5 -46t-53.5 -90t-20 -137.5q0 -63 14.5 -120.5t42.5 -104.5t74 -75t105 -28
q40 0 76.5 14.5t70 45.5t54 89.5t20.5 137.5q0 135 -61.5 232t-174.5 97zM1606 457v63h661v-63h-661z" />
    <glyph glyph-name="trademark" unicode="&#x2122;" horiz-adv-x="1906" 
d="M793 1554l10 -235h-43q-8 62 -15.5 95.5t-23 52t-33 22.5t-51.5 4h-162v-592q0 -82 26.5 -105t121.5 -26v-33h-381v33q53 2 82 8t43.5 23.5t18 37.5t3.5 62v592h-162q-66 0 -87.5 -31t-33.5 -143h-45l11 235h41q6 -16 14 -19t35 -3h540q20 0 26.5 0.5t13 5.5t10.5 16h41z
M1735 885q6 -66 25.5 -89t84.5 -26v-33h-313v33q62 1 89.5 14t31.5 39.5t0 67.5l-51 524l-263 -678h-67l-268 682l-50 -526q-7 -72 12 -96t105 -27v-33h-285v33q68 1 88.5 26.5t26.5 96.5l51 496q6 70 -10.5 88.5t-89.5 19.5v35h207l264 -701l268 701h199v-35
q-75 -3 -92.5 -21t-11.5 -87z" />
    <glyph glyph-name="uni2126" unicode="&#x2126;" horiz-adv-x="1544" 
d="M133 0l-20 340h61q18 -131 55 -179t127 -48h265v186q-136 15 -245.5 85.5t-175 191t-65.5 270.5q0 172 83 303.5t227.5 201.5t326.5 70t326.5 -70t227.5 -201.5t83 -303.5q0 -150 -65 -270.5t-174.5 -191t-245.5 -85.5v-186h264q90 0 127 48t55 179h62l-21 -340h-553v350
q196 17 307 151.5t111 344.5q0 244 -131.5 379t-372.5 135t-372.5 -135t-131.5 -379q0 -210 111 -344.5t307 -151.5v-350h-553z" />
    <glyph glyph-name="estimated" unicode="&#x212e;" horiz-adv-x="1726" 
d="M866 31q179 0 327.5 61t244.5 182l45 -41q-99 -136 -263 -199t-354 -63q-167 0 -309 55.5t-239 152t-151 229t-54 284.5t55.5 286t153 231.5t239 154.5t305.5 57q225 0 395 -93t261 -260t92 -384h-1223v-477q92 -84 214.5 -130t260.5 -46zM1335 1202q-181 160 -469 160
q-284 0 -475 -178v-439h944v457z" />
    <glyph glyph-name="uni2153" unicode="&#x2153;" horiz-adv-x="1146" 
d="M375 752v-27h-307v27q59 2 84 9.5t30.5 19.5t5.5 42v504l-114 -76v66l114 76h72v-570q0 -45 20.5 -56.5t94.5 -14.5zM893 1393h57l-815 -1393h-57zM891 387q102 0 161.5 -53.5t59.5 -145.5t-66 -147t-174 -55q-98 0 -158.5 34.5t-60.5 90.5q0 29 16 46t44 17q45 0 51 -41
q2 -12 1.5 -41.5t2.5 -48.5q44 -20 98 -20q80 0 127 40t47 109q0 141 -186 141q-28 0 -88 -6v62l250 225h-215q-32 0 -44.5 -1.5t-24.5 -14.5t-15.5 -37t-5.5 -74h-39v201h405v-74l-237 -211q32 4 51 4z" />
    <glyph glyph-name="uni2154" unicode="&#x2154;" horiz-adv-x="1267" 
d="M172 897q118 104 168.5 171.5t50.5 135.5q0 65 -39.5 103.5t-105.5 38.5q-68 0 -110.5 -38.5t-49.5 -115.5h-37q0 104 54.5 159.5t158.5 55.5q98 0 155.5 -51t57.5 -139q0 -54 -27 -103t-73 -94.5t-146 -132.5l-102 -88h227h25.5t20.5 2t17.5 6t12.5 11.5t11 18.5t7 28.5
t5.5 39.5t3.5 53h39v-233h-437v74zM1014 1393h57l-815 -1393h-57zM1012 387q102 0 161.5 -53.5t59.5 -145.5t-66 -147t-174 -55q-98 0 -158.5 34.5t-60.5 90.5q0 29 16 46t44 17q45 0 51 -41q2 -12 1.5 -41.5t2.5 -48.5q44 -20 98 -20q80 0 127 40t47 109q0 141 -186 141
q-28 0 -88 -6v62l250 225h-215q-32 0 -44.5 -1.5t-25 -14.5t-16 -37.5t-5.5 -73.5h-38v201h405v-74l-237 -211q32 4 51 4z" />
    <glyph glyph-name="oneeighth" unicode="&#x215b;" horiz-adv-x="1157" 
d="M375 752v-27h-307v27q59 2 84 9.5t30.5 19.5t5.5 42v504l-114 -76v66l114 76h72v-570q0 -45 20.5 -56.5t94.5 -14.5zM893 1393h57l-815 -1393h-57zM963 332q72 -36 105.5 -74.5t33.5 -97.5q0 -80 -60.5 -127t-164.5 -47q-105 0 -167.5 45.5t-62.5 120.5q0 61 42 106
t122 68l-23 12q-73 37 -105 76t-32 94q0 81 61 127.5t165 46.5q106 0 167.5 -45t61.5 -121q0 -126 -166 -172zM725 535q0 -45 24.5 -76.5t79.5 -59.5l78 -39q123 43 123 154q0 60 -41.5 95.5t-114.5 35.5q-69 0 -109 -29.5t-40 -80.5zM879 23q68 0 108.5 30t40.5 82
q0 82 -106 135l-76 39q-125 -41 -125 -155q0 -60 42.5 -95.5t115.5 -35.5z" />
    <glyph glyph-name="threeeighths" unicode="&#x215c;" horiz-adv-x="1275" 
d="M516 913q0 -92 -66 -147t-174 -55q-98 0 -158.5 34.5t-60.5 90.5q0 29 16 46t44 17q45 0 51 -41q2 -12 1.5 -41.5t2.5 -48.5q44 -20 98 -20q80 0 127 40t47 109q0 141 -186 141q-28 0 -88 -6v62l250 225h-215q-32 0 -44.5 -1.5t-24.5 -14.5t-15.5 -37t-5.5 -74h-39v201
h405v-74l-237 -211q32 4 51 4q102 0 161.5 -53.5t59.5 -145.5zM1012 1393h57l-815 -1393h-57zM1081 332q72 -36 106 -75t34 -97q0 -80 -61 -127t-165 -47q-105 0 -167 45.5t-62 120.5q0 61 42 106t122 68l-23 12q-73 37 -105 76t-32 94q0 81 61 127.5t164 46.5
q106 0 168 -45t62 -121q0 -126 -166 -172zM844 535q0 -45 24.5 -76.5t79.5 -59.5l78 -39q123 43 123 154q0 60 -41.5 95.5t-114.5 35.5q-69 0 -109 -29.5t-40 -80.5zM997 23q68 0 109 30t41 82q0 81 -107 135l-75 39q-125 -41 -125 -155q0 -60 42 -95.5t115 -35.5z" />
    <glyph glyph-name="fiveeighths" unicode="&#x215d;" horiz-adv-x="1241" 
d="M475 924q0 -98 -64.5 -155.5t-172.5 -57.5q-89 0 -147 35.5t-58 91.5q0 28 15.5 44.5t43.5 16.5q43 0 49 -37q3 -14 2.5 -44t1.5 -50q47 -20 95 -20q76 0 119.5 40t43.5 113q0 76 -45.5 117t-132.5 41q-57 0 -145 -21l29 355h247q32 0 44 5.5t16 24.5h35l-9 -104h-299
l-16 -201q58 15 115 15q110 0 171.5 -54.5t61.5 -154.5zM977 1393h57l-815 -1393h-57zM1047 332q72 -36 105.5 -74.5t33.5 -97.5q0 -80 -60.5 -127t-164.5 -47q-105 0 -167.5 45.5t-62.5 120.5q0 61 42 106t122 68l-23 12q-73 37 -105 76t-32 94q0 81 61 127.5t165 46.5
q106 0 167.5 -45t61.5 -121q0 -126 -166 -172zM809 535q0 -45 24.5 -76.5t79.5 -59.5l78 -39q123 43 123 154q0 60 -41.5 95.5t-114.5 35.5q-69 0 -109 -29.5t-40 -80.5zM963 23q68 0 108.5 30t40.5 82q0 82 -106 135l-76 39q-125 -41 -125 -155q0 -60 42.5 -95.5
t115.5 -35.5z" />
    <glyph glyph-name="seveneighths" unicode="&#x215e;" horiz-adv-x="1142" 
d="M164 1319q-32 0 -44.5 -2t-26 -14t-18 -37.5t-7.5 -73.5h-37v201h442v-74l-291 -594h-53l291 594h-256zM879 1393h57l-815 -1393h-58zM948 332q72 -36 105.5 -74.5t33.5 -97.5q0 -80 -60.5 -127t-164.5 -47q-105 0 -167 45.5t-62 120.5q0 61 42 106t122 68l-23 12
q-73 37 -105 76t-32 94q0 81 61 127.5t164 46.5q106 0 168 -45t62 -121q0 -126 -166 -172zM711 535q0 -45 24.5 -76.5t79.5 -59.5l78 -39q123 43 123 154q0 60 -41.5 95.5t-114.5 35.5q-69 0 -109 -29.5t-40 -80.5zM864 23q68 0 109 30t41 82q0 81 -107 135l-76 39
q-124 -41 -124 -155q0 -60 42 -95.5t115 -35.5z" />
    <glyph glyph-name="arrowleft" unicode="&#x2190;" horiz-adv-x="1427" 
d="M1366 547v-62h-1188l359 -381h-91l-385 412l385 412h91l-359 -381h1188z" />
    <glyph glyph-name="arrowup" unicode="&#x2191;" horiz-adv-x="946" 
d="M885 1051v-90l-381 344v-1305h-62v1305l-381 -344v90l412 370z" />
    <glyph glyph-name="arrowright" unicode="&#x2192;" horiz-adv-x="1427" 
d="M981 928l385 -412l-385 -412h-90l358 381h-1188v62h1188l-358 381h90z" />
    <glyph glyph-name="arrowdown" unicode="&#x2193;" horiz-adv-x="946" 
d="M504 88l381 344v-90l-412 -371l-412 371v90l381 -344v1305h62v-1305z" />
    <glyph glyph-name="arrowboth" unicode="&#x2194;" horiz-adv-x="1787" 
d="M1341 928l385 -412l-385 -412h-90l359 381h-1432l359 -381h-91l-385 412l385 412h91l-359 -381h1432l-359 381h90z" />
    <glyph glyph-name="arrowupdn" unicode="&#x2195;" horiz-adv-x="946" 
d="M885 961l-381 344v-1217l381 344v-90l-412 -371l-412 371v90l381 -344v1217l-381 -344v90l412 370l412 -370v-90z" />
    <glyph glyph-name="uni2196" unicode="&#x2196;" horiz-adv-x="1179" 
d="M1118 215l-43 -43l-923 922l-25 -512l-66 63l31 553l553 29l64 -64l-514 -24z" />
    <glyph glyph-name="uni2197" unicode="&#x2197;" horiz-adv-x="1177" 
d="M1116 674l-63 -64l-25 514l-924 -923l-43 43l922 923l-512 25l64 65l552 -30z" />
    <glyph glyph-name="uni2198" unicode="&#x2198;" horiz-adv-x="1179" 
d="M1053 844l65 -64l-31 -553l-552 -28l-64 63l514 25l-924 923l43 43l924 -921z" />
    <glyph glyph-name="uni2199" unicode="&#x2199;" horiz-adv-x="1177" 
d="M1116 1153l-921 -924l512 -24l-64 -66l-553 31l-29 553l64 63l25 -514l923 924z" />
    <glyph glyph-name="uni21A4" unicode="&#x21a4;" horiz-adv-x="1427" 
d="M1366 547v-62h-20v-381h-62v381h-1106l359 -381h-91l-385 412l385 412h91l-359 -381h1106v381h62v-381h20z" />
    <glyph glyph-name="uni21A5" unicode="&#x21a5;" horiz-adv-x="946" 
d="M885 961l-381 344v-1244h381v-61h-824v61h381v1244l-381 -344v90l412 370l412 -370v-90z" />
    <glyph glyph-name="uni21A6" unicode="&#x21a6;" horiz-adv-x="1427" 
d="M981 928l385 -412l-385 -412h-90l358 381h-1106v-381h-61v381h-21v62h21v381h61v-381h1106l-358 381h90z" />
    <glyph glyph-name="uni21A7" unicode="&#x21a7;" horiz-adv-x="946" 
d="M885 1331h-381v-1243l381 344v-90l-412 -371l-412 371v90l381 -344v1243h-381v62h824v-62z" />
    <glyph glyph-name="uni21A9" unicode="&#x21a9;" horiz-adv-x="1488" 
d="M1042 1161q185 0 285 -89.5t100 -248.5t-100 -248.5t-285 -89.5h-864l359 -381h-91l-385 412l385 412h91l-359 -381h866q155 0 234.5 72t79.5 204t-79.5 204.5t-234.5 72.5h-178v61h176z" />
    <glyph glyph-name="uni21AA" unicode="&#x21aa;" horiz-adv-x="1488" 
d="M1042 928l385 -412l-385 -412h-90l359 381h-865q-185 0 -285 89.5t-100 248.5t100 248.5t285 89.5h177v-61h-179q-154 0 -233.5 -72t-79.5 -205q0 -132 79 -204t234 -72h867l-359 381h90z" />
    <glyph glyph-name="uni21AB" unicode="&#x21ab;" horiz-adv-x="1583" 
d="M1235 1065q135 0 211 -75t76 -208q0 -145 -95.5 -221t-275.5 -76h-141v-381h-62v381h-770l359 -381h-91l-385 412l385 412h91l-359 -381h770v153q0 185 70.5 275t216.5 90zM1153 547q299 0 299 235q0 107 -55.5 164.5t-159.5 57.5q-118 0 -172.5 -73.5t-54.5 -230.5v-153
h143z" />
    <glyph glyph-name="uni21AC" unicode="&#x21ac;" horiz-adv-x="1583" 
d="M1137 928l385 -412l-385 -412h-90l358 381h-770v-381h-62v381h-141q-180 0 -275.5 76t-95.5 221q0 133 76 208t211 75q146 0 216.5 -90t70.5 -275v-153h770l-358 381h90zM430 547h143v153q0 157 -54.5 230.5t-172.5 73.5q-104 0 -159.5 -57.5t-55.5 -164.5
q0 -235 299 -235z" />
    <glyph glyph-name="uni21AF" unicode="&#x21af;" horiz-adv-x="925" 
d="M395 72l469 190l-30 -84l-512 -207l-261 490l31 84l240 -459l252 688h-359l207 619h66l-189 -564h357z" />
    <glyph glyph-name="uni21B0" unicode="&#x21b0;" horiz-adv-x="1427" 
d="M1366 1012v-62h-20v-950h-62v950h-1106l359 -381h-91l-385 412l385 412h91l-359 -381h1188z" />
    <glyph glyph-name="uni21B1" unicode="&#x21b1;" horiz-adv-x="1427" 
d="M981 1393l385 -412l-385 -412h-90l358 381h-1106v-950h-61v950h-21v62h1188l-358 381h90z" />
    <glyph glyph-name="uni21B2" unicode="&#x21b2;" horiz-adv-x="1427" 
d="M1366 442v-61h-1188l359 -381h-91l-385 412l385 411h91l-359 -381h1106v951h62v-951h20z" />
    <glyph glyph-name="uni21B3" unicode="&#x21b3;" horiz-adv-x="1427" 
d="M981 823l385 -411l-385 -412h-90l358 381h-1188v61h21v951h61v-951h1106l-358 381h90z" />
    <glyph glyph-name="uni21B4" unicode="&#x21b4;" horiz-adv-x="1480" 
d="M1038 88l381 344v-90l-411 -371l-412 371v90l381 -344v1243h-916v62h979v-62h-2v-1243z" />
    <glyph glyph-name="uni21B6" unicode="&#x21b6;" horiz-adv-x="1261" 
d="M821 1421q187 0 283 -101.5t96 -299.5v-1020h-61v1022q0 169 -80.5 255.5t-237.5 86.5t-237 -91.5t-80 -271.5v-380l381 344v-91l-412 -370l-412 370v91l381 -344v378q0 422 379 422z" />
    <glyph glyph-name="uni21B7" unicode="&#x21b7;" horiz-adv-x="1261" 
d="M819 621l381 344v-91l-412 -370l-411 370v91l381 -344v380q0 180 -80.5 271.5t-237.5 91.5t-237 -86.5t-80 -255.5v-1022h-62v1020q0 198 96 299.5t283 101.5q379 0 379 -422v-378z" />
    <glyph glyph-name="uni21BA" unicode="&#x21ba;" horiz-adv-x="1894" 
d="M1833 621v-91l-371 336v-129q0 -230 -83 -404t-236.5 -268t-356.5 -94q-210 0 -375.5 92t-257.5 257.5t-92 375.5q0 213 94 378t263.5 256t388.5 91v-61q-198 0 -352 -83.5t-239 -235t-85 -345.5q0 -192 83 -343.5t232.5 -235.5t339.5 -84q277 0 442 191t165 513v140
l-383 -347v91l411 370z" />
    <glyph glyph-name="uni21BB" unicode="&#x21bb;" horiz-adv-x="1894" 
d="M1087 1421q219 0 388.5 -91t263.5 -256t94 -378q0 -210 -92 -375.5t-257.5 -257.5t-375.5 -92q-203 0 -356.5 94t-236.5 268t-83 404v129l-371 -336v91l412 370l412 -370v-91l-383 347v-140q0 -322 164.5 -513t441.5 -191q190 0 339.5 84t232.5 235.5t83 343.5
q0 194 -85 345.5t-239 235t-352 83.5v61z" />
    <glyph glyph-name="uni21C4" unicode="&#x21c4;" horiz-adv-x="1632" 
d="M1096 569l358 381h-1393v62h1393l-358 381h90l385 -412l-385 -412h-90zM537 823l-359 -381h1393v-61h-1393l359 -381h-91l-385 412l385 411h91z" />
    <glyph glyph-name="uni21C5" unicode="&#x21c5;" horiz-adv-x="1511" 
d="M885 961l-381 344v-1305h-62v1305l-381 -344v90l412 370l412 -370v-90zM1069 88l381 344v-90l-412 -371l-411 371v90l381 -344v1305h61v-1305z" />
    <glyph glyph-name="uni21C6" unicode="&#x21c6;" horiz-adv-x="1632" 
d="M178 1012h1393v-62h-1393l359 -381h-91l-385 412l385 412h91zM1096 823h90l385 -411l-385 -412h-90l358 381h-1393v61h1393z" />
    <glyph glyph-name="uni21C7" unicode="&#x21c7;" horiz-adv-x="1427" 
d="M178 1051h1188v-62h-1188l236 -260h-92l-261 291l261 291h92zM414 664l-236 -261h1188v-61h-1188l236 -260h-92l-261 291l261 291h92z" />
    <glyph glyph-name="uni21C8" unicode="&#x21c8;" horiz-adv-x="1429" 
d="M61 1161l291 260l291 -260v-92l-260 236v-1305h-61v1305l-261 -236v92zM1368 1161v-92l-260 236v-1305h-61v1305l-261 -236v92l291 260z" />
    <glyph glyph-name="uni21C9" unicode="&#x21c9;" horiz-adv-x="1427" 
d="M1014 729l235 260h-1188v62h1188l-235 260h92l260 -291l-260 -291h-92zM1014 664h92l260 -291l-260 -291h-92l235 260h-1188v61h1188z" />
    <glyph glyph-name="uni21CA" unicode="&#x21ca;" horiz-adv-x="1429" 
d="M383 1421v-1304l260 235v-92l-291 -260l-291 260v92l261 -235v1304h61zM1108 117l260 235v-92l-291 -260l-291 260v92l261 -235v1304h61v-1304z" />
    <glyph glyph-name="arrowdblleft" unicode="&#x21d0;" horiz-adv-x="1427" 
d="M285 659l-135 -143l135 -143h1081v-62h-1024l195 -207h-91l-385 412l385 412h91l-195 -207h1024v-62h-1081z" />
    <glyph glyph-name="arrowdblup" unicode="&#x21d1;" horiz-adv-x="946" 
d="M885 1036v-90l-207 195v-1141h-62v1198l-143 135l-143 -135v-1198h-62v1141l-207 -195v90l412 385z" />
    <glyph glyph-name="arrowdblright" unicode="&#x21d2;" horiz-adv-x="1427" 
d="M981 928l385 -412l-385 -412h-90l194 207h-1024v62h1082l135 143l-135 143h-1082v62h1024l-194 207h90z" />
    <glyph glyph-name="arrowdbldown" unicode="&#x21d3;" horiz-adv-x="946" 
d="M678 252l207 194v-90l-412 -385l-412 385v90l207 -194v1141h62v-1198l143 -136l143 136v1198h62v-1141z" />
    <glyph glyph-name="arrowdblboth" unicode="&#x21d4;" horiz-adv-x="1837" 
d="M1391 928l385 -412l-385 -412h-91l195 207h-1153l195 -207h-91l-385 412l385 412h91l-195 -207h1153l-195 207h91zM1552 373l136 143l-136 143h-1267l-135 -143l135 -143h1267z" />
    <glyph glyph-name="uni21D5" unicode="&#x21d5;" horiz-adv-x="946" 
d="M885 946l-207 195v-889l207 194v-90l-412 -385l-412 385v90l207 -194v889l-207 -195v90l412 385l412 -385v-90zM616 195v1003l-143 135l-143 -135v-1003l143 -136z" />
    <glyph glyph-name="uni21D6" unicode="&#x21d6;" horiz-adv-x="1292" 
d="M340 1143l-197 -6l-6 -199l848 -846l-43 -43l-807 807l-8 -285l-66 64l21 563l563 19l64 -64l-285 -8l807 -807l-43 -43z" />
    <glyph glyph-name="uni21D7" unicode="&#x21d7;" horiz-adv-x="1290" 
d="M1229 664l-64 -64l-8 285l-807 -807l-43 43l848 848l-6 196l-199 6l-846 -847l-43 43l807 807l-284 8l63 65l563 -20z" />
    <glyph glyph-name="uni21D8" unicode="&#x21d8;" horiz-adv-x="1292" 
d="M1165 786l66 -63l-21 -563l-563 -19l-63 64l284 8l-807 807l43 43l848 -848l197 6l6 199l-848 846l43 43l807 -807z" />
    <glyph glyph-name="uni21D9" unicode="&#x21d9;" horiz-adv-x="1290" 
d="M1229 991l-807 -807l285 -8l-64 -65l-563 20l-19 563l64 64l8 -285l807 807l43 -43l-848 -848l6 -196l199 -7l846 848z" />
    <glyph glyph-name="uni21F5" unicode="&#x21f5;" horiz-adv-x="1511" 
d="M1450 1051v-90l-381 344v-1305h-61v1305l-381 -344v90l411 370zM504 1393v-1305l381 344v-90l-412 -371l-412 371v90l381 -344v1305h62z" />
    <glyph glyph-name="partialdiff" unicode="&#x2202;" horiz-adv-x="1257" 
d="M590 -23q-194 0 -324.5 127t-130.5 334q0 222 131.5 361t341.5 139q173 0 285.5 -96.5t126.5 -253.5q14 77 14 176q0 134 -32.5 246.5t-99.5 203t-181 142t-266 51.5q-101 0 -205 -29v66q119 31 229 31q134 0 244.5 -37.5t188 -103.5t130.5 -158t78 -200t25 -231
q0 -95 -15 -187t-44.5 -178t-76.5 -159t-107 -127.5t-140 -85.5t-172 -31zM594 43q86 0 154.5 32t110.5 80.5t70 111.5t39 120.5t11 110.5q0 159 -96 254.5t-258 95.5q-80 0 -143.5 -25.5t-105.5 -68t-70 -101.5t-40 -122.5t-12 -133.5q0 -88 28 -157t75.5 -111t108 -64
t128.5 -22z" />
    <glyph glyph-name="emptyset" unicode="&#x2205;" horiz-adv-x="1679" 
d="M1157 1356q191 -82 300.5 -257t109.5 -403q0 -209 -91.5 -373.5t-257.5 -257t-378 -92.5q-201 0 -371 88l-49 -92h-60l64 121q-147 95 -229 252.5t-82 353.5q0 209 92 373.5t258 257t377 92.5q144 0 266 -43l24 47h62zM168 696q0 -181 74.5 -325.5t208.5 -233.5l628 1190
q-107 39 -239 39q-194 0 -347.5 -85t-239 -238t-85.5 -347zM840 27q194 0 347 85t238.5 237.5t85.5 346.5q0 213 -102 375t-279 238l-634 -1198q155 -84 344 -84z" />
    <glyph glyph-name="uni2206" unicode="&#x2206;" horiz-adv-x="1312" 
d="M709 1393l542 -1393h-1190l543 1393h105zM143 51h983l-491 1264z" />
    <glyph glyph-name="product" unicode="&#x220f;" horiz-adv-x="1574" 
d="M1473 1339q-62 -1 -94 -6.5t-54.5 -25t-29.5 -52.5t-7 -94v-1134q0 -61 7 -94t29.5 -53t55 -25.5t93.5 -6.5v-53h-482v53q46 1 75 3.5t51.5 11t33.5 19t17.5 33.5t8 46.5t1.5 65.5v1204q0 44 -6.5 61.5t-32 26t-86.5 8.5h-533q-61 0 -86.5 -8.5t-32 -26t-6.5 -61.5v-1204
q0 -42 1.5 -65.5t8 -46.5t17.5 -33.5t33.5 -19t51.5 -11t75 -3.5v-53h-480v53q61 1 93 6.5t54 25.5t29 53.5t7 93.5v1134q0 60 -6.5 93.5t-29.5 53t-54.5 25t-92.5 6.5v54h1371v-54z" />
    <glyph glyph-name="summation" unicode="&#x2211;" horiz-adv-x="1214" 
d="M1040 487h62l-41 -487h-959v113l535 577l-535 645v58h947l18 -435h-61q-11 121 -29 191t-56 113.5t-93 58t-148 14.5h-424l506 -610l-565 -612h493q85 0 139.5 14.5t99 55t70.5 114t41 190.5z" />
    <glyph glyph-name="minus" unicode="&#x2212;" horiz-adv-x="1187" 
d="M135 569v62h918v-62h-918z" />
    <glyph glyph-name="radical" unicode="&#x221a;" horiz-adv-x="1392" 
d="M1331 1393v-41h-289l-407 -1352h-76l-323 930h-175v41h213l324 -930l408 1352h325z" />
    <glyph glyph-name="infinity" unicode="&#x221e;" horiz-adv-x="1409" 
d="M1040 971q139 0 223.5 -104t84.5 -269q0 -159 -84 -255.5t-224 -96.5q-104 0 -181.5 64.5t-149.5 209.5l-19 -35q-68 -124 -141.5 -182.5t-179.5 -58.5q-140 0 -224 103t-84 269q0 159 84 256t224 97q103 0 180.5 -64.5t150.5 -208.5l19 33q67 122 141.5 182t179.5 60z
M1040 342q117 0 184.5 72.5t67.5 193.5q0 119 -67.5 196t-171.5 77q-146 0 -250 -191l-58 -104q62 -128 131 -186t164 -58zM356 334q143 0 248 190l60 105q-62 128 -131 185.5t-164 57.5q-117 0 -184.5 -72.5t-67.5 -193.5q0 -117 67.5 -194.5t171.5 -77.5z" />
    <glyph glyph-name="integral" unicode="&#x222b;" horiz-adv-x="856" 
d="M201 16l102 938q11 105 34 186.5t61.5 146.5t98.5 99.5t138 34.5q98 0 159.5 -42.5t61.5 -114.5q0 -46 -25 -76.5t-73 -30.5q-70 0 -84 74q-5 24 -7 70t-12 71q-15 6 -37 6q-84 0 -134.5 -101.5t-73.5 -313.5l-103 -938q-11 -105 -34 -186.5t-61.5 -146.5t-98.5 -99.5
t-138 -34.5q-98 0 -159.5 42.5t-61.5 114.5q0 46 25.5 76.5t73.5 30.5q70 0 84 -74q5 -24 6.5 -70t11.5 -71q15 -6 37 -6q84 0 135 101.5t74 313.5z" />
    <glyph glyph-name="approxequal" unicode="&#x2248;" horiz-adv-x="1187" 
d="M866 678q-71 0 -166 35l-245 92q-93 35 -142 35q-48 0 -81 -39t-42 -101h-43q21 215 175 215q73 0 165 -34l246 -93q93 -34 146 -34q42 0 75.5 38.5t42.5 100.5h43q-21 -215 -174 -215zM866 387q-71 0 -166 35l-245 92q-92 35 -140 35t-81.5 -37t-43.5 -102h-43
q21 215 175 215q70 0 165 -35l246 -92q96 -35 146 -35q42 0 75.5 38.5t42.5 100.5h43q-21 -215 -174 -215z" />
    <glyph glyph-name="notequal" unicode="&#x2260;" horiz-adv-x="1187" 
d="M1053 743h-346l-166 -286h512v-62h-547l-107 -184h-63l106 184h-307v62h342l166 286h-508v62h543l110 190h64l-111 -190h312v-62z" />
    <glyph glyph-name="lessequal" unicode="&#x2264;" horiz-adv-x="1187" 
d="M1053 1008v-70l-803 -238l803 -217v-69l-918 256v61zM135 217v62h918v-62h-918z" />
    <glyph glyph-name="greaterequal" unicode="&#x2265;" horiz-adv-x="1187" 
d="M135 1008l918 -277v-61l-918 -256v69l803 217l-803 238v70zM135 217v62h918v-62h-918z" />
    <glyph glyph-name="uni2460" unicode="&#x2460;" horiz-adv-x="2043" 
d="M1022 1620q199 0 368.5 -67t288 -186t185.5 -286.5t67 -363.5t-67 -363.5t-185.5 -286.5t-288 -186t-368.5 -67t-368.5 67t-288 186t-185.5 286.5t-67 363.5t67 363.5t185.5 286.5t288 186t368.5 67zM1022 -121q182 0 338.5 62t266.5 172t172.5 266t62.5 338
q0 243 -107 434t-298.5 297t-434.5 106t-434.5 -106t-298.5 -297t-107 -434q0 -182 62.5 -338t172.5 -266t266.5 -172t338.5 -62zM1083 395q0 -65 30.5 -82t143.5 -20v-39h-469v39q121 3 154 20.5t33 81.5v715l-176 -109v93l176 110h108v-809z" />
    <glyph glyph-name="uni2461" unicode="&#x2461;" horiz-adv-x="2043" 
d="M1022 1620q199 0 368.5 -67t288 -186t185.5 -286.5t67 -363.5t-67 -363.5t-185.5 -286.5t-288 -186t-368.5 -67t-368.5 67t-288 186t-185.5 286.5t-67 363.5t67 363.5t185.5 286.5t288 186t368.5 67zM1022 -121q182 0 338.5 62t266.5 172t172.5 266t62.5 338
q0 243 -107 434t-298.5 297t-434.5 106t-434.5 -106t-298.5 -297t-107 -434q0 -182 62.5 -338t172.5 -266t266.5 -172t338.5 -62zM1149 358q36 0 51.5 1t37 8t30 20t18.5 39t14.5 64t8.5 96h55v-332h-668v104l172 140q183 149 260.5 244.5t77.5 191.5q0 92 -60.5 146.5
t-162.5 54.5q-107 0 -171.5 -55.5t-76.5 -164.5h-55q0 150 84 228t244 78q151 0 239 -72.5t88 -198.5q0 -46 -15 -88t-38 -77.5t-77 -87t-103.5 -93.5t-145.5 -119l-157 -127h350z" />
    <glyph glyph-name="uni2462" unicode="&#x2462;" horiz-adv-x="2043" 
d="M1022 -186q-199 0 -368.5 67t-288 186t-185.5 286.5t-67 363.5t67 363.5t185.5 286.5t288 186t368.5 67t368.5 -67t288 -186t185.5 -286.5t67 -363.5t-67 -363.5t-185.5 -286.5t-288 -186t-368.5 -67zM1022 -121q182 0 338.5 62t266.5 172t172.5 266t62.5 338
q0 243 -107 434t-298.5 297t-434.5 106t-434.5 -106t-298.5 -297t-107 -434q0 -182 62.5 -338t172.5 -266t266.5 -172t338.5 -62zM1036 805q156 0 248 -76t92 -207q0 -130 -100.5 -209.5t-267.5 -79.5q-151 0 -244.5 50t-93.5 129q0 42 25 66t65 24q70 0 80 -56
q4 -23 3 -63.5t3 -65.5q63 -28 153 -28q123 0 195 56t72 153q0 102 -69.5 151t-215.5 49q-56 0 -137 -8v88l385 320h-334q-34 0 -48.5 -0.5t-33.5 -6.5t-25 -15.5t-14.5 -31t-11.5 -50t-6 -76.5h-56v288h621v-108l-363 -297q54 4 78 4z" />
    <glyph glyph-name="uni2463" unicode="&#x2463;" horiz-adv-x="2043" 
d="M1022 -186q-199 0 -368.5 67t-288 186t-185.5 286.5t-67 363.5t67 363.5t185.5 286.5t288 186t368.5 67t368.5 -67t288 -186t185.5 -286.5t67 -363.5t-67 -363.5t-185.5 -286.5t-288 -186t-368.5 -67zM1022 -121q182 0 338.5 62t266.5 172t172.5 266t62.5 338
q0 243 -107 434t-298.5 297t-434.5 106t-434.5 -106t-298.5 -297t-107 -434q0 -182 62.5 -338t172.5 -266t266.5 -172t338.5 -62zM1090 254v313h-492v95l492 542h108v-542h203v-95h-203v-313h-108zM686 662h404v446z" />
    <glyph glyph-name="uni2464" unicode="&#x2464;" horiz-adv-x="2043" 
d="M1022 -186q-199 0 -368.5 67t-288 186t-185.5 286.5t-67 363.5t67 363.5t185.5 286.5t288 186t368.5 67t368.5 -67t288 -186t185.5 -286.5t67 -363.5t-67 -363.5t-185.5 -286.5t-288 -186t-368.5 -67zM1022 -121q182 0 338.5 62t266.5 172t172.5 266t62.5 338
q0 243 -107 434t-298.5 297t-434.5 106t-434.5 -106t-298.5 -297t-107 -434q0 -182 62.5 -338t172.5 -266t266.5 -172t338.5 -62zM995 233q-137 0 -226 50t-89 131q0 40 24.5 63t67.5 23q63 0 74 -54q5 -19 4 -62t4 -71q64 -26 143 -26q119 0 185.5 56.5t66.5 162.5
t-69.5 162.5t-202.5 56.5q-95 0 -223 -29l43 508h381q50 0 68 7.5t24 31.5h53l-12 -147h-461l-25 -283q85 18 176 18q169 0 265 -77t96 -217t-100.5 -222t-266.5 -82z" />
    <glyph glyph-name="uni2465" unicode="&#x2465;" horiz-adv-x="2043" 
d="M1022 -186q-199 0 -368.5 67t-288 186t-185.5 286.5t-67 363.5t67 363.5t185.5 286.5t288 186t368.5 67t368.5 -67t288 -186t185.5 -286.5t67 -363.5t-67 -363.5t-185.5 -286.5t-288 -186t-368.5 -67zM1022 -121q182 0 338.5 62t266.5 172t172.5 266t62.5 338
q0 243 -107 434t-298.5 297t-434.5 106t-434.5 -106t-298.5 -297t-107 -434q0 -182 62.5 -338t172.5 -266t266.5 -172t338.5 -62zM1006 233q-186 0 -293 112.5t-107 316.5q0 261 151 411t408 150q68 0 109 -6v-58q-62 4 -100 4q-204 0 -325 -123t-118 -350q83 154 295 154
q145 0 241.5 -81t96.5 -212q0 -142 -98.5 -230t-259.5 -88zM1008 287q109 0 170 63t61 176q0 115 -67.5 180.5t-176.5 65.5q-116 0 -187 -64t-71 -176q0 -110 75.5 -177.5t195.5 -67.5z" />
    <glyph glyph-name="uni2466" unicode="&#x2466;" horiz-adv-x="2043" 
d="M1022 1620q199 0 368.5 -67t288 -186t185.5 -286.5t67 -363.5t-67 -363.5t-185.5 -286.5t-288 -186t-368.5 -67t-368.5 67t-288 186t-185.5 286.5t-67 363.5t67 363.5t185.5 286.5t288 186t368.5 67zM1022 -121q182 0 338.5 62t266.5 172t172.5 266t62.5 338
q0 243 -107 434t-298.5 297t-434.5 106t-434.5 -106t-298.5 -297t-107 -434q0 -182 62.5 -338t172.5 -266t266.5 -172t338.5 -62zM682 915v289h682v-108l-449 -842h-79l444 842h-395q-26 0 -38 -0.5t-29.5 -2.5t-24.5 -6.5t-18 -13.5t-15 -21.5t-9.5 -32.5t-8.5 -44.5
t-5 -59.5h-55z" />
    <glyph glyph-name="uni2467" unicode="&#x2467;" horiz-adv-x="2043" 
d="M1022 -186q-199 0 -368.5 67t-288 186t-185.5 286.5t-67 363.5t67 363.5t185.5 286.5t288 186t368.5 67t368.5 -67t288 -186t185.5 -286.5t67 -363.5t-67 -363.5t-185.5 -286.5t-288 -186t-368.5 -67zM1022 -121q182 0 338.5 62t266.5 172t172.5 266t62.5 338
q0 243 -107 434t-298.5 297t-434.5 106t-434.5 -106t-298.5 -297t-107 -434q0 -182 62.5 -338t172.5 -266t266.5 -172t338.5 -62zM1022 233q-162 0 -257 64.5t-95 173.5q0 88 64.5 150t189.5 94q-139 60 -193.5 117.5t-54.5 144.5q0 114 93 180t255 66q163 0 257.5 -63.5
t94.5 -170.5q0 -88 -64.5 -151t-191.5 -97q139 -59 193.5 -116t54.5 -144q0 -115 -93 -181.5t-253 -66.5zM1071 766q92 28 142.5 84t50.5 133q0 87 -64.5 137.5t-179.5 50.5q-108 0 -168.5 -42t-60.5 -115q0 -63 37.5 -107t123.5 -86zM1026 287q108 0 168.5 42t60.5 115
q0 67 -40.5 112t-120.5 81l-117 53q-95 -27 -145 -84t-50 -133q0 -86 65 -136t179 -50z" />
    <glyph glyph-name="uni2468" unicode="&#x2468;" horiz-adv-x="2043" 
d="M1022 -186q-199 0 -368.5 67t-288 186t-185.5 286.5t-67 363.5t67 363.5t185.5 286.5t288 186t368.5 67t368.5 -67t288 -186t185.5 -286.5t67 -363.5t-67 -363.5t-185.5 -286.5t-288 -186t-368.5 -67zM1022 -121q182 0 338.5 62t266.5 172t172.5 266t62.5 338
q0 243 -107 434t-298.5 297t-434.5 106t-434.5 -106t-298.5 -297t-107 -434q0 -182 62.5 -338t172.5 -266t266.5 -172t338.5 -62zM907 246q-61 0 -143 14v55q57 -8 133 -8q202 0 314 123t104 328q-80 -144 -285 -144q-150 0 -247 82t-97 215q0 139 101 225.5t262 86.5
q185 0 288 -112.5t103 -324.5q0 -252 -143 -396t-390 -144zM1057 684q115 0 183.5 63.5t68.5 176.5t-71.5 179t-190.5 66q-110 0 -173 -64t-63 -177q0 -115 68 -179.5t178 -64.5z" />
    <glyph glyph-name="uni24EA" unicode="&#x24ea;" horiz-adv-x="2043" 
d="M1022 -186q-199 0 -368.5 67t-288 186t-185.5 286.5t-67 363.5t67 363.5t185.5 286.5t288 186t368.5 67t368.5 -67t288 -186t185.5 -286.5t67 -363.5t-67 -363.5t-185.5 -286.5t-288 -186t-368.5 -67zM1022 -121q182 0 338.5 62t266.5 172t172.5 266t62.5 338
q0 243 -107 434t-298.5 297t-434.5 106t-434.5 -106t-298.5 -297t-107 -434q0 -182 62.5 -338t172.5 -266t266.5 -172t338.5 -62zM1022 1223q184 0 281.5 -128t97.5 -366q0 -239 -97.5 -367.5t-281.5 -128.5q-183 0 -281 128.5t-98 367.5q0 237 97.5 365.5t281.5 128.5z
M1022 1102q-141 0 -227 -102t-86 -271t86 -272t227 -103q142 0 227.5 103t85.5 272q0 168 -85.5 270.5t-227.5 102.5z" />
    <glyph glyph-name="uni24FF" unicode="&#x24ff;" horiz-adv-x="2043" 
d="M1022 -186q193 0 361.5 67.5t289 185.5t189.5 286.5t69 363.5t-69 363.5t-189.5 286.5t-289 185.5t-361.5 67.5t-361.5 -67.5t-289 -185.5t-189.5 -286.5t-69 -363.5t69 -363.5t189.5 -286.5t289 -185.5t361.5 -67.5zM1022 1223q184 0 281.5 -128t97.5 -366
q0 -239 -97.5 -367.5t-281.5 -128.5q-183 0 -281 128.5t-98 367.5q0 237 97.5 365.5t281.5 128.5zM1022 1102q-141 0 -227 -102t-86 -271t86 -272t227 -103q142 0 227.5 103t85.5 272q0 168 -85.5 270.5t-227.5 102.5z" />
    <glyph glyph-name="uni2581" unicode="&#x2581;" 
d="M131 0v174h1393v-174h-1393z" />
    <glyph glyph-name="uni2582" unicode="&#x2582;" 
d="M131 0v348h1393v-348h-1393z" />
    <glyph glyph-name="uni2583" unicode="&#x2583;" 
d="M131 0v522h1393v-522h-1393z" />
    <glyph glyph-name="dnblock" unicode="&#x2584;" 
d="M131 0v696h1393v-696h-1393z" />
    <glyph glyph-name="uni2585" unicode="&#x2585;" 
d="M131 0v870h1393v-870h-1393z" />
    <glyph glyph-name="uni2586" unicode="&#x2586;" 
d="M131 0v1044h1393v-1044h-1393z" />
    <glyph glyph-name="uni2587" unicode="&#x2587;" 
d="M131 4v1219h1393v-1219h-1393z" />
    </font>
</defs>
</svg>
