<?xml version="1.0" standalone="no"?>
<!DOCTYPE svg PUBLIC "-//W3C//DTD SVG 1.1//EN" "http://www.w3.org/Graphics/SVG/1.1/DTD/svg11.dtd" >
<svg xmlns="http://www.w3.org/2000/svg" xmlns:xlink="http://www.w3.org/1999/xlink" version="1.1">
<metadata>
Created by FontForge 20170731 at Wed Mar  3 02:14:13 2021
 By Aleksey,,,
Copyright (c) 2016 by Grilli Type GmbH. All rights reserved.
</metadata>
<defs>
<font id="GTFlexaMonoBetav7-Regular" horiz-adv-x="1269" >
  <font-face 
    font-family="GT Flexa Mono Beta v7"
    font-weight="400"
    font-stretch="normal"
    units-per-em="2048"
    panose-1="0 0 5 0 0 0 0 0 0 0"
    ascent="1638"
    descent="-410"
    x-height="983"
    cap-height="1434"
    bbox="-1161 -397 3748 1812"
    underline-thickness="102"
    underline-position="-307"
    unicode-range="U+000D-1F503"
  />
<missing-glyph 
d="M330 819q-132 0 -224 85t-92 233q0 155 105 246.5t287 91.5q137 0 229 -56t113 -170h-220q-12 27 -44.5 41.5t-75.5 14.5q-82 0 -126 -46t-44 -126q0 -73 36 -117.5t103 -44.5q45 0 77 19t40 48h-103v152h318v-354h-160l67 168h-43q-22 -46 -40.5 -74t-46.5 -56.5
t-66.5 -41.5t-89.5 -13zM743 1247h72v53l186 103v-156h236v-141h-236v-217q0 -29 27 -29q14 0 22.5 8t8.5 21v145h178v-149q0 -83 -59.5 -131.5t-159.5 -48.5q-96 0 -149.5 47t-53.5 133v221h-72v141zM567 598h-297v-86h289v-150h-289v-225h-194v619h491v-158zM618 137v619
h187v-619h-187zM1243 389v-55h-219q1 -51 8.5 -69.5t24.5 -18.5q28 0 28 49h160q0 -164 -182 -164q-104 0 -150.5 58t-46.5 186q0 130 47 189t150 59q97 0 138.5 -54t41.5 -180zM1024 434h68q0 46 -6.5 62t-24.5 16q-19 0 -26.5 -15.5t-10.5 -62.5zM909 96q324 0 324 -239
v-228h-217l59 160h-41q-39 -100 -98 -140t-139 -40q-86 0 -133.5 36.5t-47.5 102.5q0 63 49.5 98.5t159.5 42.5l160 11q-16 57 -84 57q-58 0 -80 -43h-241q48 182 329 182zM596 82l-123 -225l123 -228h-209l-37 99l-2 45h-39l-2 -45l-37 -99h-209l123 228l-123 225h209
l37 -102l2 -50h39l2 50l37 102h209zM883 -276q42 0 70.5 30.5t33.5 71.5l-115 -19q-45 -8 -45 -40q0 -20 15 -31.5t41 -11.5z" />
    <glyph glyph-name="fi" unicode="fi" 
d="M1069 1128h-201v15q0 72 -47.5 110.5t-132.5 38.5q-94 0 -148.5 -62.5t-54.5 -174.5v-72h584v-983h-195v817h-389v-817h-194v809h-205v174h205v72q0 184 105 295.5t292 111.5q177 0 279 -85.5t102 -227.5v-21z" />
    <glyph glyph-name="fl" unicode="fl" 
d="M678 1462q192 0 291.5 -87t99.5 -277v-1098h-195v1098q0 99 -47.5 146.5t-148.5 47.5q-91 0 -142 -51.5t-51 -146.5v-111h287v-174h-287v-809h-194v809h-205v174h205v111q0 167 106.5 267.5t280.5 100.5z" />
    <glyph glyph-name="f_f" unicode="ff" horiz-adv-x="2539" 
d="M793 1288q-106 0 -164 -57.5t-58 -175.5v-72h492v-174h-492v-809h-194v809h-287v174h287v72q0 205 112.5 306t303.5 101q197 0 295 -86.5t98 -247.5h-195q0 77 -51 118.5t-147 41.5zM1841 1055v-72h492v-174h-492v-809h-194v809h-287v174h287v72q0 205 112 306t303 101
q198 0 296 -86.5t98 -247.5h-195q0 77 -51.5 118.5t-147.5 41.5q-106 0 -163.5 -57.5t-57.5 -175.5z" />
    <glyph glyph-name="f_f_i" unicode="ffi" horiz-adv-x="3809" 
d="M793 1288q-106 0 -164 -57.5t-58 -175.5v-72h492v-174h-492v-809h-194v809h-287v174h287v72q0 205 112.5 306t303.5 101q197 0 295 -86.5t98 -247.5h-195q0 77 -51 118.5t-147 41.5zM2062 1288q-106 0 -163.5 -57.5t-57.5 -175.5v-72h492v-174h-492v-809h-194v809h-287
v174h287v72q0 205 112 306t303 101q198 0 296 -86.5t98 -247.5h-195q0 77 -51.5 118.5t-147.5 41.5zM3359 1434v-242h-234v242h234zM3340 174h408v-174h-1024v174h422v635h-430v174h624v-809z" />
    <glyph glyph-name="f_f_l" unicode="ffl" horiz-adv-x="3809" 
d="M793 1288q-106 0 -164 -57.5t-58 -175.5v-72h492v-174h-492v-809h-194v809h-287v174h287v72q0 205 112.5 306t303.5 101q197 0 295 -86.5t98 -247.5h-195q0 77 -51 118.5t-147 41.5zM2062 1288q-106 0 -163.5 -57.5t-57.5 -175.5v-72h492v-174h-492v-809h-194v809h-287
v174h287v72q0 205 112 306t303 101q198 0 296 -86.5t98 -247.5h-195q0 77 -51.5 118.5t-147.5 41.5zM3340 174h408v-174h-1024v174h422v1086h-430v174h624v-1260z" />
    <glyph glyph-name=".notdef" 
d="M330 819q-132 0 -224 85t-92 233q0 155 105 246.5t287 91.5q137 0 229 -56t113 -170h-220q-12 27 -44.5 41.5t-75.5 14.5q-82 0 -126 -46t-44 -126q0 -73 36 -117.5t103 -44.5q45 0 77 19t40 48h-103v152h318v-354h-160l67 168h-43q-22 -46 -40.5 -74t-46.5 -56.5
t-66.5 -41.5t-89.5 -13zM743 1247h72v53l186 103v-156h236v-141h-236v-217q0 -29 27 -29q14 0 22.5 8t8.5 21v145h178v-149q0 -83 -59.5 -131.5t-159.5 -48.5q-96 0 -149.5 47t-53.5 133v221h-72v141zM567 598h-297v-86h289v-150h-289v-225h-194v619h491v-158zM618 137v619
h187v-619h-187zM1243 389v-55h-219q1 -51 8.5 -69.5t24.5 -18.5q28 0 28 49h160q0 -164 -182 -164q-104 0 -150.5 58t-46.5 186q0 130 47 189t150 59q97 0 138.5 -54t41.5 -180zM1024 434h68q0 46 -6.5 62t-24.5 16q-19 0 -26.5 -15.5t-10.5 -62.5zM909 96q324 0 324 -239
v-228h-217l59 160h-41q-39 -100 -98 -140t-139 -40q-86 0 -133.5 36.5t-47.5 102.5q0 63 49.5 98.5t159.5 42.5l160 11q-16 57 -84 57q-58 0 -80 -43h-241q48 182 329 182zM596 82l-123 -225l123 -228h-209l-37 99l-2 45h-39l-2 -45l-37 -99h-209l123 228l-123 225h209
l37 -102l2 -50h39l2 50l37 102h209zM883 -276q42 0 70.5 30.5t33.5 71.5l-115 -19q-45 -8 -45 -40q0 -20 15 -31.5t41 -11.5z" />
    <glyph glyph-name=".null" 
 />
    <glyph glyph-name="nonmarkingreturn" horiz-adv-x="682" 
 />
    <glyph glyph-name="CR" unicode="&#xd;" 
 />
    <glyph glyph-name="space" unicode=" " 
 />
    <glyph glyph-name="exclam" unicode="!" 
d="M537 1434h194v-1004h-194v1004zM500 0v264h270v-264h-270z" />
    <glyph glyph-name="quotedbl" unicode="&#x22;" 
d="M418 952l-88 265q-27 83 -27 131v149h283v-149q0 -52 -27 -131l-88 -265h-53zM797 952l-88 265q-27 83 -27 131v149h283v-149q0 -52 -27 -131l-88 -265h-53z" />
    <glyph glyph-name="numbersign" unicode="#" 
d="M1165 881h-182l-74 -349h195l-37 -143h-188l-82 -389h-164l82 389h-299l-82 -389h-164l82 389h-184l36 143h179l73 349h-190l37 143h184l86 410h164l-86 -410h299l86 410h164l-86 -410h188zM745 532l74 349h-299l-74 -349h299z" />
    <glyph glyph-name="dollar" unicode="$" 
d="M1141 963h-213v22q0 134 -73.5 203t-211.5 69q-132 0 -204 -60t-72 -161q0 -81 56.5 -133.5t184.5 -77.5l152 -28q179 -34 271.5 -133t92.5 -256q0 -168 -104.5 -277.5t-290.5 -132.5v-121h-184v119q-191 24 -298.5 139.5t-107.5 308.5v37h213v-26q0 -131 77 -203
t214 -72q127 0 198.5 59.5t71.5 161.5q0 83 -56.5 136t-182.5 77l-154 27q-179 34 -271.5 131.5t-92.5 249.5q0 165 105 277.5t284 138.5v139h184v-135q190 -20 301 -137.5t111 -303.5v-38z" />
    <glyph glyph-name="percent" unicode="%" 
d="M74 1167q0 123 82 205t204 82q120 0 202.5 -82t82.5 -205q0 -121 -81.5 -202.5t-203.5 -81.5q-123 0 -204.5 81t-81.5 203zM90 -20l957 1474h133l-957 -1474h-133zM217 1167q0 -67 40.5 -109t102.5 -42q63 0 103.5 42t40.5 109q0 66 -40.5 109t-103.5 43
q-62 0 -102.5 -43t-40.5 -109zM625 262q0 123 82 205t204 82q121 0 203 -82.5t82 -204.5t-82 -203.5t-203 -81.5q-123 0 -204.5 81.5t-81.5 203.5zM768 262q0 -67 40.5 -109t102.5 -42q63 0 103.5 42t40.5 109q0 66 -40.5 109t-103.5 43q-62 0 -102.5 -43t-40.5 -109z" />
    <glyph glyph-name="ampersand" unicode="&#x26;" 
d="M1178 0h-240l-61 76q-139 -105 -328 -105q-200 0 -321.5 109t-121.5 280q0 226 238 353v30q-100 134 -143 222.5t-43 162.5q0 148 101.5 241t264.5 93q162 0 264.5 -92t102.5 -235q0 -109 -64.5 -202t-214.5 -196v-24l273 -342q59 133 59 336v92h195v-92
q0 -299 -131 -494zM524 1288q-73 0 -122.5 -46t-49.5 -114q0 -51 28 -102.5t122 -171.5q106 74 150 137t44 137q0 68 -49.5 114t-122.5 46zM311 381q0 -106 68 -171t186 -65t201 68l-320 401q-135 -98 -135 -233z" />
    <glyph glyph-name="quotesingle" unicode="'" 
d="M608 952l-88 265q-26 80 -26 131v149h282v-149q0 -54 -26 -131l-88 -265h-54z" />
    <glyph glyph-name="parenleft" unicode="(" 
d="M1024 -348q-315 100 -500.5 365t-185.5 618t185.5 618t500.5 365v-195q-220 -80 -356 -297.5t-136 -490.5q0 -274 136 -491.5t356 -297.5v-194z" />
    <glyph glyph-name="parenright" unicode=")" 
d="M246 -348v194q220 80 355.5 297.5t135.5 491.5t-135.5 491t-355.5 297v195q315 -100 500.5 -365t185.5 -618t-185.5 -618t-500.5 -365z" />
    <glyph glyph-name="asterisk" unicode="*" 
d="M446 543l-174 125l240 276l-356 84l65 203l336 -141l-31 364h215l-30 -364l336 143l67 -205l-356 -82l239 -276l-172 -127l-188 313z" />
    <glyph glyph-name="plus" unicode="+" 
d="M543 63v439h-439v184h439v438h184v-438h438v-184h-438v-439h-184z" />
    <glyph glyph-name="comma" unicode="," 
d="M494 -309v172q85 0 115 28.5t30 108.5h-145v264h282v-235q0 -170 -70 -254t-212 -84z" />
    <glyph glyph-name="hyphen" unicode="-" 
d="M328 508v184h614v-184h-614z" />
    <glyph glyph-name="period" unicode="." 
d="M500 0v264h270v-264h-270z" />
    <glyph glyph-name="slash" unicode="/" 
d="M76 -225l905 1700h211l-905 -1700h-211z" />
    <glyph glyph-name="zero" unicode="0" 
d="M635 -29q-252 0 -382 188.5t-130 557.5q0 368 130 556.5t382 188.5t382 -188.5t130 -556.5q0 -369 -130 -557.5t-382 -188.5zM635 156q303 0 303 561t-303 561t-303 -561t303 -561z" />
    <glyph glyph-name="one" unicode="1" 
d="M195 0v195h419v1022h-30q-20 -188 -93.5 -268.5t-230.5 -80.5h-65v215h104q116 0 176 91t60 260h274v-1239h348v-195h-962z" />
    <glyph glyph-name="two" unicode="2" 
d="M186 0v342l494 336q116 79 164.5 161t48.5 181q0 115 -69.5 186.5t-184.5 71.5q-128 0 -204.5 -78.5t-76.5 -208.5v-71h-204v71q0 207 135 339t350 132q202 0 330.5 -123.5t128.5 -320.5q0 -150 -62.5 -260t-210.5 -211l-473 -322v-30h746v-195h-912z" />
    <glyph glyph-name="three" unicode="3" 
d="M639 -29q-227 0 -358 124t-131 339v25h204v-25q0 -132 75 -205t210 -73q116 0 186 60.5t70 160.5q0 109 -70.5 169t-199.5 60h-68v221h68q129 0 199.5 60.5t70.5 169.5q0 100 -70 160.5t-186 60.5q-135 0 -210 -73.5t-75 -205.5v-24h-204v24q0 215 131 339t358 124
q209 0 335 -108.5t126 -288.5q0 -141 -85.5 -231t-228.5 -101v-33q143 -11 228.5 -100.5t85.5 -230.5q0 -180 -126 -289t-335 -109z" />
    <glyph glyph-name="four" unicode="4" 
d="M1208 668v-185h-256v-483h-194v483h-660v322l535 629h319v-766h256zM250 668h508v610h-31l-477 -580v-30z" />
    <glyph glyph-name="five" unicode="5" 
d="M637 -29q-211 0 -340 115t-129 303v12h205v-6q0 -101 75.5 -170t188.5 -69q126 0 199 76.5t73 209.5q0 130 -65.5 204.5t-173.5 74.5q-144 0 -209 -121h-246v834h899v-195h-711v-491h31q82 157 289 157q170 0 280.5 -130.5t110.5 -332.5q0 -211 -131.5 -341t-345.5 -130z
" />
    <glyph glyph-name="six" unicode="6" 
d="M653 -29q-244 0 -373.5 178t-129.5 513q0 800 538 800q204 0 326.5 -118t122.5 -314v-12h-205v12q0 116 -64.5 182t-179.5 66q-166 0 -252 -151t-86 -443h31q43 105 129 163t205 58q176 0 299 -128t123 -318q0 -211 -137 -349.5t-347 -138.5zM653 156q124 0 201.5 78.5
t77.5 203.5q0 126 -77.5 204.5t-201.5 78.5q-123 0 -200.5 -78.5t-77.5 -204.5q0 -125 77.5 -203.5t200.5 -78.5z" />
    <glyph glyph-name="seven" unicode="7" 
d="M293 0l678 1208v31h-842v195h997v-340l-598 -1094h-235z" />
    <glyph glyph-name="eight" unicode="8" 
d="M635 -29q-209 0 -342 110.5t-133 280.5q0 130 76.5 222.5t203.5 117.5v31q-122 20 -201 115t-79 225q0 170 132.5 279.5t342.5 109.5t342.5 -109.5t132.5 -279.5q0 -130 -79.5 -225t-201.5 -115v-31q127 -25 204 -117.5t77 -222.5q0 -170 -133 -280.5t-342 -110.5z
M635 829q118 0 194 62.5t76 159.5q0 103 -74 165t-196 62t-196 -62t-74 -165q0 -97 76 -159.5t194 -62.5zM635 156q123 0 196.5 61t73.5 162q0 102 -73.5 163.5t-196.5 61.5t-196.5 -61.5t-73.5 -163.5q0 -101 73.5 -162t196.5 -61z" />
    <glyph glyph-name="nine" unicode="9" 
d="M616 1462q244 0 374 -177.5t130 -512.5q0 -801 -538 -801q-204 0 -326.5 118t-122.5 314v13h205v-13q0 -116 64.5 -181.5t179.5 -65.5q166 0 252 151t86 443h-31q-43 -106 -129 -164t-205 -58q-176 0 -299 128.5t-123 318.5q0 211 136.5 349t346.5 138zM616 1278
q-124 0 -201 -79t-77 -204q0 -126 77 -204t201 -78q123 0 201 78t78 204q0 125 -78 204t-201 79z" />
    <glyph glyph-name="colon" unicode=":" 
d="M500 727v264h270v-264h-270zM500 0v264h270v-264h-270z" />
    <glyph glyph-name="semicolon" unicode=";" 
d="M500 727v264h270v-264h-270zM494 -309v172q85 0 115 28.5t30 108.5h-145v264h282v-235q0 -170 -70 -254t-212 -84z" />
    <glyph glyph-name="less" unicode="&#x3c;" 
d="M1157 1126v-208l-930 -324l930 -324v-209l-1044 381v306z" />
    <glyph glyph-name="equal" unicode="=" 
d="M115 737v185h1038v-185h-1038zM115 287v184h1038v-184h-1038z" />
    <glyph glyph-name="greater" unicode="&#x3e;" 
d="M113 1126l1044 -381v-305l-1044 -379v209l929 324l-929 324v208z" />
    <glyph glyph-name="question" unicode="?" 
d="M518 430v105q0 115 32 178.5t120 122.5l80 53q102 68 102 190q0 88 -59.5 143.5t-151.5 55.5q-117 0 -183.5 -75t-66.5 -204v-36h-201v36q0 218 119.5 340.5t331.5 122.5q189 0 305.5 -106t116.5 -277q0 -93 -39 -170.5t-109 -124.5l-79 -53q-82 -54 -102.5 -95
t-20.5 -149v-57h-195zM481 0v264h271v-264h-271z" />
    <glyph glyph-name="at" unicode="@" 
d="M643 -143q-267 0 -415 202t-148 566q0 362 148.5 565t414.5 203q264 0 405.5 -177.5t141.5 -508.5q0 -204 -61 -326.5t-162 -122.5q-68 0 -95.5 45t-33.5 168h-31q-9 -104 -60 -163.5t-131 -59.5q-115 0 -185.5 104t-70.5 273t70 268.5t188 99.5q74 0 121 -54t60 -155h30
l-30 177h112v-510q0 -80 56 -80q46 0 71 87.5t25 248.5q0 278 -106.5 420.5t-313.5 142.5q-203 0 -316.5 -170t-113.5 -475q0 -301 114.5 -473t315.5 -172q117 0 209 35t174 110v-143q-165 -125 -383 -125zM631 371q65 0 101 66t36 184q0 117 -36.5 183t-100.5 66
q-137 0 -137 -245q0 -254 137 -254z" />
    <glyph glyph-name="A" unicode="A" 
d="M995 0l-137 502h-442l-140 -502h-221l418 1434h326l418 -1434h-222zM469 696h334l-139 508l-13 111h-30l-13 -111z" />
    <glyph glyph-name="B" unicode="B" 
d="M856 700q130 -18 205.5 -97.5t75.5 -213.5q0 -177 -122 -283t-329 -106h-493v1434h493q206 0 328.5 -105t122.5 -278q0 -138 -75.5 -219t-205.5 -99v-33zM666 1239h-269v-430h269q262 0 262 215t-262 215zM666 195q262 0 262 215t-262 215h-269v-430h269z" />
    <glyph glyph-name="C" unicode="C" 
d="M659 -31q-536 0 -536 748q0 747 557 747q229 0 362.5 -146.5t131.5 -395.5h-209q0 163 -76 255.5t-209 92.5q-180 0 -261 -131.5t-81 -421.5t76 -421.5t245 -131.5q134 0 208.5 92t74.5 256h209q1 -243 -135.5 -393t-356.5 -150z" />
    <glyph glyph-name="D" unicode="D" 
d="M184 0v1434h389q275 0 429.5 -189.5t154.5 -527.5t-154.5 -527.5t-429.5 -189.5h-389zM389 195h205q161 0 254.5 139.5t93.5 382.5t-93.5 382.5t-254.5 139.5h-205v-1044z" />
    <glyph glyph-name="E" unicode="E" 
d="M1081 1239h-651v-424h631v-194h-631v-426h651v-195h-856v1434h856v-195z" />
    <glyph glyph-name="F" unicode="F" 
d="M1153 1239h-692v-424h651v-194h-651v-621h-205v1434h897v-195z" />
    <glyph glyph-name="G" unicode="G" 
d="M580 -31q-230 0 -356 193t-126 555q0 747 574 747q221 0 358 -148t135 -384h-209q0 158 -75.5 248t-208.5 90q-188 0 -273.5 -131.5t-85.5 -421.5q0 -287 77 -420t241 -133q129 0 204.5 99t88.5 286h-338v192h532v-741h-205l54 313h-31q-68 -344 -356 -344z" />
    <glyph glyph-name="H" unicode="H" 
d="M901 1434h205v-1434h-205v621h-532v-621h-205v1434h205v-619h532v619z" />
    <glyph glyph-name="I" unicode="I" 
d="M168 0v184h364v1065h-364v185h934v-185h-365v-1065h365v-184h-934z" />
    <glyph glyph-name="J" unicode="J" 
d="M573 -31q-226 0 -345 137t-119 398v231h204v-231q0 -340 260 -340q131 0 197 92t66 242v936h204v-936q0 -250 -122.5 -389.5t-344.5 -139.5z" />
    <glyph glyph-name="K" unicode="K" 
d="M1219 1434l-453 -656l442 -778h-243l-336 614l-219 -313v-301h-205v1434h205v-715l-48 -119h31l594 834h232z" />
    <glyph glyph-name="L" unicode="L" 
d="M496 195h692v-195h-897v1434h205v-1239z" />
    <glyph glyph-name="M" unicode="M" 
d="M1106 1434v-1434h-195v1231h-28l-13 -184l-145 -637h-178l-146 637l-12 184h-31v-1231h-194v1434h303l151 -742l3 -90h30l2 90l152 742h301z" />
    <glyph glyph-name="N" unicode="N" 
d="M901 1434h205v-1434h-330l-344 1026l-33 205h-30v-1231h-205v1434h330l344 -1026l32 -205h31v1231z" />
    <glyph glyph-name="O" unicode="O" 
d="M635 -31q-265 0 -404 191.5t-139 556.5t138.5 556t404.5 191t404.5 -191t138.5 -556t-139 -556.5t-404 -191.5zM635 164q167 0 247.5 136t80.5 417t-80.5 417t-247.5 136t-247.5 -136t-80.5 -417t80.5 -417t247.5 -136z" />
    <glyph glyph-name="P" unicode="P" 
d="M725 1434q205 0 330 -111.5t125 -304.5t-125 -305.5t-330 -112.5h-305v-600h-205v1434h510zM725 795q116 0 181 60.5t65 162.5q0 101 -64.5 161t-181.5 60h-305v-444h305z" />
    <glyph glyph-name="Q" unicode="Q" 
d="M745 -20v-76h353v-195h-271q-137 0 -204.5 57t-67.5 193v14q-227 28 -345 217.5t-118 526.5q0 365 138.5 556t404.5 191t404.5 -191t138.5 -556q0 -325 -110.5 -512.5t-322.5 -224.5zM307 717q0 -281 80.5 -417t247.5 -136t247.5 136t80.5 417t-80.5 417t-247.5 136
t-247.5 -136t-80.5 -417z" />
    <glyph glyph-name="R" unicode="R" 
d="M717 621l51 -29l395 -592h-260l-409 639h-91v-639h-204v1434h491q229 0 351 -98.5t122 -299.5q0 -187 -119.5 -283t-326.5 -102v-30zM403 1239v-416h312q110 0 174.5 53t64.5 156q0 102 -64.5 154.5t-174.5 52.5h-312z" />
    <glyph glyph-name="S" unicode="S" 
d="M629 -31q-238 0 -374 122t-136 343v39h219v-29q0 -135 78.5 -208.5t220.5 -73.5q130 0 204 61t74 166q0 86 -58 140.5t-189 78.5l-158 29q-184 34 -279.5 134.5t-95.5 256.5q0 195 140 315.5t370 120.5t367 -122.5t137 -333.5v-41h-219v24q0 137 -76 209t-217 72
q-136 0 -210.5 -62.5t-74.5 -165.5q0 -84 58.5 -137.5t189.5 -79.5l158 -30q184 -35 279.5 -137t95.5 -263q0 -195 -135 -311.5t-369 -116.5z" />
    <glyph glyph-name="T" unicode="T" 
d="M1204 1434v-195h-467v-1239h-205v1239h-466v195h1138z" />
    <glyph glyph-name="U" unicode="U" 
d="M635 -31q-209 0 -340 130t-131 339v996h205v-996q0 -128 71 -201t195 -73q126 0 196 72.5t70 201.5v996h205v-996q0 -209 -131 -339t-340 -130z" />
    <glyph glyph-name="V" unicode="V" 
d="M473 0l-397 1434h217l317 -1205l11 -110h30l11 110l317 1205h217l-397 -1434h-326z" />
    <glyph glyph-name="W" unicode="W" 
d="M190 0l-135 1434h197l98 -1139l-2 -182h31l6 182l133 688h232l112 -688l4 -182h31v182l119 1139h196l-155 -1434h-287l-121 676l-4 168h-31l-4 -168l-133 -676h-287z" />
    <glyph glyph-name="X" unicode="X" 
d="M76 0l411 717l-411 717h229l281 -490l32 -102h31l31 102l285 490h229l-414 -717l414 -717h-231l-293 522l-19 82h-30l-19 -82l-295 -522h-231z" />
    <glyph glyph-name="Y" unicode="Y" 
d="M1223 1434l-486 -893v-541h-205v541l-483 893h240l323 -641l9 -72h30l8 72l324 641h240z" />
    <glyph glyph-name="Z" unicode="Z" 
d="M141 0v317l826 891v31h-826v195h987v-338l-811 -871v-30h811v-195h-987z" />
    <glyph glyph-name="bracketleft" unicode="[" 
d="M1034 1464h-502v-1597h502v-174h-686v1945h686v-174z" />
    <glyph glyph-name="backslash" unicode="\" 
d="M981 -225l-905 1700h211l905 -1700h-211z" />
    <glyph glyph-name="bracketright" unicode="]" 
d="M922 1638v-1945h-686v174h501v1597h-501v174h686z" />
    <glyph glyph-name="asciicircum" unicode="^" 
d="M139 717l353 717h290l353 -717h-211l-271 590h-30l-275 -590h-209z" />
    <glyph glyph-name="underscore" unicode="_" 
d="M1229 0v-164h-1188v164h1188z" />
    <glyph glyph-name="grave" unicode="`" 
d="M649 1155l-225 307h235l185 -307h-195z" />
    <glyph glyph-name="a" unicode="a" 
d="M618 1012q226 0 330.5 -98t104.5 -310v-604h-195l43 266h-31q-44 -145 -137 -220t-223 -75q-141 0 -222 74.5t-81 206.5q0 135 92.5 210.5t269.5 86.5l295 18v37q0 126 -57 180t-189 54q-109 0 -173 -49t-64 -134v-20h-195v20q0 166 115.5 261.5t316.5 95.5zM553 135
q122 0 208 77.5t101 201.5l-287 -29q-89 -9 -128 -40t-39 -93q0 -56 38 -86.5t107 -30.5z" />
    <glyph glyph-name="b" unicode="b" 
d="M709 -29q-135 0 -227.5 75t-133.5 220h-31l52 -266h-195v1434h195v-451l-52 -266h31q41 145 133.5 220t227.5 75q200 0 323 -139.5t123 -380.5t-123 -381t-323 -140zM659 145q136 0 215.5 92.5t79.5 254.5t-79.5 254t-215.5 92t-215 -92t-79 -254t79 -254.5t215 -92.5z
" />
    <glyph glyph-name="c" unicode="c" 
d="M633 -29q-216 0 -343.5 139.5t-127.5 374.5q0 249 132 388t355 139q192 0 317.5 -108.5t129.5 -278.5h-195q-14 101 -79.5 157t-172.5 56q-135 0 -211 -92.5t-76 -256.5q0 -163 73 -253.5t204 -90.5q104 0 166 55t76 158h194q-5 -173 -127 -280t-315 -107z" />
    <glyph glyph-name="d" unicode="d" 
d="M561 -29q-200 0 -323 140t-123 381t123 380.5t323 139.5q135 0 227.5 -75t133.5 -220h30l-51 266v451h195v-1434h-195l51 266h-30q-41 -145 -133.5 -220t-227.5 -75zM610 145q136 0 215.5 92.5t79.5 254.5t-79.5 254t-215.5 92t-215.5 -92t-79.5 -254t79.5 -254.5
t215.5 -92.5z" />
    <glyph glyph-name="e" unicode="e" 
d="M1096 518v-82h-725q11 -137 83.5 -214t204.5 -77q88 0 151 39.5t89 112.5h195q-26 -142 -146.5 -234t-283.5 -92q-240 0 -368 137.5t-128 376.5q0 228 129 377.5t344 149.5q216 0 335.5 -130t119.5 -364zM379 596h508q-4 120 -68 183t-178 63q-107 0 -174 -66t-88 -180z
" />
    <glyph glyph-name="f" unicode="f" 
d="M571 1055v-72h492v-174h-492v-809h-194v809h-287v174h287v72q0 205 112.5 306t303.5 101q197 0 295 -86.5t98 -247.5h-195q0 77 -51 118.5t-147 41.5q-106 0 -164 -57.5t-58 -175.5z" />
    <glyph glyph-name="g" unicode="g" 
d="M598 -393q-218 0 -334 100.5t-127 292.5h195q9 -106 75.5 -162.5t190.5 -56.5q132 0 204 75t72 212v22l68 268h-31q-82 -297 -340 -297q-198 0 -316 133t-118 343t118 342.5t316 132.5q258 0 340 -297h31l-68 268h195v-850q0 -526 -471 -526zM608 229q126 0 198.5 85.5
t72.5 222.5q0 139 -73.5 223t-197.5 84q-126 0 -198 -85t-72 -222q0 -139 73 -223.5t197 -84.5z" />
    <glyph glyph-name="h" unicode="h" 
d="M219 0v1434h195v-451l-52 -266h31q89 295 334 295q178 0 270.5 -105.5t92.5 -308.5v-598h-201v578q0 253 -215 253q-120 0 -190 -85.5t-70 -233.5v-512h-195z" />
    <glyph glyph-name="i" unicode="i" 
d="M819 1434v-242h-233v242h233zM801 174h407v-174h-1024v174h422v635h-430v174h625v-809z" />
    <glyph glyph-name="j" unicode="j" 
d="M727 1434h234v-242h-234v242zM236 983h706v-973q0 -197 -93.5 -300t-273.5 -103q-181 0 -275.5 100.5t-94.5 294.5v109h198v-109q0 -114 41.5 -167.5t130.5 -53.5q91 0 132 49.5t41 159.5v819h-512v174z" />
    <glyph glyph-name="k" unicode="k" 
d="M1157 983l-432 -453l422 -530h-242l-317 406l-150 -154v-252h-194v1434h194v-865l-47 -104h31l500 518h235z" />
    <glyph glyph-name="l" unicode="l" 
d="M801 174h407v-174h-1024v174h422v1086h-430v174h625v-1260z" />
    <glyph glyph-name="m" unicode="m" 
d="M121 0v983h184l-51 -250h31q28 135 88.5 207t148.5 72q166 0 166 -189q0 -46 -8 -90h31q17 128 79.5 203.5t151.5 75.5q217 0 217 -295v-717h-184v696q0 131 -101 131q-68 0 -105.5 -55.5t-37.5 -157.5v-614h-182v696q0 131 -107 131q-65 0 -101 -56t-36 -157v-614h-184z
" />
    <glyph glyph-name="n" unicode="n" 
d="M219 0v983h195l-52 -266h31q89 295 334 295q178 0 270.5 -105.5t92.5 -308.5v-598h-201v578q0 253 -215 253q-120 0 -190 -85.5t-70 -233.5v-512h-195z" />
    <glyph glyph-name="o" unicode="o" 
d="M635 -29q-224 0 -365 144t-141 377t141 376.5t365 143.5t365 -143.5t141 -376.5t-141 -377t-365 -144zM635 145q136 0 220.5 96t84.5 251t-84 250.5t-221 95.5t-221 -95.5t-84 -250.5t84.5 -251t220.5 -96z" />
    <glyph glyph-name="p" unicode="p" 
d="M174 -369v1352h195l-52 -266h31q41 145 133.5 220t227.5 75q200 0 323 -139.5t123 -380.5t-123 -381t-323 -140q-135 0 -227.5 75t-133.5 220h-31l52 -266v-369h-195zM659 145q136 0 215.5 92.5t79.5 254.5t-79.5 254t-215.5 92t-215 -92t-79 -254t79 -254.5t215 -92.5z
" />
    <glyph glyph-name="q" unicode="q" 
d="M901 -369v369l51 266h-30q-41 -145 -133.5 -220t-227.5 -75q-200 0 -323 140t-123 381t123 380.5t323 139.5q135 0 227.5 -75t133.5 -220h30l-51 266h195v-1352h-195zM610 145q136 0 215.5 92.5t79.5 254.5t-79.5 254t-215.5 92t-215.5 -92t-79.5 -254t79.5 -254.5
t215.5 -92.5z" />
    <glyph glyph-name="r" unicode="r" 
d="M276 0v983h195l-57 -283h32q32 153 120 232.5t216 79.5q158 0 237 -95t79 -268v-223h-203v156q0 128 -47 186.5t-146 58.5q-114 0 -172.5 -77.5t-58.5 -227.5v-522h-195z" />
    <glyph glyph-name="s" unicode="s" 
d="M633 -29q-200 0 -314 90t-114 248v15h194v-15q0 -174 242 -174q102 0 159.5 33t57.5 92q0 54 -32 80t-121 45l-195 39q-151 31 -221 97.5t-70 180.5q0 143 113.5 226.5t308.5 83.5q198 0 312 -91t114 -249v-13h-195v13q0 176 -239 176q-103 0 -161 -33t-58 -92
q0 -50 32.5 -76t116.5 -45l191 -39q157 -31 228 -98t71 -184q0 -143 -113.5 -226.5t-306.5 -83.5z" />
    <glyph glyph-name="t" unicode="t" 
d="M1130 809h-542v-494q0 -81 36 -125.5t101 -44.5q79 0 114 53t35 175v100h195v-102q0 -200 -89.5 -300t-254.5 -100q-332 0 -332 344v494h-287v174h287v186l195 97v-283h542v-174z" />
    <glyph glyph-name="u" unicode="u" 
d="M535 -29q-163 0 -251.5 101.5t-88.5 296.5v614h200v-614q0 -95 56 -154t151 -59q116 0 181 84.5t65 230.5v512h194v-983h-194l51 266h-31q-35 -135 -116 -215t-217 -80z" />
    <glyph glyph-name="v" unicode="v" 
d="M502 0l-389 983h217l284 -780l7 -78h30l6 78l285 780h217l-389 -983h-268z" />
    <glyph glyph-name="w" unicode="w" 
d="M233 0l-155 983h182l105 -782l2 -80h30v80l117 782h244l116 -782v-80h31l2 80l105 782h182l-156 -983h-272l-113 719l-2 127h-30l-3 -127l-112 -719h-273z" />
    <glyph glyph-name="x" unicode="x" 
d="M137 0l365 494l-365 489h242l225 -317l14 -64h31l15 64l225 317h241l-364 -489l364 -494h-241l-225 311l-15 62h-31l-14 -62l-225 -311h-242z" />
    <glyph glyph-name="y" unicode="y" 
d="M965 983h219l-455 -1128q-51 -127 -128.5 -187.5t-190.5 -60.5q-150 0 -227 79t-77 228v92h195v-92q0 -69 25.5 -101t83.5 -32q53 0 86 34.5t71 133.5l56 143h-172l-365 891h219l313 -813h33z" />
    <glyph glyph-name="z" unicode="z" 
d="M215 0v307l666 471v31h-666v174h840v-307l-668 -471v-31h668v-174h-840z" />
    <glyph glyph-name="braceleft" unicode="{" 
d="M784 -287q-85 0 -151 28t-104 74t-57 99t-19 109v360q0 71 -38 115.5t-108 44.5v245q70 0 108 44.5t38 115.5v361q0 56 19 109t57 98.5t104 73.5t151 28h273v-154h-273q-71 0 -112 -42.5t-41 -112.5v-435q0 -97 -56.5 -144.5t-146.5 -49.5v-31q90 -3 146.5 -51t56.5 -141
v-434q0 -70 41 -113t112 -43h273v-154h-273z" />
    <glyph glyph-name="bar" unicode="|" 
d="M543 -225v1700h184v-1700h-184z" />
    <glyph glyph-name="braceright" unicode="}" 
d="M485 -287h-272v154h272q71 0 112.5 43t41.5 113v434q0 93 56.5 141t146.5 51v31q-90 2 -146.5 49.5t-56.5 144.5v435q0 70 -41.5 112.5t-112.5 42.5h-272v154h272q85 0 151 -28t104 -73.5t57.5 -98.5t19.5 -109v-361q0 -71 38 -115.5t108 -44.5v-245q-70 0 -108 -44.5
t-38 -115.5v-360q0 -56 -19.5 -109t-57.5 -99t-104 -74t-151 -28z" />
    <glyph glyph-name="asciitilde" unicode="~" 
d="M178 487l-82 168q120 105 310 105q73 0 144.5 -18t118.5 -39.5t105.5 -39.5t108.5 -18q65 0 122.5 25.5t84.5 56.5l81 -168q-119 -104 -309 -104q-56 0 -116.5 18t-106.5 39t-114.5 39t-139.5 18q-65 0 -122.5 -25.5t-84.5 -56.5z" />
    <glyph glyph-name="uni00A0" unicode="&#xa0;" 
 />
    <glyph glyph-name="exclamdown" unicode="&#xa1;" 
d="M500 1065h270v-264h-270v264zM537 -369v1004h194v-1004h-194z" />
    <glyph glyph-name="cent" unicode="&#xa2;" 
d="M641 158q100 0 159.5 53t71.5 151h189q-4 -144 -93.5 -240.5t-238.5 -121.5v-123h-184v123q-169 28 -266 157t-97 328q0 206 97 335.5t266 160.5v125h184v-121q154 -22 250 -121.5t100 -245.5h-186q-14 98 -76.5 151.5t-165.5 53.5q-131 0 -203.5 -88t-72.5 -246
q0 -157 70 -244t196 -87z" />
    <glyph glyph-name="sterling" unicode="&#xa3;" 
d="M1026 399l174 -69q-31 -166 -132.5 -248t-279.5 -82h-659v276q121 0 187.5 58t66.5 164q0 59 -18 133h-236v174h164q-31 69 -47.5 127.5t-16.5 128.5q0 175 128 288t327 113q204 0 328.5 -136.5t124.5 -360.5h-205q0 146 -66 229.5t-182 83.5q-115 0 -181.5 -64.5
t-66.5 -173.5q0 -40 14 -86.5t24 -67.5t40 -81h436v-174h-366q14 -65 14 -123q0 -114 -72 -192.5t-196 -100.5v-31h458q100 0 155 50t83 165z" />
    <glyph glyph-name="currency" unicode="&#xa4;" 
d="M1065 492q0 -134 -74 -244l158 -156l-123 -121l-162 156q-106 -66 -229 -66t-229 66l-162 -156l-123 121l158 156q-74 110 -74 244q0 132 71 239l-155 156l123 125l155 -160q106 70 236 70q129 0 235 -70l156 160l123 -125l-156 -156q72 -109 72 -239zM635 225
q106 0 181 78.5t75 188.5t-75 188t-181 78t-181 -78t-75 -188t75 -188.5t181 -78.5z" />
    <glyph glyph-name="yen" unicode="&#xa5;" 
d="M1202 1434l-377 -725h228v-164h-312l-4 -6v-168h316v-164h-316v-207h-205v207h-313v164h313v168l-4 6h-309v164h225l-374 725h235l307 -646l9 -71h30l8 71l308 646h235z" />
    <glyph glyph-name="brokenbar" unicode="&#xa6;" 
d="M164 727v748h184v-748h-184zM164 -225v747h184v-747h-184z" />
    <glyph glyph-name="section" unicode="&#xa7;" 
d="M631 -393q-196 0 -300 109t-104 315h195q0 -250 209 -250q86 0 143 47t57 119q0 68 -38.5 107t-161.5 96l-170 79q-234 111 -234 295q0 89 58.5 157.5t154.5 96.5v31q-213 115 -213 309q0 158 108 251t292 93q193 0 301 -107.5t108 -299.5h-194q0 114 -55.5 173.5
t-159.5 59.5q-92 0 -148.5 -42.5t-56.5 -112.5q0 -63 43 -108.5t141 -86.5l187 -78q126 -53 184.5 -125t58.5 -170q0 -94 -64.5 -166t-168.5 -100v-31q115 -58 169 -131t54 -170q0 -166 -106 -263t-289 -97zM659 346q83 3 133 49t50 119q0 67 -37 109.5t-123 78.5l-129 54
q-58 -23 -89.5 -70.5t-31.5 -110.5q0 -125 133 -186z" />
    <glyph glyph-name="dieresis" unicode="&#xa8;" 
d="M334 1206v228h229v-228h-229zM705 1206v228h229v-228h-229z" />
    <glyph glyph-name="copyright" unicode="&#xa9;" 
d="M635 -29q-267 0 -415 196.5t-148 549.5t148 549t415 196t415 -196t148 -549t-148 -549.5t-415 -196.5zM635 94q206 0 318 162.5t112 460.5t-112 460t-318 162t-318 -162t-112 -460t112 -460.5t318 -162.5zM625 297q-132 0 -205.5 111t-73.5 309q0 196 77 308t212 112
q108 0 178 -79t70 -202h-135q0 68 -32 113t-81 45q-149 0 -146 -297q1 -152 34.5 -223.5t101.5 -71.5q49 0 80.5 44t31.5 112h135q0 -123 -70 -202t-177 -79z" />
    <glyph glyph-name="ordfeminine" unicode="&#xaa;" 
d="M614 1454q175 0 266 -80t91 -225v-539h-174l45 215h-31q-77 -237 -311 -237q-109 0 -176.5 63t-67.5 162q0 120 81.5 189.5t233.5 78.5l226 13v55q0 67 -46 104t-139 37q-86 0 -136 -38.5t-56 -106.5h-178q8 145 106 227t266 82zM551 745q96 0 169 63t77 150l-228 -22
q-61 -6 -96 -35t-35 -74q0 -82 113 -82z" />
    <glyph glyph-name="guillemotleft" unicode="&#xab;" 
d="M446 111v102q0 106 -61.5 168.5t-165.5 62.5h-14v205h14q104 0 165.5 63t61.5 169v102h187v-102q0 -149 -72.5 -230.5t-212.5 -89.5v-31q140 -11 212.5 -91t72.5 -226v-102h-187zM856 111v102q0 106 -61.5 168.5t-165.5 62.5h-15v205h15q104 0 165.5 63t61.5 169v102h186
v-102q0 -149 -72.5 -231t-211.5 -89v-31q140 -11 212 -91t72 -226v-102h-186z" />
    <glyph glyph-name="logicalnot" unicode="&#xac;" 
d="M1141 901v-491h-185v307h-833v184h1018z" />
    <glyph glyph-name="uni00AD" unicode="&#xad;" 
d="M328 508v184h614v-184h-614z" />
    <glyph glyph-name="registered" unicode="&#xae;" 
d="M635 -29q-267 0 -415 196.5t-148 549.5t148 549t415 196t415 -196t148 -549t-148 -549.5t-415 -196.5zM635 94q206 0 318 162.5t112 460.5t-112 460t-318 162t-318 -162t-112 -460t112 -460.5t318 -162.5zM401 319v795h267q116 0 184 -61.5t68 -165.5q0 -98 -60.5 -155
t-165.5 -75v-24l37 -15l170 -299h-162l-164 322h-40v-322h-134zM535 754h108q131 0 131 120q0 53 -28.5 83t-77.5 30h-133v-233z" />
    <glyph glyph-name="macron" unicode="&#xaf;" 
d="M342 1270v164h584v-164h-584z" />
    <glyph glyph-name="degree" unicode="&#xb0;" 
d="M635 758q-158 0 -254 95.5t-96 252.5t96.5 252.5t253.5 95.5t253.5 -95.5t96.5 -252.5t-96 -252.5t-254 -95.5zM635 922q76 0 126 52t50 132t-50 132t-126 52t-126 -52t-50 -132t50 -132t126 -52z" />
    <glyph glyph-name="plusminus" unicode="&#xb1;" 
d="M543 408v438h-439v184h439v438h184v-438h438v-184h-438v-438h-184zM115 0v184h1038v-184h-1038z" />
    <glyph glyph-name="acute" unicode="&#xb4;" 
d="M424 1155l184 307h236l-226 -307h-194z" />
    <glyph glyph-name="uni00B5" unicode="&#xb5;" 
d="M848 983h194v-983h-194l51 266h-31q-35 -135 -116 -215t-217 -80q-105 0 -181 43l25 -383h-174v617q-10 62 -10 121v614h200v-614q0 -95 56 -154t151 -59q116 0 181 84.5t65 230.5v512z" />
    <glyph glyph-name="paragraph" unicode="&#xb6;" 
d="M508 -369v1000q-179 0 -297.5 113t-118.5 280q0 195 139.5 302.5t378.5 107.5h451v-1803h-184v1639h-185v-1639h-184z" />
    <glyph glyph-name="periodcentered" unicode="&#xb7;" 
d="M500 481v264h270v-264h-270z" />
    <glyph glyph-name="cedilla" unicode="&#xb8;" 
d="M379 -393q-99 0 -169.5 53t-76.5 164h143q13 -96 97 -96q35 0 56.5 19t21.5 50q0 25 -18.5 43.5t-43.5 18.5l-43 59l41 143h137l-30 -118q100 -47 100 -146q0 -83 -60.5 -136.5t-154.5 -53.5z" />
    <glyph glyph-name="ordmasculine" unicode="&#xba;" 
d="M635 588q-187 0 -304.5 119t-117.5 313q0 195 117.5 314.5t304.5 119.5t304.5 -119.5t117.5 -314.5q0 -194 -117.5 -313t-304.5 -119zM635 750q106 0 171.5 75t65.5 195q0 121 -65.5 195.5t-171.5 74.5t-172 -74.5t-66 -195.5q0 -120 66 -195t172 -75z" />
    <glyph glyph-name="guillemotright" unicode="&#xbb;" 
d="M414 111h-187v102q0 146 72.5 226t212.5 91v31q-140 8 -212.5 89.5t-72.5 230.5v102h187v-102q0 -106 61.5 -169t165.5 -63h14v-205h-14q-104 0 -165.5 -62.5t-61.5 -168.5v-102zM823 111h-186v102q0 146 72.5 226t212.5 91v31q-140 8 -212.5 89.5t-72.5 230.5v102h186
v-102q0 -106 62 -169t166 -63h14v-205h-14q-104 0 -166 -62.5t-62 -168.5v-102z" />
    <glyph glyph-name="onequarter" unicode="&#xbc;" 
d="M90 -20l957 1474h133l-957 -1474h-133zM92 1139v123h58q91 0 127 40.5t36 131.5h189v-656h-131v514h-31q-15 -78 -60 -115.5t-130 -37.5h-58zM666 211v190l243 254h178v-333h117v-111h-117v-211h-129v211h-292zM764 322h194v215h-28l-166 -187v-28z" />
    <glyph glyph-name="onehalf" unicode="&#xbd;" 
d="M90 -20l957 1474h133l-957 -1474h-133zM92 1139v123h58q91 0 127 40.5t36 131.5h189v-656h-131v514h-31q-15 -78 -60 -115.5t-130 -37.5h-58zM733 0v207l199 110q56 32 77 64t21 82q0 42 -27 68t-71 26q-49 0 -80 -30.5t-31 -77.5h-127q0 101 66 162t172 61
q100 0 163.5 -58.5t63.5 -150.5q0 -65 -37 -124.5t-106 -94.5l-174 -90v-31h317v-123h-426z" />
    <glyph glyph-name="threequarters" unicode="&#xbe;" 
d="M90 -20l957 1474h133l-957 -1474h-133zM340 762q-112 0 -179 63.5t-67 169.5h127q0 -54 32.5 -86t86.5 -32q41 0 68.5 23t27.5 58q0 43 -29.5 66t-84.5 23h-23v120h23q55 0 84.5 22.5t29.5 63.5q0 35 -27.5 58.5t-68.5 23.5q-119 0 -119 -118h-127q0 109 66 171t180 62
q100 0 163.5 -52.5t63.5 -135.5q0 -50 -34 -90t-89 -50v-30q55 -11 89 -50t34 -92q0 -83 -63.5 -135.5t-163.5 -52.5zM666 211v190l243 254h178v-333h117v-111h-117v-211h-129v211h-292zM764 322h194v215h-28l-166 -187v-28z" />
    <glyph glyph-name="questiondown" unicode="&#xbf;" 
d="M788 1065v-264h-270v264h270zM752 635v-105q0 -115 -32 -178.5t-120 -122.5l-80 -53q-102 -68 -102 -190q0 -88 59.5 -143.5t151.5 -55.5q117 0 183.5 75t66.5 204v36h200v-36q0 -218 -119 -340.5t-331 -122.5q-189 0 -305.5 106t-116.5 277q0 93 38.5 170.5t108.5 124.5
l80 53q82 54 102.5 95t20.5 149v57h195z" />
    <glyph glyph-name="Agrave" unicode="&#xc0;" 
d="M711 1546h-174l-205 226h276zM995 0l-137 502h-442l-140 -502h-221l418 1434h326l418 -1434h-222zM469 696h334l-139 508l-13 111h-30l-13 -111z" />
    <glyph glyph-name="Aacute" unicode="&#xc1;" 
d="M934 1772l-205 -226h-174l102 226h277zM995 0l-137 502h-442l-140 -502h-221l418 1434h326l418 -1434h-222zM469 696h334l-139 508l-13 111h-30l-13 -111z" />
    <glyph glyph-name="Acircumflex" unicode="&#xc2;" 
d="M635 1669l-133 -123h-215l235 226h223l236 -226h-215zM995 0l-137 502h-442l-140 -502h-221l418 1434h326l418 -1434h-222zM469 696h334l-139 508l-13 111h-30l-13 -111z" />
    <glyph glyph-name="Atilde" unicode="&#xc3;" 
d="M500 1614q-30 0 -56.5 -19.5t-35.5 -48.5l-140 62q75 174 232 174q56 0 135 -39t135 -39q30 0 56.5 19.5t35.5 48.5l139 -62q-75 -174 -231 -174q-56 0 -135 39t-135 39zM995 0l-137 502h-442l-140 -502h-221l418 1434h326l418 -1434h-222zM469 696h334l-139 508l-13 111
h-30l-13 -111z" />
    <glyph glyph-name="Adieresis" unicode="&#xc4;" 
d="M543 1774v-228h-232v228h232zM956 1774v-228h-231v228h231zM995 0l-137 502h-442l-140 -502h-221l418 1434h326l418 -1434h-222zM469 696h334l-139 508l-13 111h-30l-13 -111z" />
    <glyph glyph-name="Aring" unicode="&#xc5;" 
d="M635 1505q-66 0 -113 45.5t-47 108.5t47 108t113 45q67 0 113.5 -45t46.5 -108t-46.5 -108.5t-113.5 -45.5zM635 1716q-25 0 -41 -16t-16 -41q0 -23 16 -39t41 -16q26 0 42.5 15.5t16.5 39.5q0 25 -16.5 41t-42.5 16zM995 0l-137 502h-442l-140 -502h-221l418 1434h326
l418 -1434h-222zM469 696h334l-139 508l-13 111h-30l-13 -111z" />
    <glyph glyph-name="AE" unicode="&#xc6;" 
d="M1182 1239h-365v-424h344v-194h-344v-426h365v-195h-549v563h-219l-160 -563h-213l420 1434h721v-195zM465 748h168v569h-31l-18 -152z" />
    <glyph glyph-name="Ccedilla" unicode="&#xc7;" 
d="M680 1270q-180 0 -261 -131.5t-81 -421.5t76 -421.5t245 -131.5q134 0 208.5 92t74.5 256h209q1 -222 -113.5 -368t-306.5 -171l-8 -30q100 -47 100 -146q0 -83 -60.5 -136.5t-154.5 -53.5q-99 0 -169.5 53t-76.5 164h144q13 -96 96 -96q35 0 56.5 19t21.5 50
q0 25 -18.5 43.5t-43.5 18.5l-43 59l17 55q-469 43 -469 744q0 747 557 747q229 0 362.5 -146.5t131.5 -395.5h-209q0 163 -76 255.5t-209 92.5z" />
    <glyph glyph-name="Egrave" unicode="&#xc8;" 
d="M741 1546h-174l-205 226h277zM1081 1239h-651v-424h631v-194h-631v-426h651v-195h-856v1434h856v-195z" />
    <glyph glyph-name="Eacute" unicode="&#xc9;" 
d="M965 1772l-205 -226h-174l102 226h277zM1081 1239h-651v-424h631v-194h-631v-426h651v-195h-856v1434h856v-195z" />
    <glyph glyph-name="Ecircumflex" unicode="&#xca;" 
d="M666 1669l-134 -123h-215l236 226h223l236 -226h-215zM1081 1239h-651v-424h631v-194h-631v-426h651v-195h-856v1434h856v-195z" />
    <glyph glyph-name="Edieresis" unicode="&#xcb;" 
d="M573 1774v-228h-231v228h231zM987 1774v-228h-231v228h231zM1081 1239h-651v-424h631v-194h-631v-426h651v-195h-856v1434h856v-195z" />
    <glyph glyph-name="Igrave" unicode="&#xcc;" 
d="M537 1546l-205 226h276l103 -226h-174zM168 0v184h364v1065h-364v185h934v-185h-365v-1065h365v-184h-934z" />
    <glyph glyph-name="Iacute" unicode="&#xcd;" 
d="M555 1546l102 226h277l-205 -226h-174zM168 0v184h364v1065h-364v185h934v-185h-365v-1065h365v-184h-934z" />
    <glyph glyph-name="Icircumflex" unicode="&#xce;" 
d="M287 1546l235 226h223l236 -226h-215l-131 123l-133 -123h-215zM168 0v184h364v1065h-364v185h934v-185h-365v-1065h365v-184h-934z" />
    <glyph glyph-name="Idieresis" unicode="&#xcf;" 
d="M311 1546v228h232v-228h-232zM725 1546v228h231v-228h-231zM168 0v184h364v1065h-364v185h934v-185h-365v-1065h365v-184h-934z" />
    <glyph glyph-name="Eth" unicode="&#xd0;" 
d="M573 1434q275 0 429.5 -189.5t154.5 -527.5t-154.5 -527.5t-429.5 -189.5h-389v635h-141v164h141v635h389zM594 195q161 0 254.5 139.5t93.5 382.5t-93.5 382.5t-254.5 139.5h-205v-440h303v-164h-303v-440h205z" />
    <glyph glyph-name="Ntilde" unicode="&#xd1;" 
d="M500 1614q-30 0 -56.5 -19.5t-35.5 -48.5l-140 62q75 174 232 174q56 0 135 -39t135 -39q30 0 56.5 19.5t35.5 48.5l139 -62q-75 -174 -231 -174q-56 0 -135 39t-135 39zM901 1434h205v-1434h-330l-344 1026l-33 205h-30v-1231h-205v1434h330l344 -1026l32 -205h31v1231z
" />
    <glyph glyph-name="Ograve" unicode="&#xd2;" 
d="M537 1546l-205 226h276l103 -226h-174zM635 -31q-265 0 -404 191.5t-139 556.5t138.5 556t404.5 191t404.5 -191t138.5 -556t-139 -556.5t-404 -191.5zM635 164q167 0 247.5 136t80.5 417t-80.5 417t-247.5 136t-247.5 -136t-80.5 -417t80.5 -417t247.5 -136z" />
    <glyph glyph-name="Oacute" unicode="&#xd3;" 
d="M555 1546l102 226h277l-205 -226h-174zM635 -31q-265 0 -404 191.5t-139 556.5t138.5 556t404.5 191t404.5 -191t138.5 -556t-139 -556.5t-404 -191.5zM635 164q167 0 247.5 136t80.5 417t-80.5 417t-247.5 136t-247.5 -136t-80.5 -417t80.5 -417t247.5 -136z" />
    <glyph glyph-name="Ocircumflex" unicode="&#xd4;" 
d="M287 1546l235 226h223l236 -226h-215l-131 123l-133 -123h-215zM635 -31q-265 0 -404 191.5t-139 556.5t138.5 556t404.5 191t404.5 -191t138.5 -556t-139 -556.5t-404 -191.5zM635 164q167 0 247.5 136t80.5 417t-80.5 417t-247.5 136t-247.5 -136t-80.5 -417t80.5 -417
t247.5 -136z" />
    <glyph glyph-name="Otilde" unicode="&#xd5;" 
d="M770 1536q-56 0 -135 39t-135 39q-30 0 -56.5 -19.5t-35.5 -48.5l-140 62q75 174 232 174q56 0 135 -39t135 -39q30 0 56.5 19.5t35.5 48.5l139 -62q-75 -174 -231 -174zM635 -31q-265 0 -404 191.5t-139 556.5t138.5 556t404.5 191t404.5 -191t138.5 -556t-139 -556.5
t-404 -191.5zM635 164q167 0 247.5 136t80.5 417t-80.5 417t-247.5 136t-247.5 -136t-80.5 -417t80.5 -417t247.5 -136z" />
    <glyph glyph-name="Odieresis" unicode="&#xd6;" 
d="M311 1546v228h232v-228h-232zM725 1546v228h231v-228h-231zM635 -31q-265 0 -404 191.5t-139 556.5t138.5 556t404.5 191t404.5 -191t138.5 -556t-139 -556.5t-404 -191.5zM635 164q167 0 247.5 136t80.5 417t-80.5 417t-247.5 136t-247.5 -136t-80.5 -417t80.5 -417
t247.5 -136z" />
    <glyph glyph-name="multiply" unicode="&#xd7;" 
d="M297 125l-131 131l338 338l-338 338l131 131l338 -338l338 338l131 -131l-338 -338l338 -338l-131 -131l-338 338z" />
    <glyph glyph-name="Oslash" unicode="&#xd8;" 
d="M1212 1368l-127 -170q93 -184 93 -481q0 -365 -139 -556.5t-404 -191.5q-226 0 -365 142l-98 -131l-115 90l127 168q-92 182 -92 479q0 365 138.5 556t404.5 191q230 0 362 -141l99 131zM307 717q0 -165 27 -279l536 715q-80 117 -235 117q-167 0 -247.5 -136t-80.5 -417
zM963 717q0 170 -29 280l-535 -714q79 -119 236 -119q167 0 247.5 136t80.5 417z" />
    <glyph glyph-name="Ugrave" unicode="&#xd9;" 
d="M537 1546l-205 226h276l103 -226h-174zM635 -31q-209 0 -340 130t-131 339v996h205v-996q0 -128 71 -201t195 -73q126 0 196 72.5t70 201.5v996h205v-996q0 -209 -131 -339t-340 -130z" />
    <glyph glyph-name="Uacute" unicode="&#xda;" 
d="M555 1546l102 226h277l-205 -226h-174zM635 -31q-209 0 -340 130t-131 339v996h205v-996q0 -128 71 -201t195 -73q126 0 196 72.5t70 201.5v996h205v-996q0 -209 -131 -339t-340 -130z" />
    <glyph glyph-name="Ucircumflex" unicode="&#xdb;" 
d="M287 1546l235 226h223l236 -226h-215l-131 123l-133 -123h-215zM635 -31q-209 0 -340 130t-131 339v996h205v-996q0 -128 71 -201t195 -73q126 0 196 72.5t70 201.5v996h205v-996q0 -209 -131 -339t-340 -130z" />
    <glyph glyph-name="Udieresis" unicode="&#xdc;" 
d="M311 1546v228h232v-228h-232zM725 1546v228h231v-228h-231zM635 -31q-209 0 -340 130t-131 339v996h205v-996q0 -128 71 -201t195 -73q126 0 196 72.5t70 201.5v996h205v-996q0 -209 -131 -339t-340 -130z" />
    <glyph glyph-name="Yacute" unicode="&#xdd;" 
d="M936 1772l-205 -226h-174l102 226h277zM1223 1434l-486 -893v-541h-205v541l-483 893h240l323 -641l9 -72h30l8 72l324 641h240z" />
    <glyph glyph-name="Thorn" unicode="&#xde;" 
d="M725 1161q194 0 329.5 -124.5t135.5 -317.5q0 -131 -63.5 -234t-169 -158t-232.5 -55h-274v-272h-205v1434h205v-273h274zM725 467q103 0 171.5 68.5t68.5 183.5t-68.5 181.5t-171.5 66.5h-274v-500h274z" />
    <glyph glyph-name="germandbls" unicode="&#xdf;" 
d="M584 -29v166h57q113 0 181.5 68.5t68.5 181.5q0 104 -68 166.5t-182 62.5h-37v205h37q113 0 181.5 64t68.5 170q0 104 -63 168.5t-166 64.5q-104 0 -168 -64.5t-64 -170.5v-1053h-194v1053q0 186 116 297.5t310 111.5q189 0 311.5 -109.5t122.5 -277.5q0 -122 -86.5 -220
t-212.5 -120v-30q125 -15 212 -114t87 -224q0 -171 -129 -283.5t-326 -112.5h-57z" />
    <glyph glyph-name="agrave" unicode="&#xe0;" 
d="M752 1155h-195l-225 307h235zM618 1012q226 0 330.5 -98t104.5 -310v-604h-195l43 266h-31q-44 -145 -137 -220t-223 -75q-141 0 -222 74.5t-81 206.5q0 135 92.5 210.5t269.5 86.5l295 18v37q0 126 -57 180t-189 54q-109 0 -173 -49t-64 -134v-20h-195v20
q0 166 115.5 261.5t316.5 95.5zM553 135q122 0 208 77.5t101 201.5l-287 -29q-89 -9 -128 -40t-39 -93q0 -56 38 -86.5t107 -30.5z" />
    <glyph glyph-name="aacute" unicode="&#xe1;" 
d="M963 1462l-226 -307h-194l184 307h236zM618 1012q226 0 330.5 -98t104.5 -310v-604h-195l43 266h-31q-44 -145 -137 -220t-223 -75q-141 0 -222 74.5t-81 206.5q0 135 92.5 210.5t269.5 86.5l295 18v37q0 126 -57 180t-189 54q-109 0 -173 -49t-64 -134v-20h-195v20
q0 166 115.5 261.5t316.5 95.5zM553 135q122 0 208 77.5t101 201.5l-287 -29q-89 -9 -128 -40t-39 -93q0 -56 38 -86.5t107 -30.5z" />
    <glyph glyph-name="acircumflex" unicode="&#xe2;" 
d="M651 1335l-133 -180h-215l246 307h203l245 -307h-215zM618 1012q226 0 330.5 -98t104.5 -310v-604h-195l43 266h-31q-44 -145 -137 -220t-223 -75q-141 0 -222 74.5t-81 206.5q0 135 92.5 210.5t269.5 86.5l295 18v37q0 126 -57 180t-189 54q-109 0 -173 -49t-64 -134
v-20h-195v20q0 166 115.5 261.5t316.5 95.5zM553 135q122 0 208 77.5t101 201.5l-287 -29q-89 -9 -128 -40t-39 -93q0 -56 38 -86.5t107 -30.5z" />
    <glyph glyph-name="atilde" unicode="&#xe3;" 
d="M516 1294q-30 0 -56.5 -19t-35.5 -48l-139 61q75 174 231 174q56 0 135 -39t135 -39q30 0 57 19.5t36 48.5l139 -61q-75 -174 -232 -174q-56 0 -135 38.5t-135 38.5zM618 1012q226 0 330.5 -98t104.5 -310v-604h-195l43 266h-31q-44 -145 -137 -220t-223 -75
q-141 0 -222 74.5t-81 206.5q0 135 92.5 210.5t269.5 86.5l295 18v37q0 126 -57 180t-189 54q-109 0 -173 -49t-64 -134v-20h-195v20q0 166 115.5 261.5t316.5 95.5zM553 135q122 0 208 77.5t101 201.5l-287 -29q-89 -9 -128 -40t-39 -93q0 -56 38 -86.5t107 -30.5z" />
    <glyph glyph-name="adieresis" unicode="&#xe4;" 
d="M580 1434v-228h-230v228h230zM950 1434v-228h-229v228h229zM618 1012q226 0 330.5 -98t104.5 -310v-604h-195l43 266h-31q-44 -145 -137 -220t-223 -75q-141 0 -222 74.5t-81 206.5q0 135 92.5 210.5t269.5 86.5l295 18v37q0 126 -57 180t-189 54q-109 0 -173 -49
t-64 -134v-20h-195v20q0 166 115.5 261.5t316.5 95.5zM553 135q122 0 208 77.5t101 201.5l-287 -29q-89 -9 -128 -40t-39 -93q0 -56 38 -86.5t107 -30.5z" />
    <glyph glyph-name="aring" unicode="&#xe5;" 
d="M651 1063q-94 0 -159.5 65.5t-65.5 159.5t65.5 159.5t159.5 65.5t160 -65.5t66 -159.5t-66 -159.5t-160 -65.5zM651 1391q-40 0 -68 -29.5t-28 -73.5q0 -43 28 -72.5t68 -29.5q41 0 69 29.5t28 72.5q0 44 -28 73.5t-69 29.5zM618 1012q226 0 330.5 -98t104.5 -310v-604
h-195l43 266h-31q-44 -145 -137 -220t-223 -75q-141 0 -222 74.5t-81 206.5q0 135 92.5 210.5t269.5 86.5l295 18v37q0 126 -57 180t-189 54q-109 0 -173 -49t-64 -134v-20h-195v20q0 166 115.5 261.5t316.5 95.5zM553 135q122 0 208 77.5t101 201.5l-287 -29
q-89 -9 -128 -40t-39 -93q0 -56 38 -86.5t107 -30.5z" />
    <glyph glyph-name="ae" unicode="&#xe6;" 
d="M340 -29q-131 0 -207 76.5t-76 212.5q0 131 87 211.5t243 93.5l158 13v57q0 203 -152 203q-77 0 -119.5 -53t-42.5 -150h-194q0 170 96 273.5t254 103.5q180 0 258 -125q38 59 102 92t140 33q321 0 321 -418v-148h-465q3 -153 39.5 -227t108.5 -74q105 0 129 152h199
q-20 -154 -106.5 -240t-221.5 -86q-107 0 -176 56t-92 163q-32 -104 -106.5 -161.5t-176.5 -57.5zM743 598h261q0 126 -30.5 183t-96.5 57q-69 0 -101.5 -58t-32.5 -182zM367 135q79 0 128.5 85t49.5 200l-160 -21q-61 -9 -94 -46t-33 -93q0 -60 28.5 -92.5t80.5 -32.5z" />
    <glyph glyph-name="ccedilla" unicode="&#xe7;" 
d="M639 145q104 0 166 55t76 158h194q-4 -151 -98 -252t-250 -126l-10 -37q100 -47 100 -146q0 -83 -60.5 -136.5t-154.5 -53.5q-99 0 -169.5 53t-76.5 164h144q13 -96 96 -96q35 0 56.5 19t21.5 50q0 25 -18.5 43.5t-43.5 18.5l-43 59l17 55q-196 15 -310 153t-114 359
q0 249 132 388t355 139q192 0 317.5 -108.5t129.5 -278.5h-195q-14 101 -79.5 157t-172.5 56q-135 0 -211 -92.5t-76 -256.5q0 -163 73 -253.5t204 -90.5z" />
    <glyph glyph-name="egrave" unicode="&#xe8;" 
d="M745 1155h-194l-225 307h235zM1096 518v-82h-725q11 -137 83.5 -214t204.5 -77q88 0 151 39.5t89 112.5h195q-26 -142 -146.5 -234t-283.5 -92q-240 0 -368 137.5t-128 376.5q0 228 129 377.5t344 149.5q216 0 335.5 -130t119.5 -364zM379 596h508q-4 120 -68 183
t-178 63q-107 0 -174 -66t-88 -180z" />
    <glyph glyph-name="eacute" unicode="&#xe9;" 
d="M956 1462l-225 -307h-194l184 307h235zM1096 518v-82h-725q11 -137 83.5 -214t204.5 -77q88 0 151 39.5t89 112.5h195q-26 -142 -146.5 -234t-283.5 -92q-240 0 -368 137.5t-128 376.5q0 228 129 377.5t344 149.5q216 0 335.5 -130t119.5 -364zM379 596h508
q-4 120 -68 183t-178 63q-107 0 -174 -66t-88 -180z" />
    <glyph glyph-name="ecircumflex" unicode="&#xea;" 
d="M645 1335l-133 -180h-215l246 307h202l246 -307h-215zM1096 518v-82h-725q11 -137 83.5 -214t204.5 -77q88 0 151 39.5t89 112.5h195q-26 -142 -146.5 -234t-283.5 -92q-240 0 -368 137.5t-128 376.5q0 228 129 377.5t344 149.5q216 0 335.5 -130t119.5 -364zM379 596
h508q-4 120 -68 183t-178 63q-107 0 -174 -66t-88 -180z" />
    <glyph glyph-name="edieresis" unicode="&#xeb;" 
d="M573 1434v-228h-229v228h229zM944 1434v-228h-229v228h229zM1096 518v-82h-725q11 -137 83.5 -214t204.5 -77q88 0 151 39.5t89 112.5h195q-26 -142 -146.5 -234t-283.5 -92q-240 0 -368 137.5t-128 376.5q0 228 129 377.5t344 149.5q216 0 335.5 -130t119.5 -364z
M379 596h508q-4 120 -68 183t-178 63q-107 0 -174 -66t-88 -180z" />
    <glyph glyph-name="igrave" unicode="&#xec;" 
d="M803 1155h-195l-225 307h235zM801 174h407v-174h-1024v174h422v635h-430v174h625v-809z" />
    <glyph glyph-name="iacute" unicode="&#xed;" 
d="M1014 1462l-226 -307h-194l184 307h236zM801 174h407v-174h-1024v174h422v635h-430v174h625v-809z" />
    <glyph glyph-name="icircumflex" unicode="&#xee;" 
d="M702 1335l-133 -180h-215l246 307h203l246 -307h-215zM801 174h407v-174h-1024v174h422v635h-430v174h625v-809z" />
    <glyph glyph-name="idieresis" unicode="&#xef;" 
d="M631 1434v-228h-230v228h230zM1001 1434v-228h-229v228h229zM801 174h407v-174h-1024v174h422v635h-430v174h625v-809z" />
    <glyph glyph-name="eth" unicode="&#xf0;" 
d="M879 1245q231 -223 231 -645q0 -298 -127 -463.5t-354 -165.5t-364.5 138.5t-137.5 367.5q0 223 127 364.5t328 141.5q218 0 309 -217h31q-40 272 -213 401l-394 -151v133l248 94q-128 45 -313 45v174q312 0 518 -131l254 105v-133zM629 145q127 0 204.5 91.5t77.5 240.5
t-77.5 240.5t-204.5 91.5q-138 0 -220.5 -90.5t-82.5 -241.5t82.5 -241.5t220.5 -90.5z" />
    <glyph glyph-name="ntilde" unicode="&#xf1;" 
d="M813 1217q-57 0 -135 38.5t-135 38.5q-30 0 -56.5 -19t-35.5 -48l-140 61q75 174 232 174q57 0 135 -39t135 -39q30 0 56.5 19.5t35.5 48.5l139 -61q-75 -174 -231 -174zM219 0v983h195l-52 -266h31q89 295 334 295q178 0 270.5 -105.5t92.5 -308.5v-598h-201v578
q0 253 -215 253q-120 0 -190 -85.5t-70 -233.5v-512h-195z" />
    <glyph glyph-name="ograve" unicode="&#xf2;" 
d="M541 1155l-226 307h236l184 -307h-194zM635 -29q-224 0 -365 144t-141 377t141 376.5t365 143.5t365 -143.5t141 -376.5t-141 -377t-365 -144zM635 145q136 0 220.5 96t84.5 251t-84 250.5t-221 95.5t-221 -95.5t-84 -250.5t84.5 -251t220.5 -96z" />
    <glyph glyph-name="oacute" unicode="&#xf3;" 
d="M526 1155l185 307h235l-225 -307h-195zM635 -29q-224 0 -365 144t-141 377t141 376.5t365 143.5t365 -143.5t141 -376.5t-141 -377t-365 -144zM635 145q136 0 220.5 96t84.5 251t-84 250.5t-221 95.5t-221 -95.5t-84 -250.5t84.5 -251t220.5 -96z" />
    <glyph glyph-name="ocircumflex" unicode="&#xf4;" 
d="M287 1155l245 307h203l246 -307h-215l-131 180l-133 -180h-215zM635 -29q-224 0 -365 144t-141 377t141 376.5t365 143.5t365 -143.5t141 -376.5t-141 -377t-365 -144zM635 145q136 0 220.5 96t84.5 251t-84 250.5t-221 95.5t-221 -95.5t-84 -250.5t84.5 -251t220.5 -96z
" />
    <glyph glyph-name="otilde" unicode="&#xf5;" 
d="M770 1217q-56 0 -135 38.5t-135 38.5q-30 0 -56.5 -19t-35.5 -48l-140 61q75 174 232 174q56 0 135 -39t135 -39q30 0 56.5 19.5t35.5 48.5l139 -61q-75 -174 -231 -174zM635 -29q-224 0 -365 144t-141 377t141 376.5t365 143.5t365 -143.5t141 -376.5t-141 -377
t-365 -144zM635 145q136 0 220.5 96t84.5 251t-84 250.5t-221 95.5t-221 -95.5t-84 -250.5t84.5 -251t220.5 -96z" />
    <glyph glyph-name="odieresis" unicode="&#xf6;" 
d="M334 1206v228h229v-228h-229zM705 1206v228h229v-228h-229zM635 -29q-224 0 -365 144t-141 377t141 376.5t365 143.5t365 -143.5t141 -376.5t-141 -377t-365 -144zM635 145q136 0 220.5 96t84.5 251t-84 250.5t-221 95.5t-221 -95.5t-84 -250.5t84.5 -251t220.5 -96z" />
    <glyph glyph-name="divide" unicode="&#xf7;" 
d="M504 821v264h262v-264h-262zM137 502v184h998v-184h-998zM504 82v264h262v-264h-262z" />
    <glyph glyph-name="oslash" unicode="&#xf8;" 
d="M1042 817q99 -135 99 -325q0 -233 -141 -377t-365 -144q-187 0 -316 101l-88 -92l-98 90l94 96q-98 134 -98 326q0 233 141 376.5t365 143.5q186 0 315 -101l88 93l99 -91zM330 492q0 -99 37 -181l452 465q-78 62 -184 62q-137 0 -221 -95.5t-84 -250.5zM635 145
q136 0 220.5 96t84.5 251q0 98 -37 180l-452 -465q78 -62 184 -62z" />
    <glyph glyph-name="ugrave" unicode="&#xf9;" 
d="M541 1155l-226 307h236l184 -307h-194zM535 -29q-163 0 -251.5 101.5t-88.5 296.5v614h200v-614q0 -95 56 -154t151 -59q116 0 181 84.5t65 230.5v512h194v-983h-194l51 266h-31q-35 -135 -116 -215t-217 -80z" />
    <glyph glyph-name="uacute" unicode="&#xfa;" 
d="M526 1155l185 307h235l-225 -307h-195zM535 -29q-163 0 -251.5 101.5t-88.5 296.5v614h200v-614q0 -95 56 -154t151 -59q116 0 181 84.5t65 230.5v512h194v-983h-194l51 266h-31q-35 -135 -116 -215t-217 -80z" />
    <glyph glyph-name="ucircumflex" unicode="&#xfb;" 
d="M287 1155l245 307h203l246 -307h-215l-131 180l-133 -180h-215zM535 -29q-163 0 -251.5 101.5t-88.5 296.5v614h200v-614q0 -95 56 -154t151 -59q116 0 181 84.5t65 230.5v512h194v-983h-194l51 266h-31q-35 -135 -116 -215t-217 -80z" />
    <glyph glyph-name="udieresis" unicode="&#xfc;" 
d="M334 1206v228h229v-228h-229zM705 1206v228h229v-228h-229zM535 -29q-163 0 -251.5 101.5t-88.5 296.5v614h200v-614q0 -95 56 -154t151 -59q116 0 181 84.5t65 230.5v512h194v-983h-194l51 266h-31q-35 -135 -116 -215t-217 -80z" />
    <glyph glyph-name="yacute" unicode="&#xfd;" 
d="M944 1462l-225 -307h-195l185 307h235zM965 983h219l-455 -1128q-51 -127 -128.5 -187.5t-190.5 -60.5q-150 0 -227 79t-77 228v92h195v-92q0 -69 25.5 -101t83.5 -32q53 0 86 34.5t71 133.5l56 143h-172l-365 891h219l313 -813h33z" />
    <glyph glyph-name="thorn" unicode="&#xfe;" 
d="M709 1012q200 0 323 -139.5t123 -380.5t-123 -381t-323 -140q-135 0 -227.5 75t-133.5 220h-31l52 -266v-369h-195v1803h195v-451l-52 -266h31q41 145 133.5 220t227.5 75zM659 145q136 0 215.5 92.5t79.5 254.5t-79.5 254t-215.5 92t-215 -92t-79 -254t79 -254.5
t215 -92.5z" />
    <glyph glyph-name="ydieresis" unicode="&#xff;" 
d="M561 1434v-228h-229v228h229zM932 1434v-228h-230v228h230zM965 983h219l-455 -1128q-51 -127 -128.5 -187.5t-190.5 -60.5q-150 0 -227 79t-77 228v92h195v-92q0 -69 25.5 -101t83.5 -32q53 0 86 34.5t71 133.5l56 143h-172l-365 891h219l313 -813h33z" />
    <glyph glyph-name="Amacron" unicode="&#x100;" 
d="M926 1743v-164h-584v164h584zM995 0l-137 502h-442l-140 -502h-221l418 1434h326l418 -1434h-222zM469 696h334l-139 508l-13 111h-30l-13 -111z" />
    <glyph glyph-name="amacron" unicode="&#x101;" 
d="M942 1434v-164h-584v164h584zM618 1012q226 0 330.5 -98t104.5 -310v-604h-195l43 266h-31q-44 -145 -137 -220t-223 -75q-141 0 -222 74.5t-81 206.5q0 135 92.5 210.5t269.5 86.5l295 18v37q0 126 -57 180t-189 54q-109 0 -173 -49t-64 -134v-20h-195v20
q0 166 115.5 261.5t316.5 95.5zM553 135q122 0 208 77.5t101 201.5l-287 -29q-89 -9 -128 -40t-39 -93q0 -56 38 -86.5t107 -30.5z" />
    <glyph glyph-name="Abreve" unicode="&#x102;" 
d="M635 1536q-128 0 -202 54t-105 171h184q0 -39 35.5 -65.5t87.5 -26.5t87.5 26.5t35.5 65.5h184q-31 -117 -105 -171t-202 -54zM995 0l-137 502h-442l-140 -502h-221l418 1434h326l418 -1434h-222zM469 696h334l-139 508l-13 111h-30l-13 -111z" />
    <glyph glyph-name="abreve" unicode="&#x103;" 
d="M651 1155q-135 0 -221 78t-86 229h184q0 -69 34.5 -106t88.5 -37t88.5 37t34.5 106h184q0 -151 -86 -229t-221 -78zM618 1012q226 0 330.5 -98t104.5 -310v-604h-195l43 266h-31q-44 -145 -137 -220t-223 -75q-141 0 -222 74.5t-81 206.5q0 135 92.5 210.5t269.5 86.5
l295 18v37q0 126 -57 180t-189 54q-109 0 -173 -49t-64 -134v-20h-195v20q0 166 115.5 261.5t316.5 95.5zM553 135q122 0 208 77.5t101 201.5l-287 -29q-89 -9 -128 -40t-39 -93q0 -56 38 -86.5t107 -30.5z" />
    <glyph glyph-name="Aogonek" unicode="&#x104;" 
d="M1042 -129q0 -45 45 -72.5t130 -27.5v-164q-171 0 -260 63t-89 160q0 117 123 182l-133 490h-442l-140 -502h-221l418 1434h326l418 -1434q-89 -18 -132 -48.5t-43 -80.5zM469 696h334l-139 508l-13 111h-30l-13 -111z" />
    <glyph glyph-name="aogonek" unicode="&#x105;" 
d="M1053 0q-89 -18 -131.5 -48.5t-42.5 -80.5q0 -45 44.5 -72.5t129.5 -27.5v-164q-171 0 -259.5 63t-88.5 160q0 135 157 199l39 237h-31q-44 -145 -137 -220t-223 -75q-141 0 -222 74.5t-81 206.5q0 135 92.5 210.5t269.5 86.5l295 18v37q0 126 -57 180t-189 54
q-109 0 -173 -49t-64 -134v-20h-195v20q0 166 115.5 261.5t316.5 95.5q226 0 330.5 -98t104.5 -310v-604zM553 135q122 0 208 77.5t101 201.5l-287 -29q-89 -9 -128 -40t-39 -93q0 -56 38 -86.5t107 -30.5z" />
    <glyph glyph-name="Cacute" unicode="&#x106;" 
d="M582 1546l102 226h277l-205 -226h-174zM659 -31q-536 0 -536 748q0 747 557 747q229 0 362.5 -146.5t131.5 -395.5h-209q0 163 -76 255.5t-209 92.5q-180 0 -261 -131.5t-81 -421.5t76 -421.5t245 -131.5q134 0 208.5 92t74.5 256h209q1 -243 -135.5 -393t-356.5 -150z
" />
    <glyph glyph-name="cacute" unicode="&#x107;" 
d="M539 1155l184 307h235l-225 -307h-194zM633 -29q-216 0 -343.5 139.5t-127.5 374.5q0 249 132 388t355 139q192 0 317.5 -108.5t129.5 -278.5h-195q-14 101 -79.5 157t-172.5 56q-135 0 -211 -92.5t-76 -256.5q0 -163 73 -253.5t204 -90.5q104 0 166 55t76 158h194
q-5 -173 -127 -280t-315 -107z" />
    <glyph glyph-name="Ccircumflex" unicode="&#x108;" 
d="M313 1546l236 226h223l236 -226h-215l-131 123l-134 -123h-215zM659 -31q-536 0 -536 748q0 747 557 747q229 0 362.5 -146.5t131.5 -395.5h-209q0 163 -76 255.5t-209 92.5q-180 0 -261 -131.5t-81 -421.5t76 -421.5t245 -131.5q134 0 208.5 92t74.5 256h209
q1 -243 -135.5 -393t-356.5 -150z" />
    <glyph glyph-name="ccircumflex" unicode="&#x109;" 
d="M299 1155l246 307h203l245 -307h-215l-131 180l-133 -180h-215zM633 -29q-216 0 -343.5 139.5t-127.5 374.5q0 249 132 388t355 139q192 0 317.5 -108.5t129.5 -278.5h-195q-14 101 -79.5 157t-172.5 56q-135 0 -211 -92.5t-76 -256.5q0 -163 73 -253.5t204 -90.5
q104 0 166 55t76 158h194q-5 -173 -127 -280t-315 -107z" />
    <glyph glyph-name="Cdotaccent" unicode="&#x10a;" 
d="M545 1544v230h233v-230h-233zM659 -31q-536 0 -536 748q0 747 557 747q229 0 362.5 -146.5t131.5 -395.5h-209q0 163 -76 255.5t-209 92.5q-180 0 -261 -131.5t-81 -421.5t76 -421.5t245 -131.5q134 0 208.5 92t74.5 256h209q1 -243 -135.5 -393t-356.5 -150z" />
    <glyph glyph-name="cdotaccent" unicode="&#x10b;" 
d="M530 1192v242h234v-242h-234zM633 -29q-216 0 -343.5 139.5t-127.5 374.5q0 249 132 388t355 139q192 0 317.5 -108.5t129.5 -278.5h-195q-14 101 -79.5 157t-172.5 56q-135 0 -211 -92.5t-76 -256.5q0 -163 73 -253.5t204 -90.5q104 0 166 55t76 158h194
q-5 -173 -127 -280t-315 -107z" />
    <glyph glyph-name="Ccaron" unicode="&#x10c;" 
d="M549 1546l-236 226h215l134 -123l131 123h215l-236 -226h-223zM659 -31q-536 0 -536 748q0 747 557 747q229 0 362.5 -146.5t131.5 -395.5h-209q0 163 -76 255.5t-209 92.5q-180 0 -261 -131.5t-81 -421.5t76 -421.5t245 -131.5q134 0 208.5 92t74.5 256h209
q1 -243 -135.5 -393t-356.5 -150z" />
    <glyph glyph-name="ccaron" unicode="&#x10d;" 
d="M545 1155l-246 307h215l133 -180l131 180h215l-245 -307h-203zM633 -29q-216 0 -343.5 139.5t-127.5 374.5q0 249 132 388t355 139q192 0 317.5 -108.5t129.5 -278.5h-195q-14 101 -79.5 157t-172.5 56q-135 0 -211 -92.5t-76 -256.5q0 -163 73 -253.5t204 -90.5
q104 0 166 55t76 158h194q-5 -173 -127 -280t-315 -107z" />
    <glyph glyph-name="Dcaron" unicode="&#x10e;" 
d="M492 1546l-236 226h215l133 -123l131 123h215l-235 -226h-223zM184 0v1434h389q275 0 429.5 -189.5t154.5 -527.5t-154.5 -527.5t-429.5 -189.5h-389zM389 195h205q161 0 254.5 139.5t93.5 382.5t-93.5 382.5t-254.5 139.5h-205v-1044z" />
    <glyph glyph-name="dcaron" unicode="&#x10f;" 
d="M561 -29q-200 0 -323 140t-123 381t123 380.5t323 139.5q135 0 227.5 -75t133.5 -220h30l-51 266v451h195v-1434h-195l51 266h-30q-41 -145 -133.5 -220t-227.5 -75zM1178 1028v123q57 0 77.5 17.5t20.5 64.5h-98v201h225v-160q0 -246 -225 -246zM610 145
q136 0 215.5 92.5t79.5 254.5t-79.5 254t-215.5 92t-215.5 -92t-79.5 -254t79.5 -254.5t215.5 -92.5z" />
    <glyph glyph-name="Dcroat" unicode="&#x110;" 
d="M573 1434q275 0 429.5 -189.5t154.5 -527.5t-154.5 -527.5t-429.5 -189.5h-389v635h-141v164h141v635h389zM594 195q161 0 254.5 139.5t93.5 382.5t-93.5 382.5t-254.5 139.5h-205v-440h303v-164h-303v-440h205z" />
    <glyph glyph-name="dcroat" unicode="&#x111;" 
d="M1206 1280v-133h-110v-1147h-195l51 266h-30q-41 -145 -133.5 -220t-227.5 -75q-200 0 -323 140t-123 381t123 380.5t323 139.5q135 0 227.5 -75t133.5 -220h30l-51 266v164h-186v133h186v154h195v-154h110zM610 145q136 0 215.5 92.5t79.5 254.5t-79.5 254t-215.5 92
t-215.5 -92t-79.5 -254t79.5 -254.5t215.5 -92.5z" />
    <glyph glyph-name="Emacron" unicode="&#x112;" 
d="M956 1743v-164h-583v164h583zM1081 1239h-651v-424h631v-194h-631v-426h651v-195h-856v1434h856v-195z" />
    <glyph glyph-name="emacron" unicode="&#x113;" 
d="M936 1434v-164h-584v164h584zM1096 518v-82h-725q11 -137 83.5 -214t204.5 -77q88 0 151 39.5t89 112.5h195q-26 -142 -146.5 -234t-283.5 -92q-240 0 -368 137.5t-128 376.5q0 228 129 377.5t344 149.5q216 0 335.5 -130t119.5 -364zM379 596h508q-4 120 -68 183
t-178 63q-107 0 -174 -66t-88 -180z" />
    <glyph glyph-name="Ebreve" unicode="&#x114;" 
d="M666 1536q-128 0 -202.5 54t-105.5 171h185q0 -39 35.5 -65.5t87.5 -26.5q51 0 86.5 26.5t35.5 65.5h185q-31 -117 -105 -171t-202 -54zM1081 1239h-651v-424h631v-194h-631v-426h651v-195h-856v1434h856v-195z" />
    <glyph glyph-name="ebreve" unicode="&#x115;" 
d="M645 1155q-135 0 -221 78t-86 229h184q0 -69 34.5 -106t88.5 -37t88.5 37t34.5 106h184q0 -151 -86 -229t-221 -78zM1096 518v-82h-725q11 -137 83.5 -214t204.5 -77q88 0 151 39.5t89 112.5h195q-26 -142 -146.5 -234t-283.5 -92q-240 0 -368 137.5t-128 376.5
q0 228 129 377.5t344 149.5q216 0 335.5 -130t119.5 -364zM379 596h508q-4 120 -68 183t-178 63q-107 0 -174 -66t-88 -180z" />
    <glyph glyph-name="Edotaccent" unicode="&#x116;" 
d="M782 1774v-230h-233v230h233zM1081 1239h-651v-424h631v-194h-631v-426h651v-195h-856v1434h856v-195z" />
    <glyph glyph-name="edotaccent" unicode="&#x117;" 
d="M762 1434v-242h-234v242h234zM1096 518v-82h-725q11 -137 83.5 -214t204.5 -77q88 0 151 39.5t89 112.5h195q-26 -142 -146.5 -234t-283.5 -92q-240 0 -368 137.5t-128 376.5q0 228 129 377.5t344 149.5q216 0 335.5 -130t119.5 -364zM379 596h508q-4 120 -68 183
t-178 63q-107 0 -174 -66t-88 -180z" />
    <glyph glyph-name="Eogonek" unicode="&#x118;" 
d="M1081 1239h-651v-424h631v-194h-631v-426h651v-195q-89 -18 -131.5 -48.5t-42.5 -80.5q0 -45 44.5 -72.5t129.5 -27.5v-164q-171 0 -259.5 63t-88.5 160q0 104 101 170h-609v1434h856v-195z" />
    <glyph glyph-name="eogonek" unicode="&#x119;" 
d="M1096 518v-82h-725q11 -137 83.5 -214t204.5 -77q88 0 151 39.5t89 112.5h195q-25 -131 -129.5 -221t-251.5 -103q-82 -34 -82 -102q0 -45 44.5 -72.5t129.5 -27.5v-164q-171 0 -259.5 63t-88.5 160q0 94 78 154q-179 35 -273 166t-94 335q0 228 129 377.5t344 149.5
q216 0 335.5 -130t119.5 -364zM379 596h508q-4 120 -68 183t-178 63q-107 0 -174 -66t-88 -180z" />
    <glyph glyph-name="Ecaron" unicode="&#x11a;" 
d="M776 1546h-223l-236 226h215l134 -123l131 123h215zM1081 1239h-651v-424h631v-194h-631v-426h651v-195h-856v1434h856v-195z" />
    <glyph glyph-name="ecaron" unicode="&#x11b;" 
d="M745 1155h-202l-246 307h215l133 -180l131 180h215zM1096 518v-82h-725q11 -137 83.5 -214t204.5 -77q88 0 151 39.5t89 112.5h195q-26 -142 -146.5 -234t-283.5 -92q-240 0 -368 137.5t-128 376.5q0 228 129 377.5t344 149.5q216 0 335.5 -130t119.5 -364zM379 596h508
q-4 120 -68 183t-178 63q-107 0 -174 -66t-88 -180z" />
    <glyph glyph-name="Gcircumflex" unicode="&#x11c;" 
d="M334 1546l235 226h224l235 -226h-215l-131 123l-133 -123h-215zM580 -31q-230 0 -356 193t-126 555q0 747 574 747q221 0 358 -148t135 -384h-209q0 158 -75.5 248t-208.5 90q-188 0 -273.5 -131.5t-85.5 -421.5q0 -287 77 -420t241 -133q129 0 204.5 99t88.5 286h-338
v192h532v-741h-205l54 313h-31q-68 -344 -356 -344z" />
    <glyph glyph-name="gcircumflex" unicode="&#x11d;" 
d="M293 1155l246 307h202l246 -307h-215l-131 180l-133 -180h-215zM598 -393q-218 0 -334 100.5t-127 292.5h195q9 -106 75.5 -162.5t190.5 -56.5q132 0 204 75t72 212v22l68 268h-31q-82 -297 -340 -297q-198 0 -316 133t-118 343t118 342.5t316 132.5q258 0 340 -297h31
l-68 268h195v-850q0 -526 -471 -526zM608 229q126 0 198.5 85.5t72.5 222.5q0 139 -73.5 223t-197.5 84q-126 0 -198 -85t-72 -222q0 -139 73 -223.5t197 -84.5z" />
    <glyph glyph-name="Gbreve" unicode="&#x11e;" 
d="M682 1536q-128 0 -202 54t-105 171h184q0 -39 35.5 -65.5t87.5 -26.5t87.5 26.5t35.5 65.5h184q-31 -117 -105 -171t-202 -54zM580 -31q-230 0 -356 193t-126 555q0 747 574 747q221 0 358 -148t135 -384h-209q0 158 -75.5 248t-208.5 90q-188 0 -273.5 -131.5
t-85.5 -421.5q0 -287 77 -420t241 -133q129 0 204.5 99t88.5 286h-338v192h532v-741h-205l54 313h-31q-68 -344 -356 -344z" />
    <glyph glyph-name="gbreve" unicode="&#x11f;" 
d="M641 1155q-135 0 -221 78t-86 229h184q0 -69 34.5 -106t88.5 -37t88.5 37t34.5 106h184q0 -151 -86 -229t-221 -78zM598 -393q-218 0 -334 100.5t-127 292.5h195q9 -106 75.5 -162.5t190.5 -56.5q132 0 204 75t72 212v22l68 268h-31q-82 -297 -340 -297q-198 0 -316 133
t-118 343t118 342.5t316 132.5q258 0 340 -297h31l-68 268h195v-850q0 -526 -471 -526zM608 229q126 0 198.5 85.5t72.5 222.5q0 139 -73.5 223t-197.5 84q-126 0 -198 -85t-72 -222q0 -139 73 -223.5t197 -84.5z" />
    <glyph glyph-name="Gdotaccent" unicode="&#x120;" 
d="M565 1544v230h234v-230h-234zM580 -31q-230 0 -356 193t-126 555q0 747 574 747q221 0 358 -148t135 -384h-209q0 158 -75.5 248t-208.5 90q-188 0 -273.5 -131.5t-85.5 -421.5q0 -287 77 -420t241 -133q129 0 204.5 99t88.5 286h-338v192h532v-741h-205l54 313h-31
q-68 -344 -356 -344z" />
    <glyph glyph-name="gdotaccent" unicode="&#x121;" 
d="M524 1192v242h234v-242h-234zM598 -393q-218 0 -334 100.5t-127 292.5h195q9 -106 75.5 -162.5t190.5 -56.5q132 0 204 75t72 212v22l68 268h-31q-82 -297 -340 -297q-198 0 -316 133t-118 343t118 342.5t316 132.5q258 0 340 -297h31l-68 268h195v-850q0 -526 -471 -526
zM608 229q126 0 198.5 85.5t72.5 222.5q0 139 -73.5 223t-197.5 84q-126 0 -198 -85t-72 -222q0 -139 73 -223.5t197 -84.5z" />
    <glyph glyph-name="uni0122" unicode="&#x122;" 
d="M580 -31q-230 0 -356 193t-126 555q0 747 574 747q221 0 358 -148t135 -384h-209q0 158 -75.5 248t-208.5 90q-188 0 -273.5 -131.5t-85.5 -421.5q0 -287 77 -420t241 -133q129 0 204.5 99t88.5 286h-338v192h532v-741h-205l54 313h-31q-68 -344 -356 -344zM514 -379v103
q143 0 143 57h-139v149h248v-116q0 -103 -55 -148t-197 -45z" />
    <glyph glyph-name="uni0123" unicode="&#x123;" 
d="M514 1124v117q0 120 66 187t186 67v-102q-57 0 -90 -26.5t-33 -72.5h119v-170h-248zM598 -393q-218 0 -334 100.5t-127 292.5h195q9 -106 75.5 -162.5t190.5 -56.5q132 0 204 75t72 212v22l68 268h-31q-82 -297 -340 -297q-198 0 -316 133t-118 343t118 342.5t316 132.5
q258 0 340 -297h31l-68 268h195v-850q0 -526 -471 -526zM608 229q126 0 198.5 85.5t72.5 222.5q0 139 -73.5 223t-197.5 84q-126 0 -198 -85t-72 -222q0 -139 73 -223.5t197 -84.5z" />
    <glyph glyph-name="Hcircumflex" unicode="&#x124;" 
d="M635 1669l-133 -123h-215l235 226h223l236 -226h-215zM901 1434h205v-1434h-205v621h-532v-621h-205v1434h205v-619h532v619z" />
    <glyph glyph-name="hcircumflex" unicode="&#x125;" 
d="M-31 1546l236 226h223l236 -226h-215l-132 123l-133 -123h-215zM219 0v1434h195v-451l-52 -266h31q89 295 334 295q178 0 270.5 -105.5t92.5 -308.5v-598h-201v578q0 253 -215 253q-120 0 -190 -85.5t-70 -233.5v-512h-195z" />
    <glyph glyph-name="Hbar" unicode="&#x126;" 
d="M901 1434h205v-1434h-205v621h-532v-621h-205v1434h205v-246h532v246zM369 815h532v209h-532v-209z" />
    <glyph glyph-name="hbar" unicode="&#x127;" 
d="M727 1012q178 0 270.5 -105.5t92.5 -308.5v-598h-201v578q0 253 -215 253q-120 0 -190 -85.5t-70 -233.5v-512h-195v1147h-115v133h115v154h195v-154h182v-133h-182v-164l-52 -266h31q89 295 334 295z" />
    <glyph glyph-name="Itilde" unicode="&#x128;" 
d="M770 1536q-56 0 -135 39t-135 39q-30 0 -56.5 -19.5t-35.5 -48.5l-140 62q75 174 232 174q56 0 135 -39t135 -39q30 0 56.5 19.5t35.5 48.5l139 -62q-75 -174 -231 -174zM168 0v184h364v1065h-364v185h934v-185h-365v-1065h365v-184h-934z" />
    <glyph glyph-name="itilde" unicode="&#x129;" 
d="M567 1294q-30 0 -56.5 -19t-35.5 -48l-139 61q75 174 231 174q57 0 136 -39t135 -39q30 0 56.5 19.5t35.5 48.5l139 -61q-75 -174 -231 -174q-56 0 -135 38.5t-136 38.5zM801 174h407v-174h-1024v174h422v635h-430v174h625v-809z" />
    <glyph glyph-name="Imacron" unicode="&#x12a;" 
d="M342 1579v164h584v-164h-584zM168 0v184h364v1065h-364v185h934v-185h-365v-1065h365v-184h-934z" />
    <glyph glyph-name="imacron" unicode="&#x12b;" 
d="M993 1434v-164h-583v164h583zM801 174h407v-174h-1024v174h422v635h-430v174h625v-809z" />
    <glyph glyph-name="Ibreve" unicode="&#x12c;" 
d="M635 1536q-128 0 -202 54t-105 171h184q0 -39 35.5 -65.5t87.5 -26.5t87.5 26.5t35.5 65.5h184q-31 -117 -105 -171t-202 -54zM168 0v184h364v1065h-364v185h934v-185h-365v-1065h365v-184h-934z" />
    <glyph glyph-name="ibreve" unicode="&#x12d;" 
d="M702 1155q-135 0 -221 78t-86 229h185q0 -69 34 -106t88 -37t88.5 37t34.5 106h185q0 -151 -86.5 -229t-221.5 -78zM801 174h407v-174h-1024v174h422v635h-430v174h625v-809z" />
    <glyph glyph-name="Iogonek" unicode="&#x12e;" 
d="M1102 1249h-365v-1065h365v-184h-371q-89 -18 -131.5 -48.5t-42.5 -80.5q0 -45 44.5 -72.5t129.5 -27.5v-164q-171 0 -259.5 63t-88.5 160q0 105 100 170h-315v184h364v1065h-364v185h934v-185z" />
    <glyph glyph-name="iogonek" unicode="&#x12f;" 
d="M819 1434v-242h-233v242h233zM801 174h407v-174h-407q-89 -18 -131.5 -48.5t-42.5 -80.5q0 -45 44.5 -72.5t129.5 -27.5v-164q-171 0 -259.5 63t-88.5 160q0 105 100 170h-369v174h422v635h-430v174h625v-809z" />
    <glyph glyph-name="Idotaccent" unicode="&#x130;" 
d="M518 1544v230h234v-230h-234zM168 0v184h364v1065h-364v185h934v-185h-365v-1065h365v-184h-934z" />
    <glyph glyph-name="dotlessi" unicode="&#x131;" 
d="M801 174h407v-174h-1024v174h422v635h-430v174h625v-809z" />
    <glyph glyph-name="IJ" unicode="&#x132;" 
d="M244 0v1434h205v-1434h-205zM666 -20v194q100 0 146 53t46 168v1039h205v-1039q0 -197 -104 -306t-293 -109z" />
    <glyph glyph-name="ij" unicode="&#x133;" 
d="M244 1192v242h233v-242h-233zM793 1192v242h233v-242h-233zM264 0v983h195v-983h-195zM651 -393v170h47q115 0 115 151v1055h195v-1014q0 -178 -79.5 -270t-230.5 -92h-47z" />
    <glyph glyph-name="Jcircumflex" unicode="&#x134;" 
d="M590 1546l235 226h224l235 -226h-215l-131 123l-133 -123h-215zM573 -31q-226 0 -345 137t-119 398v231h204v-231q0 -340 260 -340q131 0 197 92t66 242v936h204v-936q0 -250 -122.5 -389.5t-344.5 -139.5z" />
    <glyph glyph-name="jcircumflex" unicode="&#x135;" 
d="M944 1462l246 -307h-215l-131 180l-133 -180h-215l245 307h203zM236 983h706v-973q0 -197 -93.5 -300t-273.5 -103q-181 0 -275.5 100.5t-94.5 294.5v109h198v-109q0 -114 41.5 -167.5t130.5 -53.5q91 0 132 49.5t41 159.5v819h-512v174z" />
    <glyph glyph-name="uni0136" unicode="&#x136;" 
d="M1219 1434l-453 -656l442 -778h-243l-336 614l-219 -313v-301h-205v1434h205v-715l-48 -119h31l594 834h232zM530 -219v149h248v-116q0 -103 -55 -148t-197 -45v103q144 0 144 57h-140z" />
    <glyph glyph-name="uni0137" unicode="&#x137;" 
d="M1157 983l-432 -453l422 -530h-242l-317 406l-150 -154v-252h-194v1434h194v-865l-47 -104h31l500 518h235zM528 -219v149h248v-116q0 -103 -55 -148t-197 -45v103q144 0 144 57h-140z" />
    <glyph glyph-name="kgreenlandic" unicode="&#x138;" 
d="M1157 983l-446 -471l426 -512h-252l-314 379l-133 -148v-231h-194v983h194v-418l-47 -104h31l489 522h246z" />
    <glyph glyph-name="Lacute" unicode="&#x139;" 
d="M684 1772l-205 -226h-174l103 226h276zM496 195h692v-195h-897v1434h205v-1239z" />
    <glyph glyph-name="lacute" unicode="&#x13a;" 
d="M1010 1772l-205 -226h-174l102 226h277zM801 174h407v-174h-1024v174h422v1086h-430v174h625v-1260z" />
    <glyph glyph-name="uni013B" unicode="&#x13b;" 
d="M496 195h692v-195h-897v1434h205v-1239zM616 -219v149h248v-116q0 -103 -55 -148t-197 -45v103q144 0 144 57h-140z" />
    <glyph glyph-name="uni013C" unicode="&#x13c;" 
d="M801 174h407v-174h-1024v174h422v1086h-430v174h625v-1260zM573 -219v149h248v-116q0 -103 -55 -148t-197 -45v103q144 0 144 57h-140z" />
    <glyph glyph-name="Lcaron" unicode="&#x13d;" 
d="M1102 1337q0 -103 -55 -147.5t-197 -44.5v102q143 0 143 58h-139v149h248v-117zM496 195h692v-195h-897v1434h205v-1239z" />
    <glyph glyph-name="lcaron" unicode="&#x13e;" 
d="M801 174h407v-174h-1024v174h422v1086h-430v174h625v-1260zM1137 1274q0 -246 -226 -246v123q57 0 78 17.5t21 64.5h-99v201h226v-160z" />
    <glyph glyph-name="Ldot" unicode="&#x13f;" 
d="M496 195h692v-195h-897v1434h205v-1239zM969 983v-264h-271v264h271z" />
    <glyph glyph-name="ldot" unicode="&#x140;" 
d="M801 174h407v-174h-1024v174h422v1086h-430v174h625v-1260zM1171 983v-264h-270v264h270z" />
    <glyph glyph-name="Lslash" unicode="&#x141;" 
d="M496 195h692v-195h-897v532l-82 -55l-90 137l172 115v705h205v-566l202 136l90 -138l-292 -196v-475z" />
    <glyph glyph-name="lslash" unicode="&#x142;" 
d="M801 174h407v-174h-1024v174h422v420l-188 -127l-86 127l274 184v482h-430v174h625v-525l174 117l86 -127l-260 -174v-551z" />
    <glyph glyph-name="Nacute" unicode="&#x143;" 
d="M934 1772l-205 -226h-174l102 226h277zM901 1434h205v-1434h-330l-344 1026l-33 205h-30v-1231h-205v1434h330l344 -1026l32 -205h31v1231z" />
    <glyph glyph-name="nacute" unicode="&#x144;" 
d="M569 1155l185 307h235l-225 -307h-195zM219 0v983h195l-52 -266h31q89 295 334 295q178 0 270.5 -105.5t92.5 -308.5v-598h-201v578q0 253 -215 253q-120 0 -190 -85.5t-70 -233.5v-512h-195z" />
    <glyph glyph-name="uni0145" unicode="&#x145;" 
d="M901 1434h205v-1434h-330l-344 1026l-33 205h-30v-1231h-205v1434h330l344 -1026l32 -205h31v1231zM510 -219v149h248v-116q0 -103 -55 -148t-197 -45v103q143 0 143 57h-139z" />
    <glyph glyph-name="uni0146" unicode="&#x146;" 
d="M219 0v983h195l-52 -266h31q89 295 334 295q178 0 270.5 -105.5t92.5 -308.5v-598h-201v578q0 253 -215 253q-120 0 -190 -85.5t-70 -233.5v-512h-195zM528 -379v103q144 0 144 57h-140v149h248v-116q0 -103 -55 -148t-197 -45z" />
    <glyph glyph-name="Ncaron" unicode="&#x147;" 
d="M745 1546h-223l-235 226h215l133 -123l131 123h215zM901 1434h205v-1434h-330l-344 1026l-33 205h-30v-1231h-205v1434h330l344 -1026l32 -205h31v1231z" />
    <glyph glyph-name="ncaron" unicode="&#x148;" 
d="M575 1155l-245 307h215l133 -180l131 180h215l-246 -307h-203zM219 0v983h195l-52 -266h31q89 295 334 295q178 0 270.5 -105.5t92.5 -308.5v-598h-201v578q0 253 -215 253q-120 0 -190 -85.5t-70 -233.5v-512h-195z" />
    <glyph glyph-name="napostrophe" unicode="&#x149;" 
d="M193 1092v112q57 0 77.5 17.5t20.5 64.5h-98v176h219v-135q0 -235 -219 -235zM219 0v983h195l-52 -266h31q89 295 334 295q178 0 270.5 -105.5t92.5 -308.5v-598h-201v578q0 253 -215 253q-120 0 -190 -85.5t-70 -233.5v-512h-195z" />
    <glyph glyph-name="Eng" unicode="&#x14a;" 
d="M901 1434h205v-1485q0 -177 -85.5 -258.5t-270.5 -81.5v174q73 0 112 37t39 108v72h-125l-344 1026l-33 205h-30v-1231h-205v1434h330l344 -1026l32 -205h31v1231z" />
    <glyph glyph-name="eng" unicode="&#x14b;" 
d="M727 1012q178 0 270.5 -105.5t92.5 -308.5v-670q0 -143 -84 -230t-222 -87v164q105 0 105 153v650q0 253 -215 253q-120 0 -190 -85.5t-70 -233.5v-512h-195v983h195l-52 -266h31q89 295 334 295z" />
    <glyph glyph-name="Omacron" unicode="&#x14c;" 
d="M342 1579v164h584v-164h-584zM635 -31q-265 0 -404 191.5t-139 556.5t138.5 556t404.5 191t404.5 -191t138.5 -556t-139 -556.5t-404 -191.5zM635 164q167 0 247.5 136t80.5 417t-80.5 417t-247.5 136t-247.5 -136t-80.5 -417t80.5 -417t247.5 -136z" />
    <glyph glyph-name="omacron" unicode="&#x14d;" 
d="M342 1270v164h584v-164h-584zM635 -29q-224 0 -365 144t-141 377t141 376.5t365 143.5t365 -143.5t141 -376.5t-141 -377t-365 -144zM635 145q136 0 220.5 96t84.5 251t-84 250.5t-221 95.5t-221 -95.5t-84 -250.5t84.5 -251t220.5 -96z" />
    <glyph glyph-name="Obreve" unicode="&#x14e;" 
d="M635 1536q-128 0 -202 54t-105 171h184q0 -39 35.5 -65.5t87.5 -26.5t87.5 26.5t35.5 65.5h184q-31 -117 -105 -171t-202 -54zM635 -31q-265 0 -404 191.5t-139 556.5t138.5 556t404.5 191t404.5 -191t138.5 -556t-139 -556.5t-404 -191.5zM635 164q167 0 247.5 136
t80.5 417t-80.5 417t-247.5 136t-247.5 -136t-80.5 -417t80.5 -417t247.5 -136z" />
    <glyph glyph-name="obreve" unicode="&#x14f;" 
d="M635 1155q-135 0 -221 78t-86 229h184q0 -69 34.5 -106t88.5 -37t88.5 37t34.5 106h184q0 -151 -86 -229t-221 -78zM635 -29q-224 0 -365 144t-141 377t141 376.5t365 143.5t365 -143.5t141 -376.5t-141 -377t-365 -144zM635 145q136 0 220.5 96t84.5 251t-84 250.5
t-221 95.5t-221 -95.5t-84 -250.5t84.5 -251t220.5 -96z" />
    <glyph glyph-name="Ohungarumlaut" unicode="&#x150;" 
d="M344 1546l102 226h277l-225 -226h-154zM713 1546l102 226h277l-226 -226h-153zM635 -31q-265 0 -404 191.5t-139 556.5t138.5 556t404.5 191t404.5 -191t138.5 -556t-139 -556.5t-404 -191.5zM635 164q167 0 247.5 136t80.5 417t-80.5 417t-247.5 136t-247.5 -136
t-80.5 -417t80.5 -417t247.5 -136z" />
    <glyph glyph-name="ohungarumlaut" unicode="&#x151;" 
d="M352 1155l185 307h235l-225 -307h-195zM705 1155l184 307h235l-225 -307h-194zM635 -29q-224 0 -365 144t-141 377t141 376.5t365 143.5t365 -143.5t141 -376.5t-141 -377t-365 -144zM635 145q136 0 220.5 96t84.5 251t-84 250.5t-221 95.5t-221 -95.5t-84 -250.5
t84.5 -251t220.5 -96z" />
    <glyph glyph-name="OE" unicode="&#x152;" 
d="M1161 1239h-364v-424h344v-194h-344v-426h364v-195h-508q-278 0 -420.5 181t-142.5 536q0 352 143 534.5t420 182.5h508v-195zM592 184v1065q-146 -19 -216.5 -149t-70.5 -383t70.5 -383.5t216.5 -149.5z" />
    <glyph glyph-name="oe" unicode="&#x153;" 
d="M418 -29q-178 0 -269.5 132t-89.5 389q3 520 359 520q146 0 237 -129q40 63 100 96t132 33q155 0 234 -116t79 -343v-107h-473q3 -154 41 -227.5t115 -73.5q105 0 129 152h198q-19 -151 -101.5 -238.5t-205.5 -87.5q-165 0 -239 138q-88 -138 -246 -138zM418 145
q81 0 115 78.5t36 268.5q2 186 -33 266t-118 80q-82 0 -117.5 -79.5t-36.5 -266.5q-1 -184 35 -265.5t119 -81.5zM735 598h260q0 123 -31 181.5t-96 58.5q-133 0 -133 -240z" />
    <glyph glyph-name="Racute" unicode="&#x154;" 
d="M899 1772l-205 -226h-174l103 226h276zM717 621l51 -29l395 -592h-260l-409 639h-91v-639h-204v1434h491q229 0 351 -98.5t122 -299.5q0 -187 -119.5 -283t-326.5 -102v-30zM403 1239v-416h312q110 0 174.5 53t64.5 156q0 102 -64.5 154.5t-174.5 52.5h-312z" />
    <glyph glyph-name="racute" unicode="&#x155;" 
d="M563 1155l185 307h235l-225 -307h-195zM276 0v983h195l-57 -283h32q32 153 120 232.5t216 79.5q158 0 237 -95t79 -268v-223h-203v156q0 128 -47 186.5t-146 58.5q-114 0 -172.5 -77.5t-58.5 -227.5v-522h-195z" />
    <glyph glyph-name="uni0156" unicode="&#x156;" 
d="M717 621l51 -29l395 -592h-260l-409 639h-91v-639h-204v1434h491q229 0 351 -98.5t122 -299.5q0 -187 -119.5 -283t-326.5 -102v-30zM403 1239v-416h312q110 0 174.5 53t64.5 156q0 102 -64.5 154.5t-174.5 52.5h-312zM518 -219v149h248v-116q0 -103 -55 -148t-197 -45
v103q143 0 143 57h-139z" />
    <glyph glyph-name="uni0157" unicode="&#x157;" 
d="M276 0v983h195l-57 -283h32q32 153 120 232.5t216 79.5q158 0 237 -95t79 -268v-223h-203v156q0 128 -47 186.5t-146 58.5q-114 0 -172.5 -77.5t-58.5 -227.5v-522h-195zM248 -379v103q143 0 143 57h-139v149h248v-116q0 -103 -55 -148t-197 -45z" />
    <glyph glyph-name="Rcaron" unicode="&#x158;" 
d="M711 1546h-224l-235 226h215l133 -123l131 123h215zM717 621l51 -29l395 -592h-260l-409 639h-91v-639h-204v1434h491q229 0 351 -98.5t122 -299.5q0 -187 -119.5 -283t-326.5 -102v-30zM403 1239v-416h312q110 0 174.5 53t64.5 156q0 102 -64.5 154.5t-174.5 52.5h-312z
" />
    <glyph glyph-name="rcaron" unicode="&#x159;" 
d="M569 1155l-245 307h215l133 -180l131 180h215l-246 -307h-203zM276 0v983h195l-57 -283h32q32 153 120 232.5t216 79.5q158 0 237 -95t79 -268v-223h-203v156q0 128 -47 186.5t-146 58.5q-114 0 -172.5 -77.5t-58.5 -227.5v-522h-195z" />
    <glyph glyph-name="Sacute" unicode="&#x15a;" 
d="M569 1546l103 226h276l-205 -226h-174zM629 -31q-238 0 -374 122t-136 343v39h219v-29q0 -135 78.5 -208.5t220.5 -73.5q130 0 204 61t74 166q0 86 -58 140.5t-189 78.5l-158 29q-184 34 -279.5 134.5t-95.5 256.5q0 195 140 315.5t370 120.5t367 -122.5t137 -333.5v-41
h-219v24q0 137 -76 209t-217 72q-136 0 -210.5 -62.5t-74.5 -165.5q0 -84 58.5 -137.5t189.5 -79.5l158 -30q184 -35 279.5 -137t95.5 -263q0 -195 -135 -311.5t-369 -116.5z" />
    <glyph glyph-name="sacute" unicode="&#x15b;" 
d="M541 1155l184 307h236l-226 -307h-194zM633 -29q-200 0 -314 90t-114 248v15h194v-15q0 -174 242 -174q102 0 159.5 33t57.5 92q0 54 -32 80t-121 45l-195 39q-151 31 -221 97.5t-70 180.5q0 143 113.5 226.5t308.5 83.5q198 0 312 -91t114 -249v-13h-195v13
q0 176 -239 176q-103 0 -161 -33t-58 -92q0 -50 32.5 -76t116.5 -45l191 -39q157 -31 228 -98t71 -184q0 -143 -113.5 -226.5t-306.5 -83.5z" />
    <glyph glyph-name="Scircumflex" unicode="&#x15c;" 
d="M301 1546l236 226h223l235 -226h-215l-131 123l-133 -123h-215zM629 -31q-238 0 -374 122t-136 343v39h219v-29q0 -135 78.5 -208.5t220.5 -73.5q130 0 204 61t74 166q0 86 -58 140.5t-189 78.5l-158 29q-184 34 -279.5 134.5t-95.5 256.5q0 195 140 315.5t370 120.5
t367 -122.5t137 -333.5v-41h-219v24q0 137 -76 209t-217 72q-136 0 -210.5 -62.5t-74.5 -165.5q0 -84 58.5 -137.5t189.5 -79.5l158 -30q184 -35 279.5 -137t95.5 -263q0 -195 -135 -311.5t-369 -116.5z" />
    <glyph glyph-name="scircumflex" unicode="&#x15d;" 
d="M301 1155l246 307h203l245 -307h-215l-131 180l-133 -180h-215zM633 -29q-200 0 -314 90t-114 248v15h194v-15q0 -174 242 -174q102 0 159.5 33t57.5 92q0 54 -32 80t-121 45l-195 39q-151 31 -221 97.5t-70 180.5q0 143 113.5 226.5t308.5 83.5q198 0 312 -91t114 -249
v-13h-195v13q0 176 -239 176q-103 0 -161 -33t-58 -92q0 -50 32.5 -76t116.5 -45l191 -39q157 -31 228 -98t71 -184q0 -143 -113.5 -226.5t-306.5 -83.5z" />
    <glyph glyph-name="Scedilla" unicode="&#x15e;" 
d="M1149 967h-219v24q0 137 -76 209t-217 72q-136 0 -210.5 -62.5t-74.5 -165.5q0 -84 58.5 -137.5t189.5 -79.5l158 -30q184 -35 279.5 -137t95.5 -263q0 -181 -116.5 -295t-322.5 -131l-8 -28q100 -47 100 -146q0 -83 -60.5 -136.5t-154.5 -53.5q-99 0 -169 53t-76 164
h143q13 -96 96 -96q35 0 56.5 19t21.5 50q0 25 -18 43.5t-43 18.5l-43 59l16 55q-206 19 -321 139t-115 322v39h219v-29q0 -135 78.5 -208.5t220.5 -73.5q130 0 204 61t74 166q0 86 -58 140.5t-189 78.5l-158 29q-184 34 -279.5 134.5t-95.5 256.5q0 195 140 315.5
t370 120.5t367 -122.5t137 -333.5v-41z" />
    <glyph glyph-name="scedilla" unicode="&#x15f;" 
d="M1067 659h-195v13q0 176 -239 176q-103 0 -161 -33t-58 -92q0 -50 32.5 -76t116.5 -45l191 -39q157 -31 228 -98t71 -184q0 -132 -96.5 -214t-264.5 -94l-8 -30q100 -47 100 -146q0 -83 -60.5 -136.5t-154.5 -53.5q-99 0 -169 53t-76 164h143q13 -96 96 -96q35 0 56.5 19
t21.5 50q0 25 -18 43.5t-43 18.5l-43 59l16 57q-164 17 -256 105t-92 229v15h194v-15q0 -174 242 -174q102 0 159.5 33t57.5 92q0 54 -32 80t-121 45l-195 39q-151 31 -221 97.5t-70 180.5q0 143 113.5 226.5t308.5 83.5q198 0 312 -91t114 -249v-13z" />
    <glyph glyph-name="Scaron" unicode="&#x160;" 
d="M537 1546l-236 226h215l133 -123l131 123h215l-235 -226h-223zM629 -31q-238 0 -374 122t-136 343v39h219v-29q0 -135 78.5 -208.5t220.5 -73.5q130 0 204 61t74 166q0 86 -58 140.5t-189 78.5l-158 29q-184 34 -279.5 134.5t-95.5 256.5q0 195 140 315.5t370 120.5
t367 -122.5t137 -333.5v-41h-219v24q0 137 -76 209t-217 72q-136 0 -210.5 -62.5t-74.5 -165.5q0 -84 58.5 -137.5t189.5 -79.5l158 -30q184 -35 279.5 -137t95.5 -263q0 -195 -135 -311.5t-369 -116.5z" />
    <glyph glyph-name="scaron" unicode="&#x161;" 
d="M547 1155l-246 307h215l133 -180l131 180h215l-245 -307h-203zM633 -29q-200 0 -314 90t-114 248v15h194v-15q0 -174 242 -174q102 0 159.5 33t57.5 92q0 54 -32 80t-121 45l-195 39q-151 31 -221 97.5t-70 180.5q0 143 113.5 226.5t308.5 83.5q198 0 312 -91t114 -249
v-13h-195v13q0 176 -239 176q-103 0 -161 -33t-58 -92q0 -50 32.5 -76t116.5 -45l191 -39q157 -31 228 -98t71 -184q0 -143 -113.5 -226.5t-306.5 -83.5z" />
    <glyph glyph-name="uni0162" unicode="&#x162;" 
d="M737 0h-30l-15 -57q101 -47 101 -146q0 -83 -60.5 -136.5t-154.5 -53.5q-99 0 -169.5 53t-76.5 164h143q13 -96 96 -96q35 0 56.5 19t21.5 50q0 25 -18 43.5t-43 18.5l-43 59l22 82h-35v1239h-466v195h1138v-195h-467v-1239z" />
    <glyph glyph-name="uni0163" unicode="&#x163;" 
d="M1130 809h-542v-494q0 -81 36 -125.5t101 -44.5q79 0 114 53t35 175v100h195v-102q0 -181 -73.5 -279.5t-209.5 -116.5l-8 -32q101 -47 101 -146q0 -83 -60.5 -136.5t-154.5 -53.5q-99 0 -169.5 53t-76.5 164h143q13 -96 96 -96q35 0 56.5 19t21.5 50q0 25 -18 43.5
t-43 18.5l-43 59l16 59q-254 38 -254 338v494h-287v174h287v186l195 97v-283h542v-174z" />
    <glyph glyph-name="Tcaron" unicode="&#x164;" 
d="M745 1546h-223l-235 226h215l133 -123l131 123h215zM1204 1434v-195h-467v-1239h-205v1239h-466v195h1138z" />
    <glyph glyph-name="tcaron" unicode="&#x165;" 
d="M965 1327q0 -235 -220 -235v112q57 0 78 17.5t21 64.5h-99v176h220v-135zM1130 809h-542v-494q0 -81 36 -125.5t101 -44.5q79 0 114 53t35 175v100h195v-102q0 -200 -89.5 -300t-254.5 -100q-332 0 -332 344v494h-287v174h287v186l195 97v-283h542v-174z" />
    <glyph glyph-name="Tbar" unicode="&#x166;" 
d="M1204 1239h-467v-297h221v-164h-221v-778h-205v778h-223v164h223v297h-466v195h1138v-195z" />
    <glyph glyph-name="tbar" unicode="&#x167;" 
d="M1130 809h-542v-193h139v-133h-139v-168q0 -81 36 -125.5t101 -44.5q79 0 114 53t35 175v100h195v-102q0 -200 -89.5 -300t-254.5 -100q-332 0 -332 344v168h-157v133h157v193h-287v174h287v186l195 97v-283h542v-174z" />
    <glyph glyph-name="Utilde" unicode="&#x168;" 
d="M770 1536q-56 0 -135 39t-135 39q-30 0 -56.5 -19.5t-35.5 -48.5l-140 62q75 174 232 174q56 0 135 -39t135 -39q30 0 56.5 19.5t35.5 48.5l139 -62q-75 -174 -231 -174zM635 -31q-209 0 -340 130t-131 339v996h205v-996q0 -128 71 -201t195 -73q126 0 196 72.5t70 201.5
v996h205v-996q0 -209 -131 -339t-340 -130z" />
    <glyph glyph-name="utilde" unicode="&#x169;" 
d="M770 1217q-56 0 -135 38.5t-135 38.5q-30 0 -56.5 -19t-35.5 -48l-140 61q75 174 232 174q56 0 135 -39t135 -39q30 0 56.5 19.5t35.5 48.5l139 -61q-75 -174 -231 -174zM535 -29q-163 0 -251.5 101.5t-88.5 296.5v614h200v-614q0 -95 56 -154t151 -59q116 0 181 84.5
t65 230.5v512h194v-983h-194l51 266h-31q-35 -135 -116 -215t-217 -80z" />
    <glyph glyph-name="Umacron" unicode="&#x16a;" 
d="M342 1579v164h584v-164h-584zM635 -31q-209 0 -340 130t-131 339v996h205v-996q0 -128 71 -201t195 -73q126 0 196 72.5t70 201.5v996h205v-996q0 -209 -131 -339t-340 -130z" />
    <glyph glyph-name="umacron" unicode="&#x16b;" 
d="M342 1270v164h584v-164h-584zM535 -29q-163 0 -251.5 101.5t-88.5 296.5v614h200v-614q0 -95 56 -154t151 -59q116 0 181 84.5t65 230.5v512h194v-983h-194l51 266h-31q-35 -135 -116 -215t-217 -80z" />
    <glyph glyph-name="Ubreve" unicode="&#x16c;" 
d="M635 1536q-128 0 -202 54t-105 171h184q0 -39 35.5 -65.5t87.5 -26.5t87.5 26.5t35.5 65.5h184q-31 -117 -105 -171t-202 -54zM635 -31q-209 0 -340 130t-131 339v996h205v-996q0 -128 71 -201t195 -73q126 0 196 72.5t70 201.5v996h205v-996q0 -209 -131 -339t-340 -130
z" />
    <glyph glyph-name="ubreve" unicode="&#x16d;" 
d="M635 1155q-135 0 -221 78t-86 229h184q0 -69 34.5 -106t88.5 -37t88.5 37t34.5 106h184q0 -151 -86 -229t-221 -78zM535 -29q-163 0 -251.5 101.5t-88.5 296.5v614h200v-614q0 -95 56 -154t151 -59q116 0 181 84.5t65 230.5v512h194v-983h-194l51 266h-31
q-35 -135 -116 -215t-217 -80z" />
    <glyph glyph-name="Uring" unicode="&#x16e;" 
d="M635 1505q-66 0 -113 45.5t-47 108.5t47 108t113 45q67 0 113.5 -45t46.5 -108t-46.5 -108.5t-113.5 -45.5zM635 1604q26 0 42.5 15.5t16.5 39.5q0 25 -16.5 41t-42.5 16q-25 0 -41 -16t-16 -41q0 -23 16 -39t41 -16zM635 -31q-209 0 -340 130t-131 339v996h205v-996
q0 -128 71 -201t195 -73q126 0 196 72.5t70 201.5v996h205v-996q0 -209 -131 -339t-340 -130z" />
    <glyph glyph-name="uring" unicode="&#x16f;" 
d="M635 1063q-94 0 -159.5 65.5t-65.5 159.5t65.5 159.5t159.5 65.5t159.5 -65.5t65.5 -159.5t-65.5 -159.5t-159.5 -65.5zM635 1186q41 0 68.5 29.5t27.5 72.5q0 44 -27.5 73.5t-68.5 29.5q-40 0 -68 -29.5t-28 -73.5q0 -43 28 -72.5t68 -29.5zM535 -29
q-163 0 -251.5 101.5t-88.5 296.5v614h200v-614q0 -95 56 -154t151 -59q116 0 181 84.5t65 230.5v512h194v-983h-194l51 266h-31q-35 -135 -116 -215t-217 -80z" />
    <glyph glyph-name="Uhungarumlaut" unicode="&#x170;" 
d="M344 1546l102 226h277l-225 -226h-154zM713 1546l102 226h277l-226 -226h-153zM635 -31q-209 0 -340 130t-131 339v996h205v-996q0 -128 71 -201t195 -73q126 0 196 72.5t70 201.5v996h205v-996q0 -209 -131 -339t-340 -130z" />
    <glyph glyph-name="uhungarumlaut" unicode="&#x171;" 
d="M352 1155l185 307h235l-225 -307h-195zM705 1155l184 307h235l-225 -307h-194zM535 -29q-163 0 -251.5 101.5t-88.5 296.5v614h200v-614q0 -95 56 -154t151 -59q116 0 181 84.5t65 230.5v512h194v-983h-194l51 266h-31q-35 -135 -116 -215t-217 -80z" />
    <glyph glyph-name="Uogonek" unicode="&#x172;" 
d="M901 1434h205v-996q0 -185 -105 -310t-278 -153q-88 -34 -88 -104q0 -45 44.5 -72.5t129.5 -27.5v-164q-171 0 -259.5 63t-88.5 160q0 91 71 147q-169 33 -268.5 156t-99.5 305v996h205v-996q0 -128 71 -201t195 -73q126 0 196 72.5t70 201.5v996z" />
    <glyph glyph-name="uogonek" unicode="&#x173;" 
d="M1042 0q-89 -18 -131.5 -48.5t-42.5 -80.5q0 -45 44.5 -72.5t129.5 -27.5v-164q-171 0 -259.5 63t-88.5 160q0 67 41.5 118.5t118.5 80.5l45 237h-31q-35 -135 -116 -215t-217 -80q-163 0 -251.5 101.5t-88.5 296.5v614h200v-614q0 -95 56 -154t151 -59q116 0 181 84.5
t65 230.5v512h194v-983z" />
    <glyph glyph-name="Wcircumflex" unicode="&#x174;" 
d="M283 1546l235 226h223l236 -226h-215l-131 123l-133 -123h-215zM190 0l-135 1434h197l98 -1139l-2 -182h31l6 182l133 688h232l112 -688l4 -182h31v182l119 1139h196l-155 -1434h-287l-121 676l-4 168h-31l-4 -168l-133 -676h-287z" />
    <glyph glyph-name="wcircumflex" unicode="&#x175;" 
d="M287 1155l245 307h203l246 -307h-215l-131 180l-133 -180h-215zM233 0l-155 983h182l105 -782l2 -80h30v80l117 782h244l116 -782v-80h31l2 80l105 782h182l-156 -983h-272l-113 719l-2 127h-30l-3 -127l-112 -719h-273z" />
    <glyph glyph-name="Ycircumflex" unicode="&#x176;" 
d="M637 1669l-133 -123h-215l235 226h224l235 -226h-215zM1223 1434l-486 -893v-541h-205v541l-483 893h240l323 -641l9 -72h30l8 72l324 641h240z" />
    <glyph glyph-name="ycircumflex" unicode="&#x177;" 
d="M633 1335l-133 -180h-215l245 307h203l246 -307h-215zM965 983h219l-455 -1128q-51 -127 -128.5 -187.5t-190.5 -60.5q-150 0 -227 79t-77 228v92h195v-92q0 -69 25.5 -101t83.5 -32q53 0 86 34.5t71 133.5l56 143h-172l-365 891h219l313 -813h33z" />
    <glyph glyph-name="Ydieresis" unicode="&#x178;" 
d="M545 1774v-228h-232v228h232zM958 1774v-228h-231v228h231zM1223 1434l-486 -893v-541h-205v541l-483 893h240l323 -641l9 -72h30l8 72l324 641h240z" />
    <glyph glyph-name="Zacute" unicode="&#x179;" 
d="M555 1546l102 226h277l-205 -226h-174zM141 0v317l826 891v31h-826v195h987v-338l-811 -871v-30h811v-195h-987z" />
    <glyph glyph-name="zacute" unicode="&#x17a;" 
d="M526 1155l185 307h235l-225 -307h-195zM215 0v307l666 471v31h-666v174h840v-307l-668 -471v-31h668v-174h-840z" />
    <glyph glyph-name="Zdotaccent" unicode="&#x17b;" 
d="M518 1544v230h234v-230h-234zM141 0v317l826 891v31h-826v195h987v-338l-811 -871v-30h811v-195h-987z" />
    <glyph glyph-name="zdotaccent" unicode="&#x17c;" 
d="M518 1192v242h234v-242h-234zM215 0v307l666 471v31h-666v174h840v-307l-668 -471v-31h668v-174h-840z" />
    <glyph glyph-name="Zcaron" unicode="&#x17d;" 
d="M522 1546l-235 226h215l133 -123l131 123h215l-236 -226h-223zM141 0v317l826 891v31h-826v195h987v-338l-811 -871v-30h811v-195h-987z" />
    <glyph glyph-name="zcaron" unicode="&#x17e;" 
d="M532 1155l-245 307h215l133 -180l131 180h215l-246 -307h-203zM215 0v307l666 471v31h-666v174h840v-307l-668 -471v-31h668v-174h-840z" />
    <glyph glyph-name="florin" unicode="&#x192;" 
d="M903 1288q-83 0 -127 -42t-59 -140l-35 -229h354v-170h-381l-110 -732q-20 -126 -101 -204t-221 -78q-25 0 -50 3.5t-34.5 6t-38 11.5t-30.5 10v165q68 -30 133 -30q140 0 162 141l108 707h-328v170h355l39 253q23 151 112.5 237.5t255.5 86.5q282 0 324 -262l-184 -2
q-11 51 -44.5 74.5t-99.5 23.5z" />
    <glyph glyph-name="AEacute" unicode="&#x1fc;" 
d="M1055 1772l-205 -226h-174l102 226h277zM1182 1239h-365v-424h344v-194h-344v-426h365v-195h-549v563h-219l-160 -563h-213l420 1434h721v-195zM465 748h168v569h-31l-18 -152z" />
    <glyph glyph-name="aeacute" unicode="&#x1fd;" 
d="M528 1155l185 307h235l-225 -307h-195zM340 -29q-131 0 -207 76.5t-76 212.5q0 131 87 211.5t243 93.5l158 13v57q0 203 -152 203q-77 0 -119.5 -53t-42.5 -150h-194q0 170 96 273.5t254 103.5q180 0 258 -125q38 59 102 92t140 33q321 0 321 -418v-148h-465
q3 -153 39.5 -227t108.5 -74q105 0 129 152h199q-20 -154 -106.5 -240t-221.5 -86q-107 0 -176 56t-92 163q-32 -104 -106.5 -161.5t-176.5 -57.5zM743 598h261q0 126 -30.5 183t-96.5 57q-69 0 -101.5 -58t-32.5 -182zM367 135q79 0 128.5 85t49.5 200l-160 -21
q-61 -9 -94 -46t-33 -93q0 -60 28.5 -92.5t80.5 -32.5z" />
    <glyph glyph-name="Oslashacute" unicode="&#x1fe;" 
d="M934 1772l-205 -226h-174l102 226h277zM1212 1368l-127 -170q93 -184 93 -481q0 -365 -139 -556.5t-404 -191.5q-226 0 -365 142l-98 -131l-115 90l127 168q-92 182 -92 479q0 365 138.5 556t404.5 191q230 0 362 -141l99 131zM307 717q0 -165 27 -279l536 715
q-80 117 -235 117q-167 0 -247.5 -136t-80.5 -417zM963 717q0 170 -29 280l-535 -714q79 -119 236 -119q167 0 247.5 136t80.5 417z" />
    <glyph glyph-name="oslashacute" unicode="&#x1ff;" 
d="M946 1462l-225 -307h-195l185 307h235zM1042 817q99 -135 99 -325q0 -233 -141 -377t-365 -144q-187 0 -316 101l-88 -92l-98 90l94 96q-98 134 -98 326q0 233 141 376.5t365 143.5q186 0 315 -101l88 93l99 -91zM330 492q0 -99 37 -181l452 465q-78 62 -184 62
q-137 0 -221 -95.5t-84 -250.5zM635 145q136 0 220.5 96t84.5 251q0 98 -37 180l-452 -465q78 -62 184 -62z" />
    <glyph glyph-name="uni0218" unicode="&#x218;" 
d="M629 -31q-238 0 -374 122t-136 343v39h219v-29q0 -135 78.5 -208.5t220.5 -73.5q130 0 204 61t74 166q0 86 -58 140.5t-189 78.5l-158 29q-184 34 -279.5 134.5t-95.5 256.5q0 195 140 315.5t370 120.5t367 -122.5t137 -333.5v-41h-219v24q0 137 -76 209t-217 72
q-136 0 -210.5 -62.5t-74.5 -165.5q0 -84 58.5 -137.5t189.5 -79.5l158 -30q184 -35 279.5 -137t95.5 -263q0 -195 -135 -311.5t-369 -116.5zM500 -379v103q143 0 143 57h-139v149h248v-116q0 -103 -55 -148t-197 -45z" />
    <glyph glyph-name="uni0219" unicode="&#x219;" 
d="M633 -29q-200 0 -314 90t-114 248v15h194v-15q0 -174 242 -174q102 0 159.5 33t57.5 92q0 54 -32 80t-121 45l-195 39q-151 31 -221 97.5t-70 180.5q0 143 113.5 226.5t308.5 83.5q198 0 312 -91t114 -249v-13h-195v13q0 176 -239 176q-103 0 -161 -33t-58 -92
q0 -50 32.5 -76t116.5 -45l191 -39q157 -31 228 -98t71 -184q0 -143 -113.5 -226.5t-306.5 -83.5zM498 -379v103q143 0 143 57h-139v149h248v-116q0 -103 -55 -148t-197 -45z" />
    <glyph glyph-name="uni021A" unicode="&#x21a;" 
d="M66 1434h1138v-195h-467v-1239h-205v1239h-466v195zM510 -219v149h248v-116q0 -103 -55 -148t-197 -45v103q143 0 143 57h-139z" />
    <glyph glyph-name="uni021B" unicode="&#x21b;" 
d="M1130 809h-542v-494q0 -81 36 -125.5t101 -44.5q79 0 114 53t35 175v100h195v-102q0 -200 -89.5 -300t-254.5 -100q-332 0 -332 344v494h-287v174h287v186l195 97v-283h542v-174zM596 -219v149h248v-116q0 -103 -55 -148t-197 -45v103q143 0 143 57h-139z" />
    <glyph glyph-name="uni0237" unicode="&#x237;" 
d="M942 983v-973q0 -197 -93.5 -300t-273.5 -103q-181 0 -275.5 100.5t-94.5 294.5v109h198v-109q0 -114 41.5 -167.5t130.5 -53.5q91 0 132 49.5t41 159.5v819h-512v174h706z" />
    <glyph glyph-name="uni02BC" unicode="&#x2bc;" 
d="M473 942v172q85 0 115 28.5t30 108.5h-145v265h283v-236q0 -338 -283 -338z" />
    <glyph glyph-name="circumflex" unicode="&#x2c6;" 
d="M287 1155l245 307h203l246 -307h-215l-131 180l-133 -180h-215z" />
    <glyph glyph-name="caron" unicode="&#x2c7;" 
d="M532 1155l-245 307h215l133 -180l131 180h215l-246 -307h-203z" />
    <glyph glyph-name="breve" unicode="&#x2d8;" 
d="M635 1155q-135 0 -221 78t-86 229h184q0 -69 34.5 -106t88.5 -37t88.5 37t34.5 106h184q0 -151 -86 -229t-221 -78z" />
    <glyph glyph-name="dotaccent" unicode="&#x2d9;" 
d="M518 1192v242h234v-242h-234z" />
    <glyph glyph-name="ring" unicode="&#x2da;" 
d="M635 1063q-94 0 -159.5 65.5t-65.5 159.5t65.5 159.5t159.5 65.5t159.5 -65.5t65.5 -159.5t-65.5 -159.5t-159.5 -65.5zM635 1186q41 0 68.5 29.5t27.5 72.5q0 44 -27.5 73.5t-68.5 29.5q-40 0 -68 -29.5t-28 -73.5q0 -43 28 -72.5t68 -29.5z" />
    <glyph glyph-name="ogonek" unicode="&#x2db;" 
d="M809 -393q-171 0 -259.5 63t-88.5 160q0 95 81 156.5t226 74.5l41 -61q-89 -18 -131.5 -48.5t-42.5 -80.5q0 -45 44.5 -72.5t129.5 -27.5v-164z" />
    <glyph glyph-name="tilde" unicode="&#x2dc;" 
d="M770 1217q-56 0 -135 38.5t-135 38.5q-30 0 -56.5 -19t-35.5 -48l-140 61q75 174 232 174q56 0 135 -39t135 -39q30 0 56.5 19.5t35.5 48.5l139 -61q-75 -174 -231 -174z" />
    <glyph glyph-name="hungarumlaut" unicode="&#x2dd;" 
d="M248 1155l184 307h236l-226 -307h-194zM600 1155l184 307h236l-225 -307h-195z" />
    <glyph glyph-name="gravecomb" unicode="&#x300;" horiz-adv-x="0" 
d="M-729 1155l-225 307h235l184 -307h-194z" />
    <glyph glyph-name="acutecomb" unicode="&#x301;" horiz-adv-x="0" 
d="M-743 1155l184 307h235l-225 -307h-194z" />
    <glyph glyph-name="uni0302" unicode="&#x302;" horiz-adv-x="0" 
d="M-983 1155l246 307h202l246 -307h-215l-131 180l-133 -180h-215z" />
    <glyph glyph-name="tildecomb" unicode="&#x303;" horiz-adv-x="0" 
d="M-500 1217q-56 0 -135 38.5t-135 38.5q-30 0 -56.5 -19t-35.5 -48l-139 61q75 174 231 174q56 0 135 -39t135 -39q30 0 56.5 19.5t35.5 48.5l140 -61q-75 -174 -232 -174z" />
    <glyph glyph-name="uni0304" unicode="&#x304;" horiz-adv-x="0" 
d="M-928 1270v164h584v-164h-584z" />
    <glyph glyph-name="uni0306" unicode="&#x306;" horiz-adv-x="0" 
d="M-635 1155q-135 0 -221 78t-86 229h184q0 -69 34.5 -106t88.5 -37t88.5 37t34.5 106h184q0 -151 -86 -229t-221 -78z" />
    <glyph glyph-name="uni0307" unicode="&#x307;" horiz-adv-x="0" 
d="M-752 1192v242h234v-242h-234z" />
    <glyph glyph-name="uni0308" unicode="&#x308;" horiz-adv-x="0" 
d="M-936 1206v228h229v-228h-229zM-565 1206v228h229v-228h-229z" />
    <glyph glyph-name="uni030A" unicode="&#x30a;" horiz-adv-x="0" 
d="M-635 1063q-94 0 -159.5 65.5t-65.5 159.5t65.5 159.5t159.5 65.5t159.5 -65.5t65.5 -159.5t-65.5 -159.5t-159.5 -65.5zM-635 1186q41 0 68.5 29.5t27.5 72.5q0 44 -27.5 73.5t-68.5 29.5q-40 0 -68 -29.5t-28 -73.5q0 -43 28 -72.5t68 -29.5z" />
    <glyph glyph-name="uni030B" unicode="&#x30b;" horiz-adv-x="0" 
d="M-918 1155l185 307h235l-225 -307h-195zM-565 1155l184 307h236l-226 -307h-194z" />
    <glyph glyph-name="uni030C" unicode="&#x30c;" horiz-adv-x="0" 
d="M-737 1155l-246 307h215l133 -180l131 180h215l-246 -307h-202z" />
    <glyph glyph-name="uni0312" unicode="&#x312;" horiz-adv-x="0" 
d="M-762 1124v117q0 120 66 187t186 67v-102q-57 0 -90 -26.5t-33 -72.5h119v-170h-248z" />
    <glyph glyph-name="uni0326" unicode="&#x326;" horiz-adv-x="0" 
d="M-762 -379v103q144 0 144 57h-140v149h248v-116q0 -103 -55 -148t-197 -45z" />
    <glyph glyph-name="uni0327" unicode="&#x327;" horiz-adv-x="0" 
d="M-915 -393q-99 0 -169.5 53t-76.5 164h143q13 -96 96 -96q35 0 56.5 19t21.5 50q0 25 -18 43.5t-43 18.5l-43 59l41 143h137l-31 -118q101 -47 101 -146q0 -83 -60.5 -136.5t-154.5 -53.5z" />
    <glyph glyph-name="uni0328" unicode="&#x328;" horiz-adv-x="0" 
d="M-799 -393q-171 0 -259.5 63t-88.5 160q0 95 81 156.5t226 74.5l41 -61q-89 -18 -131.5 -48.5t-42.5 -80.5q0 -45 44.5 -72.5t129.5 -27.5v-164z" />
    <glyph glyph-name="uni0394" unicode="&#x394;" 
d="M799 1434l418 -1434h-1162l418 1434h326zM330 195h612l-278 1009l-13 111h-30l-13 -111z" />
    <glyph glyph-name="uni03A9" unicode="&#x3a9;" 
d="M825 225v-30h353v-195h-461v379q120 36 183 152t63 288q0 217 -85 334t-243 117t-243 -117t-85 -334q0 -172 63 -288t183 -152v-379h-461v195h352v30q-153 41 -252.5 209.5t-99.5 384.5q0 302 144 473.5t399 171.5t399 -171.5t144 -473.5q0 -216 -100 -384.5t-253 -209.5
z" />
    <glyph glyph-name="uni03BC" unicode="&#x3bc;" 
d="M848 983h194v-983h-194l51 266h-31q-35 -135 -116 -215t-217 -80q-105 0 -181 43l25 -383h-174v617q-10 62 -10 121v614h200v-614q0 -95 56 -154t151 -59q116 0 181 84.5t65 230.5v512z" />
    <glyph glyph-name="pi" unicode="&#x3c0;" 
d="M1165 819h-235v-514q0 -69 41.5 -109t113.5 -40v-185q-173 0 -261.5 84t-88.5 250v514h-254v-819h-194v819h-195v164h1073v-164z" />
    <glyph glyph-name="uni0E3F" unicode="&#xe3f;" 
d="M856 700q130 -18 205.5 -97.5t75.5 -213.5q0 -177 -122 -283t-327 -106v-123h-143v123h-352v1434h352v143h143v-143q205 0 327 -105t122 -278q0 -138 -75.5 -219t-205.5 -99v-33zM545 1239h-148v-430h148v430zM928 1024q0 206 -240 215v-430q240 9 240 215zM397 195h148
v430h-148v-430zM688 195q240 9 240 215t-240 215v-430z" />
    <glyph glyph-name="Wgrave" unicode="&#x1e80;" 
d="M532 1546l-204 226h276l103 -226h-175zM190 0l-135 1434h197l98 -1139l-2 -182h31l6 182l133 688h232l112 -688l4 -182h31v182l119 1139h196l-155 -1434h-287l-121 676l-4 168h-31l-4 -168l-133 -676h-287z" />
    <glyph glyph-name="wgrave" unicode="&#x1e81;" 
d="M541 1155l-226 307h236l184 -307h-194zM233 0l-155 983h182l105 -782l2 -80h30v80l117 782h244l116 -782v-80h31l2 80l105 782h182l-156 -983h-272l-113 719l-2 127h-30l-3 -127l-112 -719h-273z" />
    <glyph glyph-name="Wacute" unicode="&#x1e82;" 
d="M551 1546l102 226h277l-205 -226h-174zM190 0l-135 1434h197l98 -1139l-2 -182h31l6 182l133 688h232l112 -688l4 -182h31v182l119 1139h196l-155 -1434h-287l-121 676l-4 168h-31l-4 -168l-133 -676h-287z" />
    <glyph glyph-name="wacute" unicode="&#x1e83;" 
d="M526 1155l185 307h235l-225 -307h-195zM233 0l-155 983h182l105 -782l2 -80h30v80l117 782h244l116 -782v-80h31l2 80l105 782h182l-156 -983h-272l-113 719l-2 127h-30l-3 -127l-112 -719h-273z" />
    <glyph glyph-name="Wdieresis" unicode="&#x1e84;" 
d="M307 1546v228h232v-228h-232zM721 1546v228h231v-228h-231zM190 0l-135 1434h197l98 -1139l-2 -182h31l6 182l133 688h232l112 -688l4 -182h31v182l119 1139h196l-155 -1434h-287l-121 676l-4 168h-31l-4 -168l-133 -676h-287z" />
    <glyph glyph-name="wdieresis" unicode="&#x1e85;" 
d="M334 1206v228h229v-228h-229zM705 1206v228h229v-228h-229zM233 0l-155 983h182l105 -782l2 -80h30v80l117 782h244l116 -782v-80h31l2 80l105 782h182l-156 -983h-272l-113 719l-2 127h-30l-3 -127l-112 -719h-273z" />
    <glyph glyph-name="Ygrave" unicode="&#x1ef2;" 
d="M713 1546h-174l-205 226h276zM1223 1434l-486 -893v-541h-205v541l-483 893h240l323 -641l9 -72h30l8 72l324 641h240z" />
    <glyph glyph-name="ygrave" unicode="&#x1ef3;" 
d="M733 1155h-194l-226 307h236zM965 983h219l-455 -1128q-51 -127 -128.5 -187.5t-190.5 -60.5q-150 0 -227 79t-77 228v92h195v-92q0 -69 25.5 -101t83.5 -32q53 0 86 34.5t71 133.5l56 143h-172l-365 891h219l313 -813h33z" />
    <glyph glyph-name="endash" unicode="&#x2013;" 
d="M1180 686v-174h-1090v174h1090z" />
    <glyph glyph-name="emdash" unicode="&#x2014;" horiz-adv-x="2539" 
d="M0 512v174h2540v-174h-2540z" />
    <glyph glyph-name="quoteleft" unicode="&#x2018;" 
d="M776 1487v-172q-85 0 -115 -28.5t-30 -108.5h145v-265h-282v236q0 170 70 254t212 84z" />
    <glyph glyph-name="quoteright" unicode="&#x2019;" 
d="M494 909v172q84 0 114.5 29t30.5 109h-145v264h282v-236q0 -170 -70 -254t-212 -84z" />
    <glyph glyph-name="quotesinglbase" unicode="&#x201a;" 
d="M494 -309v172q85 0 115 28.5t30 108.5h-145v264h282v-235q0 -170 -70 -254t-212 -84z" />
    <glyph glyph-name="quotedblleft" unicode="&#x201c;" 
d="M586 1487v-172q-85 0 -115.5 -28.5t-30.5 -108.5h146v-265h-283v236q0 338 283 338zM967 1487v-172q-85 0 -115.5 -28.5t-30.5 -108.5h146v-265h-283v236q0 338 283 338z" />
    <glyph glyph-name="quotedblright" unicode="&#x201d;" 
d="M303 909v172q85 0 115.5 29t30.5 109h-146v264h283v-236q0 -338 -283 -338zM684 909v172q84 0 114.5 29t30.5 109h-145v264h283v-236q0 -338 -283 -338z" />
    <glyph glyph-name="quotedblbase" unicode="&#x201e;" 
d="M303 -309v172q85 0 115.5 28.5t30.5 108.5h-146v264h283v-235q0 -338 -283 -338zM684 -309v172q85 0 115 28.5t30 108.5h-145v264h283v-235q0 -338 -283 -338z" />
    <glyph glyph-name="dagger" unicode="&#x2020;" 
d="M1112 1024v-174h-385v-1075h-184v1075h-385v174h385v451h184v-451h385z" />
    <glyph glyph-name="daggerdbl" unicode="&#x2021;" 
d="M1112 850h-385v-451h385v-174h-385v-450h-184v450h-385v174h385v451h-385v174h385v451h184v-451h385v-174z" />
    <glyph glyph-name="bullet" unicode="&#x2022;" 
d="M442 416v385h385v-385h-385z" />
    <glyph glyph-name="ellipsis" unicode="&#x2026;" 
d="M111 0v240h245v-240h-245zM512 0v240h246v-240h-246zM913 0v240h246v-240h-246z" />
    <glyph glyph-name="perthousand" unicode="&#x2030;" 
d="M360 883q-123 0 -204.5 81t-81.5 203q0 123 82 205t204 82q120 0 202.5 -82t82.5 -205q0 -121 -81.5 -202.5t-203.5 -81.5zM360 1016q63 0 103.5 42t40.5 109q0 66 -40.5 109t-103.5 43q-62 0 -102.5 -43t-40.5 -109q0 -67 40.5 -109t102.5 -42zM61 492v129l1024 485
v-129zM520 -23q-123 0 -205 81.5t-82 203.5q0 123 82.5 205t204.5 82q131 0 215 -94q81 94 215 94q120 0 202.5 -82.5t82.5 -204.5t-81.5 -203.5t-203.5 -81.5q-133 0 -215 95q-85 -95 -215 -95zM520 111q63 0 103.5 42t40.5 109q0 66 -40.5 109t-103.5 43q-62 0 -102.5 -43
t-40.5 -109q0 -67 40.5 -109t102.5 -42zM950 111q63 0 103.5 42t40.5 109q0 66 -40.5 109t-103.5 43q-62 0 -102.5 -43t-40.5 -109q0 -67 40.5 -109t102.5 -42z" />
    <glyph glyph-name="guilsinglleft" unicode="&#x2039;" 
d="M631 111v102q0 106 -62 168.5t-166 62.5h-14v205h14q104 0 166 63t62 169v102h186v-102q0 -149 -72.5 -230.5t-212.5 -89.5v-31q140 -11 212.5 -91t72.5 -226v-102h-186z" />
    <glyph glyph-name="guilsinglright" unicode="&#x203a;" 
d="M639 111h-186v102q0 146 72 226t212 91v31q-139 7 -211.5 89t-72.5 231v102h186v-102q0 -106 61.5 -169t165.5 -63h15v-205h-15q-104 0 -165.5 -62.5t-61.5 -168.5v-102z" />
    <glyph glyph-name="fraction" unicode="&#x2044;" 
d="M90 -20l957 1474h133l-957 -1474h-133z" />
    <glyph glyph-name="uni20A9" unicode="&#x20a9;" 
d="M1212 1434l-96 -881h96v-113h-108l-47 -440h-287l-78 440h-129l-86 -440h-287l-40 440h-95v113h84l-84 881h197l76 -881h106l84 430h232l69 -430h105l92 881h196zM586 553h86l-23 123l-4 168h-31l-4 -168zM385 295l29 145h-76l12 -145l-2 -182h31zM897 295l14 145h-73
l24 -145l4 -182h31v182z" />
    <glyph glyph-name="Euro" unicode="&#x20ac;" 
d="M838 156q166 0 260 114l88 -170q-147 -129 -338 -129q-229 0 -383.5 129t-210.5 361h-141v164h116q-4 62 -4 92q0 55 2 82h-114v164h137q54 236 207.5 367.5t380.5 131.5q206 0 356 -108l-86 -170q-97 94 -281 94q-134 0 -229.5 -82.5t-136.5 -232.5h563l-82 -164h-510
q-2 -27 -2 -82q0 -34 4 -92h426l-82 -164h-313q46 -144 143 -224.5t230 -80.5z" />
    <glyph glyph-name="uni20AE" unicode="&#x20ae;" 
d="M1204 1239h-467v-197l307 101v-170l-307 -101v-127l307 101v-170l-307 -101v-575h-205v508l-299 -98v170l299 98v127l-299 -98v170l299 98v264h-466v195h1138v-195z" />
    <glyph glyph-name="uni20B4" unicode="&#x20b4;" 
d="M936 799q-58 -42 -170 -101l-102 -53h499v-164h-735q-35 -46 -35 -106q0 -100 68 -160.5t178 -60.5t180 65t70 168v29h205v-29q0 -189 -122 -298t-333 -109q-198 0 -326.5 111.5t-128.5 283.5q0 59 17 106h-95v164h226q62 49 188 115l74 39h-488v164h738q30 40 30 102
q0 93 -66.5 154t-168.5 61q-260 0 -260 -233v-29h-205v29q0 193 122.5 300t342.5 107q190 0 317 -111.5t127 -277.5q0 -55 -12 -102h92v-164h-227z" />
    <glyph glyph-name="uni20B8" unicode="&#x20b8;" 
d="M86 1260v174h1098v-174h-1098zM532 0v971h-446v174h1098v-174h-447v-971h-205z" />
    <glyph glyph-name="uni20B9" unicode="&#x20b9;" 
d="M1106 1270h-174q50 -68 65 -162h109v-164h-113q-28 -134 -139.5 -220.5t-294.5 -86.5h-143v-10l30 -19l558 -608h-261l-550 627v184h366q104 0 166.5 58.5t62.5 158.5q0 94 -66.5 152.5t-172.5 58.5h-356v195h913v-164z" />
    <glyph glyph-name="uni20BA" unicode="&#x20ba;" 
d="M913 709h205q0 -148 -39.5 -276t-115 -225t-194.5 -152.5t-269 -55.5h-224v580l-141 -48v170l141 48v127l-141 -48v170l141 48v387h205v-322l465 154v-170l-465 -154v-127l465 154v-170l-465 -154v-450h19q199 0 306 141.5t107 372.5z" />
    <glyph glyph-name="uni20BD" unicode="&#x20bd;" 
d="M745 600h-305v-94h568v-164h-568v-342h-204v342h-142v164h142v125h-142v164h142v639h509q205 0 330 -111.5t125 -304.5t-125 -305.5t-330 -112.5zM745 1239h-305v-444h305q116 0 181 60.5t65 162.5q0 101 -64.5 161t-181.5 60z" />
    <glyph glyph-name="uni20BF" unicode="&#x20bf;" 
d="M856 700q130 -18 205.5 -97.5t75.5 -213.5q0 -155 -95.5 -257.5t-261.5 -125.5v-129h-133v123h-112v-123h-134v123h-208v1434h208v143h134v-143h112v143h133v-150q166 -23 261.5 -123.5t95.5 -252.5q0 -138 -75.5 -219t-205.5 -99v-33zM666 1239h-269v-430h269
q262 0 262 215t-262 215zM666 195q262 0 262 215t-262 215h-269v-430h269z" />
    <glyph glyph-name="uni2105" unicode="&#x2105;" 
d="M346 758q-126 0 -197 97t-71 251q0 153 71.5 250.5t196.5 97.5q102 0 167 -62t85 -182h-160q-12 101 -92 101q-57 0 -86 -55.5t-29 -149.5t29 -149.5t86 -55.5q31 0 52 30.5t24 69.5h160q-20 -108 -86 -175.5t-150 -67.5zM90 -20l957 1474h133l-957 -1474h-133zM938 -20
q-126 0 -197 97t-71 251q0 153 72.5 250.5t195.5 97.5q125 0 196.5 -97.5t71.5 -250.5q0 -154 -71 -251t-197 -97zM938 123q57 0 86 55.5t29 149.5t-29 149t-86 55t-86 -55t-29 -149t29 -149.5t86 -55.5z" />
    <glyph glyph-name="uni2113" unicode="&#x2113;" 
d="M694 135q55 0 80 53t25 172h174q0 -90 -13 -157.5t-43.5 -121.5t-86 -82t-136.5 -28q-74 0 -126.5 21.5t-80 60t-39.5 82t-12 96.5v349q-90 -19 -180 -19v164q101 0 180 20v433q0 76 23 133t63 89t86 47t99 15q130 0 200 -89.5t70 -219.5q0 -157 -98.5 -298t-268.5 -220
v-397q0 -103 84 -103zM610 1190v-375q92 59 142.5 143t50.5 181q0 78 -26.5 118.5t-74.5 40.5q-44 0 -68 -27.5t-24 -80.5z" />
    <glyph glyph-name="uni2116" unicode="&#x2116;" 
d="M61 0v1434h248l111 -1082l4 -229h27v1311h143v-1434h-248l-113 1083l-2 220h-26v-1303h-144zM926 256q-125 0 -201 95.5t-76 252.5t76 252.5t201 95.5q124 0 200 -95.5t76 -252.5t-76 -252.5t-200 -95.5zM926 410q52 0 82 51.5t30 142.5t-30 143t-82 52q-53 0 -83 -52
t-30 -143t30 -142.5t83 -51.5zM649 0v164h553v-164h-553z" />
    <glyph glyph-name="uni2117" unicode="&#x2117;" 
d="M635 -29q-267 0 -415 196.5t-148 549.5t148 549t415 196t415 -196t148 -549t-148 -549.5t-415 -196.5zM635 94q206 0 318 162.5t112 460.5t-112 460t-318 162t-318 -162t-112 -460t112 -460.5t318 -162.5zM412 319v795h245q125 0 199 -61.5t74 -165.5
q0 -114 -67.5 -183.5t-205.5 -72.5l-112 -2v-310h-133zM545 754h108q131 0 131 120q0 52 -34 82.5t-93 30.5h-112v-233z" />
    <glyph glyph-name="trademark" unicode="&#x2122;" 
d="M231 797v530h-180v107h484v-107h-181v-530h-123zM584 797v637h192l90 -349l90 349h191v-637h-115v551l-98 -369h-135l-101 369v-551h-114z" />
    <glyph glyph-name="uni2126" unicode="&#x2126;" 
d="M825 225v-30h353v-195h-461v379q120 36 183 152t63 288q0 217 -85 334t-243 117t-243 -117t-85 -334q0 -172 63 -288t183 -152v-379h-461v195h352v30q-153 41 -252.5 209.5t-99.5 384.5q0 302 144 473.5t399 171.5t399 -171.5t144 -473.5q0 -216 -100 -384.5t-253 -209.5
z" />
    <glyph glyph-name="estimated" unicode="&#x212e;" 
d="M1155 682h-688v-532q91 -66 213 -66q104 0 191 69.5t122 186.5l109 -39q-52 -152 -167.5 -241t-254.5 -89q-182 0 -310.5 96t-190.5 262t-62 388t57 387.5t176 261.5t289 96t288 -97t174.5 -271t53.5 -412zM805 1309q-71 41 -166 41q-98 0 -172 -50v-516h338v525z" />
    <glyph glyph-name="uni2153" unicode="&#x2153;" 
d="M90 -20l957 1474h133l-957 -1474h-133zM92 1139v123h58q91 0 127 40.5t36 131.5h189v-656h-131v514h-31q-15 -78 -60 -115.5t-130 -37.5h-58zM948 -14q-112 0 -179 63.5t-67 169.5h127q0 -54 32.5 -86.5t86.5 -32.5q41 0 68.5 23.5t27.5 58.5q0 88 -114 88h-23v121h23
q55 0 84.5 22.5t29.5 63.5q0 35 -27.5 58.5t-68.5 23.5q-119 0 -119 -119h-127q0 109 66 171.5t180 62.5q100 0 164 -53t64 -136q0 -50 -34 -89.5t-89 -49.5v-31q55 -11 89 -49.5t34 -91.5q0 -83 -64 -135.5t-164 -52.5z" />
    <glyph glyph-name="uni2154" unicode="&#x2154;" 
d="M90 -20l957 1474h133l-957 -1474h-133zM113 778v207l198 111q56 32 77.5 63.5t21.5 81.5q0 41 -27.5 67.5t-71.5 26.5q-49 0 -79.5 -30t-30.5 -78h-127q0 101 65.5 162t171.5 61q100 0 164 -58.5t64 -150.5q0 -141 -177 -237l-141 -76v-27h318v-123h-426zM948 -14
q-112 0 -179 63.5t-67 169.5h127q0 -54 32.5 -86.5t86.5 -32.5q41 0 68.5 23.5t27.5 58.5q0 88 -114 88h-23v121h23q55 0 84.5 22.5t29.5 63.5q0 35 -27.5 58.5t-68.5 23.5q-119 0 -119 -119h-127q0 109 66 171.5t180 62.5q100 0 164 -53t64 -136q0 -50 -34 -89.5t-89 -49.5
v-31q55 -11 89 -49.5t34 -91.5q0 -83 -64 -135.5t-164 -52.5z" />
    <glyph glyph-name="oneeighth" unicode="&#x215b;" 
d="M90 -20l957 1474h133l-957 -1474h-133zM92 1139v123h58q91 0 127 40.5t36 131.5h189v-656h-131v514h-31q-15 -78 -60 -115.5t-130 -37.5h-58zM963 -16q-103 0 -170.5 54t-67.5 136q0 46 29 86.5t80 58.5v29q-50 13 -79.5 51.5t-29.5 83.5q0 80 68.5 134.5t169.5 54.5
t168 -54.5t67 -134.5q0 -45 -29 -83.5t-79 -51.5v-29q51 -18 79.5 -58.5t28.5 -86.5q0 -82 -67 -136t-168 -54zM963 389q46 0 75 23.5t29 60.5t-29 60.5t-75 23.5q-47 0 -77 -23.5t-30 -60.5t30.5 -60.5t76.5 -23.5zM963 98q45 0 74.5 24.5t29.5 61.5q0 40 -29 64t-75 24
q-48 0 -77.5 -24t-29.5 -64q0 -37 30 -61.5t77 -24.5z" />
    <glyph glyph-name="threeeighths" unicode="&#x215c;" 
d="M90 -20l957 1474h133l-957 -1474h-133zM340 762q-112 0 -179 63.5t-67 169.5h127q0 -54 32.5 -86t86.5 -32q41 0 68.5 23t27.5 58q0 43 -29.5 66t-84.5 23h-23v120h23q55 0 84.5 22.5t29.5 63.5q0 35 -27.5 58.5t-68.5 23.5q-119 0 -119 -118h-127q0 109 66 171t180 62
q100 0 163.5 -52.5t63.5 -135.5q0 -50 -34 -90t-89 -50v-30q55 -11 89 -50t34 -92q0 -83 -63.5 -135.5t-163.5 -52.5zM963 -16q-103 0 -170.5 54t-67.5 136q0 46 29 86.5t80 58.5v29q-50 13 -79.5 51.5t-29.5 83.5q0 80 68.5 134.5t169.5 54.5t168 -54.5t67 -134.5
q0 -45 -29 -83.5t-79 -51.5v-29q51 -18 79.5 -58.5t28.5 -86.5q0 -82 -67 -136t-168 -54zM963 389q46 0 75 23.5t29 60.5t-29 60.5t-75 23.5q-47 0 -77 -23.5t-30 -60.5t30.5 -60.5t76.5 -23.5zM963 98q45 0 74.5 24.5t29.5 61.5q0 40 -29 64t-75 24q-48 0 -77.5 -24
t-29.5 -64q0 -37 30 -61.5t77 -24.5z" />
    <glyph glyph-name="fiveeighths" unicode="&#x215d;" 
d="M90 -20l957 1474h133l-957 -1474h-133zM340 762q-96 0 -162.5 56t-66.5 136h129q0 -32 29 -54.5t69 -22.5q44 0 73 29t29 73q0 41 -26.5 67.5t-71.5 26.5q-62 0 -86 -43h-129v404h444v-123h-325v-174h28q44 51 117 51q77 0 128.5 -58.5t51.5 -146.5q0 -98 -65.5 -159.5
t-165.5 -61.5zM963 -16q-103 0 -170.5 54t-67.5 136q0 46 29 86.5t80 58.5v29q-50 13 -79.5 51.5t-29.5 83.5q0 80 68.5 134.5t169.5 54.5t168 -54.5t67 -134.5q0 -45 -29 -83.5t-79 -51.5v-29q51 -18 79.5 -58.5t28.5 -86.5q0 -82 -67 -136t-168 -54zM963 389q46 0 75 23.5
t29 60.5t-29 60.5t-75 23.5q-47 0 -77 -23.5t-30 -60.5t30.5 -60.5t76.5 -23.5zM963 98q45 0 74.5 24.5t29.5 61.5q0 40 -29 64t-75 24q-48 0 -77.5 -24t-29.5 -64q0 -37 30 -61.5t77 -24.5z" />
    <glyph glyph-name="seveneighths" unicode="&#x215e;" 
d="M90 -20l957 1474h133l-957 -1474h-133zM197 778l307 504v29h-352v123h464v-189l-280 -467h-139zM963 -16q-103 0 -170.5 54t-67.5 136q0 46 29 86.5t80 58.5v29q-50 13 -79.5 51.5t-29.5 83.5q0 80 68.5 134.5t169.5 54.5t168 -54.5t67 -134.5q0 -45 -29 -83.5t-79 -51.5
v-29q51 -18 79.5 -58.5t28.5 -86.5q0 -82 -67 -136t-168 -54zM963 389q46 0 75 23.5t29 60.5t-29 60.5t-75 23.5q-47 0 -77 -23.5t-30 -60.5t30.5 -60.5t76.5 -23.5zM963 98q45 0 74.5 24.5t29.5 61.5q0 40 -29 64t-75 24q-48 0 -77.5 -24t-29.5 -64q0 -37 30 -61.5
t77 -24.5z" />
    <glyph glyph-name="arrowleft" unicode="&#x2190;" 
d="M365 399q-35 90 -106.5 160t-156.5 98v68q85 28 156.5 98t106.5 160h67v-225h735v-133h-735v-226h-67z" />
    <glyph glyph-name="arrowup" unicode="&#x2191;" 
d="M567 -61v1247h-225v67q90 35 160 106.5t98 156.5h68q28 -85 98 -156.5t160 -106.5v-67h-226v-1247h-133z" />
    <glyph glyph-name="arrowright" unicode="&#x2192;" 
d="M838 399v226h-736v133h736v225h67q35 -91 106 -160.5t156 -97.5v-68q-85 -28 -156 -97.5t-106 -160.5h-67z" />
    <glyph glyph-name="arrowdown" unicode="&#x2193;" 
d="M567 1516h133v-1248h226v-67q-91 -35 -160.5 -106t-97.5 -156h-68q-28 85 -97.5 156t-160.5 106v67h225v1248z" />
    <glyph glyph-name="arrowboth" unicode="&#x2194;" 
d="M944 983q35 -91 106 -160.5t156 -97.5v-68q-85 -28 -156 -97.5t-106 -160.5h-67v226h-484v-226h-67q-35 90 -106.5 160t-156.5 98v68q85 28 156.5 98t106.5 160h67v-225h484v225h67z" />
    <glyph glyph-name="arrowupdn" unicode="&#x2195;" 
d="M600 -41q-28 85 -97.5 156t-160.5 106v68h225v856h-225v67q90 35 160 106.5t98 156.5h68q28 -85 98 -156.5t160 -106.5v-67h-226v-856h226v-68q-91 -35 -160.5 -106t-97.5 -156h-68z" />
    <glyph glyph-name="uni2196" unicode="&#x2196;" 
d="M1055 430l-725 721l-158 -160l-49 47q40 90 39 189.5t-41 179.5l47 47q80 -40 179.5 -41t189.5 39l47 -49l-160 -160l725 -719z" />
    <glyph glyph-name="uni2197" unicode="&#x2197;" 
d="M215 414l-94 94l725 719l-160 159l47 50q90 -40 189.5 -39t179.5 41l47 -47q-40 -80 -41 -179.5t39 -189.5l-49 -47l-158 160z" />
    <glyph glyph-name="uni2198" unicode="&#x2198;" 
d="M215 1001l725 -720l158 159l49 -47q-40 -90 -39 -189t41 -179l-47 -48q-80 40 -179.5 41t-189.5 -38l-47 49l160 159l-725 719z" />
    <glyph glyph-name="uni2199" unicode="&#x2199;" 
d="M1055 1004l94 -95l-725 -719l160 -159l-47 -49q-90 40 -189.5 39t-179.5 -41l-47 47q40 80 41 179t-39 189l49 47l158 -159z" />
    <glyph glyph-name="uni21A9" unicode="&#x21a9;" 
d="M344 387q-35 91 -106 160.5t-156 97.5v68q85 28 156 97.5t106 160.5h68v-226l290 -2q138 -2 217.5 69t79.5 200q0 131 -79 199.5t-218 68.5h-112v133h115q204 0 324 -104t120 -297q0 -191 -120.5 -297.5t-323.5 -104.5l-293 2v-225h-68z" />
    <glyph glyph-name="uni21AA" unicode="&#x21aa;" 
d="M858 387v225l-293 -2q-203 -2 -323.5 104.5t-120.5 297.5q0 193 120 297t324 104h115v-133h-113q-139 0 -218 -68.5t-79 -199.5q0 -129 79.5 -200t217.5 -69l291 2v226h68q35 -91 106 -160.5t156 -97.5v-68q-85 -28 -156 -97.5t-106 -160.5h-68z" />
    <glyph glyph-name="uni21B0" unicode="&#x21b0;" 
d="M410 1249h655v-1249h-133v1116h-522v-225h-68q-35 91 -106 160.5t-156 97.5v68q85 28 156 97.5t106 160.5h68v-226z" />
    <glyph glyph-name="uni21B1" unicode="&#x21b1;" 
d="M928 1475q35 -91 106 -160.5t156 -97.5v-68q-85 -28 -156 -97.5t-106 -160.5h-68v225h-522v-1116h-133v1249h655v226h68z" />
    <glyph glyph-name="uni21B2" unicode="&#x21b2;" 
d="M932 1434h133v-1250h-655v-225h-68q-35 91 -106 160.5t-156 97.5v68q85 28 156 97.5t106 160.5h68v-226h522v1117z" />
    <glyph glyph-name="uni21B3" unicode="&#x21b3;" 
d="M928 543q35 -91 106 -160.5t156 -97.5v-68q-85 -28 -156 -97.5t-106 -160.5h-68v225h-655v1250h133v-1117h522v226h68z" />
    <glyph glyph-name="uni21B4" unicode="&#x21b4;" 
d="M938 289h225v-68q-91 -35 -160.5 -106t-97.5 -156h-67q-28 85 -97.5 156t-160.5 106v68h225v1011h-676v134h809v-1145z" />
    <glyph glyph-name="uni21C5" unicode="&#x21c5;" 
d="M815 0v1145h-225v67q90 35 160 106.5t98 156.5h67q28 -85 98 -156.5t161 -106.5v-67h-226v-1145h-133zM354 -41q-28 85 -97.5 156t-160.5 106v68h226v1145h133v-1145h225v-68q-91 -35 -160.5 -106t-97.5 -156h-68z" />
    <glyph glyph-name="uni21C6" unicode="&#x21c6;" 
d="M313 633q-35 91 -106 160.5t-156 97.5v67q85 28 156 98t106 161h68v-226h735v-133h-735v-225h-68zM889 162v225h-735v133h735v225h67q35 -90 106.5 -160t156.5 -98v-67q-85 -28 -156.5 -98t-106.5 -160h-67z" />
    <glyph glyph-name="partialdiff" unicode="&#x2202;" 
d="M588 -29q-204 0 -327.5 123t-123.5 326q0 234 123.5 368t339.5 134q100 0 184 -54.5t127 -146.5h31q-3 264 -94 415.5t-248 151.5q-100 0 -172.5 -57t-87.5 -146h-203q22 170 149 273.5t314 103.5q257 0 399 -196t142 -551q0 -343 -149 -543.5t-404 -200.5zM598 145
q145 0 241.5 127t96.5 316q-44 75 -118.5 117.5t-160.5 42.5q-142 0 -228.5 -90t-86.5 -238q0 -118 73 -196.5t183 -78.5z" />
    <glyph glyph-name="emptyset" unicode="&#x2205;" 
d="M1212 1389l-129 -172q115 -189 115 -500q0 -353 -148 -549.5t-415 -196.5q-230 0 -377 150l-106 -141l-95 69l127 170q-112 186 -112 498q0 353 148 549t415 196q232 0 375 -149l106 141zM205 717q0 -235 67 -381l658 870q-109 133 -295 133q-206 0 -318 -162t-112 -460z
M1065 717q0 231 -70 383l-657 -873q114 -133 297 -133q206 0 318 162.5t112 460.5z" />
    <glyph glyph-name="uni2206" unicode="&#x2206;" 
d="M799 1434l418 -1434h-1162l418 1434h326zM330 195h612l-278 1009l-13 111h-30l-13 -111z" />
    <glyph glyph-name="product" unicode="&#x220f;" 
d="M1106 1434v-1434h-195v1249h-553v-1249h-194v1434h942z" />
    <glyph glyph-name="summation" unicode="&#x2211;" 
d="M217 0v297l451 405v31l-451 404v297h905v-185h-731v-30l537 -502l-537 -502v-31h731v-184h-905z" />
    <glyph glyph-name="minus" unicode="&#x2212;" 
d="M115 512v184h1038v-184h-1038z" />
    <glyph glyph-name="radical" unicode="&#x221a;" 
d="M432 0l-319 1085h198l264 -931h11l432 1624h393v-174h-242l-438 -1604h-299z" />
    <glyph glyph-name="infinity" unicode="&#x221e;" 
d="M895 954q129 0 214 -99.5t85 -248.5t-85 -248.5t-214 -99.5q-138 0 -260 174q-122 -174 -260 -174q-129 0 -214 99.5t-85 248.5t85 248.5t214 99.5q138 0 260 -174q122 174 260 174zM375 432q21 0 41.5 11.5t34.5 25t32 42t26.5 45t25.5 50.5q-17 34 -25.5 50.5t-26.5 45
t-32 42t-34.5 25t-41.5 11.5q-56 0 -91.5 -49t-35.5 -125t35.5 -125t91.5 -49zM895 432q56 0 91.5 49t35.5 125t-35.5 125t-91.5 49q-21 0 -41.5 -11.5t-34.5 -25t-32 -42t-26.5 -45t-25.5 -50.5q17 -34 25.5 -50.5t26.5 -45t32 -42t34.5 -25t41.5 -11.5z" />
    <glyph glyph-name="integral" unicode="&#x222b;" 
d="M319 -393q-71 0 -145 16v166q55 -16 119 -16q67 0 107 37.5t53 123.5l186 1217q46 303 311 303q72 0 146 -16v-166q-55 16 -119 16q-67 0 -107 -38t-53 -124l-186 -1216q-46 -303 -312 -303z" />
    <glyph glyph-name="approxequal" unicode="&#x2248;" 
d="M178 709l-82 168q119 104 310 104q73 0 144.5 -18t118.5 -39.5t105.5 -39.5t108.5 -18q65 0 122.5 25.5t84.5 56.5l81 -168q-119 -104 -309 -104q-56 0 -116.5 18t-106.5 39.5t-114.5 39.5t-139.5 18q-65 0 -122.5 -25.5t-84.5 -56.5zM178 266l-82 168q120 105 310 105
q73 0 144.5 -18t118.5 -39.5t105.5 -39.5t108.5 -18q65 0 122.5 25.5t84.5 56.5l81 -168q-120 -105 -309 -105q-56 0 -116.5 18t-106.5 39.5t-114.5 39.5t-139.5 18q-65 0 -122.5 -25.5t-84.5 -56.5z" />
    <glyph glyph-name="notequal" unicode="&#x2260;" 
d="M1153 737h-295l-221 -266h516v-184h-672l-213 -256l-129 100l131 156h-155v184h309l221 266h-530v185h686l213 256l129 -101l-131 -155h141v-185z" />
    <glyph glyph-name="lessequal" unicode="&#x2264;" 
d="M1165 485v-209l-1044 379v306l1044 380v-208l-929 -324zM131 154h1038v-185h-1038v185z" />
    <glyph glyph-name="greaterequal" unicode="&#x2265;" 
d="M117 1341l1044 -380v-306l-1044 -379v209l930 324l-930 324v208zM115 0v184h1038v-184h-1038z" />
    <glyph glyph-name="uni2460" unicode="&#x2460;" 
d="M635 -29q-267 0 -415 196.5t-148 549.5t148 549t415 196t415 -196t148 -549t-148 -549.5t-415 -196.5zM635 94q206 0 318 162.5t112 460.5t-112 460t-318 162t-318 -162t-112 -460t112 -460.5t318 -162.5zM616 307v629h-30q-20 -102 -72 -148.5t-143 -46.5h-54v160h54
q103 0 150.5 53.5t47.5 171.5h195v-819h-148z" />
    <glyph glyph-name="uni2461" unicode="&#x2461;" 
d="M635 -29q-267 0 -415 196.5t-148 549.5t148 549t415 196t415 -196t148 -549t-148 -549.5t-415 -196.5zM635 94q206 0 318 162.5t112 460.5t-112 460t-318 162t-318 -162t-112 -460t112 -460.5t318 -162.5zM367 307v215l292 187q72 45 103 87.5t31 94.5v2q0 59 -38 93
t-102 34q-70 0 -113.5 -44.5t-43.5 -115.5h-150q0 129 83.5 210t221.5 81q133 0 212 -70.5t79 -185.5v-2q0 -89 -46 -156t-157 -135l-211 -131v-33h414v-131h-575z" />
    <glyph glyph-name="uni2462" unicode="&#x2462;" 
d="M635 -29q-267 0 -415 196.5t-148 549.5t148 549t415 196t415 -196t148 -549t-148 -549.5t-415 -196.5zM635 94q206 0 318 162.5t112 460.5t-112 460t-318 162t-318 -162t-112 -460t112 -460.5t318 -162.5zM647 283q-133 0 -217 73.5t-84 206.5h143q0 -71 45.5 -112
t112.5 -41t106.5 34.5t39.5 85.5v2q0 58 -38 89.5t-104 31.5h-57v129h57q65 0 103.5 31t38.5 86v2q0 53 -39.5 88t-106.5 35t-112.5 -41.5t-45.5 -112.5h-143q0 133 84 207t217 74t213 -67.5t80 -172.5v-2q0 -66 -42 -116t-116 -60v-33q74 -12 116 -61t42 -115v-2
q0 -105 -80 -172t-213 -67z" />
    <glyph glyph-name="uni2463" unicode="&#x2463;" 
d="M635 -29q-267 0 -415 196.5t-148 549.5t148 549t415 196t415 -196t148 -549t-148 -549.5t-415 -196.5zM635 94q206 0 318 162.5t112 460.5t-112 460t-318 162t-318 -162t-112 -460t112 -460.5t318 -162.5zM678 307v283h-377v192l320 344h204v-409h150v-127h-150v-283
h-147zM424 717h254v284h-31l-223 -251v-33z" />
    <glyph glyph-name="uni2464" unicode="&#x2464;" 
d="M635 -29q-267 0 -415 196.5t-148 549.5t148 549t415 196t415 -196t148 -549t-148 -549.5t-415 -196.5zM635 94q206 0 318 162.5t112 460.5t-112 460t-318 162t-318 -162t-112 -460t112 -460.5t318 -162.5zM625 283q-126 0 -207.5 69t-87.5 183h143q4 -56 47 -90.5
t107 -34.5q69 0 109 41t40 110v2q0 70 -39.5 111t-107.5 41q-41 0 -74.5 -21.5t-48.5 -58.5h-152v491h564v-135h-435v-256h31q63 92 174 92q101 0 169.5 -75t68.5 -187v-2q0 -121 -85 -200.5t-216 -79.5z" />
    <glyph glyph-name="uni2465" unicode="&#x2465;" 
d="M635 -29q-267 0 -415 196.5t-148 549.5t148 549t415 196t415 -196t148 -549t-148 -549.5t-415 -196.5zM635 94q206 0 318 162.5t112 460.5t-112 460t-318 162t-318 -162t-112 -460t112 -460.5t318 -162.5zM625 283q-145 0 -226.5 99.5t-81.5 289.5v2q0 477 336 477
q118 0 192 -66.5t89 -175.5h-141q-22 115 -140 115q-93 0 -141.5 -75.5t-48.5 -225.5h33q67 102 180 102q111 0 184.5 -74t73.5 -190v-2q0 -121 -86 -198.5t-223 -77.5zM631 403q68 0 110.5 42.5t42.5 107.5v2q0 67 -42.5 109.5t-110.5 42.5q-69 0 -112.5 -43t-43.5 -109v-2
q0 -66 44 -108t112 -42z" />
    <glyph glyph-name="uni2466" unicode="&#x2466;" 
d="M635 -29q-267 0 -415 196.5t-148 549.5t148 549t415 196t415 -196t148 -549t-148 -549.5t-415 -196.5zM635 94q206 0 318 162.5t112 460.5t-112 460t-318 162t-318 -162t-112 -460t112 -460.5t318 -162.5zM434 307l361 651v33h-437v135h568v-202l-328 -617h-164z" />
    <glyph glyph-name="uni2467" unicode="&#x2467;" 
d="M635 -29q-267 0 -415 196.5t-148 549.5t148 549t415 196t415 -196t148 -549t-148 -549.5t-415 -196.5zM635 94q206 0 318 162.5t112 460.5t-112 460t-318 162t-318 -162t-112 -460t112 -460.5t318 -162.5zM637 283q-136 0 -218.5 63.5t-82.5 163.5v2q0 69 41 122.5
t112 65.5v33q-70 10 -111.5 64t-41.5 121v2q0 104 82 167.5t219 63.5t218 -63.5t81 -167.5v-2q0 -67 -41.5 -121t-112.5 -64v-33q72 -12 113 -65.5t41 -122.5v-2q0 -100 -81.5 -163.5t-217.5 -63.5zM637 778q69 0 111.5 35t42.5 92v2q0 57 -41 92t-113 35t-114 -35t-42 -92
v-2q0 -57 43.5 -92t112.5 -35zM637 399q71 0 112.5 35t41.5 88v2q0 62 -42 97.5t-112 35.5t-113 -35.5t-43 -97.5v-2q0 -53 42.5 -88t113.5 -35z" />
    <glyph glyph-name="uni2468" unicode="&#x2468;" 
d="M635 -29q-267 0 -415 196.5t-148 549.5t148 549t415 196t415 -196t148 -549t-148 -549.5t-415 -196.5zM635 94q206 0 318 162.5t112 460.5t-112 460t-318 162t-318 -162t-112 -460t112 -460.5t318 -162.5zM621 283q-118 0 -192 66t-89 175h141q22 -114 140 -114
q93 0 141.5 75.5t48.5 225.5h-33q-68 -103 -180 -103q-111 0 -184.5 74t-73.5 190v2q0 121 86 199t223 78q145 0 226 -99.5t81 -289.5v-2q0 -477 -335 -477zM643 727q69 0 112.5 43t43.5 109v2q0 66 -44 107.5t-112 41.5t-111 -42t-43 -107v-2q0 -67 42.5 -109.5
t111.5 -42.5z" />
    <glyph glyph-name="lozenge" unicode="&#x25ca;" 
d="M487 0l-352 717l352 717h293l353 -717l-353 -717h-293zM618 127h31l266 590l-266 590h-31l-270 -590z" />
    <glyph glyph-name="circle" unicode="&#x25cb;" 
d="M635 -29q-267 0 -415 196.5t-148 549.5t148 549t415 196t415 -196t148 -549t-148 -549.5t-415 -196.5zM635 94q206 0 318 162.5t112 460.5t-112 460t-318 162t-318 -162t-112 -460t112 -460.5t318 -162.5z" />
    <glyph glyph-name="uni25CF" unicode="&#x25cf;" 
d="M635 -20q267 0 415 194t148 543t-148 543t-415 194t-415 -194t-148 -543t148 -543t415 -194z" />
    <glyph glyph-name="uni2776" unicode="&#x2776;" 
d="M635 -20q267 0 415 194t148 543t-148 543t-415 194t-415 -194t-148 -543t148 -543t415 -194zM616 307v629h-30q-20 -102 -72 -148.5t-143 -46.5h-54v160h54q103 0 150.5 53.5t47.5 171.5h195v-819h-148z" />
    <glyph glyph-name="uni2777" unicode="&#x2777;" 
d="M635 -20q267 0 415 194t148 543t-148 543t-415 194t-415 -194t-148 -543t148 -543t415 -194zM367 307v215l292 187q72 45 103 87.5t31 94.5v2q0 59 -38 93t-102 34q-70 0 -113.5 -44.5t-43.5 -115.5h-150q0 129 83.5 210t221.5 81q133 0 212 -70.5t79 -185.5v-2
q0 -89 -46 -156t-157 -135l-211 -131v-33h414v-131h-575z" />
    <glyph glyph-name="uni2778" unicode="&#x2778;" 
d="M635 -20q267 0 415 194t148 543t-148 543t-415 194t-415 -194t-148 -543t148 -543t415 -194zM647 283q-133 0 -217 73.5t-84 206.5h143q0 -71 45.5 -112t112.5 -41t106.5 34.5t39.5 85.5v2q0 58 -38 89.5t-104 31.5h-57v129h57q65 0 103.5 31t38.5 86v2q0 53 -39.5 88
t-106.5 35t-112.5 -41.5t-45.5 -112.5h-143q0 133 84 207t217 74t213 -67.5t80 -172.5v-2q0 -66 -42 -116t-116 -60v-33q74 -12 116 -61t42 -115v-2q0 -105 -80 -172t-213 -67z" />
    <glyph glyph-name="uni2779" unicode="&#x2779;" 
d="M635 -20q267 0 415 194t148 543t-148 543t-415 194t-415 -194t-148 -543t148 -543t415 -194zM678 307v283h-377v192l320 344h204v-409h150v-127h-150v-283h-147zM424 717h254v284h-31l-223 -251v-33z" />
    <glyph glyph-name="uni277A" unicode="&#x277a;" 
d="M635 -20q267 0 415 194t148 543t-148 543t-415 194t-415 -194t-148 -543t148 -543t415 -194zM625 283q-126 0 -207.5 69t-87.5 183h143q4 -56 47 -90.5t107 -34.5q69 0 109 41t40 110v2q0 70 -39.5 111t-107.5 41q-41 0 -74.5 -21.5t-48.5 -58.5h-152v491h564v-135h-435
v-256h31q63 92 174 92q101 0 169.5 -75t68.5 -187v-2q0 -121 -85 -200.5t-216 -79.5z" />
    <glyph glyph-name="uni277B" unicode="&#x277b;" 
d="M635 -20q267 0 415 194t148 543t-148 543t-415 194t-415 -194t-148 -543t148 -543t415 -194zM631 283q-145 0 -226 99.5t-81 289.5v2q0 477 335 477q118 0 192 -66.5t89 -175.5h-141q-22 115 -140 115q-93 0 -141.5 -75.5t-48.5 -225.5h33q67 102 180 102
q111 0 184.5 -74t73.5 -190v-2q0 -121 -86 -198.5t-223 -77.5zM637 403q68 0 111 42.5t43 107.5v2q0 67 -42.5 109.5t-111.5 42.5t-112.5 -43t-43.5 -109v-2q0 -66 44 -108t112 -42z" />
    <glyph glyph-name="uni277C" unicode="&#x277c;" 
d="M635 -20q267 0 415 194t148 543t-148 543t-415 194t-415 -194t-148 -543t148 -543t415 -194zM455 307l360 651v33h-436v135h567v-202l-328 -617h-163z" />
    <glyph glyph-name="uni277D" unicode="&#x277d;" 
d="M635 -20q267 0 415 194t148 543t-148 543t-415 194t-415 -194t-148 -543t148 -543t415 -194zM637 283q-136 0 -218.5 63.5t-82.5 163.5v2q0 69 41 122.5t112 65.5v33q-70 10 -111.5 64t-41.5 121v2q0 104 82 167.5t219 63.5t218 -63.5t81 -167.5v-2q0 -67 -41.5 -121
t-112.5 -64v-33q72 -12 113 -65.5t41 -122.5v-2q0 -100 -81.5 -163.5t-217.5 -63.5zM637 778q69 0 111.5 35t42.5 92v2q0 57 -41 92t-113 35t-114 -35t-42 -92v-2q0 -57 43.5 -92t112.5 -35zM637 399q71 0 112.5 35t41.5 88v2q0 62 -42 97.5t-112 35.5t-113 -35.5t-43 -97.5
v-2q0 -53 42.5 -88t113.5 -35z" />
    <glyph glyph-name="uni277E" unicode="&#x277e;" 
d="M635 -20q267 0 415 194t148 543t-148 543t-415 194t-415 -194t-148 -543t148 -543t415 -194zM621 283q-118 0 -192 66t-89 175h141q22 -114 140 -114q93 0 141.5 75.5t48.5 225.5h-33q-68 -103 -180 -103q-111 0 -184.5 74t-73.5 190v2q0 121 86 199t223 78
q145 0 226 -99.5t81 -289.5v-2q0 -477 -335 -477zM643 727q69 0 112.5 43t43.5 109v2q0 66 -44 107.5t-112 41.5t-111 -42t-43 -107v-2q0 -67 42.5 -109.5t111.5 -42.5z" />
    <glyph glyph-name="uni27F3" unicode="&#x27f3;" 
d="M563 -20q-241 0 -351 187.5t-110 549.5t110 549.5t351 187.5t351 -186t110 -545h227v-68q-91 -35 -160.5 -106t-97.5 -156h-67q-28 85 -97.5 156t-160.5 106v68h223q0 120 -10 212.5t-33.5 168.5t-61 125t-93.5 75.5t-130 26.5q-92 0 -156 -40t-101.5 -121.5t-53.5 -191
t-16 -261.5t16 -262t53.5 -191.5t101.5 -121.5t156 -40q173 0 258 177l103 -66q-57 -114 -149 -173.5t-212 -59.5z" />
    <glyph glyph-name="uni2B10" unicode="&#x2b10;" 
d="M1141 1300h-676v-1011h225v-68q-91 -35 -160.5 -106t-97.5 -156h-67q-28 85 -98 156t-161 106v68h226v1145h809v-134z" />
    <glyph glyph-name="uniF8FF" unicode="&#xf8ff;" 
d="M330 819q-132 0 -224 85t-92 233q0 155 105 246.5t287 91.5q137 0 229 -56t113 -170h-220q-12 27 -44.5 41.5t-75.5 14.5q-82 0 -126 -46t-44 -126q0 -73 36 -117.5t103 -44.5q45 0 77 19t40 48h-103v152h318v-354h-160l67 168h-43q-22 -46 -40.5 -74t-46.5 -56.5
t-66.5 -41.5t-89.5 -13zM743 1247h72v53l186 103v-156h236v-141h-236v-217q0 -29 27 -29q14 0 22.5 8t8.5 21v145h178v-149q0 -83 -59.5 -131.5t-159.5 -48.5q-96 0 -149.5 47t-53.5 133v221h-72v141zM567 598h-297v-86h289v-150h-289v-225h-194v619h491v-158zM618 137v619
h187v-619h-187zM1243 389v-55h-219q1 -51 8.5 -69.5t24.5 -18.5q28 0 28 49h160q0 -164 -182 -164q-104 0 -150.5 58t-46.5 186q0 130 47 189t150 59q97 0 138.5 -54t41.5 -180zM1024 434h68q0 46 -6.5 62t-24.5 16q-19 0 -26.5 -15.5t-10.5 -62.5zM909 96q324 0 324 -239
v-228h-217l59 160h-41q-39 -100 -98 -140t-139 -40q-86 0 -133.5 36.5t-47.5 102.5q0 63 49.5 98.5t159.5 42.5l160 11q-16 57 -84 57q-58 0 -80 -43h-241q48 182 329 182zM596 82l-123 -225l123 -228h-209l-37 99l-2 45h-39l-2 -45l-37 -99h-209l123 228l-123 225h209
l37 -102l2 -50h39l2 50l37 102h209zM883 -276q42 0 70.5 30.5t33.5 71.5l-115 -19q-45 -8 -45 -40q0 -20 15 -31.5t41 -11.5z" />
    <glyph glyph-name="u1F503" unicode="&#x1f503;" 
d="M942 393q-28 85 -97.5 156t-160.5 106v68h223q0 306 -64.5 457t-221.5 151q-175 0 -259 -176l-102 66q57 114 149 173.5t212 59.5q220 0 319.5 -186t99.5 -545h228v-68q-91 -35 -160.5 -106t-97.5 -156h-68zM649 -20q-220 0 -320 186t-100 545h-227v67q91 35 160.5 106
t97.5 156h68q28 -85 97.5 -156t160.5 -106v-67h-224q0 -151 14.5 -259.5t47 -189t88.5 -120.5t137 -40q173 0 258 177l103 -66q-57 -114 -149 -173.5t-212 -59.5z" />
    <glyph glyph-name="uni00A40301" 
d="M858 1546l103 226h276l-205 -226h-174zM573 -31q-226 0 -345 137t-119 398v231h204v-231q0 -340 260 -340q131 0 197 92t66 242v936h204v-936q0 -250 -122.5 -389.5t-344.5 -139.5z" />
    <glyph glyph-name="uni006A0301" 
d="M1155 1462l-225 -307h-195l185 307h235zM236 983h706v-973q0 -197 -93.5 -300t-273.5 -103q-181 0 -275.5 100.5t-94.5 294.5v109h198v-109q0 -114 41.5 -167.5t130.5 -53.5q91 0 132 49.5t41 159.5v819h-512v174z" />
    <glyph glyph-name="zero.zero" 
d="M635 1462q252 0 382 -188.5t130 -556.5q0 -369 -130 -557.5t-382 -188.5t-382 188.5t-130 557.5q0 368 130 556.5t382 188.5zM635 1278q-303 0 -303 -561q0 -169 28 -293l467 764q-75 90 -192 90zM635 156q303 0 303 561q0 173 -31 297l-467 -766q74 -92 195 -92z" />
    <glyph glyph-name="Adieresis.ss05" 
d="M428 1534q-55 0 -91 35t-36 90q0 56 36 91.5t91 35.5q52 0 87.5 -35.5t35.5 -91.5q0 -55 -35.5 -90t-87.5 -35zM842 1534q-55 0 -91 35t-36 90q0 56 36 91.5t91 35.5q52 0 87.5 -35.5t35.5 -91.5q0 -55 -35.5 -90t-87.5 -35zM995 0l-137 502h-442l-140 -502h-221
l418 1434h326l418 -1434h-222zM469 696h334l-139 508l-13 111h-30l-13 -111z" />
    <glyph glyph-name="Cdotaccent.ss05" 
d="M664 1534q-55 0 -91 35t-36 90q0 56 36 91.5t91 35.5q52 0 87 -35.5t35 -91.5q0 -55 -35 -90t-87 -35zM659 -31q-536 0 -536 748q0 747 557 747q229 0 362.5 -146.5t131.5 -395.5h-209q0 163 -76 255.5t-209 92.5q-180 0 -261 -131.5t-81 -421.5t76 -421.5t245 -131.5
q134 0 208.5 92t74.5 256h209q1 -243 -135.5 -393t-356.5 -150z" />
    <glyph glyph-name="Edieresis.ss05" 
d="M459 1534q-55 0 -91 35t-36 90q0 56 36 91.5t91 35.5q52 0 87.5 -35.5t35.5 -91.5q0 -55 -35.5 -90t-87.5 -35zM872 1534q-55 0 -91 35t-36 90q0 56 36 91.5t91 35.5q52 0 87.5 -35.5t35.5 -91.5q0 -55 -35.5 -90t-87.5 -35zM1081 1239h-651v-424h631v-194h-631v-426h651
v-195h-856v1434h856v-195z" />
    <glyph glyph-name="Edotaccent.ss05" 
d="M668 1534q-55 0 -91 35t-36 90q0 56 36 91.5t91 35.5q52 0 87.5 -35.5t35.5 -91.5q0 -55 -35.5 -90t-87.5 -35zM1081 1239h-651v-424h631v-194h-631v-426h651v-195h-856v1434h856v-195z" />
    <glyph glyph-name="uni0122.ss05" 
d="M580 -31q-230 0 -356 193t-126 555q0 747 574 747q221 0 358 -148t135 -384h-209q0 158 -75.5 248t-208.5 90q-188 0 -273.5 -131.5t-85.5 -421.5q0 -287 77 -420t241 -133q129 0 204.5 99t88.5 286h-338v192h532v-741h-205l54 313h-31q-68 -344 -356 -344zM537 -379v96
q47 0 65 9t21 34q-41 2 -67.5 26t-25.5 60q2 37 31.5 62.5t79.5 25.5q55 0 84 -30t29 -101q0 -75 -56.5 -128.5t-160.5 -53.5z" />
    <glyph glyph-name="Gdotaccent.ss05" 
d="M684 1534q-55 0 -91 35t-36 90q0 56 36 91.5t91 35.5q52 0 87.5 -35.5t35.5 -91.5q0 -55 -35.5 -90t-87.5 -35zM580 -31q-230 0 -356 193t-126 555q0 747 574 747q221 0 358 -148t135 -384h-209q0 158 -75.5 248t-208.5 90q-188 0 -273.5 -131.5t-85.5 -421.5
q0 -287 77 -420t241 -133q129 0 204.5 99t88.5 286h-338v192h532v-741h-205l54 313h-31q-68 -344 -356 -344z" />
    <glyph glyph-name="Idieresis.ss05" 
d="M428 1534q-55 0 -91 35t-36 90q0 56 36 91.5t91 35.5q52 0 87.5 -35.5t35.5 -91.5q0 -55 -35.5 -90t-87.5 -35zM842 1534q-55 0 -91 35t-36 90q0 56 36 91.5t91 35.5q52 0 87.5 -35.5t35.5 -91.5q0 -55 -35.5 -90t-87.5 -35zM168 0v184h364v1065h-364v185h934v-185h-365
v-1065h365v-184h-934z" />
    <glyph glyph-name="Idotaccent.ss05" 
d="M637 1534q-55 0 -91 35t-36 90q0 56 36 91.5t91 35.5q52 0 87.5 -35.5t35.5 -91.5q0 -55 -35.5 -90t-87.5 -35zM168 0v184h364v1065h-364v185h934v-185h-365v-1065h365v-184h-934z" />
    <glyph glyph-name="uni0136.ss05" 
d="M1219 1434l-453 -656l442 -778h-243l-336 614l-219 -313v-301h-205v1434h205v-715l-48 -119h31l594 834h232zM653 -66q55 0 84 -30t29 -101q0 -75 -56.5 -128.5t-160.5 -53.5v96q47 0 65 9t21 34q-40 2 -66.5 26t-25.5 60q2 37 31 62.5t79 25.5z" />
    <glyph glyph-name="Lcaron.ss05" 
d="M961 1284q-41 2 -67.5 26t-25.5 60q2 37 31.5 62.5t79.5 25.5q55 0 84 -30t29 -101q0 -75 -57 -128.5t-161 -53.5v96q47 0 65.5 9t21.5 34zM496 195h692v-195h-897v1434h205v-1239z" />
    <glyph glyph-name="uni013B.ss05" 
d="M496 195h692v-195h-897v1434h205v-1239zM739 -66q55 0 84 -30t29 -101q0 -75 -56.5 -128.5t-160.5 -53.5v96q47 0 65 9t21 34q-40 2 -66.5 26t-25.5 60q2 37 31 62.5t79 25.5z" />
    <glyph glyph-name="Ldot.ss05" 
d="M496 195h692v-195h-897v1434h205v-1239zM834 702q-63 0 -106.5 43t-43.5 107q0 63 43.5 105t106.5 42q64 0 106.5 -42t42.5 -105t-42.5 -106.5t-106.5 -43.5z" />
    <glyph glyph-name="uni0145.ss05" 
d="M901 1434h205v-1434h-330l-344 1026l-33 205h-30v-1231h-205v1434h330l344 -1026l32 -205h31v1231zM633 -66q55 0 83.5 -30t28.5 -101q0 -75 -56.5 -128.5t-160.5 -53.5v96q47 0 65 9t21 34q-40 2 -66.5 26t-25.5 60q2 37 31.5 62.5t79.5 25.5z" />
    <glyph glyph-name="Odieresis.ss05" 
d="M428 1534q-55 0 -91 35t-36 90q0 56 36 91.5t91 35.5q52 0 87.5 -35.5t35.5 -91.5q0 -55 -35.5 -90t-87.5 -35zM842 1534q-55 0 -91 35t-36 90q0 56 36 91.5t91 35.5q52 0 87.5 -35.5t35.5 -91.5q0 -55 -35.5 -90t-87.5 -35zM635 -31q-265 0 -404 191.5t-139 556.5
t138.5 556t404.5 191t404.5 -191t138.5 -556t-139 -556.5t-404 -191.5zM635 164q167 0 247.5 136t80.5 417t-80.5 417t-247.5 136t-247.5 -136t-80.5 -417t80.5 -417t247.5 -136z" />
    <glyph glyph-name="uni0156.ss05" 
d="M717 621l51 -29l395 -592h-260l-409 639h-91v-639h-204v1434h491q229 0 351 -98.5t122 -299.5q0 -187 -119.5 -283t-326.5 -102v-30zM403 1239v-416h312q110 0 174.5 53t64.5 156q0 102 -64.5 154.5t-174.5 52.5h-312zM641 -66q55 0 84 -30t29 -101q0 -75 -56.5 -128.5
t-160.5 -53.5v96q47 0 65 9t21 34q-41 2 -67.5 26t-25.5 60q2 37 31.5 62.5t79.5 25.5z" />
    <glyph glyph-name="uni0218.ss05" 
d="M629 -31q-238 0 -374 122t-136 343v39h219v-29q0 -135 78.5 -208.5t220.5 -73.5q130 0 204 61t74 166q0 86 -58 140.5t-189 78.5l-158 29q-184 34 -279.5 134.5t-95.5 256.5q0 195 140 315.5t370 120.5t367 -122.5t137 -333.5v-41h-219v24q0 137 -76 209t-217 72
q-136 0 -210.5 -62.5t-74.5 -165.5q0 -84 58.5 -137.5t189.5 -79.5l158 -30q184 -35 279.5 -137t95.5 -263q0 -195 -135 -311.5t-369 -116.5zM522 -379v96q47 0 65 9t21 34q-40 2 -66.5 26t-25.5 60q2 37 31.5 62.5t79.5 25.5q55 0 83.5 -30t28.5 -101q0 -75 -56.5 -128.5
t-160.5 -53.5z" />
    <glyph glyph-name="uni021A.ss05" 
d="M66 1434h1138v-195h-467v-1239h-205v1239h-466v195zM633 -66q55 0 83.5 -30t28.5 -101q0 -75 -56.5 -128.5t-160.5 -53.5v96q47 0 65 9t21 34q-40 2 -66.5 26t-25.5 60q2 37 31.5 62.5t79.5 25.5z" />
    <glyph glyph-name="Udieresis.ss05" 
d="M428 1534q-55 0 -91 35t-36 90q0 56 36 91.5t91 35.5q52 0 87.5 -35.5t35.5 -91.5q0 -55 -35.5 -90t-87.5 -35zM842 1534q-55 0 -91 35t-36 90q0 56 36 91.5t91 35.5q52 0 87.5 -35.5t35.5 -91.5q0 -55 -35.5 -90t-87.5 -35zM635 -31q-209 0 -340 130t-131 339v996h205
v-996q0 -128 71 -201t195 -73q126 0 196 72.5t70 201.5v996h205v-996q0 -209 -131 -339t-340 -130z" />
    <glyph glyph-name="Wdieresis.ss05" 
d="M424 1534q-55 0 -91 35t-36 90q0 56 36 91.5t91 35.5q52 0 87.5 -35.5t35.5 -91.5q0 -55 -35.5 -90t-87.5 -35zM838 1534q-55 0 -91 35t-36 90q0 56 36 91.5t91 35.5q52 0 87.5 -35.5t35.5 -91.5q0 -55 -35.5 -90t-87.5 -35zM190 0l-135 1434h197l98 -1139l-2 -182h31
l6 182l133 688h232l112 -688l4 -182h31v182l119 1139h196l-155 -1434h-287l-121 676l-4 168h-31l-4 -168l-133 -676h-287z" />
    <glyph glyph-name="Ydieresis.ss05" 
d="M430 1534q-55 0 -91 35t-36 90q0 56 36 91.5t91 35.5q52 0 87.5 -35.5t35.5 -91.5q0 -55 -35.5 -90t-87.5 -35zM844 1534q-55 0 -91 35t-36 90q0 56 36 91.5t91 35.5q52 0 87.5 -35.5t35.5 -91.5q0 -55 -35.5 -90t-87.5 -35zM1223 1434l-486 -893v-541h-205v541l-483 893
h240l323 -641l9 -72h30l8 72l324 641h240z" />
    <glyph glyph-name="Zdotaccent.ss05" 
d="M637 1534q-55 0 -91 35t-36 90q0 56 36 91.5t91 35.5q52 0 87.5 -35.5t35.5 -91.5q0 -55 -35.5 -90t-87.5 -35zM141 0v317l826 891v31h-826v195h987v-338l-811 -871v-30h811v-195h-987z" />
    <glyph glyph-name="i.loclTRK" 
d="M819 1434v-242h-233v242h233zM801 174h407v-174h-1024v174h422v635h-430v174h625v-809z" />
    <glyph glyph-name="a.ss01" 
d="M561 -29q-200 0 -323 140t-123 381t123 380.5t323 139.5q135 0 227.5 -75t133.5 -220h30l-51 266h195v-983h-195l51 266h-30q-41 -145 -133.5 -220t-227.5 -75zM610 145q136 0 215.5 92.5t79.5 254.5t-79.5 254t-215.5 92t-215.5 -92t-79.5 -254t79.5 -254.5t215.5 -92.5
z" />
    <glyph glyph-name="aacute.ss01" 
d="M563 1155l185 307h235l-225 -307h-195zM561 -29q-200 0 -323 140t-123 381t123 380.5t323 139.5q135 0 227.5 -75t133.5 -220h30l-51 266h195v-983h-195l51 266h-30q-41 -145 -133.5 -220t-227.5 -75zM610 145q136 0 215.5 92.5t79.5 254.5t-79.5 254t-215.5 92
t-215.5 -92t-79.5 -254t79.5 -254.5t215.5 -92.5z" />
    <glyph glyph-name="abreve.ss01" 
d="M672 1155q-135 0 -221 78t-86 229h184q0 -69 34.5 -106t88.5 -37t88.5 37t34.5 106h184q0 -151 -86 -229t-221 -78zM561 -29q-200 0 -323 140t-123 381t123 380.5t323 139.5q135 0 227.5 -75t133.5 -220h30l-51 266h195v-983h-195l51 266h-30q-41 -145 -133.5 -220
t-227.5 -75zM610 145q136 0 215.5 92.5t79.5 254.5t-79.5 254t-215.5 92t-215.5 -92t-79.5 -254t79.5 -254.5t215.5 -92.5z" />
    <glyph glyph-name="acircumflex.ss01" 
d="M324 1155l245 307h203l246 -307h-215l-131 180l-133 -180h-215zM561 -29q-200 0 -323 140t-123 381t123 380.5t323 139.5q135 0 227.5 -75t133.5 -220h30l-51 266h195v-983h-195l51 266h-30q-41 -145 -133.5 -220t-227.5 -75zM610 145q136 0 215.5 92.5t79.5 254.5
t-79.5 254t-215.5 92t-215.5 -92t-79.5 -254t79.5 -254.5t215.5 -92.5z" />
    <glyph glyph-name="adieresis.ss01" 
d="M371 1206v228h229v-228h-229zM741 1206v228h230v-228h-230zM561 -29q-200 0 -323 140t-123 381t123 380.5t323 139.5q135 0 227.5 -75t133.5 -220h30l-51 266h195v-983h-195l51 266h-30q-41 -145 -133.5 -220t-227.5 -75zM610 145q136 0 215.5 92.5t79.5 254.5t-79.5 254
t-215.5 92t-215.5 -92t-79.5 -254t79.5 -254.5t215.5 -92.5z" />
    <glyph glyph-name="agrave.ss01" 
d="M578 1155l-226 307h236l184 -307h-194zM561 -29q-200 0 -323 140t-123 381t123 380.5t323 139.5q135 0 227.5 -75t133.5 -220h30l-51 266h195v-983h-195l51 266h-30q-41 -145 -133.5 -220t-227.5 -75zM610 145q136 0 215.5 92.5t79.5 254.5t-79.5 254t-215.5 92
t-215.5 -92t-79.5 -254t79.5 -254.5t215.5 -92.5z" />
    <glyph glyph-name="amacron.ss01" 
d="M379 1270v164h584v-164h-584zM561 -29q-200 0 -323 140t-123 381t123 380.5t323 139.5q135 0 227.5 -75t133.5 -220h30l-51 266h195v-983h-195l51 266h-30q-41 -145 -133.5 -220t-227.5 -75zM610 145q136 0 215.5 92.5t79.5 254.5t-79.5 254t-215.5 92t-215.5 -92
t-79.5 -254t79.5 -254.5t215.5 -92.5z" />
    <glyph glyph-name="aogonek.ss01" 
d="M901 983h195v-983h-23q-89 -18 -131.5 -48.5t-42.5 -80.5q0 -45 44.5 -72.5t129.5 -27.5v-164q-171 0 -259.5 63t-88.5 160q0 72 47 125.5t135 81.5l45 229h-30q-41 -145 -133.5 -220t-227.5 -75q-200 0 -323 140t-123 381t123 380.5t323 139.5q135 0 227.5 -75
t133.5 -220h30zM610 145q136 0 215.5 92.5t79.5 254.5t-79.5 254t-215.5 92t-215.5 -92t-79.5 -254t79.5 -254.5t215.5 -92.5z" />
    <glyph glyph-name="aring.ss01" 
d="M672 1063q-94 0 -160 65.5t-66 159.5t66 159.5t160 65.5t159.5 -65.5t65.5 -159.5t-65.5 -159.5t-159.5 -65.5zM672 1186q41 0 68.5 29.5t27.5 72.5q0 44 -27.5 73.5t-68.5 29.5q-40 0 -68.5 -29.5t-28.5 -73.5q0 -43 28.5 -72.5t68.5 -29.5zM561 -29q-200 0 -323 140
t-123 381t123 380.5t323 139.5q135 0 227.5 -75t133.5 -220h30l-51 266h195v-983h-195l51 266h-30q-41 -145 -133.5 -220t-227.5 -75zM610 145q136 0 215.5 92.5t79.5 254.5t-79.5 254t-215.5 92t-215.5 -92t-79.5 -254t79.5 -254.5t215.5 -92.5z" />
    <glyph glyph-name="atilde.ss01" 
d="M807 1217q-57 0 -135 38.5t-135 38.5q-30 0 -57 -19t-36 -48l-139 61q75 174 232 174q57 0 135 -39t135 -39q30 0 56.5 19.5t35.5 48.5l139 -61q-75 -174 -231 -174zM561 -29q-200 0 -323 140t-123 381t123 380.5t323 139.5q135 0 227.5 -75t133.5 -220h30l-51 266h195
v-983h-195l51 266h-30q-41 -145 -133.5 -220t-227.5 -75zM610 145q136 0 215.5 92.5t79.5 254.5t-79.5 254t-215.5 92t-215.5 -92t-79.5 -254t79.5 -254.5t215.5 -92.5z" />
    <glyph glyph-name="adieresis.ss05" 
d="M469 1200q-55 0 -91 35t-36 90q0 56 36 91.5t91 35.5q52 0 87.5 -35.5t35.5 -91.5q0 -55 -35.5 -90t-87.5 -35zM840 1200q-55 0 -91 35t-36 90q0 56 36 91.5t91 35.5q52 0 87.5 -35.5t35.5 -91.5q0 -55 -35.5 -90t-87.5 -35zM618 1012q226 0 330.5 -98t104.5 -310v-604
h-195l43 266h-31q-44 -145 -137 -220t-223 -75q-141 0 -222 74.5t-81 206.5q0 135 92.5 210.5t269.5 86.5l295 18v37q0 126 -57 180t-189 54q-109 0 -173 -49t-64 -134v-20h-195v20q0 166 115.5 261.5t316.5 95.5zM553 135q122 0 208 77.5t101 201.5l-287 -29
q-89 -9 -128 -40t-39 -93q0 -56 38 -86.5t107 -30.5z" />
    <glyph glyph-name="cdotaccent.ss05" 
d="M649 1174q-59 0 -99 39t-40 100t40 100t99 39q58 0 96.5 -39t38.5 -100t-38.5 -100t-96.5 -39zM633 -29q-216 0 -343.5 139.5t-127.5 374.5q0 249 132 388t355 139q192 0 317.5 -108.5t129.5 -278.5h-195q-14 101 -79.5 157t-172.5 56q-135 0 -211 -92.5t-76 -256.5
q0 -163 73 -253.5t204 -90.5q104 0 166 55t76 158h194q-5 -173 -127 -280t-315 -107z" />
    <glyph glyph-name="dcaron.ss05" 
d="M1176 1028v117q51 0 70 16t22 60q-45 2 -75 33.5t-30 80.5q0 47 33.5 80t91.5 33q60 0 92.5 -34.5t32.5 -117.5q0 -111 -62 -189.5t-175 -78.5zM561 -29q-200 0 -323 140t-123 381t123 380.5t323 139.5q135 0 227.5 -75t133.5 -220h30l-51 266v451h195v-1434h-195l51 266
h-30q-41 -145 -133.5 -220t-227.5 -75zM610 145q136 0 215.5 92.5t79.5 254.5t-79.5 254t-215.5 92t-215.5 -92t-79.5 -254t79.5 -254.5t215.5 -92.5z" />
    <glyph glyph-name="edieresis.ss05" 
d="M463 1200q-55 0 -91 35t-36 90q0 56 36 91.5t91 35.5q52 0 87.5 -35.5t35.5 -91.5q0 -55 -35.5 -90t-87.5 -35zM834 1200q-55 0 -91 35t-36 90q0 56 36 91.5t91 35.5q52 0 87 -35.5t35 -91.5q0 -55 -35 -90t-87 -35zM1096 518v-82h-725q11 -137 83.5 -214t204.5 -77
q88 0 151 39.5t89 112.5h195q-26 -142 -146.5 -234t-283.5 -92q-240 0 -368 137.5t-128 376.5q0 228 129 377.5t344 149.5q216 0 335.5 -130t119.5 -364zM379 596h508q-4 120 -68 183t-178 63q-107 0 -174 -66t-88 -180z" />
    <glyph glyph-name="edotaccent.ss05" 
d="M647 1174q-59 0 -99 39t-40 100t40 100t99 39q58 0 96.5 -39t38.5 -100t-38.5 -100t-96.5 -39zM1096 518v-82h-725q11 -137 83.5 -214t204.5 -77q88 0 151 39.5t89 112.5h195q-26 -142 -146.5 -234t-283.5 -92q-240 0 -368 137.5t-128 376.5q0 228 129 377.5t344 149.5
q216 0 335.5 -130t119.5 -364zM379 596h508q-4 120 -68 183t-178 63q-107 0 -174 -66t-88 -180z" />
    <glyph glyph-name="uni0123.ss05" 
d="M641 1116q-63 0 -97 34.5t-34 117.5q0 94 67 160.5t189 66.5v-111q-57 0 -79 -11.5t-25 -43.5q46 -2 76 -30t30 -70q0 -47 -34 -80t-93 -33zM598 -393q-218 0 -334 100.5t-127 292.5h195q9 -106 75.5 -162.5t190.5 -56.5q132 0 204 75t72 212v22l68 268h-31
q-82 -297 -340 -297q-198 0 -316 133t-118 343t118 342.5t316 132.5q258 0 340 -297h31l-68 268h195v-850q0 -526 -471 -526zM608 229q126 0 198.5 85.5t72.5 222.5q0 139 -73.5 223t-197.5 84q-126 0 -198 -85t-72 -222q0 -139 73 -223.5t197 -84.5z" />
    <glyph glyph-name="gdotaccent.ss05" 
d="M643 1174q-59 0 -99 39t-40 100t40 100t99 39q58 0 96.5 -39t38.5 -100t-38.5 -100t-96.5 -39zM598 -393q-218 0 -334 100.5t-127 292.5h195q9 -106 75.5 -162.5t190.5 -56.5q132 0 204 75t72 212v22l68 268h-31q-82 -297 -340 -297q-198 0 -316 133t-118 343t118 342.5
t316 132.5q258 0 340 -297h31l-68 268h195v-850q0 -526 -471 -526zM608 229q126 0 198.5 85.5t72.5 222.5q0 139 -73.5 223t-197.5 84q-126 0 -198 -85t-72 -222q0 -139 73 -223.5t197 -84.5z" />
    <glyph glyph-name="i.ss05" 
d="M705 1174q-59 0 -99.5 39t-40.5 100t40.5 100t99.5 39q58 0 96.5 -39t38.5 -100t-38.5 -100t-96.5 -39zM801 174h407v-174h-1024v174h422v635h-430v174h625v-809z" />
    <glyph glyph-name="idieresis.ss05" 
d="M520 1200q-55 0 -91 35t-36 90q0 56 36 91.5t91 35.5q52 0 87.5 -35.5t35.5 -91.5q0 -55 -35.5 -90t-87.5 -35zM891 1200q-55 0 -91 35t-36 90q0 56 36 91.5t91 35.5q52 0 87.5 -35.5t35.5 -91.5q0 -55 -35.5 -90t-87.5 -35zM801 174h407v-174h-1024v174h422v635h-430
v174h625v-809z" />
    <glyph glyph-name="i.loclTRK.ss05" 
d="M705 1174q-59 0 -99.5 39t-40.5 100t40.5 100t99.5 39q58 0 96.5 -39t38.5 -100t-38.5 -100t-96.5 -39zM801 174h407v-174h-1024v174h422v635h-430v174h625v-809z" />
    <glyph glyph-name="ij.ss05" 
d="M362 1174q-59 0 -99 39t-40 100t40 100t99 39q58 0 97 -39t39 -100t-39 -100t-97 -39zM911 1174q-59 0 -99 39t-40 100t40 100t99 39q58 0 97 -39t39 -100t-39 -100t-97 -39zM264 0v983h195v-983h-195zM651 -393v170h47q115 0 115 151v1055h195v-1014q0 -178 -79.5 -270
t-230.5 -92h-47z" />
    <glyph glyph-name="iogonek.ss05" 
d="M705 1174q-59 0 -99.5 39t-40.5 100t40.5 100t99.5 39q58 0 96.5 -39t38.5 -100t-38.5 -100t-96.5 -39zM801 174h407v-174h-407q-89 -18 -131.5 -48.5t-42.5 -80.5q0 -45 44.5 -72.5t129.5 -27.5v-164q-171 0 -259.5 63t-88.5 160q0 105 100 170h-369v174h422v635h-430
v174h625v-809z" />
    <glyph glyph-name="j.ss05" 
d="M846 1174q-59 0 -99 39t-40 100t40 100t99 39q58 0 96.5 -39t38.5 -100t-38.5 -100t-96.5 -39zM236 983h706v-973q0 -197 -93.5 -300t-273.5 -103q-181 0 -275.5 100.5t-94.5 294.5v109h198v-109q0 -114 41.5 -167.5t130.5 -53.5q91 0 132 49.5t41 159.5v819h-512v174z
" />
    <glyph glyph-name="uni0137.ss05" 
d="M1157 983l-432 -453l422 -530h-242l-317 406l-150 -154v-252h-194v1434h194v-865l-47 -104h31l500 518h235zM651 -66q55 0 84 -30t29 -101q0 -75 -56.5 -128.5t-160.5 -53.5v96q47 0 65 9t21 34q-40 2 -66.5 26t-25.5 60q2 37 31 62.5t79 25.5z" />
    <glyph glyph-name="lcaron.ss05" 
d="M1001 1221q-45 2 -74.5 33.5t-29.5 80.5q0 47 33.5 80t91.5 33q60 0 92.5 -34.5t32.5 -117.5q0 -111 -62 -189.5t-176 -78.5v117q51 0 70 16t22 60zM801 174h407v-174h-1024v174h422v1086h-430v174h625v-1260z" />
    <glyph glyph-name="uni013C.ss05" 
d="M801 174h407v-174h-1024v174h422v1086h-430v174h625v-1260zM696 -66q55 0 84 -30t29 -101q0 -75 -56.5 -128.5t-160.5 -53.5v96q47 0 65 9t21 34q-40 2 -66.5 26t-25.5 60q2 37 31 62.5t79 25.5z" />
    <glyph glyph-name="ldot.ss05" 
d="M801 174h407v-174h-1024v174h422v1086h-430v174h625v-1260zM1036 702q-63 0 -106 43t-43 107q0 63 43 105t106 42q64 0 107 -42t43 -105t-43 -106.5t-107 -43.5z" />
    <glyph glyph-name="napostrophe.ss05" 
d="M195 1094v110q46 0 63.5 12t20.5 44q-45 2 -75 30t-30 70q0 47 33.5 80t91.5 33q60 0 92.5 -34.5t32.5 -117.5q0 -94 -60 -160.5t-169 -66.5zM219 0v983h195l-52 -266h31q89 295 334 295q178 0 270.5 -105.5t92.5 -308.5v-598h-201v578q0 253 -215 253q-120 0 -190 -85.5
t-70 -233.5v-512h-195z" />
    <glyph glyph-name="uni0146.ss05" 
d="M219 0v983h195l-52 -266h31q89 295 334 295q178 0 270.5 -105.5t92.5 -308.5v-598h-201v578q0 253 -215 253q-120 0 -190 -85.5t-70 -233.5v-512h-195zM551 -379v96q47 0 65 9t21 34q-40 2 -66.5 26t-25.5 60q2 37 31 62.5t79 25.5q55 0 84 -30t29 -101
q0 -75 -56.5 -128.5t-160.5 -53.5z" />
    <glyph glyph-name="odieresis.ss05" 
d="M453 1200q-55 0 -91 35t-36 90q0 56 36 91.5t91 35.5q52 0 87 -35.5t35 -91.5q0 -55 -35 -90t-87 -35zM823 1200q-55 0 -91 35t-36 90q0 56 36 91.5t91 35.5q52 0 87.5 -35.5t35.5 -91.5q0 -55 -35.5 -90t-87.5 -35zM635 -29q-224 0 -365 144t-141 377t141 376.5
t365 143.5t365 -143.5t141 -376.5t-141 -377t-365 -144zM635 145q136 0 220.5 96t84.5 251t-84 250.5t-221 95.5t-221 -95.5t-84 -250.5t84.5 -251t220.5 -96z" />
    <glyph glyph-name="uni0157.ss05" 
d="M276 0v983h195l-57 -283h32q32 153 120 232.5t216 79.5q158 0 237 -95t79 -268v-223h-203v156q0 128 -47 186.5t-146 58.5q-114 0 -172.5 -77.5t-58.5 -227.5v-522h-195zM270 -379v96q47 0 65 9t21 34q-40 2 -66.5 26t-25.5 60q2 37 31.5 62.5t79.5 25.5q55 0 83.5 -30
t28.5 -101q0 -75 -56.5 -128.5t-160.5 -53.5z" />
    <glyph glyph-name="uni0219.ss05" 
d="M633 -29q-200 0 -314 90t-114 248v15h194v-15q0 -174 242 -174q102 0 159.5 33t57.5 92q0 54 -32 80t-121 45l-195 39q-151 31 -221 97.5t-70 180.5q0 143 113.5 226.5t308.5 83.5q198 0 312 -91t114 -249v-13h-195v13q0 176 -239 176q-103 0 -161 -33t-58 -92
q0 -50 32.5 -76t116.5 -45l191 -39q157 -31 228 -98t71 -184q0 -143 -113.5 -226.5t-306.5 -83.5zM520 -379v96q47 0 65 9t21 34q-40 2 -66.5 26t-25.5 60q2 37 31.5 62.5t79.5 25.5q55 0 83.5 -30t28.5 -101q0 -75 -56.5 -128.5t-160.5 -53.5z" />
    <glyph glyph-name="adieresis.ss01.ss05" 
d="M489 1200q-55 0 -91 35t-36 90q0 56 36 91.5t91 35.5q52 0 87.5 -35.5t35.5 -91.5q0 -55 -35.5 -90t-87.5 -35zM860 1200q-55 0 -91 35t-36 90q0 56 36 91.5t91 35.5q52 0 87.5 -35.5t35.5 -91.5q0 -55 -35.5 -90t-87.5 -35zM561 -29q-200 0 -323 140t-123 381t123 380.5
t323 139.5q135 0 227.5 -75t133.5 -220h30l-51 266h195v-983h-195l51 266h-30q-41 -145 -133.5 -220t-227.5 -75zM610 145q136 0 215.5 92.5t79.5 254.5t-79.5 254t-215.5 92t-215.5 -92t-79.5 -254t79.5 -254.5t215.5 -92.5z" />
    <glyph glyph-name="tcaron.ss05" 
d="M831 1260q-45 2 -74.5 30t-29.5 70q0 47 33.5 80t91.5 33q60 0 92.5 -34.5t32.5 -117.5q0 -94 -60 -160.5t-169 -66.5v110q45 0 62.5 12t20.5 44zM1130 809h-542v-494q0 -81 36 -125.5t101 -44.5q79 0 114 53t35 175v100h195v-102q0 -200 -89.5 -300t-254.5 -100
q-332 0 -332 344v494h-287v174h287v186l195 97v-283h542v-174z" />
    <glyph glyph-name="tcaron_apo.ss05" 
d="M125 1094v110q46 0 63.5 12t20.5 44q-45 2 -75 30t-30 70q0 47 33.5 80t91.5 33q60 0 92.5 -34.5t32.5 -117.5q0 -94 -60 -160.5t-169 -66.5z" />
    <glyph glyph-name="uni021B.ss05" 
d="M1130 809h-542v-494q0 -81 36 -125.5t101 -44.5q79 0 114 53t35 175v100h195v-102q0 -200 -89.5 -300t-254.5 -100q-332 0 -332 344v494h-287v174h287v186l195 97v-283h542v-174zM719 -66q55 0 83.5 -30t28.5 -101q0 -75 -56.5 -128.5t-160.5 -53.5v96q47 0 65 9t21 34
q-40 2 -66.5 26t-25.5 60q2 37 31.5 62.5t79.5 25.5z" />
    <glyph glyph-name="udieresis.ss05" 
d="M453 1200q-55 0 -91 35t-36 90q0 56 36 91.5t91 35.5q52 0 87 -35.5t35 -91.5q0 -55 -35 -90t-87 -35zM823 1200q-55 0 -91 35t-36 90q0 56 36 91.5t91 35.5q52 0 87.5 -35.5t35.5 -91.5q0 -55 -35.5 -90t-87.5 -35zM535 -29q-163 0 -251.5 101.5t-88.5 296.5v614h200
v-614q0 -95 56 -154t151 -59q116 0 181 84.5t65 230.5v512h194v-983h-194l51 266h-31q-35 -135 -116 -215t-217 -80z" />
    <glyph glyph-name="wdieresis.ss05" 
d="M453 1200q-55 0 -91 35t-36 90q0 56 36 91.5t91 35.5q52 0 87 -35.5t35 -91.5q0 -55 -35 -90t-87 -35zM823 1200q-55 0 -91 35t-36 90q0 56 36 91.5t91 35.5q52 0 87.5 -35.5t35.5 -91.5q0 -55 -35.5 -90t-87.5 -35zM233 0l-155 983h182l105 -782l2 -80h30v80l117 782
h244l116 -782v-80h31l2 80l105 782h182l-156 -983h-272l-113 719l-2 127h-30l-3 -127l-112 -719h-273z" />
    <glyph glyph-name="ydieresis.ss05" 
d="M451 1200q-55 0 -91 35t-36 90q0 56 36 91.5t91 35.5q52 0 87 -35.5t35 -91.5q0 -55 -35 -90t-87 -35zM821 1200q-55 0 -91 35t-36 90q0 56 36 91.5t91 35.5q52 0 87.5 -35.5t35.5 -91.5q0 -55 -35.5 -90t-87.5 -35zM965 983h219l-455 -1128q-51 -127 -128.5 -187.5
t-190.5 -60.5q-150 0 -227 79t-77 228v92h195v-92q0 -69 25.5 -101t83.5 -32q53 0 86 34.5t71 133.5l56 143h-172l-365 891h219l313 -813h33z" />
    <glyph glyph-name="zdotaccent.ss05" 
d="M637 1174q-59 0 -99 39t-40 100t40 100t99 39q58 0 96.5 -39t38.5 -100t-38.5 -100t-96.5 -39zM215 0v307l666 471v31h-666v174h840v-307l-668 -471v-31h668v-174h-840z" />
    <glyph glyph-name="a.sups" 
d="M647 1323q148 0 224.5 -69.5t76.5 -204.5v-435h-139l43 195h-25q-28 -103 -98 -159t-176 -56q-99 0 -157 55t-58 146q0 182 248 200l215 17v35q0 76 -36.5 116.5t-121.5 40.5q-82 0 -128 -38t-46 -101v-4h-150v4q0 118 87 188t241 70zM606 700q84 0 139.5 58t55.5 145v25
l-168 -17q-150 -15 -150 -110q0 -47 33.5 -74t89.5 -27z" />
    <glyph glyph-name="b.sups" 
d="M682 594q-100 0 -171 56.5t-97 162.5h-23l39 -199h-147v1004h147v-315l-39 -197h23q26 105 98 161t172 56q137 0 220 -100.5t83 -264.5q0 -163 -83.5 -263.5t-221.5 -100.5zM633 725q95 0 150 64t55 169q0 106 -55.5 171t-149.5 65q-95 0 -150 -65.5t-55 -170.5t56 -169
t149 -64z" />
    <glyph glyph-name="c.sups" 
d="M637 594q-157 0 -250.5 97.5t-93.5 264.5q0 169 95.5 268t256.5 99q141 0 229.5 -74t100.5 -205h-146q-10 72 -60 111t-124 39q-93 0 -148 -64t-55 -172q0 -107 53.5 -170t143.5 -63q73 0 121 38.5t57 108.5h144q-11 -128 -97 -203t-227 -75z" />
    <glyph glyph-name="d.sups" 
d="M588 594q-137 0 -221 100t-84 264t83 264.5t220 100.5q99 0 172 -54.5t98 -162.5h23l-39 197v315h147v-1004h-147l39 199h-23q-25 -107 -97 -163t-171 -56zM637 725q94 0 149.5 64t55.5 169t-55 170.5t-150 65.5q-94 0 -149.5 -65t-55.5 -171q0 -105 55 -169t150 -64z
" />
    <glyph glyph-name="e.sups" 
d="M821 831h148q-25 -107 -113 -172t-211 -65q-160 0 -252 98.5t-92 265.5q0 165 93.5 265t250.5 100q147 0 234.5 -93.5t87.5 -256.5v-47h-521q6 -101 58 -159t143 -58q64 0 110.5 32t63.5 90zM643 1210q-84 0 -133.5 -51t-60.5 -143h378q-6 94 -53.5 144t-130.5 50z" />
    <glyph glyph-name="f.sups" 
d="M584 1370v-67h352v-119h-352v-570h-148v570h-172v119h172v65q0 127 78.5 198.5t214.5 71.5q128 0 200 -62t77 -171h-144q-9 121 -133 121q-69 0 -107 -39.5t-38 -116.5z" />
    <glyph glyph-name="g.sups" 
d="M629 338q-155 0 -238 72.5t-88 203.5h143q5 -76 52 -118.5t131 -42.5q91 0 140.5 49.5t49.5 142.5v31l45 188h-22q-24 -100 -90 -153.5t-158 -53.5q-134 0 -212.5 92.5t-78.5 241.5q0 150 79 241t212 91q92 0 158 -54t90 -155h22l-41 189h144v-607q0 -358 -338 -358z
M637 780q88 0 138 58.5t50 152.5t-50.5 151.5t-137.5 57.5q-86 0 -136 -57.5t-50 -151.5q0 -95 50.5 -153t135.5 -58z" />
    <glyph glyph-name="h.sups" 
d="M322 614v1004h147v-315l-39 -199h23q29 107 95.5 163t160.5 56q115 0 176 -68t61 -194v-447h-147v408q0 82 -37 124t-107 42q-85 0 -135.5 -61t-50.5 -160v-353h-147z" />
    <glyph glyph-name="i.sups" 
d="M731 1618v-160h-164v160h164zM721 733h270v-119h-712v119h294v451h-294v119h442v-570z" />
    <glyph glyph-name="j.sups" 
d="M762 1618h164v-160h-164v160zM403 1303h515v-680q0 -132 -78.5 -208.5t-212.5 -76.5q-124 0 -203.5 72.5t-79.5 212.5v88h148v-88q0 -162 137 -162q67 0 104 40t37 117v566h-367v119z" />
    <glyph glyph-name="k.sups" 
d="M969 1303l-316 -320l301 -369h-178l-223 281l-107 -109v-172h-147v1004h147v-586l-32 -88h22l367 359h166z" />
    <glyph glyph-name="l.sups" 
d="M721 733h270v-119h-712v119h294v766h-294v119h442v-885z" />
    <glyph glyph-name="m.sups" 
d="M258 614v689h117l-37 -164h24q21 93 67.5 138.5t111.5 45.5q54 0 88.5 -34t34.5 -99q0 -16 -5 -51h23q17 91 64.5 137.5t117.5 46.5q148 0 148 -197v-512h-127v482q0 98 -76 98q-52 0 -82.5 -46t-30.5 -116v-418h-123v482q0 98 -71 98q-53 0 -85 -46.5t-32 -115.5v-418
h-127z" />
    <glyph glyph-name="n.sups" 
d="M322 614v689h147l-39 -199h23q29 107 95.5 163t160.5 56q115 0 176 -68t61 -194v-447h-147v408q0 82 -37 124t-107 42q-85 0 -135.5 -61t-50.5 -160v-353h-147z" />
    <glyph glyph-name="o.sups" 
d="M635 594q-159 0 -260 101.5t-101 262.5t100.5 263t260.5 102q158 0 258 -102t100 -263t-100 -262.5t-258 -101.5zM635 725q94 0 151.5 64.5t57.5 168.5q0 106 -57.5 171t-151.5 65q-95 0 -153 -65t-58 -171q0 -105 58.5 -169t152.5 -64z" />
    <glyph glyph-name="p.sups" 
d="M283 356v947h147l-39 -197h23q26 105 97 161t171 56q139 0 222 -100.5t83 -264.5t-83 -264t-220 -100q-100 0 -172 57t-98 162h-23l39 -199v-258h-147zM633 725q95 0 150 64t55 169q0 106 -55.5 171t-149.5 65q-95 0 -150 -66t-55 -170t55.5 -168.5t149.5 -64.5z" />
    <glyph glyph-name="q.sups" 
d="M840 356v258l39 199h-23q-26 -106 -97.5 -162.5t-172.5 -56.5q-136 0 -219.5 100.5t-83.5 263.5t83.5 264t221.5 101q99 0 171 -55t97 -162h23l-39 197h147v-947h-147zM637 725q94 0 149.5 64t55.5 169t-55 170.5t-150 65.5q-94 0 -149.5 -65t-55.5 -171q0 -105 55 -169
t150 -64z" />
    <glyph glyph-name="r.sups" 
d="M328 614v689h145l-45 -213h25q31 122 99 177.5t171 55.5q105 0 162 -63t57 -183v-159h-147v106q0 164 -136 164q-85 0 -134.5 -57.5t-49.5 -155.5v-361h-147z" />
    <glyph glyph-name="s.sups" 
d="M633 596q-148 0 -229.5 61.5t-81.5 171.5v5h141v-5q0 -60 46.5 -93.5t129.5 -33.5q72 0 114 26.5t42 70.5q0 43 -28.5 62t-94.5 32l-131 27q-48 10 -83 23.5t-65 35t-45.5 54t-15.5 75.5q0 100 83 157.5t226 57.5q145 0 226 -62t81 -174v-4h-143v4q0 62 -44.5 94.5
t-129.5 32.5q-74 0 -115 -25t-41 -71q0 -40 29 -58.5t94 -31.5l137 -29q100 -21 151.5 -63t51.5 -127q0 -98 -82 -155.5t-223 -57.5z" />
    <glyph glyph-name="t.sups" 
d="M997 1184h-405v-340q0 -62 30 -96.5t83 -34.5q54 0 82 36.5t28 104.5v107h143v-107q0 -117 -70 -188.5t-190 -71.5q-121 0 -187.5 66t-66.5 184v340h-172v119h172v137l148 65v-202h405v-119z" />
    <glyph glyph-name="u.sups" 
d="M559 594q-114 0 -173.5 67.5t-59.5 194.5v447h149v-410q0 -79 35.5 -120.5t101.5 -41.5q84 0 133.5 60.5t49.5 158.5v353h147v-689h-147l39 199h-23q-29 -108 -94.5 -163.5t-157.5 -55.5z" />
    <glyph glyph-name="v.sups" 
d="M518 614l-264 689h154l210 -543l7 -62h22l6 62l209 543h154l-264 -689h-234z" />
    <glyph glyph-name="w.sups" 
d="M348 614l-115 689h123l88 -490l5 -78h22l4 78l86 490h150l84 -490l6 -78h22l4 78l88 490h121l-114 -689h-193l-82 500v55h-22l-2 -55l-82 -500h-193z" />
    <glyph glyph-name="x.sups" 
d="M276 614l256 344l-256 345h173l165 -230l11 -35h22l8 35l166 230h172l-254 -345l254 -344h-172l-166 224l-8 36h-22l-11 -36l-165 -224h-173z" />
    <glyph glyph-name="y.sups" 
d="M864 1303h158l-311 -771q-41 -101 -98 -147.5t-152 -46.5q-103 0 -158 54t-55 153v69h143v-69q0 -92 78 -92q42 0 65.5 26.5t43.5 79.5l47 121h-123l-252 623h158l219 -560h22z" />
    <glyph glyph-name="z.sups" 
d="M340 614v179l422 368v23h-422v119h590v-177l-426 -368v-25h426v-119h-590z" />
    <glyph glyph-name="zero.subs" 
d="M635 -205q-184 0 -282.5 134t-98.5 388t98.5 388.5t282.5 134.5q183 0 282 -135t99 -388t-99 -387.5t-282 -134.5zM635 -68q108 0 165.5 97.5t57.5 287.5q0 191 -57.5 288t-165.5 97q-109 0 -167 -96.5t-58 -288.5q0 -191 58 -288t167 -97z" />
    <glyph glyph-name="one.subs" 
d="M295 -184v129h299v692h-23q-15 -107 -71.5 -159t-157.5 -52h-47v160h41q100 0 154.5 61.5t54.5 171.5h196v-874h232v-129h-678z" />
    <glyph glyph-name="two.subs" 
d="M326 -184v209l317 247q93 72 134.5 132t41.5 128q0 80 -49 125t-129 45q-92 0 -144.5 -54.5t-52.5 -149.5v-37h-149v41q0 153 94 245.5t252 92.5q148 0 240 -82t92 -217q0 -103 -56.5 -187t-191.5 -188l-250 -193v-22h498v-135h-647z" />
    <glyph glyph-name="three.subs" 
d="M639 -205q-158 0 -252 87t-94 233v16h149v-16q0 -86 53 -137.5t144 -51.5q83 0 133.5 45t50.5 119q0 76 -52.5 118t-141.5 42h-51v137h51q89 0 141.5 42t52.5 116t-50.5 119t-133.5 45q-91 0 -144 -51.5t-53 -137.5v-16h-149v18q0 145 93.5 231.5t252.5 86.5
q152 0 244 -76t92 -201q0 -97 -57 -159t-152 -74v-23q97 -13 153 -76.5t56 -156.5q0 -123 -92.5 -201t-243.5 -78z" />
    <glyph glyph-name="four.subs" 
d="M1024 305v-137h-190v-352h-148v352h-442v207l372 444h218v-514h190zM369 305h317v389h-22l-295 -366v-23z" />
    <glyph glyph-name="five.subs" 
d="M629 -205q-145 0 -239.5 83t-94.5 204v4h149v-2q0 -63 52.5 -110.5t130.5 -47.5q86 0 139 55t53 146q0 86 -48.5 139t-125.5 53q-114 0 -162 -98h-159v598h647v-137h-508v-356h22q31 57 86 87.5t125 30.5q122 0 199.5 -88t77.5 -227q0 -151 -94 -242.5t-250 -91.5z" />
    <glyph glyph-name="six.subs" 
d="M641 -205q-170 0 -266 123.5t-96 343.5q0 578 395 578q139 0 227 -83t88 -214v-8h-149v8q0 72 -49 119t-125 47q-124 0 -184 -107t-60 -326h22q32 80 95 124t155 44q129 0 212 -88.5t83 -226.5q0 -148 -96.5 -241t-251.5 -93zM643 -74q87 0 142 55t55 140q0 86 -54.5 140
t-142.5 54q-85 0 -139.5 -54t-54.5 -140q0 -85 54 -140t140 -55z" />
    <glyph glyph-name="seven.subs" 
d="M395 -184l459 843v23h-563v137h688v-211l-422 -792h-162z" />
    <glyph glyph-name="eight.subs" 
d="M633 -205q-153 0 -247.5 76t-94.5 201q0 94 57 158t154 77v23q-95 12 -153 75.5t-58 159.5q0 125 95 200t247 75q154 0 249 -75.5t95 -199.5q0 -93 -57 -157.5t-156 -77.5v-23q98 -13 155.5 -78t57.5 -157q0 -126 -95.5 -201.5t-248.5 -75.5zM633 383q88 0 142 43.5
t54 120.5q0 78 -54 123t-142 45q-87 0 -141 -45.5t-54 -122.5t54.5 -120.5t140.5 -43.5zM633 -80q88 0 142 46t54 124q0 77 -54.5 120.5t-141.5 43.5q-86 0 -140.5 -43.5t-54.5 -120.5q0 -78 54 -124t141 -46z" />
    <glyph glyph-name="nine.subs" 
d="M627 840q171 0 266.5 -124t95.5 -343q0 -578 -395 -578q-139 0 -227 83t-88 214v8h149v-8q0 -72 49 -119t125 -47q124 0 184 106.5t60 325.5h-23q-31 -81 -95.5 -124.5t-154.5 -43.5q-128 0 -211 88.5t-83 227.5q0 149 97 241.5t251 92.5zM625 709q-87 0 -142 -55
t-55 -140q0 -86 55.5 -140.5t141.5 -54.5t141 54.5t55 140.5q0 85 -55 140t-141 55z" />
    <glyph glyph-name="zero.dnom" 
d="M635 -16q-130 0 -201.5 91t-71.5 253q0 161 71.5 252.5t201.5 91.5q129 0 200.5 -91.5t71.5 -252.5q0 -162 -71 -253t-201 -91zM635 106q66 0 99.5 61t33.5 161t-33.5 160.5t-99.5 60.5t-99.5 -60.5t-33.5 -160.5t33.5 -161t99.5 -61z" />
    <glyph glyph-name="one.dnom" 
d="M410 360v123h57q91 0 127.5 40.5t36.5 131.5h188v-655h-131v514h-31q-15 -78 -60 -116t-130 -38h-57z" />
    <glyph glyph-name="two.dnom" 
d="M440 0v207l199 110q56 32 77 64t21 82q0 42 -27 68t-71 26q-49 0 -80 -30.5t-31 -77.5h-127q0 101 66 162t172 61q100 0 163.5 -58.5t63.5 -150.5q0 -65 -37 -124.5t-106 -94.5l-174 -90v-31h317v-123h-426z" />
    <glyph glyph-name="three.dnom" 
d="M643 -14q-112 0 -179 63.5t-67 169.5h127q0 -54 32.5 -86.5t86.5 -32.5q41 0 68.5 23.5t27.5 58.5q0 88 -114 88h-23v121h23q55 0 84.5 22.5t29.5 63.5q0 35 -27.5 58.5t-68.5 23.5q-119 0 -119 -119h-127q0 109 66 171.5t180 62.5q100 0 163.5 -53t63.5 -136
q0 -50 -33.5 -89.5t-88.5 -49.5v-31q55 -11 88.5 -49t33.5 -92q0 -83 -63.5 -135.5t-163.5 -52.5z" />
    <glyph glyph-name="four.dnom" 
d="M365 211v190l243 254h178v-333h117v-111h-117v-211h-129v211h-292zM463 322h194v215h-28l-166 -187v-28z" />
    <glyph glyph-name="five.dnom" 
d="M633 -16q-96 0 -163 56t-67 136h129q0 -32 29.5 -55t69.5 -23q44 0 73 29.5t29 73.5q0 41 -26.5 67.5t-71.5 26.5q-62 0 -86 -43h-129v403h444v-123h-325v-174h28q45 52 117 52q77 0 128.5 -58.5t51.5 -146.5q0 -98 -65.5 -159.5t-165.5 -61.5z" />
    <glyph glyph-name="six.dnom" 
d="M639 -16q-114 0 -178 82.5t-64 228.5q0 185 64 281t188 96q102 0 153.5 -46.5t67.5 -133.5h-131q-22 65 -90 65q-119 0 -125 -209h29q45 66 127 66q83 0 136.5 -60.5t53.5 -154.5t-65 -154.5t-166 -60.5zM639 98q43 0 71.5 28.5t28.5 72.5t-28.5 72t-71.5 28
q-44 0 -73 -28t-29 -72t29 -72.5t73 -28.5z" />
    <glyph glyph-name="seven.dnom" 
d="M449 0l307 504v28h-353v123h465v-188l-280 -467h-139z" />
    <glyph glyph-name="eight.dnom" 
d="M635 -16q-103 0 -170.5 54t-67.5 136q0 46 29 86.5t80 58.5v29q-50 13 -79.5 51.5t-29.5 83.5q0 80 68.5 134.5t169.5 54.5t168 -54.5t67 -134.5q0 -45 -29 -83.5t-79 -51.5v-29q51 -18 79.5 -58.5t28.5 -86.5q0 -82 -67 -136t-168 -54zM635 389q46 0 75 23.5t29 60.5
t-29 60.5t-75 23.5q-47 0 -77 -23.5t-30 -60.5t30.5 -60.5t76.5 -23.5zM635 98q45 0 74.5 24.5t29.5 61.5q0 40 -29 64t-75 24q-48 0 -77.5 -24t-29.5 -64q0 -37 30 -61.5t77 -24.5z" />
    <glyph glyph-name="nine.dnom" 
d="M618 -16q-102 0 -153.5 46.5t-67.5 133.5h131q22 -66 90 -66q119 0 125 209h-28q-45 -65 -127 -65q-83 0 -137 60.5t-54 154.5t65.5 154.5t166.5 60.5q114 0 177.5 -82.5t63.5 -229.5q0 -185 -64 -280.5t-188 -95.5zM629 356q44 0 73 28.5t29 72.5t-29 72t-73 28
q-43 0 -72 -28t-29 -72t29 -72.5t72 -28.5z" />
    <glyph glyph-name="zero.numr" 
d="M635 762q-130 0 -201.5 91t-71.5 253q0 161 71.5 252.5t201.5 91.5q129 0 200.5 -91.5t71.5 -252.5q0 -162 -71 -253t-201 -91zM635 885q66 0 99.5 60.5t33.5 160.5t-33.5 160.5t-99.5 60.5t-99.5 -60.5t-33.5 -160.5t33.5 -160.5t99.5 -60.5z" />
    <glyph glyph-name="one.numr" 
d="M410 1139v123h57q91 0 127.5 40.5t36.5 131.5h188v-656h-131v514h-31q-15 -78 -60 -115.5t-130 -37.5h-57z" />
    <glyph glyph-name="two.numr" 
d="M440 778v207l199 111q56 32 77 63.5t21 81.5q0 42 -27 68t-71 26q-49 0 -80 -30.5t-31 -77.5h-127q0 101 66 162t172 61q100 0 163.5 -58.5t63.5 -150.5q0 -141 -176 -237l-141 -76v-27h317v-123h-426z" />
    <glyph glyph-name="three.numr" 
d="M643 762q-112 0 -179 63.5t-67 169.5h127q0 -54 32.5 -86t86.5 -32q41 0 68.5 23t27.5 58q0 43 -29.5 66t-84.5 23h-23v120h23q55 0 84.5 22.5t29.5 63.5q0 35 -27.5 58.5t-68.5 23.5q-119 0 -119 -118h-127q0 109 66 171t180 62q100 0 163.5 -52.5t63.5 -135.5
q0 -50 -33.5 -90t-88.5 -50v-30q54 -11 88 -49.5t34 -92.5q0 -83 -63.5 -135.5t-163.5 -52.5z" />
    <glyph glyph-name="four.numr" 
d="M365 989v191l243 254h178v-334h117v-111h-117v-211h-129v211h-292zM463 1100h194v215h-28l-166 -187v-28z" />
    <glyph glyph-name="five.numr" 
d="M633 762q-96 0 -163 56t-67 136h129q0 -32 29.5 -54.5t69.5 -22.5q44 0 73 29t29 73q0 41 -26.5 67.5t-71.5 26.5q-62 0 -86 -43h-129v404h444v-123h-325v-174h28q44 51 117 51q77 0 128.5 -58.5t51.5 -146.5q0 -98 -65.5 -159.5t-165.5 -61.5z" />
    <glyph glyph-name="six.numr" 
d="M639 762q-114 0 -178 82.5t-64 228.5q0 185 64 281t188 96q102 0 153.5 -46.5t67.5 -133.5h-131q-22 65 -90 65q-119 0 -125 -209h29q45 66 127 66q83 0 136.5 -60.5t53.5 -154.5t-65 -154.5t-166 -60.5zM639 877q43 0 71.5 28t28.5 72t-28.5 72t-71.5 28q-44 0 -73 -28
t-29 -72t29 -72t73 -28z" />
    <glyph glyph-name="seven.numr" 
d="M446 778l308 504v29h-353v123h465v-189l-280 -467h-140z" />
    <glyph glyph-name="eight.numr" 
d="M635 762q-103 0 -170.5 54t-67.5 136q0 46 29 87t80 59v28q-50 13 -79.5 52t-29.5 84q0 80 68.5 134t169.5 54t168 -54t67 -134q0 -45 -29 -84t-79 -52v-28q51 -18 79.5 -59t28.5 -87q0 -82 -67 -136t-168 -54zM635 1167q46 0 75 23.5t29 60.5t-29 60.5t-75 23.5
q-47 0 -77 -23.5t-30 -60.5t30.5 -60.5t76.5 -23.5zM635 877q45 0 74.5 24.5t29.5 61.5q0 40 -29 64t-75 24q-48 0 -77.5 -24t-29.5 -64q0 -37 30 -61.5t77 -24.5z" />
    <glyph glyph-name="nine.numr" 
d="M618 762q-102 0 -153.5 46.5t-67.5 133.5h131q22 -65 90 -65q119 0 125 208h-28q-45 -65 -127 -65q-83 0 -137 60.5t-54 154.5t65.5 154.5t166.5 60.5q114 0 177.5 -82.5t63.5 -228.5q0 -185 -64 -281t-188 -96zM629 1135q44 0 73 28t29 72t-29 72t-73 28q-43 0 -72 -28
t-29 -72t29 -72t72 -28z" />
    <glyph glyph-name="zero.sups" 
d="M635 594q-184 0 -282.5 134t-98.5 388t98.5 388t282.5 134q183 0 282 -134.5t99 -387.5t-99 -387.5t-282 -134.5zM635 731q108 0 165.5 97.5t57.5 287.5q0 191 -57.5 288t-165.5 97q-109 0 -167 -96.5t-58 -288.5q0 -191 58 -288t167 -97z" />
    <glyph glyph-name="one.sups" 
d="M295 614v129h299v693h-23q-15 -107 -71.5 -159t-157.5 -52h-47v159h41q99 0 154 61.5t55 172.5h196v-875h232v-129h-678z" />
    <glyph glyph-name="two.sups" 
d="M326 614v209l317 248q93 72 134.5 132t41.5 128q0 80 -49 125t-129 45q-92 0 -144.5 -55t-52.5 -150v-36h-149v40q0 153 94 245.5t252 92.5q148 0 240 -82t92 -217q0 -103 -56 -186.5t-192 -187.5l-250 -193v-22h498v-136h-647z" />
    <glyph glyph-name="three.sups" 
d="M639 594q-158 0 -252 86.5t-94 232.5v17h149v-17q0 -86 53 -137t144 -51q83 0 133.5 45t50.5 119q0 76 -52.5 118t-141.5 42h-51v137h51q89 0 141.5 41.5t52.5 115.5t-50.5 119t-133.5 45q-91 0 -144 -51t-53 -137v-16h-149v18q0 145 93.5 231t252.5 86q152 0 244 -75.5
t92 -200.5q0 -97 -57 -159.5t-152 -74.5v-22q97 -13 153 -77t56 -157q0 -123 -92.5 -200.5t-243.5 -77.5z" />
    <glyph glyph-name="four.sups" 
d="M1024 1104v-137h-190v-353h-148v353h-442v207l372 444h218v-514h190zM369 1104h317v389h-22l-295 -367v-22z" />
    <glyph glyph-name="five.sups" 
d="M629 594q-145 0 -239.5 83t-94.5 204v4h149v-2q0 -63 52.5 -110.5t130.5 -47.5q86 0 139 55t53 146q0 86 -48.5 139t-125.5 53q-114 0 -162 -98h-159v598h647v-137h-508v-357h22q31 57 86.5 88t124.5 31q122 0 199.5 -88t77.5 -227q0 -151 -94 -242.5t-250 -91.5z" />
    <glyph glyph-name="six.sups" 
d="M641 594q-170 0 -266 123.5t-96 343.5q0 577 395 577q139 0 227 -83t88 -214v-8h-149v8q0 72 -49 119t-125 47q-124 0 -184 -106.5t-60 -325.5h22q32 80 95 124t155 44q129 0 212 -88.5t83 -226.5q0 -148 -96.5 -241t-251.5 -93zM643 725q87 0 142 55t55 140
q0 86 -54.5 140t-142.5 54q-85 0 -139.5 -54t-54.5 -140q0 -85 54 -140t140 -55z" />
    <glyph glyph-name="seven.sups" 
d="M395 614l459 844v23h-563v137h688v-211l-422 -793h-162z" />
    <glyph glyph-name="eight.sups" 
d="M633 594q-153 0 -247.5 75.5t-94.5 200.5q0 94 57 158.5t154 77.5v22q-95 12 -153 76t-58 160q0 125 95 199.5t247 74.5q154 0 249 -75t95 -199q0 -93 -57 -158t-156 -78v-22q98 -13 155.5 -78.5t57.5 -157.5q0 -126 -95.5 -201t-248.5 -75zM633 1182q88 0 142 43.5
t54 120.5q0 78 -54 122.5t-142 44.5q-87 0 -141 -45t-54 -122t54.5 -120.5t140.5 -43.5zM633 719q88 0 142 46t54 124q0 77 -54.5 120.5t-141.5 43.5q-86 0 -140.5 -43.5t-54.5 -120.5q0 -78 54 -124t141 -46z" />
    <glyph glyph-name="nine.sups" 
d="M627 1638q171 0 266.5 -124t95.5 -343q0 -577 -395 -577q-139 0 -227 83t-88 214v8h149v-8q0 -72 49 -119t125 -47q124 0 184 106.5t60 325.5h-23q-31 -81 -95.5 -124.5t-154.5 -43.5q-128 0 -211 88.5t-83 227.5q0 149 97 241t251 92zM625 1507q-87 0 -142 -54.5
t-55 -139.5q0 -86 55.5 -140.5t141.5 -54.5t141 54.5t55 140.5q0 85 -55 139.5t-141 54.5z" />
    <glyph glyph-name="exclamdown.case" 
d="M770 1434v-265h-270v265h270zM733 0h-194v1004h194v-1004z" />
    <glyph glyph-name="questiondown.case" 
d="M788 1434v-265h-270v265h270zM752 1004v-105q0 -115 -32 -178.5t-120 -122.5l-80 -53q-102 -68 -102 -191q0 -87 59 -142.5t152 -55.5q117 0 183.5 74.5t66.5 203.5v37h200v-37q0 -218 -119 -340.5t-331 -122.5q-189 0 -305.5 106t-116.5 277q0 93 38.5 170.5
t108.5 124.5l80 53q82 54 102.5 95t20.5 149v58h195z" />
    <glyph glyph-name="period.ss05" 
d="M635 -16q-63 0 -106.5 42.5t-43.5 106.5q0 63 43.5 105.5t106.5 42.5q64 0 106.5 -42.5t42.5 -105.5t-42.5 -106t-106.5 -43z" />
    <glyph glyph-name="comma.ss05" 
d="M496 -309v172q73 0 101.5 25.5t31.5 95.5q-64 2 -106 43.5t-42 105.5q0 61 41.5 104.5t110.5 43.5q71 0 109 -41.5t38 -139.5q0 -80 -17.5 -152.5t-51.5 -130.5t-89.5 -92t-125.5 -34z" />
    <glyph glyph-name="colon.ss05" 
d="M635 711q-63 0 -106.5 42.5t-43.5 106.5q0 63 43.5 105.5t106.5 42.5q64 0 106.5 -42.5t42.5 -105.5t-42.5 -106t-106.5 -43zM635 -16q-63 0 -106.5 42.5t-43.5 106.5q0 63 43.5 105.5t106.5 42.5q64 0 106.5 -42.5t42.5 -105.5t-42.5 -106t-106.5 -43z" />
    <glyph glyph-name="semicolon.ss05" 
d="M635 711q-63 0 -106.5 42.5t-43.5 106.5q0 63 43.5 105.5t106.5 42.5q64 0 106.5 -42.5t42.5 -105.5t-42.5 -106t-106.5 -43zM496 -309v172q73 0 101.5 25.5t31.5 95.5q-64 2 -106 43.5t-42 105.5q0 61 41.5 104.5t110.5 43.5q71 0 109 -41.5t38 -139.5
q0 -80 -17.5 -152.5t-51.5 -130.5t-89.5 -92t-125.5 -34z" />
    <glyph glyph-name="ellipsis.ss05" 
d="M233 -16q-63 0 -106 42.5t-43 106.5q0 63 43 105.5t106 42.5q64 0 107 -42.5t43 -105.5t-43 -106t-107 -43zM635 -16q-63 0 -106.5 42.5t-43.5 106.5q0 63 43.5 105.5t106.5 42.5q64 0 106.5 -42.5t42.5 -105.5t-42.5 -106t-106.5 -43zM1036 -16q-63 0 -106 42.5
t-43 106.5q0 63 43 105.5t106 42.5q64 0 107 -42.5t43 -105.5t-43 -106t-107 -43z" />
    <glyph glyph-name="exclam.ss05" 
d="M537 1434h194v-1004h-194v1004zM635 -16q-63 0 -106.5 42.5t-43.5 106.5q0 63 43.5 105.5t106.5 42.5q64 0 106.5 -42.5t42.5 -105.5t-42.5 -106t-106.5 -43z" />
    <glyph glyph-name="exclamdown.ss05" 
d="M635 1081q64 0 106.5 -43t42.5 -106t-42.5 -105.5t-106.5 -42.5q-63 0 -106.5 42.5t-43.5 105.5q0 64 43.5 106.5t106.5 42.5zM537 -369v1004h194v-1004h-194z" />
    <glyph glyph-name="question.ss05" 
d="M518 430v105q0 115 32 178.5t120 122.5l80 53q102 68 102 190q0 88 -59.5 143.5t-151.5 55.5q-117 0 -183.5 -75t-66.5 -204v-36h-201v36q0 218 119.5 340.5t331.5 122.5q189 0 305.5 -106t116.5 -277q0 -93 -39 -170.5t-109 -124.5l-79 -53q-82 -54 -102.5 -95
t-20.5 -149v-57h-195zM616 -16q-63 0 -106 42.5t-43 106.5q0 63 43 105.5t106 42.5q64 0 107 -42.5t43 -105.5t-43 -106t-107 -43z" />
    <glyph glyph-name="questiondown.ss05" 
d="M653 1081q63 0 106.5 -42.5t43.5 -106.5q0 -63 -43.5 -105.5t-106.5 -42.5q-64 0 -106.5 42.5t-42.5 105.5t42.5 106t106.5 43zM752 635v-105q0 -115 -32 -178.5t-120 -122.5l-80 -53q-102 -68 -102 -190q0 -88 59.5 -143.5t151.5 -55.5q117 0 183.5 75t66.5 204v36h200
v-36q0 -218 -119 -340.5t-331 -122.5q-189 0 -305.5 106t-116.5 277q0 93 38.5 170.5t108.5 124.5l80 53q82 54 102.5 95t20.5 149v57h195z" />
    <glyph glyph-name="periodcentered.ss05" 
d="M635 465q-63 0 -106.5 42.5t-43.5 106.5q0 63 43.5 105.5t106.5 42.5q64 0 106.5 -42.5t42.5 -105.5t-42.5 -106t-106.5 -43z" />
    <glyph glyph-name="bullet.ss05" 
d="M633 391q-93 0 -156 63t-63 156q0 92 63.5 154.5t155.5 62.5q95 0 157 -62t62 -155t-62 -156t-157 -63z" />
    <glyph glyph-name="questiondown.case.ss05" 
d="M653 1462q63 0 106.5 -42.5t43.5 -106.5q0 -63 -43.5 -105.5t-106.5 -42.5q-64 0 -106.5 42.5t-42.5 105.5t42.5 106t106.5 43zM752 1016v-105q0 -115 -32 -178.5t-120 -122.5l-80 -53q-102 -68 -102 -190q0 -88 59.5 -143.5t151.5 -55.5q117 0 183.5 74.5t66.5 203.5v37
h200v-37q0 -218 -119 -340t-331 -122q-189 0 -305.5 106t-116.5 277q0 93 38.5 170.5t108.5 124.5l80 53q82 54 102.5 95t20.5 148v58h195z" />
    <glyph glyph-name="hyphen.case" 
d="M328 610v185h614v-185h-614z" />
    <glyph glyph-name="endash.case" 
d="M1180 788v-174h-1090v174h1090z" />
    <glyph glyph-name="emdash.case" horiz-adv-x="2539" 
d="M0 614v174h2540v-174h-2540z" />
    <glyph glyph-name="guillemotleft.case" 
d="M446 213v102q0 106 -61.5 169t-165.5 63h-14v205h14q104 0 165.5 62.5t61.5 168.5v102h187v-102q0 -149 -72.5 -230t-212.5 -89v-31q140 -11 212.5 -91.5t72.5 -226.5v-102h-187zM856 213v102q0 106 -61.5 169t-165.5 63h-15v205h15q104 0 165.5 62.5t61.5 168.5v102h186
v-102q0 -149 -72 -230t-212 -89v-31q140 -11 212 -91.5t72 -226.5v-102h-186z" />
    <glyph glyph-name="guillemotright.case" 
d="M414 1085v-102q0 -106 61.5 -168.5t165.5 -62.5h14v-205h-14q-104 0 -165.5 -63t-61.5 -169v-102h-187v102q0 149 72.5 230.5t212.5 89.5v31q-140 11 -212.5 91t-72.5 226v102h187zM823 1085v-102q0 -106 62 -168.5t166 -62.5h14v-205h-14q-104 0 -166 -63t-62 -169v-102
h-186v102q0 149 72.5 230.5t212.5 89.5v31q-140 11 -212.5 91t-72.5 226v102h186z" />
    <glyph glyph-name="guilsinglleft.case" 
d="M631 213v102q0 106 -62 169t-166 63h-14v205h14q104 0 166 62.5t62 168.5v102h186v-102q0 -149 -72.5 -230t-212.5 -89v-31q140 -11 212.5 -91.5t72.5 -226.5v-102h-186z" />
    <glyph glyph-name="guilsinglright.case" 
d="M639 1085v-102q0 -106 61.5 -168.5t165.5 -62.5h15v-205h-15q-104 0 -165.5 -63t-61.5 -169v-102h-186v102q0 149 72.5 231t211.5 89v31q-140 11 -212 91t-72 226v102h186z" />
    <glyph glyph-name="quotesinglbase.ss05" 
d="M496 -309v172q73 0 101.5 25.5t31.5 95.5q-64 2 -106 43.5t-42 105.5q0 61 41.5 104.5t110.5 43.5q71 0 109 -41.5t38 -139.5q0 -80 -17.5 -152.5t-51.5 -130.5t-89.5 -92t-125.5 -34z" />
    <glyph glyph-name="quotedblbase.ss05" 
d="M305 -309v172q73 0 101.5 25.5t31.5 95.5q-64 2 -105.5 43.5t-41.5 105.5q0 61 41 104.5t110 43.5q71 0 109.5 -41.5t38.5 -139.5q0 -109 -30 -199.5t-96.5 -150t-158.5 -59.5zM686 -309v172q73 0 101.5 25.5t31.5 95.5q-64 2 -105.5 43.5t-41.5 105.5q0 61 41 104.5
t110 43.5q71 0 109.5 -41.5t38.5 -139.5q0 -109 -30 -199.5t-96.5 -150t-158.5 -59.5z" />
    <glyph glyph-name="quotedblleft.ss05" 
d="M584 1487v-172q-73 0 -101.5 -25.5t-31.5 -95.5q63 -2 105 -44t42 -106q0 -61 -41.5 -104t-110.5 -43q-71 0 -109 41t-38 139q0 109 30 199.5t96.5 150.5t158.5 60zM965 1487v-172q-73 0 -102 -25.5t-32 -95.5q64 -2 106 -44t42 -106q0 -61 -41.5 -104t-110.5 -43
q-71 0 -109 41t-38 139q0 109 30 199.5t96.5 150.5t158.5 60z" />
    <glyph glyph-name="quotedblright.ss05" 
d="M305 909v172q73 0 101.5 25.5t31.5 95.5q-63 2 -105 44t-42 106q0 61 41 104t110 43q71 0 109.5 -41.5t38.5 -138.5q0 -109 -30 -199.5t-96.5 -150.5t-158.5 -60zM686 909v172q73 0 101.5 25.5t31.5 95.5q-63 2 -105 44t-42 106q0 61 41 104t110 43q71 0 109.5 -41.5
t38.5 -138.5q0 -109 -30 -199.5t-96.5 -150.5t-158.5 -60z" />
    <glyph glyph-name="quoteleft.ss05" 
d="M774 1487v-172q-73 0 -101.5 -25.5t-31.5 -95.5q63 -2 105 -44t42 -106q0 -61 -41 -104t-110 -43q-71 0 -109.5 41.5t-38.5 138.5q0 109 30 199.5t96.5 150.5t158.5 60z" />
    <glyph glyph-name="quoteright.ss05" 
d="M496 909v172q73 0 101.5 25.5t31.5 95.5q-64 2 -106 44t-42 106q0 61 41.5 104t110.5 43q71 0 109 -41t38 -139q0 -80 -17.5 -152.5t-51.5 -130.5t-89.5 -92.5t-125.5 -34.5z" />
    <glyph glyph-name="quotedbl.ss05" 
d="M416 952l-88 265q-27 83 -27 131q0 57 41 97t100 40t100.5 -40t41.5 -97q0 -52 -27 -131l-88 -265h-53zM795 952l-88 265q-27 83 -27 131q0 57 41 97t100 40t100.5 -40t41.5 -97q0 -52 -27 -131l-88 -265h-53z" />
    <glyph glyph-name="quotesingle.ss05" 
d="M606 952l-88 265q-26 80 -26 131q0 57 41 97t100 40t100 -40t41 -97q0 -54 -26 -131l-89 -265h-53z" />
    <glyph glyph-name="parenleft.dnom" 
d="M840 -158q-184 39 -297 172t-113 299q0 163 112 297.5t298 173.5v-108q-279 -100 -279 -363q0 -267 279 -362v-109z" />
    <glyph glyph-name="parenright.dnom" 
d="M430 784q184 -39 297 -172t113 -299q0 -163 -112 -297.5t-298 -173.5v109q140 50 209.5 138.5t69.5 223.5q0 268 -279 363v108z" />
    <glyph glyph-name="parenleft.numr" 
d="M840 621q-184 39 -297 172t-113 299q0 163 112 297.5t298 173.5v-109q-140 -50 -209.5 -138.5t-69.5 -223.5q0 -268 279 -363v-108z" />
    <glyph glyph-name="parenright.numr" 
d="M430 1563q184 -39 297 -172t113 -299q0 -163 -112 -297.5t-298 -173.5v108q279 100 279 363q0 267 -279 362v109z" />
    <glyph glyph-name="divide.ss05" 
d="M635 807q-62 0 -104 41t-42 104q0 61 42 102.5t104 41.5q63 0 104 -41t41 -103t-41 -103.5t-104 -41.5zM137 502v184h998v-184h-998zM635 70q-62 0 -104 41t-42 104q0 61 42 102t104 41q63 0 104 -40.5t41 -102.5t-41 -103.5t-104 -41.5z" />
    <glyph glyph-name="arrowup.ss03" 
d="M553 -41v1135h-31q-56 -195 -266 -195h-113v184h113q127 0 207 111t80 260h184q0 -149 80 -260t207 -111h112v-184h-112q-207 0 -266 195h-31v-1135h-164z" />
    <glyph glyph-name="uni2197.ss03" 
d="M289 528l-117 117l526 526l-22 21q-173 -96 -326 51l-80 78l131 131l80 -80q60 -60 145 -69.5t168.5 26t151.5 103.5l131 -132q-68 -67 -103.5 -150t-25.5 -167.5t70 -144.5l80 -80l-131 -131l-80 80q-146 146 -51 325l-21 23z" />
    <glyph glyph-name="arrowright.ss03" 
d="M633 184v113q0 210 194 266v31h-745v164h745v30q-194 59 -194 267v112h184v-112q0 -127 111 -207t260 -80v-184q-149 0 -260 -80t-111 -207v-113h-184z" />
    <glyph glyph-name="uni2198.ss03" 
d="M401 -20l-131 131l80 77q77 74 154.5 87.5t171.5 -35.5l22 20l-526 526l117 117l526 -526l21 22q-95 180 51 326l80 80l131 -131l-80 -80q-60 -60 -70 -145t25.5 -168t103.5 -150l-131 -131q-68 68 -151.5 103.5t-168.5 25.5t-145 -70z" />
    <glyph glyph-name="arrowdown.ss03" 
d="M543 -20q0 149 -80 259.5t-207 110.5h-113v185h113q210 0 266 -195h31v1135h164v-1135h31q59 195 266 195h112v-185h-112q-127 0 -207 -110.5t-80 -259.5h-184z" />
    <glyph glyph-name="uni2199.ss03" 
d="M868 -20l-80 79q-60 60 -144.5 70t-168 -25.5t-151.5 -103.5l-131 131q68 67 103.5 150t25.5 168t-70 145l-80 80l131 131l80 -80q146 -146 51 -326l21 -22l526 526l117 -117l-527 -526l23 -20q94 49 171.5 35.5t154.5 -87.5l79 -77z" />
    <glyph glyph-name="arrowleft.ss03" 
d="M453 184v113q0 127 -111 207t-260 80v184q149 0 260 80t111 207v112h184v-112q0 -208 -195 -267v-30h746v-164h-746v-31q195 -56 195 -266v-113h-184z" />
    <glyph glyph-name="uni2196.ss03" 
d="M981 528l-526 527l-21 -23q95 -179 -51 -325l-80 -80l-131 131l80 80q60 60 70 144.5t-25.5 167.5t-103.5 150l131 132q68 -68 151.5 -103.5t168 -26t144.5 69.5l80 80l131 -131l-79 -78q-153 -147 -326 -51l-23 -21l527 -526z" />
    <glyph glyph-name="arrowboth.ss03" 
d="M319 287v71q0 100 -80 163t-188 63v184q108 0 188 62.5t80 162.5v72h185v-72q0 -160 -174 -205v-30h610v30q-174 45 -174 205v72h184v-72q0 -100 80.5 -162.5t188.5 -62.5v-184q-108 0 -188.5 -63t-80.5 -163v-71h-184v71q0 160 174 205v31h-610v-31q174 -45 174 -205
v-71h-185z" />
    <glyph glyph-name="arrowupdn.ss03" 
d="M543 -20q0 108 -63 188t-163 80h-71v184h71q160 0 205 -174h31v918h-31q-45 -175 -205 -175h-71v185h71q100 0 163 80t63 188h184q0 -108 62.5 -188t162.5 -80h72v-185h-72q-159 0 -204 175h-31v-918h31q23 90 73.5 132t130.5 42h72v-184h-72q-100 0 -162.5 -80
t-62.5 -188h-184z" />
    <glyph glyph-name="registered.alt" 
d="M635 586q-198 0 -328.5 124.5t-130.5 313.5t130.5 313.5t328.5 124.5t328.5 -124.5t130.5 -313.5t-130.5 -313.5t-328.5 -124.5zM635 684q149 0 248.5 97t99.5 243t-99.5 243t-248.5 97t-248.5 -97t-99.5 -243t99.5 -243t248.5 -97zM469 791v466h205q74 0 118 -36t44 -97
q0 -62 -34 -95t-110 -40v-14l23 -8l121 -176h-119l-121 188h-25v-188h-102zM571 1065h88q68 0 68 51q0 22 -14 34.5t-39 12.5h-103v-98z" />
    <glyph glyph-name="at.case" 
d="M643 -55q-267 0 -415 202t-148 566q0 362 148.5 565t414.5 203q264 0 405.5 -177.5t141.5 -508.5q0 -204 -61 -326.5t-162 -122.5q-68 0 -95.5 45t-33.5 168h-31q-9 -104 -60 -163.5t-131 -59.5q-115 0 -185.5 104t-70.5 273t70 268.5t188 99.5q74 0 121 -54t60 -155h30
l-30 177h112v-510q0 -80 56 -80q46 0 71 87.5t25 248.5q0 278 -106.5 420.5t-313.5 142.5q-203 0 -316.5 -170t-113.5 -475q0 -301 114.5 -473t315.5 -172q117 0 209 35t174 110v-143q-165 -125 -383 -125zM631 459q65 0 101 66t36 184q0 117 -36.5 183t-100.5 66
q-137 0 -137 -245q0 -254 137 -254z" />
    <glyph glyph-name="bar.case" 
d="M543 -143v1699h184v-1699h-184z" />
    <glyph glyph-name="brokenbar.case" 
d="M543 809v747h184v-747h-184zM543 -143v747h184v-747h-184z" />
    <glyph glyph-name="plus.dnom" 
d="M582 39v192h-230v95h230v184h104v-184h232v-95h-232v-192h-104z" />
    <glyph glyph-name="minus.dnom" 
d="M354 227v97h561v-97h-561z" />
    <glyph glyph-name="equal.dnom" 
d="M354 332v94h561v-94h-561zM354 123v96h561v-96h-561z" />
    <glyph glyph-name="plus.numr" 
d="M582 817v193h-230v94h230v184h104v-184h232v-94h-232v-193h-104z" />
    <glyph glyph-name="minus.numr" 
d="M354 1006v96h561v-96h-561z" />
    <glyph glyph-name="equal.numr" 
d="M354 1110v94h561v-94h-561zM354 901v96h561v-96h-561z" />
    <glyph glyph-name="divide_dots.ss05" 
d="M635 807q-62 0 -104 41t-42 104q0 61 42 102.5t104 41.5q63 0 104 -41t41 -103t-41 -103.5t-104 -41.5zM635 70q-62 0 -104 41t-42 104q0 61 42 102t104 41q63 0 104 -40.5t41 -102.5t-41 -103.5t-104 -41.5z" />
  </font>
</defs>
</svg>
